; NON-PLATED HOLES START AT T1
; THROUGH (PLATED) HOLES START AT T100
M48
INCH
T100C0.035000
T101C0.031496
T102C0.038000
T103C0.015748
%
T100
X011591Y006602
X015591Y006602
X013591Y006602
X006591Y004182
X002591Y004182
X006591Y000682
X004591Y000682
X002591Y000682
X000591Y000682
X001591Y000602
X008591Y000682
X009591Y000602
X007591Y000602
X005591Y000602
X003591Y000602
X014591Y000682
X012591Y000682
X010591Y000682
X011591Y000602
X015591Y000602
X013591Y000602
X006591Y006682
X004591Y006682
X002591Y006682
X000591Y006682
X001591Y006602
X006591Y003182
X002591Y003182
X008591Y006682
X009591Y006602
X007591Y006602
X005591Y006602
X003591Y006602
X014591Y006682
X012591Y006682
X010591Y006682
T101
X009673Y002088
X010618Y002088
X009673Y003088
X010618Y003088
X011563Y002088
X011563Y003088
T102
X020902Y000725
X021902Y000725
X019902Y000725
X029044Y005615
X022902Y000725
X029044Y000615
X023902Y000725
X029044Y001615
X024902Y000725
X029044Y002615
X025902Y000725
X029044Y003615
X026902Y000725
X029044Y004615
T103
X028335Y000725
X025736Y004033
X009591Y005682
X022833Y004095
X009588Y005182
X025028Y001670
X021721Y004505
X028335Y003560
X025035Y003088
X019831Y002379
T00
M30
