G04 MADE WITH FRITZING*
G04 WWW.FRITZING.ORG*
G04 DOUBLE SIDED*
G04 HOLES PLATED*
G04 CONTOUR ON CENTER OF CONTOUR VECTOR*
%ASAXBY*%
%FSLAX23Y23*%
%MOIN*%
%OFA0B0*%
%SFA1.0B1.0*%
%ADD10C,0.049370*%
%ADD11C,0.088000*%
%ADD12C,0.061496*%
%ADD13C,0.065000*%
%ADD14C,0.085000*%
%LNMASK1*%
G90*
G70*
G54D10*
X2834Y356D03*
X2834Y73D03*
X959Y568D03*
X959Y518D03*
G54D11*
X2904Y162D03*
X2904Y62D03*
X2904Y362D03*
X2904Y262D03*
X2904Y562D03*
X2904Y462D03*
G54D12*
X1156Y309D03*
X1156Y209D03*
X1156Y309D03*
X1156Y209D03*
X1062Y309D03*
X1062Y209D03*
X1062Y309D03*
X1062Y209D03*
X967Y309D03*
X967Y209D03*
X967Y309D03*
X967Y209D03*
G54D13*
X59Y68D03*
X159Y60D03*
X259Y68D03*
X359Y60D03*
X459Y68D03*
X559Y60D03*
X659Y68D03*
X759Y60D03*
X859Y68D03*
X959Y60D03*
X1059Y68D03*
X1159Y60D03*
X1259Y68D03*
X1359Y60D03*
X1459Y68D03*
X1559Y60D03*
X59Y68D03*
X159Y60D03*
X259Y68D03*
X359Y60D03*
X459Y68D03*
X559Y60D03*
X659Y68D03*
X759Y60D03*
X859Y68D03*
X959Y60D03*
X1059Y68D03*
X1159Y60D03*
X1259Y68D03*
X1359Y60D03*
X1459Y68D03*
X1559Y60D03*
X59Y668D03*
X159Y660D03*
X259Y668D03*
X359Y660D03*
X459Y668D03*
X559Y660D03*
X659Y668D03*
X759Y660D03*
X859Y668D03*
X959Y660D03*
X1059Y668D03*
X1159Y660D03*
X1259Y668D03*
X1359Y660D03*
X1459Y668D03*
X1559Y660D03*
X59Y668D03*
X159Y660D03*
X259Y668D03*
X359Y660D03*
X459Y668D03*
X559Y660D03*
X659Y668D03*
X759Y660D03*
X859Y668D03*
X959Y660D03*
X1059Y668D03*
X1159Y660D03*
X1259Y668D03*
X1359Y660D03*
X1459Y668D03*
X1559Y660D03*
G54D11*
X1990Y73D03*
X2090Y73D03*
X2190Y73D03*
X2290Y73D03*
X2390Y73D03*
X2490Y73D03*
X2590Y73D03*
X2690Y73D03*
G54D10*
X1983Y238D03*
X2503Y167D03*
X2574Y403D03*
X2283Y410D03*
X2504Y309D03*
X2172Y451D03*
G54D14*
X259Y318D03*
X659Y318D03*
X259Y418D03*
X659Y418D03*
G04 End of Mask1*
M02*