G04 MADE WITH FRITZING*
G04 WWW.FRITZING.ORG*
G04 DOUBLE SIDED*
G04 HOLES PLATED*
G04 CONTOUR ON CENTER OF CONTOUR VECTOR*
%ASAXBY*%
%FSLAX23Y23*%
%MOIN*%
%OFA0B0*%
%SFA1.0B1.0*%
%ADD10C,0.010000*%
%ADD11C,0.005000*%
%ADD12C,0.008000*%
%ADD13R,0.001000X0.001000*%
%LNSILK1*%
G90*
G70*
G54D10*
X2854Y12D02*
X2954Y12D01*
D02*
X2954Y12D02*
X2954Y212D01*
D02*
X2954Y212D02*
X2854Y212D01*
G54D11*
D02*
X2854Y177D02*
X2889Y212D01*
G54D10*
D02*
X2854Y212D02*
X2954Y212D01*
D02*
X2954Y212D02*
X2954Y412D01*
D02*
X2954Y412D02*
X2854Y412D01*
G54D11*
D02*
X2854Y377D02*
X2889Y412D01*
G54D10*
D02*
X2854Y612D02*
X2854Y412D01*
D02*
X2854Y412D02*
X2954Y412D01*
D02*
X2954Y412D02*
X2954Y612D01*
D02*
X2954Y612D02*
X2854Y612D01*
G54D11*
D02*
X2854Y577D02*
X2889Y612D01*
D02*
X1126Y344D02*
X1186Y344D01*
D02*
X1186Y289D02*
X1186Y274D01*
D02*
X1186Y274D02*
X1186Y244D01*
D02*
X1186Y244D02*
X1186Y229D01*
D02*
X1186Y174D02*
X1126Y174D01*
D02*
X1126Y244D02*
X1126Y274D01*
D02*
X1156Y244D02*
X1126Y274D01*
D02*
X1126Y274D02*
X1186Y274D01*
D02*
X1186Y274D02*
X1156Y244D01*
D02*
X1156Y244D02*
X1126Y244D01*
D02*
X1156Y244D02*
X1186Y244D01*
D02*
X1032Y344D02*
X1092Y344D01*
D02*
X1092Y289D02*
X1092Y274D01*
D02*
X1092Y274D02*
X1092Y244D01*
D02*
X1092Y244D02*
X1092Y229D01*
D02*
X1092Y174D02*
X1032Y174D01*
D02*
X1032Y244D02*
X1032Y274D01*
D02*
X1062Y244D02*
X1032Y274D01*
D02*
X1032Y274D02*
X1092Y274D01*
D02*
X1092Y274D02*
X1062Y244D01*
D02*
X1062Y244D02*
X1032Y244D01*
D02*
X1062Y244D02*
X1092Y244D01*
D02*
X937Y344D02*
X997Y344D01*
D02*
X997Y289D02*
X997Y274D01*
D02*
X997Y274D02*
X997Y244D01*
D02*
X997Y244D02*
X997Y229D01*
D02*
X997Y174D02*
X937Y174D01*
D02*
X937Y244D02*
X937Y274D01*
D02*
X967Y244D02*
X937Y274D01*
D02*
X937Y274D02*
X997Y274D01*
D02*
X997Y274D02*
X967Y244D01*
D02*
X967Y244D02*
X937Y244D01*
D02*
X967Y244D02*
X997Y244D01*
G54D12*
D02*
X509Y89D02*
X534Y114D01*
D02*
X534Y114D02*
X584Y114D01*
D02*
X584Y114D02*
X609Y89D01*
D02*
X609Y39D02*
X584Y14D01*
D02*
X584Y14D02*
X534Y14D01*
D02*
X534Y14D02*
X509Y39D01*
D02*
X334Y114D02*
X384Y114D01*
D02*
X384Y114D02*
X409Y89D01*
D02*
X409Y39D02*
X384Y14D01*
D02*
X409Y89D02*
X434Y114D01*
D02*
X434Y114D02*
X484Y114D01*
D02*
X484Y114D02*
X509Y89D01*
D02*
X509Y39D02*
X484Y14D01*
D02*
X484Y14D02*
X434Y14D01*
D02*
X434Y14D02*
X409Y39D01*
D02*
X209Y89D02*
X234Y114D01*
D02*
X234Y114D02*
X284Y114D01*
D02*
X284Y114D02*
X309Y89D01*
D02*
X309Y39D02*
X284Y14D01*
D02*
X284Y14D02*
X234Y14D01*
D02*
X234Y14D02*
X209Y39D01*
D02*
X334Y114D02*
X309Y89D01*
D02*
X309Y39D02*
X334Y14D01*
D02*
X384Y14D02*
X334Y14D01*
D02*
X34Y114D02*
X84Y114D01*
D02*
X84Y114D02*
X109Y89D01*
D02*
X109Y39D02*
X84Y14D01*
D02*
X109Y89D02*
X134Y114D01*
D02*
X134Y114D02*
X184Y114D01*
D02*
X184Y114D02*
X209Y89D01*
D02*
X209Y39D02*
X184Y14D01*
D02*
X184Y14D02*
X134Y14D01*
D02*
X134Y14D02*
X109Y39D01*
D02*
X9Y89D02*
X9Y39D01*
D02*
X34Y114D02*
X9Y89D01*
D02*
X9Y39D02*
X34Y14D01*
D02*
X84Y14D02*
X34Y14D01*
D02*
X1109Y89D02*
X1134Y114D01*
D02*
X1134Y114D02*
X1184Y114D01*
D02*
X1184Y114D02*
X1209Y89D01*
D02*
X1209Y39D02*
X1184Y14D01*
D02*
X1184Y14D02*
X1134Y14D01*
D02*
X1134Y14D02*
X1109Y39D01*
D02*
X934Y114D02*
X984Y114D01*
D02*
X984Y114D02*
X1009Y89D01*
D02*
X1009Y39D02*
X984Y14D01*
D02*
X1009Y89D02*
X1034Y114D01*
D02*
X1034Y114D02*
X1084Y114D01*
D02*
X1084Y114D02*
X1109Y89D01*
D02*
X1109Y39D02*
X1084Y14D01*
D02*
X1084Y14D02*
X1034Y14D01*
D02*
X1034Y14D02*
X1009Y39D01*
D02*
X809Y89D02*
X834Y114D01*
D02*
X834Y114D02*
X884Y114D01*
D02*
X884Y114D02*
X909Y89D01*
D02*
X909Y39D02*
X884Y14D01*
D02*
X884Y14D02*
X834Y14D01*
D02*
X834Y14D02*
X809Y39D01*
D02*
X934Y114D02*
X909Y89D01*
D02*
X909Y39D02*
X934Y14D01*
D02*
X984Y14D02*
X934Y14D01*
D02*
X634Y114D02*
X684Y114D01*
D02*
X684Y114D02*
X709Y89D01*
D02*
X709Y39D02*
X684Y14D01*
D02*
X709Y89D02*
X734Y114D01*
D02*
X734Y114D02*
X784Y114D01*
D02*
X784Y114D02*
X809Y89D01*
D02*
X809Y39D02*
X784Y14D01*
D02*
X784Y14D02*
X734Y14D01*
D02*
X734Y14D02*
X709Y39D01*
D02*
X634Y114D02*
X609Y89D01*
D02*
X609Y39D02*
X634Y14D01*
D02*
X684Y14D02*
X634Y14D01*
D02*
X1509Y89D02*
X1534Y114D01*
D02*
X1534Y114D02*
X1584Y114D01*
D02*
X1584Y114D02*
X1609Y89D01*
D02*
X1609Y39D02*
X1584Y14D01*
D02*
X1584Y14D02*
X1534Y14D01*
D02*
X1534Y14D02*
X1509Y39D01*
D02*
X1334Y114D02*
X1384Y114D01*
D02*
X1384Y114D02*
X1409Y89D01*
D02*
X1409Y39D02*
X1384Y14D01*
D02*
X1409Y89D02*
X1434Y114D01*
D02*
X1434Y114D02*
X1484Y114D01*
D02*
X1484Y114D02*
X1509Y89D01*
D02*
X1509Y39D02*
X1484Y14D01*
D02*
X1484Y14D02*
X1434Y14D01*
D02*
X1434Y14D02*
X1409Y39D01*
D02*
X1209Y89D02*
X1234Y114D01*
D02*
X1234Y114D02*
X1284Y114D01*
D02*
X1284Y114D02*
X1309Y89D01*
D02*
X1309Y39D02*
X1284Y14D01*
D02*
X1284Y14D02*
X1234Y14D01*
D02*
X1234Y14D02*
X1209Y39D01*
D02*
X1334Y114D02*
X1309Y89D01*
D02*
X1309Y39D02*
X1334Y14D01*
D02*
X1384Y14D02*
X1334Y14D01*
D02*
X1184Y114D02*
X1209Y89D01*
D02*
X1209Y39D02*
X1184Y14D01*
D02*
X1609Y89D02*
X1609Y39D01*
D02*
X509Y689D02*
X534Y714D01*
D02*
X534Y714D02*
X584Y714D01*
D02*
X584Y714D02*
X609Y689D01*
D02*
X609Y639D02*
X584Y614D01*
D02*
X584Y614D02*
X534Y614D01*
D02*
X534Y614D02*
X509Y639D01*
D02*
X334Y714D02*
X384Y714D01*
D02*
X384Y714D02*
X409Y689D01*
D02*
X409Y639D02*
X384Y614D01*
D02*
X409Y689D02*
X434Y714D01*
D02*
X434Y714D02*
X484Y714D01*
D02*
X484Y714D02*
X509Y689D01*
D02*
X509Y639D02*
X484Y614D01*
D02*
X484Y614D02*
X434Y614D01*
D02*
X434Y614D02*
X409Y639D01*
D02*
X209Y689D02*
X234Y714D01*
D02*
X234Y714D02*
X284Y714D01*
D02*
X284Y714D02*
X309Y689D01*
D02*
X309Y639D02*
X284Y614D01*
D02*
X284Y614D02*
X234Y614D01*
D02*
X234Y614D02*
X209Y639D01*
D02*
X334Y714D02*
X309Y689D01*
D02*
X309Y639D02*
X334Y614D01*
D02*
X384Y614D02*
X334Y614D01*
D02*
X34Y714D02*
X84Y714D01*
D02*
X84Y714D02*
X109Y689D01*
D02*
X109Y639D02*
X84Y614D01*
D02*
X109Y689D02*
X134Y714D01*
D02*
X134Y714D02*
X184Y714D01*
D02*
X184Y714D02*
X209Y689D01*
D02*
X209Y639D02*
X184Y614D01*
D02*
X184Y614D02*
X134Y614D01*
D02*
X134Y614D02*
X109Y639D01*
D02*
X9Y689D02*
X9Y639D01*
D02*
X34Y714D02*
X9Y689D01*
D02*
X9Y639D02*
X34Y614D01*
D02*
X84Y614D02*
X34Y614D01*
D02*
X1109Y689D02*
X1134Y714D01*
D02*
X1134Y714D02*
X1184Y714D01*
D02*
X1184Y714D02*
X1209Y689D01*
D02*
X1209Y639D02*
X1184Y614D01*
D02*
X1184Y614D02*
X1134Y614D01*
D02*
X1134Y614D02*
X1109Y639D01*
D02*
X934Y714D02*
X984Y714D01*
D02*
X984Y714D02*
X1009Y689D01*
D02*
X1009Y639D02*
X984Y614D01*
D02*
X1009Y689D02*
X1034Y714D01*
D02*
X1034Y714D02*
X1084Y714D01*
D02*
X1084Y714D02*
X1109Y689D01*
D02*
X1109Y639D02*
X1084Y614D01*
D02*
X1084Y614D02*
X1034Y614D01*
D02*
X1034Y614D02*
X1009Y639D01*
D02*
X809Y689D02*
X834Y714D01*
D02*
X834Y714D02*
X884Y714D01*
D02*
X884Y714D02*
X909Y689D01*
D02*
X909Y639D02*
X884Y614D01*
D02*
X884Y614D02*
X834Y614D01*
D02*
X834Y614D02*
X809Y639D01*
D02*
X934Y714D02*
X909Y689D01*
D02*
X909Y639D02*
X934Y614D01*
D02*
X984Y614D02*
X934Y614D01*
D02*
X634Y714D02*
X684Y714D01*
D02*
X684Y714D02*
X709Y689D01*
D02*
X709Y639D02*
X684Y614D01*
D02*
X709Y689D02*
X734Y714D01*
D02*
X734Y714D02*
X784Y714D01*
D02*
X784Y714D02*
X809Y689D01*
D02*
X809Y639D02*
X784Y614D01*
D02*
X784Y614D02*
X734Y614D01*
D02*
X734Y614D02*
X709Y639D01*
D02*
X634Y714D02*
X609Y689D01*
D02*
X609Y639D02*
X634Y614D01*
D02*
X684Y614D02*
X634Y614D01*
D02*
X1509Y689D02*
X1534Y714D01*
D02*
X1534Y714D02*
X1584Y714D01*
D02*
X1584Y714D02*
X1609Y689D01*
D02*
X1609Y639D02*
X1584Y614D01*
D02*
X1584Y614D02*
X1534Y614D01*
D02*
X1534Y614D02*
X1509Y639D01*
D02*
X1334Y714D02*
X1384Y714D01*
D02*
X1384Y714D02*
X1409Y689D01*
D02*
X1409Y639D02*
X1384Y614D01*
D02*
X1409Y689D02*
X1434Y714D01*
D02*
X1434Y714D02*
X1484Y714D01*
D02*
X1484Y714D02*
X1509Y689D01*
D02*
X1509Y639D02*
X1484Y614D01*
D02*
X1484Y614D02*
X1434Y614D01*
D02*
X1434Y614D02*
X1409Y639D01*
D02*
X1209Y689D02*
X1234Y714D01*
D02*
X1234Y714D02*
X1284Y714D01*
D02*
X1284Y714D02*
X1309Y689D01*
D02*
X1309Y639D02*
X1284Y614D01*
D02*
X1284Y614D02*
X1234Y614D01*
D02*
X1234Y614D02*
X1209Y639D01*
D02*
X1334Y714D02*
X1309Y689D01*
D02*
X1309Y639D02*
X1334Y614D01*
D02*
X1384Y614D02*
X1334Y614D01*
D02*
X1184Y714D02*
X1209Y689D01*
D02*
X1209Y639D02*
X1184Y614D01*
D02*
X1609Y689D02*
X1609Y639D01*
G54D10*
D02*
X1940Y23D02*
X2140Y23D01*
D02*
X2140Y23D02*
X2140Y123D01*
D02*
X2140Y123D02*
X1940Y123D01*
D02*
X1940Y123D02*
X1940Y23D01*
G54D11*
D02*
X1975Y23D02*
X1940Y58D01*
G54D10*
D02*
X2140Y23D02*
X2340Y23D01*
D02*
X2340Y23D02*
X2340Y123D01*
D02*
X2340Y123D02*
X2140Y123D01*
D02*
X2140Y123D02*
X2140Y23D01*
G54D11*
D02*
X2175Y23D02*
X2140Y58D01*
G54D10*
D02*
X2340Y23D02*
X2540Y23D01*
D02*
X2540Y23D02*
X2540Y123D01*
D02*
X2540Y123D02*
X2340Y123D01*
D02*
X2340Y123D02*
X2340Y23D01*
G54D11*
D02*
X2375Y23D02*
X2340Y58D01*
G54D10*
D02*
X2540Y23D02*
X2740Y23D01*
D02*
X2740Y23D02*
X2740Y123D01*
D02*
X2740Y123D02*
X2540Y123D01*
D02*
X2540Y123D02*
X2540Y23D01*
G54D11*
D02*
X2575Y23D02*
X2540Y58D01*
G54D10*
D02*
X369Y351D02*
X569Y351D01*
D02*
X569Y351D02*
X569Y285D01*
D02*
X569Y285D02*
X369Y285D01*
D02*
X369Y285D02*
X369Y351D01*
D02*
X369Y451D02*
X569Y451D01*
D02*
X569Y451D02*
X569Y385D01*
D02*
X569Y385D02*
X369Y385D01*
D02*
X369Y385D02*
X369Y451D01*
G54D13*
X0Y727D02*
X2967Y727D01*
X0Y726D02*
X2967Y726D01*
X0Y725D02*
X2967Y725D01*
X0Y724D02*
X2967Y724D01*
X0Y723D02*
X2967Y723D01*
X0Y722D02*
X2967Y722D01*
X0Y721D02*
X2967Y721D01*
X0Y720D02*
X2967Y720D01*
X0Y719D02*
X7Y719D01*
X2960Y719D02*
X2967Y719D01*
X0Y718D02*
X7Y718D01*
X2960Y718D02*
X2967Y718D01*
X0Y717D02*
X7Y717D01*
X2960Y717D02*
X2967Y717D01*
X0Y716D02*
X7Y716D01*
X2960Y716D02*
X2967Y716D01*
X0Y715D02*
X7Y715D01*
X2960Y715D02*
X2967Y715D01*
X0Y714D02*
X7Y714D01*
X2960Y714D02*
X2967Y714D01*
X0Y713D02*
X7Y713D01*
X2960Y713D02*
X2967Y713D01*
X0Y712D02*
X7Y712D01*
X2960Y712D02*
X2967Y712D01*
X0Y711D02*
X7Y711D01*
X2960Y711D02*
X2967Y711D01*
X0Y710D02*
X7Y710D01*
X2960Y710D02*
X2967Y710D01*
X0Y709D02*
X7Y709D01*
X2960Y709D02*
X2967Y709D01*
X0Y708D02*
X7Y708D01*
X2960Y708D02*
X2967Y708D01*
X0Y707D02*
X7Y707D01*
X2960Y707D02*
X2967Y707D01*
X0Y706D02*
X7Y706D01*
X2960Y706D02*
X2967Y706D01*
X0Y705D02*
X7Y705D01*
X2960Y705D02*
X2967Y705D01*
X0Y704D02*
X7Y704D01*
X2960Y704D02*
X2967Y704D01*
X0Y703D02*
X7Y703D01*
X2960Y703D02*
X2967Y703D01*
X0Y702D02*
X7Y702D01*
X2960Y702D02*
X2967Y702D01*
X0Y701D02*
X7Y701D01*
X2960Y701D02*
X2967Y701D01*
X0Y700D02*
X7Y700D01*
X2960Y700D02*
X2967Y700D01*
X0Y699D02*
X7Y699D01*
X2960Y699D02*
X2967Y699D01*
X0Y698D02*
X7Y698D01*
X2960Y698D02*
X2967Y698D01*
X0Y697D02*
X7Y697D01*
X2960Y697D02*
X2967Y697D01*
X0Y696D02*
X7Y696D01*
X2960Y696D02*
X2967Y696D01*
X0Y695D02*
X7Y695D01*
X2960Y695D02*
X2967Y695D01*
X0Y694D02*
X7Y694D01*
X2960Y694D02*
X2967Y694D01*
X0Y693D02*
X7Y693D01*
X2960Y693D02*
X2967Y693D01*
X0Y692D02*
X7Y692D01*
X2960Y692D02*
X2967Y692D01*
X0Y691D02*
X7Y691D01*
X2960Y691D02*
X2967Y691D01*
X0Y690D02*
X7Y690D01*
X2960Y690D02*
X2967Y690D01*
X0Y689D02*
X7Y689D01*
X1688Y689D02*
X1712Y689D01*
X2089Y689D02*
X2101Y689D01*
X2130Y689D02*
X2134Y689D01*
X2443Y689D02*
X2469Y689D01*
X2587Y689D02*
X2622Y689D01*
X2960Y689D02*
X2967Y689D01*
X0Y688D02*
X7Y688D01*
X1686Y688D02*
X1714Y688D01*
X2089Y688D02*
X2102Y688D01*
X2129Y688D02*
X2135Y688D01*
X2442Y688D02*
X2469Y688D01*
X2585Y688D02*
X2624Y688D01*
X2960Y688D02*
X2967Y688D01*
X0Y687D02*
X7Y687D01*
X1684Y687D02*
X1714Y687D01*
X2089Y687D02*
X2102Y687D01*
X2128Y687D02*
X2136Y687D01*
X2441Y687D02*
X2469Y687D01*
X2584Y687D02*
X2625Y687D01*
X2960Y687D02*
X2967Y687D01*
X0Y686D02*
X7Y686D01*
X1683Y686D02*
X1715Y686D01*
X2089Y686D02*
X2103Y686D01*
X2128Y686D02*
X2136Y686D01*
X2441Y686D02*
X2469Y686D01*
X2583Y686D02*
X2626Y686D01*
X2960Y686D02*
X2967Y686D01*
X0Y685D02*
X7Y685D01*
X1682Y685D02*
X1715Y685D01*
X2089Y685D02*
X2103Y685D01*
X2128Y685D02*
X2137Y685D01*
X2312Y685D02*
X2316Y685D01*
X2441Y685D02*
X2469Y685D01*
X2583Y685D02*
X2627Y685D01*
X2960Y685D02*
X2967Y685D01*
X0Y684D02*
X7Y684D01*
X1681Y684D02*
X1715Y684D01*
X2089Y684D02*
X2104Y684D01*
X2128Y684D02*
X2137Y684D01*
X2311Y684D02*
X2317Y684D01*
X2441Y684D02*
X2469Y684D01*
X2582Y684D02*
X2628Y684D01*
X2960Y684D02*
X2967Y684D01*
X0Y683D02*
X7Y683D01*
X1680Y683D02*
X1714Y683D01*
X2089Y683D02*
X2104Y683D01*
X2128Y683D02*
X2137Y683D01*
X2310Y683D02*
X2318Y683D01*
X2441Y683D02*
X2469Y683D01*
X2582Y683D02*
X2628Y683D01*
X2960Y683D02*
X2967Y683D01*
X0Y682D02*
X7Y682D01*
X1680Y682D02*
X1714Y682D01*
X2089Y682D02*
X2105Y682D01*
X2128Y682D02*
X2137Y682D01*
X2310Y682D02*
X2318Y682D01*
X2442Y682D02*
X2469Y682D01*
X2581Y682D02*
X2628Y682D01*
X2960Y682D02*
X2967Y682D01*
X0Y681D02*
X7Y681D01*
X1679Y681D02*
X1713Y681D01*
X2089Y681D02*
X2105Y681D01*
X2128Y681D02*
X2137Y681D01*
X2310Y681D02*
X2318Y681D01*
X2443Y681D02*
X2469Y681D01*
X2581Y681D02*
X2629Y681D01*
X2960Y681D02*
X2967Y681D01*
X0Y680D02*
X7Y680D01*
X1679Y680D02*
X1710Y680D01*
X2089Y680D02*
X2105Y680D01*
X2128Y680D02*
X2137Y680D01*
X2310Y680D02*
X2318Y680D01*
X2445Y680D02*
X2469Y680D01*
X2581Y680D02*
X2629Y680D01*
X2960Y680D02*
X2967Y680D01*
X0Y679D02*
X7Y679D01*
X1678Y679D02*
X1689Y679D01*
X2089Y679D02*
X2106Y679D01*
X2128Y679D02*
X2137Y679D01*
X2310Y679D02*
X2318Y679D01*
X2460Y679D02*
X2469Y679D01*
X2581Y679D02*
X2590Y679D01*
X2620Y679D02*
X2629Y679D01*
X2960Y679D02*
X2967Y679D01*
X0Y678D02*
X7Y678D01*
X1678Y678D02*
X1688Y678D01*
X2089Y678D02*
X2106Y678D01*
X2128Y678D02*
X2137Y678D01*
X2310Y678D02*
X2318Y678D01*
X2460Y678D02*
X2469Y678D01*
X2581Y678D02*
X2590Y678D01*
X2620Y678D02*
X2629Y678D01*
X2960Y678D02*
X2967Y678D01*
X0Y677D02*
X7Y677D01*
X1677Y677D02*
X1687Y677D01*
X2089Y677D02*
X2107Y677D01*
X2128Y677D02*
X2137Y677D01*
X2310Y677D02*
X2318Y677D01*
X2460Y677D02*
X2469Y677D01*
X2581Y677D02*
X2590Y677D01*
X2620Y677D02*
X2629Y677D01*
X2960Y677D02*
X2967Y677D01*
X0Y676D02*
X7Y676D01*
X1677Y676D02*
X1687Y676D01*
X2089Y676D02*
X2107Y676D01*
X2128Y676D02*
X2137Y676D01*
X2310Y676D02*
X2318Y676D01*
X2460Y676D02*
X2469Y676D01*
X2581Y676D02*
X2590Y676D01*
X2620Y676D02*
X2629Y676D01*
X2960Y676D02*
X2967Y676D01*
X0Y675D02*
X7Y675D01*
X1676Y675D02*
X1686Y675D01*
X2089Y675D02*
X2108Y675D01*
X2128Y675D02*
X2137Y675D01*
X2310Y675D02*
X2318Y675D01*
X2460Y675D02*
X2469Y675D01*
X2581Y675D02*
X2590Y675D01*
X2620Y675D02*
X2629Y675D01*
X2960Y675D02*
X2967Y675D01*
X0Y674D02*
X7Y674D01*
X1676Y674D02*
X1686Y674D01*
X2089Y674D02*
X2108Y674D01*
X2128Y674D02*
X2137Y674D01*
X2310Y674D02*
X2318Y674D01*
X2460Y674D02*
X2469Y674D01*
X2581Y674D02*
X2590Y674D01*
X2620Y674D02*
X2629Y674D01*
X2960Y674D02*
X2967Y674D01*
X0Y673D02*
X7Y673D01*
X1675Y673D02*
X1685Y673D01*
X2089Y673D02*
X2108Y673D01*
X2128Y673D02*
X2137Y673D01*
X2310Y673D02*
X2318Y673D01*
X2460Y673D02*
X2469Y673D01*
X2581Y673D02*
X2590Y673D01*
X2620Y673D02*
X2629Y673D01*
X2960Y673D02*
X2967Y673D01*
X0Y672D02*
X7Y672D01*
X1675Y672D02*
X1685Y672D01*
X2089Y672D02*
X2109Y672D01*
X2128Y672D02*
X2137Y672D01*
X2310Y672D02*
X2318Y672D01*
X2460Y672D02*
X2469Y672D01*
X2581Y672D02*
X2590Y672D01*
X2620Y672D02*
X2629Y672D01*
X2960Y672D02*
X2967Y672D01*
X0Y671D02*
X7Y671D01*
X1674Y671D02*
X1684Y671D01*
X2089Y671D02*
X2098Y671D01*
X2100Y671D02*
X2109Y671D01*
X2128Y671D02*
X2137Y671D01*
X2310Y671D02*
X2318Y671D01*
X2460Y671D02*
X2469Y671D01*
X2581Y671D02*
X2590Y671D01*
X2620Y671D02*
X2629Y671D01*
X2960Y671D02*
X2967Y671D01*
X0Y670D02*
X7Y670D01*
X1674Y670D02*
X1684Y670D01*
X2089Y670D02*
X2098Y670D01*
X2100Y670D02*
X2110Y670D01*
X2128Y670D02*
X2137Y670D01*
X2310Y670D02*
X2318Y670D01*
X2460Y670D02*
X2469Y670D01*
X2581Y670D02*
X2590Y670D01*
X2620Y670D02*
X2629Y670D01*
X2960Y670D02*
X2967Y670D01*
X0Y669D02*
X7Y669D01*
X1673Y669D02*
X1683Y669D01*
X1742Y669D02*
X1743Y669D01*
X1761Y669D02*
X1773Y669D01*
X1824Y669D02*
X1840Y669D01*
X1882Y669D02*
X1883Y669D01*
X1921Y669D02*
X1922Y669D01*
X1960Y669D02*
X1984Y669D01*
X2089Y669D02*
X2098Y669D01*
X2100Y669D02*
X2110Y669D01*
X2128Y669D02*
X2137Y669D01*
X2175Y669D02*
X2191Y669D01*
X2241Y669D02*
X2265Y669D01*
X2304Y669D02*
X2339Y669D01*
X2460Y669D02*
X2469Y669D01*
X2581Y669D02*
X2590Y669D01*
X2620Y669D02*
X2629Y669D01*
X2960Y669D02*
X2967Y669D01*
X0Y668D02*
X7Y668D01*
X1673Y668D02*
X1683Y668D01*
X1740Y668D02*
X1745Y668D01*
X1759Y668D02*
X1776Y668D01*
X1820Y668D02*
X1843Y668D01*
X1880Y668D02*
X1885Y668D01*
X1919Y668D02*
X1924Y668D01*
X1957Y668D02*
X1988Y668D01*
X2089Y668D02*
X2098Y668D01*
X2101Y668D02*
X2111Y668D01*
X2128Y668D02*
X2137Y668D01*
X2172Y668D02*
X2195Y668D01*
X2238Y668D02*
X2269Y668D01*
X2302Y668D02*
X2341Y668D01*
X2460Y668D02*
X2469Y668D01*
X2581Y668D02*
X2590Y668D01*
X2620Y668D02*
X2629Y668D01*
X2960Y668D02*
X2967Y668D01*
X0Y667D02*
X7Y667D01*
X1672Y667D02*
X1682Y667D01*
X1739Y667D02*
X1746Y667D01*
X1758Y667D02*
X1778Y667D01*
X1819Y667D02*
X1845Y667D01*
X1879Y667D02*
X1886Y667D01*
X1918Y667D02*
X1925Y667D01*
X1955Y667D02*
X1990Y667D01*
X2089Y667D02*
X2098Y667D01*
X2101Y667D02*
X2111Y667D01*
X2128Y667D02*
X2137Y667D01*
X2170Y667D02*
X2196Y667D01*
X2236Y667D02*
X2271Y667D01*
X2301Y667D02*
X2342Y667D01*
X2460Y667D02*
X2469Y667D01*
X2581Y667D02*
X2590Y667D01*
X2620Y667D02*
X2629Y667D01*
X2960Y667D02*
X2967Y667D01*
X0Y666D02*
X7Y666D01*
X1672Y666D02*
X1682Y666D01*
X1738Y666D02*
X1746Y666D01*
X1756Y666D02*
X1780Y666D01*
X1817Y666D02*
X1846Y666D01*
X1878Y666D02*
X1886Y666D01*
X1918Y666D02*
X1926Y666D01*
X1954Y666D02*
X1991Y666D01*
X2089Y666D02*
X2098Y666D01*
X2102Y666D02*
X2112Y666D01*
X2128Y666D02*
X2137Y666D01*
X2169Y666D02*
X2198Y666D01*
X2235Y666D02*
X2272Y666D01*
X2301Y666D02*
X2342Y666D01*
X2460Y666D02*
X2469Y666D01*
X2581Y666D02*
X2590Y666D01*
X2620Y666D02*
X2629Y666D01*
X2960Y666D02*
X2967Y666D01*
X0Y665D02*
X7Y665D01*
X1671Y665D02*
X1681Y665D01*
X1738Y665D02*
X1746Y665D01*
X1755Y665D02*
X1781Y665D01*
X1816Y665D02*
X1848Y665D01*
X1878Y665D02*
X1886Y665D01*
X1918Y665D02*
X1926Y665D01*
X1953Y665D02*
X1992Y665D01*
X2089Y665D02*
X2098Y665D01*
X2102Y665D02*
X2112Y665D01*
X2128Y665D02*
X2137Y665D01*
X2167Y665D02*
X2199Y665D01*
X2234Y665D02*
X2273Y665D01*
X2301Y665D02*
X2342Y665D01*
X2460Y665D02*
X2469Y665D01*
X2581Y665D02*
X2590Y665D01*
X2620Y665D02*
X2629Y665D01*
X2960Y665D02*
X2967Y665D01*
X0Y664D02*
X7Y664D01*
X1671Y664D02*
X1681Y664D01*
X1738Y664D02*
X1747Y664D01*
X1754Y664D02*
X1782Y664D01*
X1815Y664D02*
X1849Y664D01*
X1878Y664D02*
X1886Y664D01*
X1917Y664D02*
X1926Y664D01*
X1952Y664D02*
X1993Y664D01*
X2089Y664D02*
X2098Y664D01*
X2103Y664D02*
X2112Y664D01*
X2128Y664D02*
X2137Y664D01*
X2166Y664D02*
X2200Y664D01*
X2233Y664D02*
X2274Y664D01*
X2301Y664D02*
X2342Y664D01*
X2460Y664D02*
X2469Y664D01*
X2581Y664D02*
X2590Y664D01*
X2620Y664D02*
X2629Y664D01*
X2960Y664D02*
X2967Y664D01*
X0Y663D02*
X7Y663D01*
X1670Y663D02*
X1680Y663D01*
X1738Y663D02*
X1747Y663D01*
X1753Y663D02*
X1782Y663D01*
X1814Y663D02*
X1850Y663D01*
X1878Y663D02*
X1886Y663D01*
X1917Y663D02*
X1926Y663D01*
X1951Y663D02*
X1994Y663D01*
X2089Y663D02*
X2098Y663D01*
X2103Y663D02*
X2113Y663D01*
X2128Y663D02*
X2137Y663D01*
X2165Y663D02*
X2201Y663D01*
X2233Y663D02*
X2275Y663D01*
X2301Y663D02*
X2342Y663D01*
X2460Y663D02*
X2469Y663D01*
X2581Y663D02*
X2590Y663D01*
X2620Y663D02*
X2629Y663D01*
X2960Y663D02*
X2967Y663D01*
X0Y662D02*
X7Y662D01*
X1670Y662D02*
X1680Y662D01*
X1738Y662D02*
X1747Y662D01*
X1752Y662D02*
X1783Y662D01*
X1812Y662D02*
X1851Y662D01*
X1878Y662D02*
X1886Y662D01*
X1917Y662D02*
X1926Y662D01*
X1951Y662D02*
X1995Y662D01*
X2089Y662D02*
X2098Y662D01*
X2104Y662D02*
X2113Y662D01*
X2128Y662D02*
X2137Y662D01*
X2164Y662D02*
X2202Y662D01*
X2232Y662D02*
X2276Y662D01*
X2301Y662D02*
X2342Y662D01*
X2460Y662D02*
X2469Y662D01*
X2581Y662D02*
X2590Y662D01*
X2620Y662D02*
X2629Y662D01*
X2960Y662D02*
X2967Y662D01*
X0Y661D02*
X7Y661D01*
X1669Y661D02*
X1679Y661D01*
X1738Y661D02*
X1747Y661D01*
X1751Y661D02*
X1784Y661D01*
X1812Y661D02*
X1852Y661D01*
X1878Y661D02*
X1886Y661D01*
X1917Y661D02*
X1926Y661D01*
X1950Y661D02*
X1995Y661D01*
X2089Y661D02*
X2098Y661D01*
X2104Y661D02*
X2114Y661D01*
X2128Y661D02*
X2137Y661D01*
X2163Y661D02*
X2203Y661D01*
X2232Y661D02*
X2276Y661D01*
X2301Y661D02*
X2341Y661D01*
X2460Y661D02*
X2469Y661D01*
X2581Y661D02*
X2590Y661D01*
X2620Y661D02*
X2629Y661D01*
X2960Y661D02*
X2967Y661D01*
X0Y660D02*
X7Y660D01*
X1669Y660D02*
X1679Y660D01*
X1738Y660D02*
X1747Y660D01*
X1749Y660D02*
X1784Y660D01*
X1811Y660D02*
X1853Y660D01*
X1878Y660D02*
X1886Y660D01*
X1917Y660D02*
X1926Y660D01*
X1950Y660D02*
X1995Y660D01*
X2089Y660D02*
X2098Y660D01*
X2104Y660D02*
X2114Y660D01*
X2128Y660D02*
X2137Y660D01*
X2162Y660D02*
X2204Y660D01*
X2231Y660D02*
X2276Y660D01*
X2303Y660D02*
X2340Y660D01*
X2460Y660D02*
X2469Y660D01*
X2581Y660D02*
X2590Y660D01*
X2620Y660D02*
X2629Y660D01*
X2960Y660D02*
X2967Y660D01*
X0Y659D02*
X7Y659D01*
X1669Y659D02*
X1678Y659D01*
X1738Y659D02*
X1762Y659D01*
X1773Y659D02*
X1784Y659D01*
X1810Y659D02*
X1823Y659D01*
X1840Y659D02*
X1853Y659D01*
X1878Y659D02*
X1886Y659D01*
X1917Y659D02*
X1926Y659D01*
X1950Y659D02*
X1960Y659D01*
X1985Y659D02*
X1995Y659D01*
X2089Y659D02*
X2098Y659D01*
X2105Y659D02*
X2115Y659D01*
X2128Y659D02*
X2137Y659D01*
X2162Y659D02*
X2175Y659D01*
X2192Y659D02*
X2205Y659D01*
X2231Y659D02*
X2241Y659D01*
X2266Y659D02*
X2276Y659D01*
X2310Y659D02*
X2319Y659D01*
X2460Y659D02*
X2469Y659D01*
X2581Y659D02*
X2590Y659D01*
X2620Y659D02*
X2629Y659D01*
X2960Y659D02*
X2967Y659D01*
X0Y658D02*
X7Y658D01*
X1668Y658D02*
X1678Y658D01*
X1738Y658D02*
X1761Y658D01*
X1775Y658D02*
X1785Y658D01*
X1810Y658D02*
X1822Y658D01*
X1842Y658D02*
X1854Y658D01*
X1878Y658D02*
X1886Y658D01*
X1917Y658D02*
X1926Y658D01*
X1950Y658D02*
X1959Y658D01*
X1986Y658D02*
X1994Y658D01*
X2089Y658D02*
X2098Y658D01*
X2105Y658D02*
X2115Y658D01*
X2128Y658D02*
X2137Y658D01*
X2161Y658D02*
X2173Y658D01*
X2193Y658D02*
X2205Y658D01*
X2231Y658D02*
X2240Y658D01*
X2267Y658D02*
X2276Y658D01*
X2310Y658D02*
X2318Y658D01*
X2460Y658D02*
X2469Y658D01*
X2581Y658D02*
X2590Y658D01*
X2620Y658D02*
X2629Y658D01*
X2960Y658D02*
X2967Y658D01*
X0Y657D02*
X7Y657D01*
X1668Y657D02*
X1677Y657D01*
X1738Y657D02*
X1760Y657D01*
X1776Y657D02*
X1785Y657D01*
X1809Y657D02*
X1821Y657D01*
X1843Y657D02*
X1854Y657D01*
X1878Y657D02*
X1886Y657D01*
X1917Y657D02*
X1926Y657D01*
X1950Y657D02*
X1959Y657D01*
X1987Y657D02*
X1994Y657D01*
X2089Y657D02*
X2098Y657D01*
X2106Y657D02*
X2116Y657D01*
X2128Y657D02*
X2137Y657D01*
X2161Y657D02*
X2172Y657D01*
X2195Y657D02*
X2206Y657D01*
X2231Y657D02*
X2240Y657D01*
X2269Y657D02*
X2275Y657D01*
X2310Y657D02*
X2318Y657D01*
X2460Y657D02*
X2469Y657D01*
X2581Y657D02*
X2590Y657D01*
X2620Y657D02*
X2629Y657D01*
X2960Y657D02*
X2967Y657D01*
X0Y656D02*
X7Y656D01*
X1668Y656D02*
X1677Y656D01*
X1738Y656D02*
X1759Y656D01*
X1776Y656D02*
X1785Y656D01*
X1809Y656D02*
X1819Y656D01*
X1844Y656D02*
X1855Y656D01*
X1878Y656D02*
X1886Y656D01*
X1917Y656D02*
X1926Y656D01*
X1950Y656D02*
X1959Y656D01*
X1989Y656D02*
X1993Y656D01*
X2089Y656D02*
X2098Y656D01*
X2106Y656D02*
X2116Y656D01*
X2128Y656D02*
X2137Y656D01*
X2160Y656D02*
X2171Y656D01*
X2196Y656D02*
X2206Y656D01*
X2231Y656D02*
X2240Y656D01*
X2270Y656D02*
X2274Y656D01*
X2310Y656D02*
X2318Y656D01*
X2460Y656D02*
X2469Y656D01*
X2581Y656D02*
X2590Y656D01*
X2620Y656D02*
X2629Y656D01*
X2960Y656D02*
X2967Y656D01*
X0Y655D02*
X7Y655D01*
X1668Y655D02*
X1677Y655D01*
X1738Y655D02*
X1758Y655D01*
X1776Y655D02*
X1785Y655D01*
X1809Y655D02*
X1818Y655D01*
X1845Y655D02*
X1855Y655D01*
X1878Y655D02*
X1886Y655D01*
X1917Y655D02*
X1926Y655D01*
X1950Y655D02*
X1959Y655D01*
X2089Y655D02*
X2098Y655D01*
X2107Y655D02*
X2116Y655D01*
X2128Y655D02*
X2137Y655D01*
X2160Y655D02*
X2170Y655D01*
X2197Y655D02*
X2206Y655D01*
X2231Y655D02*
X2240Y655D01*
X2310Y655D02*
X2318Y655D01*
X2460Y655D02*
X2469Y655D01*
X2581Y655D02*
X2590Y655D01*
X2620Y655D02*
X2629Y655D01*
X2960Y655D02*
X2967Y655D01*
X0Y654D02*
X7Y654D01*
X1668Y654D02*
X1677Y654D01*
X1738Y654D02*
X1756Y654D01*
X1776Y654D02*
X1785Y654D01*
X1808Y654D02*
X1818Y654D01*
X1846Y654D02*
X1855Y654D01*
X1878Y654D02*
X1886Y654D01*
X1917Y654D02*
X1926Y654D01*
X1950Y654D02*
X1961Y654D01*
X2089Y654D02*
X2098Y654D01*
X2107Y654D02*
X2117Y654D01*
X2128Y654D02*
X2137Y654D01*
X2160Y654D02*
X2169Y654D01*
X2197Y654D02*
X2207Y654D01*
X2231Y654D02*
X2242Y654D01*
X2310Y654D02*
X2318Y654D01*
X2460Y654D02*
X2469Y654D01*
X2581Y654D02*
X2590Y654D01*
X2620Y654D02*
X2629Y654D01*
X2960Y654D02*
X2967Y654D01*
X0Y653D02*
X7Y653D01*
X1668Y653D02*
X1676Y653D01*
X1738Y653D02*
X1755Y653D01*
X1776Y653D02*
X1785Y653D01*
X1808Y653D02*
X1817Y653D01*
X1846Y653D02*
X1855Y653D01*
X1878Y653D02*
X1886Y653D01*
X1917Y653D02*
X1926Y653D01*
X1950Y653D02*
X1963Y653D01*
X2089Y653D02*
X2098Y653D01*
X2107Y653D02*
X2117Y653D01*
X2128Y653D02*
X2137Y653D01*
X2160Y653D02*
X2169Y653D01*
X2198Y653D02*
X2207Y653D01*
X2232Y653D02*
X2244Y653D01*
X2310Y653D02*
X2318Y653D01*
X2460Y653D02*
X2469Y653D01*
X2581Y653D02*
X2590Y653D01*
X2620Y653D02*
X2629Y653D01*
X2960Y653D02*
X2967Y653D01*
X0Y652D02*
X7Y652D01*
X1667Y652D02*
X1676Y652D01*
X1738Y652D02*
X1754Y652D01*
X1776Y652D02*
X1785Y652D01*
X1808Y652D02*
X1817Y652D01*
X1847Y652D02*
X1855Y652D01*
X1878Y652D02*
X1886Y652D01*
X1900Y652D02*
X1904Y652D01*
X1917Y652D02*
X1926Y652D01*
X1951Y652D02*
X1965Y652D01*
X2089Y652D02*
X2098Y652D01*
X2108Y652D02*
X2118Y652D01*
X2128Y652D02*
X2137Y652D01*
X2160Y652D02*
X2168Y652D01*
X2198Y652D02*
X2207Y652D01*
X2232Y652D02*
X2246Y652D01*
X2310Y652D02*
X2318Y652D01*
X2460Y652D02*
X2469Y652D01*
X2581Y652D02*
X2590Y652D01*
X2620Y652D02*
X2629Y652D01*
X2960Y652D02*
X2967Y652D01*
X0Y651D02*
X7Y651D01*
X1668Y651D02*
X1676Y651D01*
X1738Y651D02*
X1753Y651D01*
X1777Y651D02*
X1785Y651D01*
X1808Y651D02*
X1817Y651D01*
X1847Y651D02*
X1855Y651D01*
X1878Y651D02*
X1886Y651D01*
X1899Y651D02*
X1905Y651D01*
X1917Y651D02*
X1926Y651D01*
X1951Y651D02*
X1968Y651D01*
X2089Y651D02*
X2098Y651D01*
X2108Y651D02*
X2118Y651D01*
X2128Y651D02*
X2137Y651D01*
X2159Y651D02*
X2168Y651D01*
X2198Y651D02*
X2207Y651D01*
X2232Y651D02*
X2249Y651D01*
X2310Y651D02*
X2318Y651D01*
X2460Y651D02*
X2469Y651D01*
X2581Y651D02*
X2590Y651D01*
X2620Y651D02*
X2629Y651D01*
X2960Y651D02*
X2967Y651D01*
X0Y650D02*
X7Y650D01*
X1668Y650D02*
X1677Y650D01*
X1738Y650D02*
X1752Y650D01*
X1777Y650D02*
X1785Y650D01*
X1808Y650D02*
X1817Y650D01*
X1847Y650D02*
X1855Y650D01*
X1878Y650D02*
X1886Y650D01*
X1898Y650D02*
X1906Y650D01*
X1917Y650D02*
X1926Y650D01*
X1952Y650D02*
X1970Y650D01*
X2089Y650D02*
X2098Y650D01*
X2109Y650D02*
X2119Y650D01*
X2128Y650D02*
X2137Y650D01*
X2159Y650D02*
X2168Y650D01*
X2198Y650D02*
X2207Y650D01*
X2233Y650D02*
X2251Y650D01*
X2310Y650D02*
X2318Y650D01*
X2460Y650D02*
X2469Y650D01*
X2581Y650D02*
X2590Y650D01*
X2620Y650D02*
X2629Y650D01*
X2960Y650D02*
X2967Y650D01*
X0Y649D02*
X7Y649D01*
X1668Y649D02*
X1677Y649D01*
X1738Y649D02*
X1751Y649D01*
X1777Y649D02*
X1784Y649D01*
X1808Y649D02*
X1817Y649D01*
X1847Y649D02*
X1855Y649D01*
X1878Y649D02*
X1886Y649D01*
X1898Y649D02*
X1906Y649D01*
X1917Y649D02*
X1926Y649D01*
X1953Y649D02*
X1972Y649D01*
X2089Y649D02*
X2098Y649D01*
X2109Y649D02*
X2119Y649D01*
X2128Y649D02*
X2137Y649D01*
X2159Y649D02*
X2168Y649D01*
X2198Y649D02*
X2207Y649D01*
X2234Y649D02*
X2253Y649D01*
X2310Y649D02*
X2318Y649D01*
X2460Y649D02*
X2469Y649D01*
X2581Y649D02*
X2590Y649D01*
X2620Y649D02*
X2629Y649D01*
X2960Y649D02*
X2967Y649D01*
X0Y648D02*
X7Y648D01*
X1668Y648D02*
X1677Y648D01*
X1738Y648D02*
X1750Y648D01*
X1778Y648D02*
X1783Y648D01*
X1808Y648D02*
X1817Y648D01*
X1847Y648D02*
X1855Y648D01*
X1878Y648D02*
X1886Y648D01*
X1898Y648D02*
X1906Y648D01*
X1917Y648D02*
X1926Y648D01*
X1953Y648D02*
X1974Y648D01*
X2089Y648D02*
X2098Y648D01*
X2110Y648D02*
X2119Y648D01*
X2128Y648D02*
X2137Y648D01*
X2159Y648D02*
X2168Y648D01*
X2198Y648D02*
X2207Y648D01*
X2235Y648D02*
X2256Y648D01*
X2310Y648D02*
X2318Y648D01*
X2460Y648D02*
X2469Y648D01*
X2482Y648D02*
X2485Y648D01*
X2581Y648D02*
X2590Y648D01*
X2620Y648D02*
X2629Y648D01*
X2960Y648D02*
X2967Y648D01*
X0Y647D02*
X7Y647D01*
X1668Y647D02*
X1677Y647D01*
X1738Y647D02*
X1748Y647D01*
X1808Y647D02*
X1817Y647D01*
X1847Y647D02*
X1855Y647D01*
X1878Y647D02*
X1886Y647D01*
X1898Y647D02*
X1906Y647D01*
X1917Y647D02*
X1926Y647D01*
X1954Y647D02*
X1977Y647D01*
X2089Y647D02*
X2098Y647D01*
X2110Y647D02*
X2120Y647D01*
X2128Y647D02*
X2137Y647D01*
X2159Y647D02*
X2168Y647D01*
X2198Y647D02*
X2207Y647D01*
X2236Y647D02*
X2258Y647D01*
X2310Y647D02*
X2318Y647D01*
X2460Y647D02*
X2469Y647D01*
X2481Y647D02*
X2487Y647D01*
X2581Y647D02*
X2590Y647D01*
X2620Y647D02*
X2629Y647D01*
X2960Y647D02*
X2967Y647D01*
X0Y646D02*
X7Y646D01*
X1668Y646D02*
X1678Y646D01*
X1738Y646D02*
X1747Y646D01*
X1808Y646D02*
X1817Y646D01*
X1847Y646D02*
X1855Y646D01*
X1878Y646D02*
X1886Y646D01*
X1898Y646D02*
X1906Y646D01*
X1917Y646D02*
X1926Y646D01*
X1956Y646D02*
X1979Y646D01*
X2089Y646D02*
X2098Y646D01*
X2111Y646D02*
X2120Y646D01*
X2128Y646D02*
X2137Y646D01*
X2159Y646D02*
X2168Y646D01*
X2198Y646D02*
X2207Y646D01*
X2237Y646D02*
X2260Y646D01*
X2310Y646D02*
X2318Y646D01*
X2460Y646D02*
X2469Y646D01*
X2480Y646D02*
X2487Y646D01*
X2581Y646D02*
X2590Y646D01*
X2620Y646D02*
X2629Y646D01*
X2960Y646D02*
X2967Y646D01*
X0Y645D02*
X7Y645D01*
X1669Y645D02*
X1678Y645D01*
X1738Y645D02*
X1747Y645D01*
X1808Y645D02*
X1817Y645D01*
X1847Y645D02*
X1855Y645D01*
X1878Y645D02*
X1886Y645D01*
X1898Y645D02*
X1906Y645D01*
X1917Y645D02*
X1926Y645D01*
X1958Y645D02*
X1981Y645D01*
X2089Y645D02*
X2098Y645D01*
X2111Y645D02*
X2121Y645D01*
X2128Y645D02*
X2137Y645D01*
X2159Y645D02*
X2168Y645D01*
X2198Y645D02*
X2207Y645D01*
X2239Y645D02*
X2263Y645D01*
X2310Y645D02*
X2318Y645D01*
X2460Y645D02*
X2469Y645D01*
X2479Y645D02*
X2488Y645D01*
X2581Y645D02*
X2590Y645D01*
X2620Y645D02*
X2629Y645D01*
X2960Y645D02*
X2967Y645D01*
X0Y644D02*
X7Y644D01*
X1669Y644D02*
X1679Y644D01*
X1738Y644D02*
X1747Y644D01*
X1808Y644D02*
X1817Y644D01*
X1847Y644D02*
X1855Y644D01*
X1878Y644D02*
X1886Y644D01*
X1898Y644D02*
X1906Y644D01*
X1917Y644D02*
X1926Y644D01*
X1960Y644D02*
X1984Y644D01*
X2089Y644D02*
X2098Y644D01*
X2111Y644D02*
X2121Y644D01*
X2128Y644D02*
X2137Y644D01*
X2159Y644D02*
X2207Y644D01*
X2241Y644D02*
X2265Y644D01*
X2310Y644D02*
X2318Y644D01*
X2460Y644D02*
X2469Y644D01*
X2479Y644D02*
X2488Y644D01*
X2528Y644D02*
X2541Y644D01*
X2581Y644D02*
X2590Y644D01*
X2620Y644D02*
X2629Y644D01*
X2960Y644D02*
X2967Y644D01*
X0Y643D02*
X7Y643D01*
X1669Y643D02*
X1679Y643D01*
X1738Y643D02*
X1747Y643D01*
X1808Y643D02*
X1817Y643D01*
X1847Y643D02*
X1855Y643D01*
X1878Y643D02*
X1886Y643D01*
X1898Y643D02*
X1906Y643D01*
X1917Y643D02*
X1926Y643D01*
X1962Y643D02*
X1986Y643D01*
X2089Y643D02*
X2098Y643D01*
X2112Y643D02*
X2122Y643D01*
X2128Y643D02*
X2137Y643D01*
X2159Y643D02*
X2207Y643D01*
X2244Y643D02*
X2267Y643D01*
X2310Y643D02*
X2318Y643D01*
X2460Y643D02*
X2469Y643D01*
X2479Y643D02*
X2488Y643D01*
X2527Y643D02*
X2542Y643D01*
X2581Y643D02*
X2590Y643D01*
X2620Y643D02*
X2629Y643D01*
X2960Y643D02*
X2967Y643D01*
X0Y642D02*
X7Y642D01*
X1670Y642D02*
X1680Y642D01*
X1738Y642D02*
X1747Y642D01*
X1808Y642D02*
X1817Y642D01*
X1847Y642D02*
X1855Y642D01*
X1878Y642D02*
X1886Y642D01*
X1898Y642D02*
X1906Y642D01*
X1917Y642D02*
X1926Y642D01*
X1965Y642D02*
X1988Y642D01*
X2089Y642D02*
X2098Y642D01*
X2112Y642D02*
X2122Y642D01*
X2128Y642D02*
X2137Y642D01*
X2159Y642D02*
X2207Y642D01*
X2246Y642D02*
X2269Y642D01*
X2310Y642D02*
X2318Y642D01*
X2460Y642D02*
X2469Y642D01*
X2479Y642D02*
X2488Y642D01*
X2526Y642D02*
X2543Y642D01*
X2581Y642D02*
X2590Y642D01*
X2620Y642D02*
X2629Y642D01*
X2960Y642D02*
X2967Y642D01*
X0Y641D02*
X7Y641D01*
X1670Y641D02*
X1680Y641D01*
X1738Y641D02*
X1747Y641D01*
X1808Y641D02*
X1817Y641D01*
X1847Y641D02*
X1855Y641D01*
X1878Y641D02*
X1886Y641D01*
X1898Y641D02*
X1906Y641D01*
X1917Y641D02*
X1926Y641D01*
X1967Y641D02*
X1990Y641D01*
X2089Y641D02*
X2098Y641D01*
X2113Y641D02*
X2123Y641D01*
X2128Y641D02*
X2137Y641D01*
X2159Y641D02*
X2207Y641D01*
X2248Y641D02*
X2271Y641D01*
X2310Y641D02*
X2318Y641D01*
X2460Y641D02*
X2469Y641D01*
X2479Y641D02*
X2488Y641D01*
X2526Y641D02*
X2544Y641D01*
X2581Y641D02*
X2590Y641D01*
X2620Y641D02*
X2629Y641D01*
X2960Y641D02*
X2967Y641D01*
X0Y640D02*
X7Y640D01*
X1671Y640D02*
X1681Y640D01*
X1738Y640D02*
X1747Y640D01*
X1808Y640D02*
X1817Y640D01*
X1847Y640D02*
X1855Y640D01*
X1878Y640D02*
X1886Y640D01*
X1898Y640D02*
X1906Y640D01*
X1917Y640D02*
X1926Y640D01*
X1969Y640D02*
X1991Y640D01*
X2089Y640D02*
X2098Y640D01*
X2113Y640D02*
X2123Y640D01*
X2128Y640D02*
X2137Y640D01*
X2159Y640D02*
X2207Y640D01*
X2251Y640D02*
X2272Y640D01*
X2310Y640D02*
X2318Y640D01*
X2460Y640D02*
X2469Y640D01*
X2479Y640D02*
X2488Y640D01*
X2525Y640D02*
X2544Y640D01*
X2581Y640D02*
X2590Y640D01*
X2620Y640D02*
X2629Y640D01*
X2960Y640D02*
X2967Y640D01*
X0Y639D02*
X7Y639D01*
X1671Y639D02*
X1681Y639D01*
X1738Y639D02*
X1747Y639D01*
X1808Y639D02*
X1817Y639D01*
X1847Y639D02*
X1855Y639D01*
X1878Y639D02*
X1886Y639D01*
X1898Y639D02*
X1906Y639D01*
X1917Y639D02*
X1926Y639D01*
X1972Y639D02*
X1992Y639D01*
X2089Y639D02*
X2098Y639D01*
X2114Y639D02*
X2123Y639D01*
X2128Y639D02*
X2137Y639D01*
X2159Y639D02*
X2207Y639D01*
X2253Y639D02*
X2273Y639D01*
X2310Y639D02*
X2318Y639D01*
X2460Y639D02*
X2469Y639D01*
X2479Y639D02*
X2488Y639D01*
X2525Y639D02*
X2544Y639D01*
X2581Y639D02*
X2590Y639D01*
X2620Y639D02*
X2629Y639D01*
X2960Y639D02*
X2967Y639D01*
X0Y638D02*
X7Y638D01*
X1672Y638D02*
X1682Y638D01*
X1738Y638D02*
X1747Y638D01*
X1808Y638D02*
X1817Y638D01*
X1847Y638D02*
X1855Y638D01*
X1878Y638D02*
X1886Y638D01*
X1898Y638D02*
X1906Y638D01*
X1917Y638D02*
X1926Y638D01*
X1974Y638D02*
X1993Y638D01*
X2089Y638D02*
X2098Y638D01*
X2114Y638D02*
X2124Y638D01*
X2128Y638D02*
X2137Y638D01*
X2159Y638D02*
X2207Y638D01*
X2255Y638D02*
X2274Y638D01*
X2310Y638D02*
X2318Y638D01*
X2460Y638D02*
X2469Y638D01*
X2479Y638D02*
X2488Y638D01*
X2525Y638D02*
X2544Y638D01*
X2581Y638D02*
X2590Y638D01*
X2620Y638D02*
X2629Y638D01*
X2960Y638D02*
X2967Y638D01*
X0Y637D02*
X7Y637D01*
X1672Y637D02*
X1682Y637D01*
X1738Y637D02*
X1747Y637D01*
X1808Y637D02*
X1817Y637D01*
X1847Y637D02*
X1855Y637D01*
X1878Y637D02*
X1886Y637D01*
X1898Y637D02*
X1906Y637D01*
X1917Y637D02*
X1926Y637D01*
X1976Y637D02*
X1993Y637D01*
X2089Y637D02*
X2098Y637D01*
X2114Y637D02*
X2124Y637D01*
X2128Y637D02*
X2137Y637D01*
X2159Y637D02*
X2206Y637D01*
X2257Y637D02*
X2275Y637D01*
X2310Y637D02*
X2318Y637D01*
X2460Y637D02*
X2469Y637D01*
X2479Y637D02*
X2488Y637D01*
X2525Y637D02*
X2544Y637D01*
X2581Y637D02*
X2590Y637D01*
X2620Y637D02*
X2629Y637D01*
X2960Y637D02*
X2967Y637D01*
X0Y636D02*
X7Y636D01*
X1673Y636D02*
X1683Y636D01*
X1738Y636D02*
X1747Y636D01*
X1808Y636D02*
X1817Y636D01*
X1847Y636D02*
X1855Y636D01*
X1878Y636D02*
X1887Y636D01*
X1897Y636D02*
X1907Y636D01*
X1917Y636D02*
X1926Y636D01*
X1979Y636D02*
X1994Y636D01*
X2089Y636D02*
X2098Y636D01*
X2115Y636D02*
X2125Y636D01*
X2128Y636D02*
X2137Y636D01*
X2159Y636D02*
X2205Y636D01*
X2260Y636D02*
X2275Y636D01*
X2310Y636D02*
X2318Y636D01*
X2460Y636D02*
X2469Y636D01*
X2479Y636D02*
X2488Y636D01*
X2525Y636D02*
X2544Y636D01*
X2581Y636D02*
X2590Y636D01*
X2620Y636D02*
X2629Y636D01*
X2960Y636D02*
X2967Y636D01*
X0Y635D02*
X7Y635D01*
X1673Y635D02*
X1683Y635D01*
X1738Y635D02*
X1747Y635D01*
X1808Y635D02*
X1817Y635D01*
X1847Y635D02*
X1855Y635D01*
X1878Y635D02*
X1887Y635D01*
X1897Y635D02*
X1907Y635D01*
X1917Y635D02*
X1926Y635D01*
X1981Y635D02*
X1995Y635D01*
X2089Y635D02*
X2098Y635D01*
X2115Y635D02*
X2125Y635D01*
X2128Y635D02*
X2137Y635D01*
X2159Y635D02*
X2204Y635D01*
X2262Y635D02*
X2276Y635D01*
X2310Y635D02*
X2318Y635D01*
X2460Y635D02*
X2469Y635D01*
X2479Y635D02*
X2488Y635D01*
X2525Y635D02*
X2544Y635D01*
X2581Y635D02*
X2590Y635D01*
X2620Y635D02*
X2629Y635D01*
X2960Y635D02*
X2967Y635D01*
X0Y634D02*
X7Y634D01*
X1674Y634D02*
X1684Y634D01*
X1738Y634D02*
X1747Y634D01*
X1808Y634D02*
X1817Y634D01*
X1847Y634D02*
X1855Y634D01*
X1878Y634D02*
X1887Y634D01*
X1896Y634D02*
X1908Y634D01*
X1917Y634D02*
X1926Y634D01*
X1983Y634D02*
X1995Y634D01*
X2089Y634D02*
X2098Y634D01*
X2116Y634D02*
X2126Y634D01*
X2128Y634D02*
X2137Y634D01*
X2159Y634D02*
X2168Y634D01*
X2264Y634D02*
X2276Y634D01*
X2310Y634D02*
X2318Y634D01*
X2460Y634D02*
X2469Y634D01*
X2479Y634D02*
X2488Y634D01*
X2525Y634D02*
X2544Y634D01*
X2581Y634D02*
X2590Y634D01*
X2620Y634D02*
X2629Y634D01*
X2960Y634D02*
X2967Y634D01*
X0Y633D02*
X7Y633D01*
X1674Y633D02*
X1684Y633D01*
X1738Y633D02*
X1747Y633D01*
X1808Y633D02*
X1817Y633D01*
X1847Y633D02*
X1855Y633D01*
X1878Y633D02*
X1888Y633D01*
X1895Y633D02*
X1909Y633D01*
X1916Y633D02*
X1926Y633D01*
X1985Y633D02*
X1995Y633D01*
X2089Y633D02*
X2098Y633D01*
X2116Y633D02*
X2126Y633D01*
X2128Y633D02*
X2137Y633D01*
X2159Y633D02*
X2168Y633D01*
X2266Y633D02*
X2276Y633D01*
X2310Y633D02*
X2318Y633D01*
X2460Y633D02*
X2469Y633D01*
X2479Y633D02*
X2488Y633D01*
X2525Y633D02*
X2544Y633D01*
X2581Y633D02*
X2590Y633D01*
X2620Y633D02*
X2629Y633D01*
X2960Y633D02*
X2967Y633D01*
X0Y632D02*
X7Y632D01*
X1675Y632D02*
X1685Y632D01*
X1738Y632D02*
X1747Y632D01*
X1808Y632D02*
X1817Y632D01*
X1847Y632D02*
X1855Y632D01*
X1879Y632D02*
X1888Y632D01*
X1895Y632D02*
X1909Y632D01*
X1916Y632D02*
X1926Y632D01*
X1986Y632D02*
X1995Y632D01*
X2089Y632D02*
X2098Y632D01*
X2117Y632D02*
X2137Y632D01*
X2159Y632D02*
X2168Y632D01*
X2267Y632D02*
X2277Y632D01*
X2310Y632D02*
X2318Y632D01*
X2343Y632D02*
X2343Y632D01*
X2460Y632D02*
X2469Y632D01*
X2479Y632D02*
X2488Y632D01*
X2525Y632D02*
X2544Y632D01*
X2581Y632D02*
X2590Y632D01*
X2620Y632D02*
X2629Y632D01*
X2960Y632D02*
X2967Y632D01*
X0Y631D02*
X7Y631D01*
X1675Y631D02*
X1685Y631D01*
X1738Y631D02*
X1747Y631D01*
X1808Y631D02*
X1817Y631D01*
X1847Y631D02*
X1855Y631D01*
X1879Y631D02*
X1888Y631D01*
X1894Y631D02*
X1910Y631D01*
X1916Y631D02*
X1925Y631D01*
X1987Y631D02*
X1996Y631D01*
X2089Y631D02*
X2098Y631D01*
X2117Y631D02*
X2137Y631D01*
X2160Y631D02*
X2168Y631D01*
X2268Y631D02*
X2277Y631D01*
X2310Y631D02*
X2318Y631D01*
X2341Y631D02*
X2345Y631D01*
X2460Y631D02*
X2469Y631D01*
X2479Y631D02*
X2488Y631D01*
X2525Y631D02*
X2544Y631D01*
X2581Y631D02*
X2590Y631D01*
X2620Y631D02*
X2629Y631D01*
X2960Y631D02*
X2967Y631D01*
X0Y630D02*
X7Y630D01*
X1676Y630D02*
X1686Y630D01*
X1738Y630D02*
X1747Y630D01*
X1808Y630D02*
X1817Y630D01*
X1846Y630D02*
X1855Y630D01*
X1879Y630D02*
X1889Y630D01*
X1894Y630D02*
X1910Y630D01*
X1915Y630D02*
X1925Y630D01*
X1987Y630D02*
X1996Y630D01*
X2089Y630D02*
X2098Y630D01*
X2118Y630D02*
X2137Y630D01*
X2160Y630D02*
X2169Y630D01*
X2268Y630D02*
X2277Y630D01*
X2310Y630D02*
X2318Y630D01*
X2340Y630D02*
X2346Y630D01*
X2460Y630D02*
X2469Y630D01*
X2479Y630D02*
X2488Y630D01*
X2526Y630D02*
X2544Y630D01*
X2581Y630D02*
X2590Y630D01*
X2620Y630D02*
X2629Y630D01*
X2960Y630D02*
X2967Y630D01*
X0Y629D02*
X7Y629D01*
X1676Y629D02*
X1686Y629D01*
X1738Y629D02*
X1747Y629D01*
X1808Y629D02*
X1818Y629D01*
X1846Y629D02*
X1855Y629D01*
X1880Y629D02*
X1889Y629D01*
X1893Y629D02*
X1911Y629D01*
X1915Y629D02*
X1925Y629D01*
X1987Y629D02*
X1996Y629D01*
X2089Y629D02*
X2098Y629D01*
X2118Y629D02*
X2137Y629D01*
X2160Y629D02*
X2169Y629D01*
X2268Y629D02*
X2277Y629D01*
X2310Y629D02*
X2318Y629D01*
X2339Y629D02*
X2347Y629D01*
X2460Y629D02*
X2469Y629D01*
X2479Y629D02*
X2488Y629D01*
X2526Y629D02*
X2543Y629D01*
X2581Y629D02*
X2590Y629D01*
X2620Y629D02*
X2629Y629D01*
X2960Y629D02*
X2967Y629D01*
X0Y628D02*
X7Y628D01*
X1677Y628D02*
X1687Y628D01*
X1738Y628D02*
X1747Y628D01*
X1808Y628D02*
X1818Y628D01*
X1845Y628D02*
X1855Y628D01*
X1880Y628D02*
X1889Y628D01*
X1893Y628D02*
X1911Y628D01*
X1915Y628D02*
X1924Y628D01*
X1987Y628D02*
X1996Y628D01*
X2089Y628D02*
X2098Y628D01*
X2118Y628D02*
X2137Y628D01*
X2160Y628D02*
X2170Y628D01*
X2268Y628D02*
X2277Y628D01*
X2310Y628D02*
X2319Y628D01*
X2339Y628D02*
X2347Y628D01*
X2460Y628D02*
X2469Y628D01*
X2479Y628D02*
X2488Y628D01*
X2527Y628D02*
X2542Y628D01*
X2581Y628D02*
X2590Y628D01*
X2620Y628D02*
X2629Y628D01*
X2960Y628D02*
X2967Y628D01*
X0Y627D02*
X7Y627D01*
X1677Y627D02*
X1687Y627D01*
X1738Y627D02*
X1747Y627D01*
X1809Y627D02*
X1820Y627D01*
X1844Y627D02*
X1855Y627D01*
X1880Y627D02*
X1890Y627D01*
X1892Y627D02*
X1912Y627D01*
X1914Y627D02*
X1924Y627D01*
X1951Y627D02*
X1955Y627D01*
X1987Y627D02*
X1996Y627D01*
X2089Y627D02*
X2098Y627D01*
X2119Y627D02*
X2137Y627D01*
X2160Y627D02*
X2171Y627D01*
X2232Y627D02*
X2236Y627D01*
X2268Y627D02*
X2277Y627D01*
X2310Y627D02*
X2319Y627D01*
X2338Y627D02*
X2347Y627D01*
X2460Y627D02*
X2469Y627D01*
X2479Y627D02*
X2488Y627D01*
X2528Y627D02*
X2541Y627D01*
X2581Y627D02*
X2590Y627D01*
X2620Y627D02*
X2629Y627D01*
X2960Y627D02*
X2967Y627D01*
X0Y626D02*
X7Y626D01*
X1678Y626D02*
X1688Y626D01*
X1738Y626D02*
X1747Y626D01*
X1809Y626D02*
X1821Y626D01*
X1843Y626D02*
X1854Y626D01*
X1880Y626D02*
X1924Y626D01*
X1950Y626D02*
X1957Y626D01*
X1986Y626D02*
X1996Y626D01*
X2089Y626D02*
X2098Y626D01*
X2119Y626D02*
X2137Y626D01*
X2161Y626D02*
X2172Y626D01*
X2231Y626D02*
X2238Y626D01*
X2267Y626D02*
X2277Y626D01*
X2310Y626D02*
X2319Y626D01*
X2338Y626D02*
X2347Y626D01*
X2460Y626D02*
X2469Y626D01*
X2479Y626D02*
X2488Y626D01*
X2581Y626D02*
X2590Y626D01*
X2620Y626D02*
X2629Y626D01*
X2960Y626D02*
X2967Y626D01*
X0Y625D02*
X7Y625D01*
X1678Y625D02*
X1689Y625D01*
X1738Y625D02*
X1747Y625D01*
X1810Y625D02*
X1822Y625D01*
X1841Y625D02*
X1854Y625D01*
X1881Y625D02*
X1901Y625D01*
X1903Y625D02*
X1923Y625D01*
X1949Y625D02*
X1958Y625D01*
X1985Y625D02*
X1995Y625D01*
X2089Y625D02*
X2098Y625D01*
X2120Y625D02*
X2137Y625D01*
X2161Y625D02*
X2173Y625D01*
X2230Y625D02*
X2239Y625D01*
X2266Y625D02*
X2276Y625D01*
X2310Y625D02*
X2320Y625D01*
X2337Y625D02*
X2347Y625D01*
X2460Y625D02*
X2469Y625D01*
X2479Y625D02*
X2488Y625D01*
X2581Y625D02*
X2590Y625D01*
X2620Y625D02*
X2629Y625D01*
X2960Y625D02*
X2967Y625D01*
X0Y624D02*
X7Y624D01*
X1679Y624D02*
X1691Y624D01*
X1738Y624D02*
X1747Y624D01*
X1810Y624D02*
X1824Y624D01*
X1840Y624D02*
X1853Y624D01*
X1881Y624D02*
X1901Y624D01*
X1904Y624D02*
X1923Y624D01*
X1949Y624D02*
X1961Y624D01*
X1983Y624D02*
X1995Y624D01*
X2089Y624D02*
X2098Y624D01*
X2120Y624D02*
X2137Y624D01*
X2162Y624D02*
X2175Y624D01*
X2230Y624D02*
X2242Y624D01*
X2264Y624D02*
X2276Y624D01*
X2310Y624D02*
X2322Y624D01*
X2335Y624D02*
X2347Y624D01*
X2460Y624D02*
X2469Y624D01*
X2479Y624D02*
X2488Y624D01*
X2581Y624D02*
X2590Y624D01*
X2620Y624D02*
X2629Y624D01*
X2960Y624D02*
X2967Y624D01*
X0Y623D02*
X7Y623D01*
X1679Y623D02*
X1712Y623D01*
X1738Y623D02*
X1747Y623D01*
X1811Y623D02*
X1852Y623D01*
X1881Y623D02*
X1900Y623D01*
X1904Y623D02*
X1923Y623D01*
X1949Y623D02*
X1995Y623D01*
X2089Y623D02*
X2098Y623D01*
X2121Y623D02*
X2137Y623D01*
X2162Y623D02*
X2204Y623D01*
X2230Y623D02*
X2276Y623D01*
X2311Y623D02*
X2346Y623D01*
X2443Y623D02*
X2488Y623D01*
X2581Y623D02*
X2629Y623D01*
X2960Y623D02*
X2967Y623D01*
X0Y622D02*
X7Y622D01*
X1680Y622D02*
X1714Y622D01*
X1738Y622D02*
X1747Y622D01*
X1812Y622D02*
X1852Y622D01*
X1882Y622D02*
X1899Y622D01*
X1905Y622D02*
X1922Y622D01*
X1949Y622D02*
X1994Y622D01*
X2089Y622D02*
X2098Y622D01*
X2121Y622D02*
X2137Y622D01*
X2163Y622D02*
X2206Y622D01*
X2230Y622D02*
X2275Y622D01*
X2311Y622D02*
X2346Y622D01*
X2442Y622D02*
X2488Y622D01*
X2581Y622D02*
X2628Y622D01*
X2960Y622D02*
X2967Y622D01*
X0Y621D02*
X7Y621D01*
X1680Y621D02*
X1714Y621D01*
X1738Y621D02*
X1747Y621D01*
X1813Y621D02*
X1851Y621D01*
X1882Y621D02*
X1899Y621D01*
X1905Y621D02*
X1922Y621D01*
X1949Y621D02*
X1994Y621D01*
X2089Y621D02*
X2098Y621D01*
X2121Y621D02*
X2137Y621D01*
X2164Y621D02*
X2206Y621D01*
X2230Y621D02*
X2275Y621D01*
X2312Y621D02*
X2345Y621D01*
X2441Y621D02*
X2488Y621D01*
X2582Y621D02*
X2628Y621D01*
X2960Y621D02*
X2967Y621D01*
X0Y620D02*
X7Y620D01*
X1681Y620D02*
X1715Y620D01*
X1738Y620D02*
X1747Y620D01*
X1814Y620D02*
X1850Y620D01*
X1882Y620D02*
X1898Y620D01*
X1906Y620D02*
X1922Y620D01*
X1950Y620D02*
X1993Y620D01*
X2089Y620D02*
X2098Y620D01*
X2122Y620D02*
X2137Y620D01*
X2165Y620D02*
X2207Y620D01*
X2231Y620D02*
X2274Y620D01*
X2313Y620D02*
X2345Y620D01*
X2441Y620D02*
X2488Y620D01*
X2582Y620D02*
X2628Y620D01*
X2960Y620D02*
X2967Y620D01*
X0Y619D02*
X7Y619D01*
X1682Y619D02*
X1715Y619D01*
X1738Y619D02*
X1747Y619D01*
X1815Y619D02*
X1849Y619D01*
X1882Y619D02*
X1898Y619D01*
X1906Y619D02*
X1922Y619D01*
X1951Y619D02*
X1992Y619D01*
X2089Y619D02*
X2098Y619D01*
X2122Y619D02*
X2137Y619D01*
X2166Y619D02*
X2207Y619D01*
X2232Y619D02*
X2273Y619D01*
X2313Y619D02*
X2344Y619D01*
X2441Y619D02*
X2488Y619D01*
X2583Y619D02*
X2627Y619D01*
X2960Y619D02*
X2967Y619D01*
X0Y618D02*
X7Y618D01*
X1683Y618D02*
X1715Y618D01*
X1738Y618D02*
X1746Y618D01*
X1816Y618D02*
X1847Y618D01*
X1883Y618D02*
X1897Y618D01*
X1907Y618D02*
X1921Y618D01*
X1952Y618D02*
X1991Y618D01*
X2089Y618D02*
X2098Y618D01*
X2123Y618D02*
X2137Y618D01*
X2167Y618D02*
X2207Y618D01*
X2233Y618D02*
X2272Y618D01*
X2314Y618D02*
X2343Y618D01*
X2441Y618D02*
X2488Y618D01*
X2583Y618D02*
X2627Y618D01*
X2960Y618D02*
X2967Y618D01*
X0Y617D02*
X7Y617D01*
X1684Y617D02*
X1714Y617D01*
X1738Y617D02*
X1746Y617D01*
X1817Y617D02*
X1846Y617D01*
X1883Y617D02*
X1896Y617D01*
X1908Y617D02*
X1921Y617D01*
X1953Y617D02*
X1990Y617D01*
X2090Y617D02*
X2098Y617D01*
X2123Y617D02*
X2137Y617D01*
X2169Y617D02*
X2206Y617D01*
X2235Y617D02*
X2271Y617D01*
X2316Y617D02*
X2342Y617D01*
X2441Y617D02*
X2488Y617D01*
X2584Y617D02*
X2626Y617D01*
X2960Y617D02*
X2967Y617D01*
X0Y616D02*
X7Y616D01*
X1686Y616D02*
X1714Y616D01*
X1739Y616D02*
X1746Y616D01*
X1819Y616D02*
X1845Y616D01*
X1884Y616D02*
X1896Y616D01*
X1908Y616D02*
X1920Y616D01*
X1955Y616D02*
X1988Y616D01*
X2090Y616D02*
X2097Y616D01*
X2124Y616D02*
X2137Y616D01*
X2170Y616D02*
X2206Y616D01*
X2236Y616D02*
X2270Y616D01*
X2317Y616D02*
X2340Y616D01*
X2442Y616D02*
X2487Y616D01*
X2585Y616D02*
X2625Y616D01*
X2960Y616D02*
X2967Y616D01*
X0Y615D02*
X7Y615D01*
X1688Y615D02*
X1713Y615D01*
X1740Y615D02*
X1744Y615D01*
X1821Y615D02*
X1843Y615D01*
X1885Y615D02*
X1895Y615D01*
X1909Y615D02*
X1919Y615D01*
X1958Y615D02*
X1986Y615D01*
X2091Y615D02*
X2096Y615D01*
X2124Y615D02*
X2137Y615D01*
X2172Y615D02*
X2205Y615D01*
X2239Y615D02*
X2268Y615D01*
X2319Y615D02*
X2338Y615D01*
X2443Y615D02*
X2486Y615D01*
X2587Y615D02*
X2623Y615D01*
X2960Y615D02*
X2967Y615D01*
X0Y614D02*
X7Y614D01*
X1693Y614D02*
X1710Y614D01*
X1826Y614D02*
X1837Y614D01*
X1888Y614D02*
X1892Y614D01*
X1912Y614D02*
X1916Y614D01*
X1963Y614D02*
X1981Y614D01*
X2125Y614D02*
X2136Y614D01*
X2177Y614D02*
X2202Y614D01*
X2245Y614D02*
X2262Y614D01*
X2324Y614D02*
X2333Y614D01*
X2446Y614D02*
X2483Y614D01*
X2591Y614D02*
X2619Y614D01*
X2960Y614D02*
X2967Y614D01*
X0Y613D02*
X7Y613D01*
X2960Y613D02*
X2967Y613D01*
X0Y612D02*
X7Y612D01*
X2960Y612D02*
X2967Y612D01*
X0Y611D02*
X7Y611D01*
X2960Y611D02*
X2967Y611D01*
X0Y610D02*
X7Y610D01*
X2960Y610D02*
X2967Y610D01*
X0Y609D02*
X7Y609D01*
X2960Y609D02*
X2967Y609D01*
X0Y608D02*
X7Y608D01*
X2960Y608D02*
X2967Y608D01*
X0Y607D02*
X7Y607D01*
X2960Y607D02*
X2967Y607D01*
X0Y606D02*
X7Y606D01*
X2960Y606D02*
X2967Y606D01*
X0Y605D02*
X7Y605D01*
X2960Y605D02*
X2967Y605D01*
X0Y604D02*
X7Y604D01*
X2960Y604D02*
X2967Y604D01*
X0Y603D02*
X7Y603D01*
X2960Y603D02*
X2967Y603D01*
X0Y602D02*
X7Y602D01*
X2960Y602D02*
X2967Y602D01*
X0Y601D02*
X7Y601D01*
X2960Y601D02*
X2967Y601D01*
X0Y600D02*
X7Y600D01*
X2960Y600D02*
X2967Y600D01*
X0Y599D02*
X7Y599D01*
X2960Y599D02*
X2967Y599D01*
X0Y598D02*
X7Y598D01*
X2960Y598D02*
X2967Y598D01*
X0Y597D02*
X7Y597D01*
X2960Y597D02*
X2967Y597D01*
X0Y596D02*
X7Y596D01*
X2960Y596D02*
X2967Y596D01*
X0Y595D02*
X7Y595D01*
X2960Y595D02*
X2967Y595D01*
X0Y594D02*
X7Y594D01*
X2960Y594D02*
X2967Y594D01*
X0Y593D02*
X7Y593D01*
X2960Y593D02*
X2967Y593D01*
X0Y592D02*
X7Y592D01*
X2960Y592D02*
X2967Y592D01*
X0Y591D02*
X7Y591D01*
X2960Y591D02*
X2967Y591D01*
X0Y590D02*
X7Y590D01*
X2960Y590D02*
X2967Y590D01*
X0Y589D02*
X7Y589D01*
X2960Y589D02*
X2967Y589D01*
X0Y588D02*
X7Y588D01*
X2960Y588D02*
X2967Y588D01*
X0Y587D02*
X7Y587D01*
X2960Y587D02*
X2967Y587D01*
X0Y586D02*
X7Y586D01*
X2960Y586D02*
X2967Y586D01*
X0Y585D02*
X7Y585D01*
X2960Y585D02*
X2967Y585D01*
X0Y584D02*
X7Y584D01*
X2960Y584D02*
X2967Y584D01*
X0Y583D02*
X7Y583D01*
X2960Y583D02*
X2967Y583D01*
X0Y582D02*
X7Y582D01*
X2807Y582D02*
X2807Y582D01*
X2960Y582D02*
X2967Y582D01*
X0Y581D02*
X7Y581D01*
X2805Y581D02*
X2809Y581D01*
X2960Y581D02*
X2967Y581D01*
X0Y580D02*
X7Y580D01*
X2804Y580D02*
X2809Y580D01*
X2960Y580D02*
X2967Y580D01*
X0Y579D02*
X7Y579D01*
X2804Y579D02*
X2810Y579D01*
X2960Y579D02*
X2967Y579D01*
X0Y578D02*
X7Y578D01*
X2804Y578D02*
X2810Y578D01*
X2960Y578D02*
X2967Y578D01*
X0Y577D02*
X7Y577D01*
X2804Y577D02*
X2810Y577D01*
X2960Y577D02*
X2967Y577D01*
X0Y576D02*
X7Y576D01*
X2804Y576D02*
X2810Y576D01*
X2960Y576D02*
X2967Y576D01*
X0Y575D02*
X7Y575D01*
X2804Y575D02*
X2810Y575D01*
X2960Y575D02*
X2967Y575D01*
X0Y574D02*
X7Y574D01*
X2804Y574D02*
X2810Y574D01*
X2960Y574D02*
X2967Y574D01*
X0Y573D02*
X7Y573D01*
X2804Y573D02*
X2810Y573D01*
X2960Y573D02*
X2967Y573D01*
X0Y572D02*
X7Y572D01*
X2804Y572D02*
X2810Y572D01*
X2960Y572D02*
X2967Y572D01*
X0Y571D02*
X7Y571D01*
X2804Y571D02*
X2810Y571D01*
X2960Y571D02*
X2967Y571D01*
X0Y570D02*
X7Y570D01*
X2804Y570D02*
X2810Y570D01*
X2960Y570D02*
X2967Y570D01*
X0Y569D02*
X7Y569D01*
X2804Y569D02*
X2810Y569D01*
X2960Y569D02*
X2967Y569D01*
X0Y568D02*
X7Y568D01*
X2792Y568D02*
X2821Y568D01*
X2960Y568D02*
X2967Y568D01*
X0Y567D02*
X7Y567D01*
X2791Y567D02*
X2823Y567D01*
X2960Y567D02*
X2967Y567D01*
X0Y566D02*
X7Y566D01*
X2790Y566D02*
X2823Y566D01*
X2960Y566D02*
X2967Y566D01*
X0Y565D02*
X7Y565D01*
X2790Y565D02*
X2823Y565D01*
X2960Y565D02*
X2967Y565D01*
X0Y564D02*
X7Y564D01*
X2790Y564D02*
X2823Y564D01*
X2960Y564D02*
X2967Y564D01*
X0Y563D02*
X7Y563D01*
X2790Y563D02*
X2823Y563D01*
X2960Y563D02*
X2967Y563D01*
X0Y562D02*
X7Y562D01*
X2791Y562D02*
X2822Y562D01*
X2960Y562D02*
X2967Y562D01*
X0Y561D02*
X7Y561D01*
X2803Y561D02*
X2810Y561D01*
X2960Y561D02*
X2967Y561D01*
X0Y560D02*
X7Y560D01*
X2804Y560D02*
X2810Y560D01*
X2960Y560D02*
X2967Y560D01*
X0Y559D02*
X7Y559D01*
X2804Y559D02*
X2810Y559D01*
X2960Y559D02*
X2967Y559D01*
X0Y558D02*
X7Y558D01*
X2804Y558D02*
X2810Y558D01*
X2960Y558D02*
X2967Y558D01*
X0Y557D02*
X7Y557D01*
X2804Y557D02*
X2810Y557D01*
X2960Y557D02*
X2967Y557D01*
X0Y556D02*
X7Y556D01*
X2804Y556D02*
X2810Y556D01*
X2960Y556D02*
X2967Y556D01*
X0Y555D02*
X7Y555D01*
X2804Y555D02*
X2810Y555D01*
X2960Y555D02*
X2967Y555D01*
X0Y554D02*
X7Y554D01*
X2804Y554D02*
X2810Y554D01*
X2960Y554D02*
X2967Y554D01*
X0Y553D02*
X7Y553D01*
X2804Y553D02*
X2810Y553D01*
X2960Y553D02*
X2967Y553D01*
X0Y552D02*
X7Y552D01*
X2804Y552D02*
X2810Y552D01*
X2960Y552D02*
X2967Y552D01*
X0Y551D02*
X7Y551D01*
X2804Y551D02*
X2810Y551D01*
X2960Y551D02*
X2967Y551D01*
X0Y550D02*
X7Y550D01*
X2804Y550D02*
X2809Y550D01*
X2960Y550D02*
X2967Y550D01*
X0Y549D02*
X7Y549D01*
X2804Y549D02*
X2809Y549D01*
X2960Y549D02*
X2967Y549D01*
X0Y548D02*
X7Y548D01*
X2960Y548D02*
X2967Y548D01*
X0Y547D02*
X7Y547D01*
X2960Y547D02*
X2967Y547D01*
X0Y546D02*
X7Y546D01*
X2960Y546D02*
X2967Y546D01*
X0Y545D02*
X7Y545D01*
X2960Y545D02*
X2967Y545D01*
X0Y544D02*
X7Y544D01*
X2960Y544D02*
X2967Y544D01*
X0Y543D02*
X7Y543D01*
X2960Y543D02*
X2967Y543D01*
X0Y542D02*
X7Y542D01*
X2960Y542D02*
X2967Y542D01*
X0Y541D02*
X7Y541D01*
X2960Y541D02*
X2967Y541D01*
X0Y540D02*
X7Y540D01*
X2960Y540D02*
X2967Y540D01*
X0Y539D02*
X7Y539D01*
X2960Y539D02*
X2967Y539D01*
X0Y538D02*
X7Y538D01*
X2960Y538D02*
X2967Y538D01*
X0Y537D02*
X7Y537D01*
X2960Y537D02*
X2967Y537D01*
X0Y536D02*
X7Y536D01*
X2960Y536D02*
X2967Y536D01*
X0Y535D02*
X7Y535D01*
X2960Y535D02*
X2967Y535D01*
X0Y534D02*
X7Y534D01*
X2960Y534D02*
X2967Y534D01*
X0Y533D02*
X7Y533D01*
X2960Y533D02*
X2967Y533D01*
X0Y532D02*
X7Y532D01*
X2960Y532D02*
X2967Y532D01*
X0Y531D02*
X7Y531D01*
X2781Y531D02*
X2785Y531D01*
X2960Y531D02*
X2967Y531D01*
X0Y530D02*
X7Y530D01*
X2780Y530D02*
X2787Y530D01*
X2960Y530D02*
X2967Y530D01*
X0Y529D02*
X7Y529D01*
X2780Y529D02*
X2789Y529D01*
X2960Y529D02*
X2967Y529D01*
X0Y528D02*
X7Y528D01*
X2780Y528D02*
X2790Y528D01*
X2960Y528D02*
X2967Y528D01*
X0Y527D02*
X7Y527D01*
X2780Y527D02*
X2792Y527D01*
X2960Y527D02*
X2967Y527D01*
X0Y526D02*
X7Y526D01*
X2781Y526D02*
X2794Y526D01*
X2960Y526D02*
X2967Y526D01*
X0Y525D02*
X7Y525D01*
X2782Y525D02*
X2795Y525D01*
X2960Y525D02*
X2967Y525D01*
X0Y524D02*
X7Y524D01*
X2784Y524D02*
X2797Y524D01*
X2960Y524D02*
X2967Y524D01*
X0Y523D02*
X7Y523D01*
X2786Y523D02*
X2799Y523D01*
X2960Y523D02*
X2967Y523D01*
X0Y522D02*
X7Y522D01*
X2787Y522D02*
X2801Y522D01*
X2960Y522D02*
X2967Y522D01*
X0Y521D02*
X7Y521D01*
X2789Y521D02*
X2802Y521D01*
X2960Y521D02*
X2967Y521D01*
X0Y520D02*
X7Y520D01*
X2791Y520D02*
X2804Y520D01*
X2960Y520D02*
X2967Y520D01*
X0Y519D02*
X7Y519D01*
X2793Y519D02*
X2806Y519D01*
X2960Y519D02*
X2967Y519D01*
X0Y518D02*
X7Y518D01*
X2794Y518D02*
X2807Y518D01*
X2960Y518D02*
X2967Y518D01*
X0Y517D02*
X7Y517D01*
X2796Y517D02*
X2809Y517D01*
X2960Y517D02*
X2967Y517D01*
X0Y516D02*
X7Y516D01*
X2798Y516D02*
X2811Y516D01*
X2960Y516D02*
X2967Y516D01*
X0Y515D02*
X7Y515D01*
X2799Y515D02*
X2812Y515D01*
X2960Y515D02*
X2967Y515D01*
X0Y514D02*
X7Y514D01*
X2801Y514D02*
X2814Y514D01*
X2960Y514D02*
X2967Y514D01*
X0Y513D02*
X7Y513D01*
X2803Y513D02*
X2816Y513D01*
X2960Y513D02*
X2967Y513D01*
X0Y512D02*
X7Y512D01*
X2805Y512D02*
X2818Y512D01*
X2960Y512D02*
X2967Y512D01*
X0Y511D02*
X7Y511D01*
X2806Y511D02*
X2819Y511D01*
X2960Y511D02*
X2967Y511D01*
X0Y510D02*
X7Y510D01*
X2808Y510D02*
X2821Y510D01*
X2960Y510D02*
X2967Y510D01*
X0Y509D02*
X7Y509D01*
X2810Y509D02*
X2823Y509D01*
X2960Y509D02*
X2967Y509D01*
X0Y508D02*
X7Y508D01*
X2811Y508D02*
X2824Y508D01*
X2960Y508D02*
X2967Y508D01*
X0Y507D02*
X7Y507D01*
X2813Y507D02*
X2826Y507D01*
X2960Y507D02*
X2967Y507D01*
X0Y506D02*
X7Y506D01*
X2815Y506D02*
X2828Y506D01*
X2960Y506D02*
X2967Y506D01*
X0Y505D02*
X7Y505D01*
X2817Y505D02*
X2830Y505D01*
X2960Y505D02*
X2967Y505D01*
X0Y504D02*
X7Y504D01*
X2818Y504D02*
X2831Y504D01*
X2960Y504D02*
X2967Y504D01*
X0Y503D02*
X7Y503D01*
X2820Y503D02*
X2832Y503D01*
X2960Y503D02*
X2967Y503D01*
X0Y502D02*
X7Y502D01*
X2822Y502D02*
X2833Y502D01*
X2960Y502D02*
X2967Y502D01*
X0Y501D02*
X7Y501D01*
X2823Y501D02*
X2833Y501D01*
X2960Y501D02*
X2967Y501D01*
X0Y500D02*
X7Y500D01*
X2825Y500D02*
X2833Y500D01*
X2960Y500D02*
X2967Y500D01*
X0Y499D02*
X7Y499D01*
X2827Y499D02*
X2833Y499D01*
X2960Y499D02*
X2967Y499D01*
X0Y498D02*
X7Y498D01*
X2829Y498D02*
X2832Y498D01*
X2960Y498D02*
X2967Y498D01*
X0Y497D02*
X7Y497D01*
X2960Y497D02*
X2967Y497D01*
X0Y496D02*
X7Y496D01*
X2960Y496D02*
X2967Y496D01*
X0Y495D02*
X7Y495D01*
X2960Y495D02*
X2967Y495D01*
X0Y494D02*
X7Y494D01*
X2960Y494D02*
X2967Y494D01*
X0Y493D02*
X7Y493D01*
X2960Y493D02*
X2967Y493D01*
X0Y492D02*
X7Y492D01*
X2960Y492D02*
X2967Y492D01*
X0Y491D02*
X7Y491D01*
X2960Y491D02*
X2967Y491D01*
X0Y490D02*
X7Y490D01*
X2960Y490D02*
X2967Y490D01*
X0Y489D02*
X7Y489D01*
X2960Y489D02*
X2967Y489D01*
X0Y488D02*
X7Y488D01*
X2960Y488D02*
X2967Y488D01*
X0Y487D02*
X7Y487D01*
X2960Y487D02*
X2967Y487D01*
X0Y486D02*
X7Y486D01*
X2960Y486D02*
X2967Y486D01*
X0Y485D02*
X7Y485D01*
X2960Y485D02*
X2967Y485D01*
X0Y484D02*
X7Y484D01*
X2960Y484D02*
X2967Y484D01*
X0Y483D02*
X7Y483D01*
X2960Y483D02*
X2967Y483D01*
X0Y482D02*
X7Y482D01*
X2960Y482D02*
X2967Y482D01*
X0Y481D02*
X7Y481D01*
X2805Y481D02*
X2811Y481D01*
X2960Y481D02*
X2967Y481D01*
X0Y480D02*
X7Y480D01*
X2804Y480D02*
X2812Y480D01*
X2960Y480D02*
X2967Y480D01*
X0Y479D02*
X7Y479D01*
X2804Y479D02*
X2812Y479D01*
X2960Y479D02*
X2967Y479D01*
X0Y478D02*
X7Y478D01*
X2804Y478D02*
X2813Y478D01*
X2960Y478D02*
X2967Y478D01*
X0Y477D02*
X7Y477D01*
X2804Y477D02*
X2813Y477D01*
X2960Y477D02*
X2967Y477D01*
X0Y476D02*
X7Y476D01*
X2804Y476D02*
X2813Y476D01*
X2960Y476D02*
X2967Y476D01*
X0Y475D02*
X7Y475D01*
X2804Y475D02*
X2813Y475D01*
X2960Y475D02*
X2967Y475D01*
X0Y474D02*
X7Y474D01*
X2804Y474D02*
X2813Y474D01*
X2960Y474D02*
X2967Y474D01*
X0Y473D02*
X7Y473D01*
X2804Y473D02*
X2813Y473D01*
X2960Y473D02*
X2967Y473D01*
X0Y472D02*
X7Y472D01*
X2804Y472D02*
X2813Y472D01*
X2960Y472D02*
X2967Y472D01*
X0Y471D02*
X7Y471D01*
X2804Y471D02*
X2813Y471D01*
X2960Y471D02*
X2967Y471D01*
X0Y470D02*
X7Y470D01*
X2804Y470D02*
X2813Y470D01*
X2960Y470D02*
X2967Y470D01*
X0Y469D02*
X7Y469D01*
X2804Y469D02*
X2813Y469D01*
X2960Y469D02*
X2967Y469D01*
X0Y468D02*
X7Y468D01*
X2804Y468D02*
X2813Y468D01*
X2960Y468D02*
X2967Y468D01*
X0Y467D02*
X7Y467D01*
X2804Y467D02*
X2813Y467D01*
X2960Y467D02*
X2967Y467D01*
X0Y466D02*
X7Y466D01*
X2804Y466D02*
X2813Y466D01*
X2960Y466D02*
X2967Y466D01*
X0Y465D02*
X7Y465D01*
X2804Y465D02*
X2813Y465D01*
X2960Y465D02*
X2967Y465D01*
X0Y464D02*
X7Y464D01*
X2804Y464D02*
X2813Y464D01*
X2960Y464D02*
X2967Y464D01*
X0Y463D02*
X7Y463D01*
X2804Y463D02*
X2813Y463D01*
X2960Y463D02*
X2967Y463D01*
X0Y462D02*
X7Y462D01*
X2804Y462D02*
X2813Y462D01*
X2960Y462D02*
X2967Y462D01*
X0Y461D02*
X7Y461D01*
X2804Y461D02*
X2813Y461D01*
X2960Y461D02*
X2967Y461D01*
X0Y460D02*
X7Y460D01*
X2804Y460D02*
X2813Y460D01*
X2960Y460D02*
X2967Y460D01*
X0Y459D02*
X7Y459D01*
X2804Y459D02*
X2813Y459D01*
X2960Y459D02*
X2967Y459D01*
X0Y458D02*
X7Y458D01*
X2804Y458D02*
X2813Y458D01*
X2960Y458D02*
X2967Y458D01*
X0Y457D02*
X7Y457D01*
X2804Y457D02*
X2813Y457D01*
X2960Y457D02*
X2967Y457D01*
X0Y456D02*
X7Y456D01*
X2804Y456D02*
X2813Y456D01*
X2960Y456D02*
X2967Y456D01*
X0Y455D02*
X7Y455D01*
X2804Y455D02*
X2813Y455D01*
X2960Y455D02*
X2967Y455D01*
X0Y454D02*
X7Y454D01*
X2804Y454D02*
X2813Y454D01*
X2960Y454D02*
X2967Y454D01*
X0Y453D02*
X7Y453D01*
X2804Y453D02*
X2813Y453D01*
X2960Y453D02*
X2967Y453D01*
X0Y452D02*
X7Y452D01*
X2804Y452D02*
X2813Y452D01*
X2960Y452D02*
X2967Y452D01*
X0Y451D02*
X7Y451D01*
X2804Y451D02*
X2813Y451D01*
X2960Y451D02*
X2967Y451D01*
X0Y450D02*
X7Y450D01*
X2804Y450D02*
X2812Y450D01*
X2960Y450D02*
X2967Y450D01*
X0Y449D02*
X7Y449D01*
X2804Y449D02*
X2812Y449D01*
X2960Y449D02*
X2967Y449D01*
X0Y448D02*
X7Y448D01*
X2805Y448D02*
X2811Y448D01*
X2960Y448D02*
X2967Y448D01*
X0Y447D02*
X7Y447D01*
X2960Y447D02*
X2967Y447D01*
X0Y446D02*
X7Y446D01*
X2960Y446D02*
X2967Y446D01*
X0Y445D02*
X7Y445D01*
X2960Y445D02*
X2967Y445D01*
X0Y444D02*
X7Y444D01*
X2960Y444D02*
X2967Y444D01*
X0Y443D02*
X7Y443D01*
X2960Y443D02*
X2967Y443D01*
X0Y442D02*
X7Y442D01*
X2960Y442D02*
X2967Y442D01*
X0Y441D02*
X7Y441D01*
X2960Y441D02*
X2967Y441D01*
X0Y440D02*
X7Y440D01*
X2960Y440D02*
X2967Y440D01*
X0Y439D02*
X7Y439D01*
X2960Y439D02*
X2967Y439D01*
X0Y438D02*
X7Y438D01*
X2960Y438D02*
X2967Y438D01*
X0Y437D02*
X7Y437D01*
X2960Y437D02*
X2967Y437D01*
X0Y436D02*
X7Y436D01*
X2960Y436D02*
X2967Y436D01*
X0Y435D02*
X7Y435D01*
X2960Y435D02*
X2967Y435D01*
X0Y434D02*
X7Y434D01*
X2960Y434D02*
X2967Y434D01*
X0Y433D02*
X7Y433D01*
X2960Y433D02*
X2967Y433D01*
X0Y432D02*
X7Y432D01*
X2960Y432D02*
X2967Y432D01*
X0Y431D02*
X7Y431D01*
X2960Y431D02*
X2967Y431D01*
X0Y430D02*
X7Y430D01*
X2960Y430D02*
X2967Y430D01*
X0Y429D02*
X7Y429D01*
X2960Y429D02*
X2967Y429D01*
X0Y428D02*
X7Y428D01*
X2960Y428D02*
X2967Y428D01*
X0Y427D02*
X7Y427D01*
X2960Y427D02*
X2967Y427D01*
X0Y426D02*
X7Y426D01*
X2960Y426D02*
X2967Y426D01*
X0Y425D02*
X7Y425D01*
X2960Y425D02*
X2967Y425D01*
X0Y424D02*
X7Y424D01*
X2960Y424D02*
X2967Y424D01*
X0Y423D02*
X7Y423D01*
X301Y423D02*
X368Y423D01*
X569Y423D02*
X616Y423D01*
X2960Y423D02*
X2967Y423D01*
X0Y422D02*
X7Y422D01*
X301Y422D02*
X368Y422D01*
X569Y422D02*
X616Y422D01*
X2960Y422D02*
X2967Y422D01*
X0Y421D02*
X7Y421D01*
X301Y421D02*
X368Y421D01*
X569Y421D02*
X616Y421D01*
X2960Y421D02*
X2967Y421D01*
X0Y420D02*
X7Y420D01*
X302Y420D02*
X368Y420D01*
X569Y420D02*
X616Y420D01*
X2960Y420D02*
X2967Y420D01*
X0Y419D02*
X7Y419D01*
X302Y419D02*
X368Y419D01*
X569Y419D02*
X616Y419D01*
X2960Y419D02*
X2967Y419D01*
X0Y418D02*
X7Y418D01*
X302Y418D02*
X368Y418D01*
X569Y418D02*
X616Y418D01*
X2960Y418D02*
X2967Y418D01*
X0Y417D02*
X7Y417D01*
X302Y417D02*
X368Y417D01*
X569Y417D02*
X616Y417D01*
X2960Y417D02*
X2967Y417D01*
X0Y416D02*
X7Y416D01*
X301Y416D02*
X368Y416D01*
X569Y416D02*
X616Y416D01*
X2960Y416D02*
X2967Y416D01*
X0Y415D02*
X7Y415D01*
X301Y415D02*
X368Y415D01*
X569Y415D02*
X616Y415D01*
X2960Y415D02*
X2967Y415D01*
X0Y414D02*
X7Y414D01*
X301Y414D02*
X368Y414D01*
X569Y414D02*
X616Y414D01*
X2960Y414D02*
X2967Y414D01*
X0Y413D02*
X7Y413D01*
X2960Y413D02*
X2967Y413D01*
X0Y412D02*
X7Y412D01*
X2960Y412D02*
X2967Y412D01*
X0Y411D02*
X7Y411D01*
X2849Y411D02*
X2858Y411D01*
X2960Y411D02*
X2967Y411D01*
X0Y410D02*
X7Y410D01*
X2849Y410D02*
X2858Y410D01*
X2960Y410D02*
X2967Y410D01*
X0Y409D02*
X7Y409D01*
X2849Y409D02*
X2858Y409D01*
X2960Y409D02*
X2967Y409D01*
X0Y408D02*
X7Y408D01*
X2849Y408D02*
X2858Y408D01*
X2960Y408D02*
X2967Y408D01*
X0Y407D02*
X7Y407D01*
X2849Y407D02*
X2858Y407D01*
X2960Y407D02*
X2967Y407D01*
X0Y406D02*
X7Y406D01*
X2849Y406D02*
X2858Y406D01*
X2960Y406D02*
X2967Y406D01*
X0Y405D02*
X7Y405D01*
X2849Y405D02*
X2858Y405D01*
X2960Y405D02*
X2967Y405D01*
X0Y404D02*
X7Y404D01*
X2849Y404D02*
X2858Y404D01*
X2960Y404D02*
X2967Y404D01*
X0Y403D02*
X7Y403D01*
X2849Y403D02*
X2858Y403D01*
X2960Y403D02*
X2967Y403D01*
X0Y402D02*
X7Y402D01*
X2849Y402D02*
X2858Y402D01*
X2960Y402D02*
X2967Y402D01*
X0Y401D02*
X7Y401D01*
X2849Y401D02*
X2858Y401D01*
X2960Y401D02*
X2967Y401D01*
X0Y400D02*
X7Y400D01*
X2849Y400D02*
X2858Y400D01*
X2960Y400D02*
X2967Y400D01*
X0Y399D02*
X7Y399D01*
X2849Y399D02*
X2858Y399D01*
X2960Y399D02*
X2967Y399D01*
X0Y398D02*
X7Y398D01*
X2849Y398D02*
X2858Y398D01*
X2960Y398D02*
X2967Y398D01*
X0Y397D02*
X7Y397D01*
X2849Y397D02*
X2858Y397D01*
X2960Y397D02*
X2967Y397D01*
X0Y396D02*
X7Y396D01*
X2849Y396D02*
X2858Y396D01*
X2960Y396D02*
X2967Y396D01*
X0Y395D02*
X7Y395D01*
X2849Y395D02*
X2858Y395D01*
X2960Y395D02*
X2967Y395D01*
X0Y394D02*
X7Y394D01*
X2784Y394D02*
X2798Y394D01*
X2849Y394D02*
X2858Y394D01*
X2960Y394D02*
X2967Y394D01*
X0Y393D02*
X7Y393D01*
X2756Y393D02*
X2760Y393D01*
X2784Y393D02*
X2802Y393D01*
X2849Y393D02*
X2858Y393D01*
X2960Y393D02*
X2967Y393D01*
X0Y392D02*
X7Y392D01*
X2755Y392D02*
X2760Y392D01*
X2784Y392D02*
X2803Y392D01*
X2849Y392D02*
X2858Y392D01*
X2960Y392D02*
X2967Y392D01*
X0Y391D02*
X7Y391D01*
X2755Y391D02*
X2761Y391D01*
X2784Y391D02*
X2805Y391D01*
X2849Y391D02*
X2858Y391D01*
X2960Y391D02*
X2967Y391D01*
X0Y390D02*
X7Y390D01*
X2755Y390D02*
X2761Y390D01*
X2784Y390D02*
X2805Y390D01*
X2849Y390D02*
X2858Y390D01*
X2960Y390D02*
X2967Y390D01*
X0Y389D02*
X7Y389D01*
X2755Y389D02*
X2761Y389D01*
X2784Y389D02*
X2806Y389D01*
X2849Y389D02*
X2858Y389D01*
X2960Y389D02*
X2967Y389D01*
X0Y388D02*
X7Y388D01*
X2755Y388D02*
X2761Y388D01*
X2784Y388D02*
X2807Y388D01*
X2849Y388D02*
X2858Y388D01*
X2960Y388D02*
X2967Y388D01*
X0Y387D02*
X7Y387D01*
X2755Y387D02*
X2761Y387D01*
X2784Y387D02*
X2791Y387D01*
X2798Y387D02*
X2807Y387D01*
X2849Y387D02*
X2858Y387D01*
X2960Y387D02*
X2967Y387D01*
X0Y386D02*
X7Y386D01*
X2755Y386D02*
X2761Y386D01*
X2784Y386D02*
X2790Y386D01*
X2801Y386D02*
X2807Y386D01*
X2849Y386D02*
X2858Y386D01*
X2960Y386D02*
X2967Y386D01*
X0Y385D02*
X7Y385D01*
X2755Y385D02*
X2761Y385D01*
X2784Y385D02*
X2790Y385D01*
X2801Y385D02*
X2808Y385D01*
X2849Y385D02*
X2858Y385D01*
X2960Y385D02*
X2967Y385D01*
X0Y384D02*
X7Y384D01*
X2755Y384D02*
X2761Y384D01*
X2784Y384D02*
X2790Y384D01*
X2802Y384D02*
X2808Y384D01*
X2849Y384D02*
X2858Y384D01*
X2960Y384D02*
X2967Y384D01*
X0Y383D02*
X7Y383D01*
X2755Y383D02*
X2761Y383D01*
X2784Y383D02*
X2790Y383D01*
X2802Y383D02*
X2808Y383D01*
X2849Y383D02*
X2858Y383D01*
X2960Y383D02*
X2967Y383D01*
X0Y382D02*
X7Y382D01*
X2755Y382D02*
X2761Y382D01*
X2784Y382D02*
X2790Y382D01*
X2802Y382D02*
X2808Y382D01*
X2849Y382D02*
X2858Y382D01*
X2960Y382D02*
X2967Y382D01*
X0Y381D02*
X7Y381D01*
X2755Y381D02*
X2761Y381D01*
X2784Y381D02*
X2790Y381D01*
X2802Y381D02*
X2808Y381D01*
X2849Y381D02*
X2858Y381D01*
X2960Y381D02*
X2967Y381D01*
X0Y380D02*
X7Y380D01*
X2755Y380D02*
X2761Y380D01*
X2784Y380D02*
X2790Y380D01*
X2802Y380D02*
X2808Y380D01*
X2849Y380D02*
X2858Y380D01*
X2960Y380D02*
X2967Y380D01*
X0Y379D02*
X7Y379D01*
X2755Y379D02*
X2761Y379D01*
X2784Y379D02*
X2790Y379D01*
X2802Y379D02*
X2808Y379D01*
X2849Y379D02*
X2858Y379D01*
X2960Y379D02*
X2967Y379D01*
X0Y378D02*
X7Y378D01*
X2755Y378D02*
X2762Y378D01*
X2785Y378D02*
X2789Y378D01*
X2802Y378D02*
X2808Y378D01*
X2849Y378D02*
X2858Y378D01*
X2960Y378D02*
X2967Y378D01*
X0Y377D02*
X7Y377D01*
X2755Y377D02*
X2763Y377D01*
X2786Y377D02*
X2788Y377D01*
X2802Y377D02*
X2808Y377D01*
X2849Y377D02*
X2858Y377D01*
X2960Y377D02*
X2967Y377D01*
X0Y376D02*
X7Y376D01*
X2755Y376D02*
X2764Y376D01*
X2802Y376D02*
X2808Y376D01*
X2849Y376D02*
X2858Y376D01*
X2960Y376D02*
X2967Y376D01*
X0Y375D02*
X7Y375D01*
X2756Y375D02*
X2765Y375D01*
X2802Y375D02*
X2808Y375D01*
X2849Y375D02*
X2858Y375D01*
X2960Y375D02*
X2967Y375D01*
X0Y374D02*
X7Y374D01*
X2757Y374D02*
X2766Y374D01*
X2802Y374D02*
X2808Y374D01*
X2849Y374D02*
X2858Y374D01*
X2960Y374D02*
X2967Y374D01*
X0Y373D02*
X7Y373D01*
X2757Y373D02*
X2768Y373D01*
X2802Y373D02*
X2808Y373D01*
X2850Y373D02*
X2858Y373D01*
X2960Y373D02*
X2967Y373D01*
X0Y372D02*
X7Y372D01*
X2759Y372D02*
X2769Y372D01*
X2802Y372D02*
X2808Y372D01*
X2851Y372D02*
X2858Y372D01*
X2960Y372D02*
X2967Y372D01*
X0Y371D02*
X7Y371D01*
X2760Y371D02*
X2770Y371D01*
X2802Y371D02*
X2808Y371D01*
X2852Y371D02*
X2858Y371D01*
X2960Y371D02*
X2967Y371D01*
X0Y370D02*
X7Y370D01*
X2761Y370D02*
X2772Y370D01*
X2802Y370D02*
X2808Y370D01*
X2853Y370D02*
X2858Y370D01*
X2960Y370D02*
X2967Y370D01*
X0Y369D02*
X7Y369D01*
X2762Y369D02*
X2773Y369D01*
X2802Y369D02*
X2808Y369D01*
X2854Y369D02*
X2858Y369D01*
X2960Y369D02*
X2967Y369D01*
X0Y368D02*
X7Y368D01*
X2764Y368D02*
X2774Y368D01*
X2801Y368D02*
X2808Y368D01*
X2854Y368D02*
X2858Y368D01*
X2960Y368D02*
X2967Y368D01*
X0Y367D02*
X7Y367D01*
X2765Y367D02*
X2776Y367D01*
X2800Y367D02*
X2807Y367D01*
X2855Y367D02*
X2858Y367D01*
X2960Y367D02*
X2967Y367D01*
X0Y366D02*
X7Y366D01*
X2766Y366D02*
X2807Y366D01*
X2855Y366D02*
X2858Y366D01*
X2960Y366D02*
X2967Y366D01*
X0Y365D02*
X7Y365D01*
X2768Y365D02*
X2807Y365D01*
X2856Y365D02*
X2858Y365D01*
X2960Y365D02*
X2967Y365D01*
X0Y364D02*
X7Y364D01*
X2769Y364D02*
X2806Y364D01*
X2856Y364D02*
X2858Y364D01*
X2960Y364D02*
X2967Y364D01*
X0Y363D02*
X7Y363D01*
X2770Y363D02*
X2805Y363D01*
X2857Y363D02*
X2858Y363D01*
X2960Y363D02*
X2967Y363D01*
X0Y362D02*
X7Y362D01*
X2772Y362D02*
X2804Y362D01*
X2857Y362D02*
X2858Y362D01*
X2960Y362D02*
X2967Y362D01*
X0Y361D02*
X7Y361D01*
X2773Y361D02*
X2803Y361D01*
X2857Y361D02*
X2858Y361D01*
X2960Y361D02*
X2967Y361D01*
X0Y360D02*
X7Y360D01*
X2776Y360D02*
X2800Y360D01*
X2858Y360D02*
X2858Y360D01*
X2960Y360D02*
X2967Y360D01*
X0Y359D02*
X7Y359D01*
X2858Y359D02*
X2858Y359D01*
X2960Y359D02*
X2967Y359D01*
X0Y358D02*
X7Y358D01*
X2858Y358D02*
X2858Y358D01*
X2960Y358D02*
X2967Y358D01*
X0Y357D02*
X7Y357D01*
X2858Y357D02*
X2858Y357D01*
X2960Y357D02*
X2967Y357D01*
X0Y356D02*
X7Y356D01*
X2858Y356D02*
X2858Y356D01*
X2960Y356D02*
X2967Y356D01*
X0Y355D02*
X7Y355D01*
X2858Y355D02*
X2858Y355D01*
X2960Y355D02*
X2967Y355D01*
X0Y354D02*
X7Y354D01*
X2858Y354D02*
X2858Y354D01*
X2960Y354D02*
X2967Y354D01*
X0Y353D02*
X7Y353D01*
X2858Y353D02*
X2858Y353D01*
X2960Y353D02*
X2967Y353D01*
X0Y352D02*
X7Y352D01*
X2857Y352D02*
X2858Y352D01*
X2960Y352D02*
X2967Y352D01*
X0Y351D02*
X7Y351D01*
X2857Y351D02*
X2858Y351D01*
X2960Y351D02*
X2967Y351D01*
X0Y350D02*
X7Y350D01*
X2857Y350D02*
X2858Y350D01*
X2960Y350D02*
X2967Y350D01*
X0Y349D02*
X7Y349D01*
X2856Y349D02*
X2858Y349D01*
X2960Y349D02*
X2967Y349D01*
X0Y348D02*
X7Y348D01*
X2856Y348D02*
X2858Y348D01*
X2960Y348D02*
X2967Y348D01*
X0Y347D02*
X7Y347D01*
X2856Y347D02*
X2858Y347D01*
X2960Y347D02*
X2967Y347D01*
X0Y346D02*
X7Y346D01*
X936Y346D02*
X938Y346D01*
X996Y346D02*
X998Y346D01*
X1030Y346D02*
X1032Y346D01*
X1090Y346D02*
X1092Y346D01*
X1125Y346D02*
X1127Y346D01*
X1185Y346D02*
X1187Y346D01*
X2855Y346D02*
X2858Y346D01*
X2960Y346D02*
X2967Y346D01*
X0Y345D02*
X7Y345D01*
X935Y345D02*
X939Y345D01*
X995Y345D02*
X999Y345D01*
X1030Y345D02*
X1033Y345D01*
X1090Y345D02*
X1093Y345D01*
X1124Y345D02*
X1128Y345D01*
X1184Y345D02*
X1188Y345D01*
X2854Y345D02*
X2858Y345D01*
X2960Y345D02*
X2967Y345D01*
X0Y344D02*
X7Y344D01*
X935Y344D02*
X939Y344D01*
X995Y344D02*
X999Y344D01*
X1029Y344D02*
X1033Y344D01*
X1089Y344D02*
X1093Y344D01*
X1124Y344D02*
X1128Y344D01*
X1184Y344D02*
X1188Y344D01*
X2854Y344D02*
X2858Y344D01*
X2960Y344D02*
X2967Y344D01*
X0Y343D02*
X7Y343D01*
X935Y343D02*
X939Y343D01*
X995Y343D02*
X999Y343D01*
X1029Y343D02*
X1033Y343D01*
X1089Y343D02*
X1093Y343D01*
X1124Y343D02*
X1128Y343D01*
X1184Y343D02*
X1188Y343D01*
X2756Y343D02*
X2760Y343D01*
X2853Y343D02*
X2858Y343D01*
X2960Y343D02*
X2967Y343D01*
X0Y342D02*
X7Y342D01*
X935Y342D02*
X939Y342D01*
X995Y342D02*
X999Y342D01*
X1029Y342D02*
X1033Y342D01*
X1089Y342D02*
X1093Y342D01*
X1124Y342D02*
X1128Y342D01*
X1184Y342D02*
X1188Y342D01*
X2755Y342D02*
X2761Y342D01*
X2852Y342D02*
X2858Y342D01*
X2960Y342D02*
X2967Y342D01*
X0Y341D02*
X7Y341D01*
X935Y341D02*
X939Y341D01*
X995Y341D02*
X999Y341D01*
X1029Y341D02*
X1033Y341D01*
X1089Y341D02*
X1093Y341D01*
X1124Y341D02*
X1128Y341D01*
X1184Y341D02*
X1188Y341D01*
X2755Y341D02*
X2763Y341D01*
X2852Y341D02*
X2858Y341D01*
X2960Y341D02*
X2967Y341D01*
X0Y340D02*
X7Y340D01*
X935Y340D02*
X939Y340D01*
X995Y340D02*
X999Y340D01*
X1029Y340D02*
X1033Y340D01*
X1089Y340D02*
X1093Y340D01*
X1124Y340D02*
X1128Y340D01*
X1184Y340D02*
X1188Y340D01*
X2755Y340D02*
X2765Y340D01*
X2851Y340D02*
X2858Y340D01*
X2960Y340D02*
X2967Y340D01*
X0Y339D02*
X7Y339D01*
X935Y339D02*
X939Y339D01*
X995Y339D02*
X999Y339D01*
X1029Y339D02*
X1033Y339D01*
X1089Y339D02*
X1093Y339D01*
X1124Y339D02*
X1128Y339D01*
X1184Y339D02*
X1188Y339D01*
X2755Y339D02*
X2766Y339D01*
X2850Y339D02*
X2858Y339D01*
X2960Y339D02*
X2967Y339D01*
X0Y338D02*
X7Y338D01*
X935Y338D02*
X939Y338D01*
X995Y338D02*
X999Y338D01*
X1029Y338D02*
X1033Y338D01*
X1089Y338D02*
X1093Y338D01*
X1124Y338D02*
X1128Y338D01*
X1184Y338D02*
X1188Y338D01*
X2756Y338D02*
X2768Y338D01*
X2849Y338D02*
X2858Y338D01*
X2960Y338D02*
X2967Y338D01*
X0Y337D02*
X7Y337D01*
X935Y337D02*
X939Y337D01*
X995Y337D02*
X999Y337D01*
X1029Y337D02*
X1033Y337D01*
X1089Y337D02*
X1093Y337D01*
X1124Y337D02*
X1128Y337D01*
X1184Y337D02*
X1188Y337D01*
X2757Y337D02*
X2770Y337D01*
X2849Y337D02*
X2858Y337D01*
X2960Y337D02*
X2967Y337D01*
X0Y336D02*
X7Y336D01*
X935Y336D02*
X939Y336D01*
X995Y336D02*
X999Y336D01*
X1029Y336D02*
X1033Y336D01*
X1089Y336D02*
X1093Y336D01*
X1124Y336D02*
X1128Y336D01*
X1184Y336D02*
X1188Y336D01*
X2759Y336D02*
X2772Y336D01*
X2849Y336D02*
X2858Y336D01*
X2960Y336D02*
X2967Y336D01*
X0Y335D02*
X7Y335D01*
X935Y335D02*
X939Y335D01*
X995Y335D02*
X999Y335D01*
X1029Y335D02*
X1033Y335D01*
X1089Y335D02*
X1093Y335D01*
X1124Y335D02*
X1128Y335D01*
X1184Y335D02*
X1188Y335D01*
X2760Y335D02*
X2773Y335D01*
X2849Y335D02*
X2858Y335D01*
X2960Y335D02*
X2967Y335D01*
X0Y334D02*
X7Y334D01*
X935Y334D02*
X939Y334D01*
X995Y334D02*
X999Y334D01*
X1029Y334D02*
X1033Y334D01*
X1089Y334D02*
X1093Y334D01*
X1124Y334D02*
X1128Y334D01*
X1184Y334D02*
X1188Y334D01*
X2762Y334D02*
X2775Y334D01*
X2849Y334D02*
X2858Y334D01*
X2960Y334D02*
X2967Y334D01*
X0Y333D02*
X7Y333D01*
X935Y333D02*
X939Y333D01*
X995Y333D02*
X999Y333D01*
X1029Y333D02*
X1033Y333D01*
X1089Y333D02*
X1093Y333D01*
X1124Y333D02*
X1128Y333D01*
X1184Y333D02*
X1188Y333D01*
X2764Y333D02*
X2777Y333D01*
X2849Y333D02*
X2858Y333D01*
X2960Y333D02*
X2967Y333D01*
X0Y332D02*
X7Y332D01*
X935Y332D02*
X939Y332D01*
X995Y332D02*
X999Y332D01*
X1029Y332D02*
X1033Y332D01*
X1089Y332D02*
X1093Y332D01*
X1124Y332D02*
X1128Y332D01*
X1184Y332D02*
X1188Y332D01*
X2765Y332D02*
X2778Y332D01*
X2849Y332D02*
X2858Y332D01*
X2960Y332D02*
X2967Y332D01*
X0Y331D02*
X7Y331D01*
X935Y331D02*
X939Y331D01*
X995Y331D02*
X999Y331D01*
X1029Y331D02*
X1033Y331D01*
X1089Y331D02*
X1093Y331D01*
X1124Y331D02*
X1128Y331D01*
X1184Y331D02*
X1188Y331D01*
X2767Y331D02*
X2780Y331D01*
X2849Y331D02*
X2858Y331D01*
X2960Y331D02*
X2967Y331D01*
X0Y330D02*
X7Y330D01*
X935Y330D02*
X939Y330D01*
X995Y330D02*
X999Y330D01*
X1029Y330D02*
X1033Y330D01*
X1089Y330D02*
X1093Y330D01*
X1124Y330D02*
X1128Y330D01*
X1184Y330D02*
X1188Y330D01*
X2769Y330D02*
X2782Y330D01*
X2849Y330D02*
X2858Y330D01*
X2960Y330D02*
X2967Y330D01*
X0Y329D02*
X7Y329D01*
X935Y329D02*
X939Y329D01*
X995Y329D02*
X999Y329D01*
X1029Y329D02*
X1033Y329D01*
X1089Y329D02*
X1093Y329D01*
X1124Y329D02*
X1128Y329D01*
X1184Y329D02*
X1188Y329D01*
X2771Y329D02*
X2784Y329D01*
X2849Y329D02*
X2858Y329D01*
X2960Y329D02*
X2967Y329D01*
X0Y328D02*
X7Y328D01*
X935Y328D02*
X939Y328D01*
X995Y328D02*
X999Y328D01*
X1029Y328D02*
X1033Y328D01*
X1089Y328D02*
X1093Y328D01*
X1124Y328D02*
X1128Y328D01*
X1184Y328D02*
X1188Y328D01*
X2772Y328D02*
X2785Y328D01*
X2849Y328D02*
X2858Y328D01*
X2960Y328D02*
X2967Y328D01*
X0Y327D02*
X7Y327D01*
X935Y327D02*
X939Y327D01*
X995Y327D02*
X999Y327D01*
X1029Y327D02*
X1033Y327D01*
X1089Y327D02*
X1093Y327D01*
X1124Y327D02*
X1128Y327D01*
X1184Y327D02*
X1188Y327D01*
X2774Y327D02*
X2787Y327D01*
X2849Y327D02*
X2858Y327D01*
X2960Y327D02*
X2967Y327D01*
X0Y326D02*
X7Y326D01*
X935Y326D02*
X939Y326D01*
X995Y326D02*
X999Y326D01*
X1029Y326D02*
X1033Y326D01*
X1089Y326D02*
X1093Y326D01*
X1124Y326D02*
X1128Y326D01*
X1184Y326D02*
X1188Y326D01*
X2776Y326D02*
X2789Y326D01*
X2849Y326D02*
X2858Y326D01*
X2960Y326D02*
X2967Y326D01*
X0Y325D02*
X7Y325D01*
X935Y325D02*
X939Y325D01*
X995Y325D02*
X999Y325D01*
X1029Y325D02*
X1033Y325D01*
X1089Y325D02*
X1093Y325D01*
X1124Y325D02*
X1128Y325D01*
X1184Y325D02*
X1188Y325D01*
X2777Y325D02*
X2790Y325D01*
X2849Y325D02*
X2858Y325D01*
X2960Y325D02*
X2967Y325D01*
X0Y324D02*
X7Y324D01*
X935Y324D02*
X939Y324D01*
X995Y324D02*
X999Y324D01*
X1029Y324D02*
X1033Y324D01*
X1089Y324D02*
X1093Y324D01*
X1124Y324D02*
X1128Y324D01*
X1184Y324D02*
X1188Y324D01*
X2779Y324D02*
X2792Y324D01*
X2849Y324D02*
X2858Y324D01*
X2960Y324D02*
X2967Y324D01*
X0Y323D02*
X7Y323D01*
X301Y323D02*
X368Y323D01*
X569Y323D02*
X616Y323D01*
X935Y323D02*
X939Y323D01*
X995Y323D02*
X999Y323D01*
X1029Y323D02*
X1033Y323D01*
X1089Y323D02*
X1093Y323D01*
X1124Y323D02*
X1128Y323D01*
X1184Y323D02*
X1188Y323D01*
X2781Y323D02*
X2794Y323D01*
X2849Y323D02*
X2858Y323D01*
X2960Y323D02*
X2967Y323D01*
X0Y322D02*
X7Y322D01*
X301Y322D02*
X368Y322D01*
X569Y322D02*
X616Y322D01*
X935Y322D02*
X939Y322D01*
X995Y322D02*
X999Y322D01*
X1029Y322D02*
X1033Y322D01*
X1089Y322D02*
X1093Y322D01*
X1124Y322D02*
X1128Y322D01*
X1184Y322D02*
X1188Y322D01*
X2783Y322D02*
X2796Y322D01*
X2849Y322D02*
X2858Y322D01*
X2960Y322D02*
X2967Y322D01*
X0Y321D02*
X7Y321D01*
X301Y321D02*
X368Y321D01*
X569Y321D02*
X616Y321D01*
X935Y321D02*
X938Y321D01*
X995Y321D02*
X999Y321D01*
X1029Y321D02*
X1033Y321D01*
X1090Y321D02*
X1093Y321D01*
X1124Y321D02*
X1127Y321D01*
X1184Y321D02*
X1188Y321D01*
X2784Y321D02*
X2797Y321D01*
X2849Y321D02*
X2858Y321D01*
X2960Y321D02*
X2967Y321D01*
X0Y320D02*
X7Y320D01*
X302Y320D02*
X368Y320D01*
X569Y320D02*
X616Y320D01*
X935Y320D02*
X938Y320D01*
X996Y320D02*
X999Y320D01*
X1029Y320D02*
X1032Y320D01*
X1090Y320D02*
X1093Y320D01*
X1124Y320D02*
X1127Y320D01*
X1185Y320D02*
X1188Y320D01*
X2786Y320D02*
X2799Y320D01*
X2849Y320D02*
X2858Y320D01*
X2960Y320D02*
X2967Y320D01*
X0Y319D02*
X7Y319D01*
X302Y319D02*
X368Y319D01*
X569Y319D02*
X616Y319D01*
X935Y319D02*
X938Y319D01*
X996Y319D02*
X999Y319D01*
X1029Y319D02*
X1032Y319D01*
X1091Y319D02*
X1093Y319D01*
X1124Y319D02*
X1127Y319D01*
X1185Y319D02*
X1188Y319D01*
X2788Y319D02*
X2801Y319D01*
X2849Y319D02*
X2858Y319D01*
X2960Y319D02*
X2967Y319D01*
X0Y318D02*
X7Y318D01*
X302Y318D02*
X368Y318D01*
X569Y318D02*
X616Y318D01*
X935Y318D02*
X937Y318D01*
X996Y318D02*
X999Y318D01*
X1029Y318D02*
X1032Y318D01*
X1091Y318D02*
X1093Y318D01*
X1124Y318D02*
X1126Y318D01*
X1185Y318D02*
X1188Y318D01*
X2789Y318D02*
X2802Y318D01*
X2849Y318D02*
X2858Y318D01*
X2960Y318D02*
X2967Y318D01*
X0Y317D02*
X7Y317D01*
X302Y317D02*
X368Y317D01*
X569Y317D02*
X616Y317D01*
X935Y317D02*
X937Y317D01*
X997Y317D02*
X999Y317D01*
X1029Y317D02*
X1031Y317D01*
X1091Y317D02*
X1093Y317D01*
X1124Y317D02*
X1126Y317D01*
X1186Y317D02*
X1188Y317D01*
X2791Y317D02*
X2804Y317D01*
X2849Y317D02*
X2858Y317D01*
X2960Y317D02*
X2967Y317D01*
X0Y316D02*
X7Y316D01*
X301Y316D02*
X368Y316D01*
X569Y316D02*
X616Y316D01*
X935Y316D02*
X937Y316D01*
X997Y316D02*
X999Y316D01*
X1029Y316D02*
X1031Y316D01*
X1092Y316D02*
X1093Y316D01*
X1124Y316D02*
X1126Y316D01*
X1186Y316D02*
X1188Y316D01*
X2793Y316D02*
X2806Y316D01*
X2849Y316D02*
X2858Y316D01*
X2960Y316D02*
X2967Y316D01*
X0Y315D02*
X7Y315D01*
X301Y315D02*
X368Y315D01*
X569Y315D02*
X616Y315D01*
X935Y315D02*
X936Y315D01*
X997Y315D02*
X999Y315D01*
X1029Y315D02*
X1031Y315D01*
X1092Y315D02*
X1093Y315D01*
X1124Y315D02*
X1125Y315D01*
X1186Y315D02*
X1188Y315D01*
X2795Y315D02*
X2807Y315D01*
X2849Y315D02*
X2858Y315D01*
X2960Y315D02*
X2967Y315D01*
X0Y314D02*
X7Y314D01*
X301Y314D02*
X368Y314D01*
X569Y314D02*
X616Y314D01*
X935Y314D02*
X936Y314D01*
X998Y314D02*
X999Y314D01*
X1029Y314D02*
X1031Y314D01*
X1092Y314D02*
X1093Y314D01*
X1124Y314D02*
X1125Y314D01*
X1187Y314D02*
X1188Y314D01*
X2796Y314D02*
X2808Y314D01*
X2849Y314D02*
X2858Y314D01*
X2960Y314D02*
X2967Y314D01*
X0Y313D02*
X7Y313D01*
X935Y313D02*
X936Y313D01*
X998Y313D02*
X999Y313D01*
X1029Y313D02*
X1030Y313D01*
X1092Y313D02*
X1093Y313D01*
X1124Y313D02*
X1125Y313D01*
X1187Y313D02*
X1188Y313D01*
X2798Y313D02*
X2808Y313D01*
X2849Y313D02*
X2858Y313D01*
X2960Y313D02*
X2967Y313D01*
X0Y312D02*
X7Y312D01*
X935Y312D02*
X936Y312D01*
X998Y312D02*
X999Y312D01*
X1029Y312D02*
X1030Y312D01*
X1092Y312D02*
X1093Y312D01*
X1124Y312D02*
X1125Y312D01*
X1187Y312D02*
X1188Y312D01*
X2800Y312D02*
X2808Y312D01*
X2849Y312D02*
X2858Y312D01*
X2960Y312D02*
X2967Y312D01*
X0Y311D02*
X7Y311D01*
X935Y311D02*
X936Y311D01*
X998Y311D02*
X999Y311D01*
X1029Y311D02*
X1030Y311D01*
X1092Y311D02*
X1093Y311D01*
X1124Y311D02*
X1125Y311D01*
X1187Y311D02*
X1188Y311D01*
X2801Y311D02*
X2807Y311D01*
X2849Y311D02*
X2858Y311D01*
X2960Y311D02*
X2967Y311D01*
X0Y310D02*
X7Y310D01*
X935Y310D02*
X936Y310D01*
X998Y310D02*
X999Y310D01*
X1029Y310D02*
X1030Y310D01*
X1092Y310D02*
X1093Y310D01*
X1124Y310D02*
X1125Y310D01*
X1187Y310D02*
X1188Y310D01*
X2803Y310D02*
X2806Y310D01*
X2849Y310D02*
X2858Y310D01*
X2960Y310D02*
X2967Y310D01*
X0Y309D02*
X7Y309D01*
X935Y309D02*
X936Y309D01*
X998Y309D02*
X999Y309D01*
X1029Y309D02*
X1030Y309D01*
X1093Y309D02*
X1093Y309D01*
X1124Y309D02*
X1125Y309D01*
X1187Y309D02*
X1188Y309D01*
X2849Y309D02*
X2858Y309D01*
X2960Y309D02*
X2967Y309D01*
X0Y308D02*
X7Y308D01*
X935Y308D02*
X936Y308D01*
X998Y308D02*
X999Y308D01*
X1029Y308D02*
X1030Y308D01*
X1092Y308D02*
X1093Y308D01*
X1124Y308D02*
X1125Y308D01*
X1187Y308D02*
X1188Y308D01*
X2849Y308D02*
X2858Y308D01*
X2960Y308D02*
X2967Y308D01*
X0Y307D02*
X7Y307D01*
X935Y307D02*
X936Y307D01*
X998Y307D02*
X999Y307D01*
X1029Y307D02*
X1030Y307D01*
X1092Y307D02*
X1093Y307D01*
X1124Y307D02*
X1125Y307D01*
X1187Y307D02*
X1188Y307D01*
X2849Y307D02*
X2858Y307D01*
X2960Y307D02*
X2967Y307D01*
X0Y306D02*
X7Y306D01*
X935Y306D02*
X936Y306D01*
X998Y306D02*
X999Y306D01*
X1029Y306D02*
X1030Y306D01*
X1092Y306D02*
X1093Y306D01*
X1124Y306D02*
X1125Y306D01*
X1187Y306D02*
X1188Y306D01*
X2849Y306D02*
X2858Y306D01*
X2960Y306D02*
X2967Y306D01*
X0Y305D02*
X7Y305D01*
X935Y305D02*
X936Y305D01*
X998Y305D02*
X999Y305D01*
X1029Y305D02*
X1030Y305D01*
X1092Y305D02*
X1093Y305D01*
X1124Y305D02*
X1125Y305D01*
X1187Y305D02*
X1188Y305D01*
X2849Y305D02*
X2858Y305D01*
X2960Y305D02*
X2967Y305D01*
X0Y304D02*
X7Y304D01*
X935Y304D02*
X936Y304D01*
X998Y304D02*
X999Y304D01*
X1029Y304D02*
X1031Y304D01*
X1092Y304D02*
X1093Y304D01*
X1124Y304D02*
X1125Y304D01*
X1186Y304D02*
X1188Y304D01*
X2849Y304D02*
X2858Y304D01*
X2960Y304D02*
X2967Y304D01*
X0Y303D02*
X7Y303D01*
X935Y303D02*
X936Y303D01*
X997Y303D02*
X999Y303D01*
X1029Y303D02*
X1031Y303D01*
X1092Y303D02*
X1093Y303D01*
X1124Y303D02*
X1125Y303D01*
X1186Y303D02*
X1188Y303D01*
X2849Y303D02*
X2858Y303D01*
X2960Y303D02*
X2967Y303D01*
X0Y302D02*
X7Y302D01*
X935Y302D02*
X937Y302D01*
X997Y302D02*
X999Y302D01*
X1029Y302D02*
X1031Y302D01*
X1091Y302D02*
X1093Y302D01*
X1124Y302D02*
X1126Y302D01*
X1186Y302D02*
X1188Y302D01*
X2849Y302D02*
X2858Y302D01*
X2960Y302D02*
X2967Y302D01*
X0Y301D02*
X7Y301D01*
X935Y301D02*
X937Y301D01*
X997Y301D02*
X999Y301D01*
X1029Y301D02*
X1031Y301D01*
X1091Y301D02*
X1093Y301D01*
X1124Y301D02*
X1126Y301D01*
X1186Y301D02*
X1188Y301D01*
X2849Y301D02*
X2858Y301D01*
X2960Y301D02*
X2967Y301D01*
X0Y300D02*
X7Y300D01*
X935Y300D02*
X937Y300D01*
X996Y300D02*
X999Y300D01*
X1029Y300D02*
X1032Y300D01*
X1091Y300D02*
X1093Y300D01*
X1124Y300D02*
X1126Y300D01*
X1185Y300D02*
X1188Y300D01*
X2849Y300D02*
X2858Y300D01*
X2960Y300D02*
X2967Y300D01*
X0Y299D02*
X7Y299D01*
X935Y299D02*
X938Y299D01*
X996Y299D02*
X999Y299D01*
X1029Y299D02*
X1032Y299D01*
X1090Y299D02*
X1093Y299D01*
X1124Y299D02*
X1127Y299D01*
X1185Y299D02*
X1188Y299D01*
X2849Y299D02*
X2858Y299D01*
X2960Y299D02*
X2967Y299D01*
X0Y298D02*
X7Y298D01*
X935Y298D02*
X938Y298D01*
X996Y298D02*
X999Y298D01*
X1029Y298D02*
X1033Y298D01*
X1090Y298D02*
X1093Y298D01*
X1124Y298D02*
X1127Y298D01*
X1185Y298D02*
X1188Y298D01*
X2849Y298D02*
X2858Y298D01*
X2960Y298D02*
X2967Y298D01*
X0Y297D02*
X7Y297D01*
X935Y297D02*
X939Y297D01*
X995Y297D02*
X999Y297D01*
X1029Y297D02*
X1033Y297D01*
X1090Y297D02*
X1093Y297D01*
X1124Y297D02*
X1128Y297D01*
X1184Y297D02*
X1188Y297D01*
X2849Y297D02*
X2858Y297D01*
X2960Y297D02*
X2967Y297D01*
X0Y296D02*
X7Y296D01*
X935Y296D02*
X939Y296D01*
X995Y296D02*
X999Y296D01*
X1029Y296D02*
X1033Y296D01*
X1089Y296D02*
X1093Y296D01*
X1124Y296D02*
X1128Y296D01*
X1184Y296D02*
X1188Y296D01*
X2849Y296D02*
X2858Y296D01*
X2960Y296D02*
X2967Y296D01*
X0Y295D02*
X7Y295D01*
X935Y295D02*
X939Y295D01*
X995Y295D02*
X999Y295D01*
X1029Y295D02*
X1033Y295D01*
X1089Y295D02*
X1093Y295D01*
X1124Y295D02*
X1128Y295D01*
X1184Y295D02*
X1188Y295D01*
X2849Y295D02*
X2858Y295D01*
X2960Y295D02*
X2967Y295D01*
X0Y294D02*
X7Y294D01*
X935Y294D02*
X939Y294D01*
X995Y294D02*
X999Y294D01*
X1029Y294D02*
X1033Y294D01*
X1089Y294D02*
X1093Y294D01*
X1124Y294D02*
X1128Y294D01*
X1184Y294D02*
X1188Y294D01*
X2849Y294D02*
X2858Y294D01*
X2960Y294D02*
X2967Y294D01*
X0Y293D02*
X7Y293D01*
X935Y293D02*
X939Y293D01*
X995Y293D02*
X999Y293D01*
X1029Y293D02*
X1033Y293D01*
X1089Y293D02*
X1093Y293D01*
X1124Y293D02*
X1128Y293D01*
X1184Y293D02*
X1188Y293D01*
X2756Y293D02*
X2765Y293D01*
X2849Y293D02*
X2858Y293D01*
X2960Y293D02*
X2967Y293D01*
X0Y292D02*
X7Y292D01*
X935Y292D02*
X939Y292D01*
X995Y292D02*
X999Y292D01*
X1029Y292D02*
X1033Y292D01*
X1089Y292D02*
X1093Y292D01*
X1124Y292D02*
X1128Y292D01*
X1184Y292D02*
X1188Y292D01*
X2755Y292D02*
X2766Y292D01*
X2849Y292D02*
X2858Y292D01*
X2960Y292D02*
X2967Y292D01*
X0Y291D02*
X7Y291D01*
X935Y291D02*
X939Y291D01*
X995Y291D02*
X1003Y291D01*
X1029Y291D02*
X1033Y291D01*
X1089Y291D02*
X1097Y291D01*
X1124Y291D02*
X1128Y291D01*
X1184Y291D02*
X1192Y291D01*
X2755Y291D02*
X2768Y291D01*
X2849Y291D02*
X2858Y291D01*
X2960Y291D02*
X2967Y291D01*
X0Y290D02*
X7Y290D01*
X935Y290D02*
X939Y290D01*
X995Y290D02*
X1006Y290D01*
X1029Y290D02*
X1033Y290D01*
X1089Y290D02*
X1101Y290D01*
X1124Y290D02*
X1128Y290D01*
X1184Y290D02*
X1195Y290D01*
X2755Y290D02*
X2769Y290D01*
X2849Y290D02*
X2858Y290D01*
X2960Y290D02*
X2967Y290D01*
X0Y289D02*
X7Y289D01*
X935Y289D02*
X939Y289D01*
X995Y289D02*
X1009Y289D01*
X1029Y289D02*
X1033Y289D01*
X1089Y289D02*
X1103Y289D01*
X1124Y289D02*
X1128Y289D01*
X1184Y289D02*
X1198Y289D01*
X2755Y289D02*
X2770Y289D01*
X2849Y289D02*
X2858Y289D01*
X2960Y289D02*
X2967Y289D01*
X0Y288D02*
X7Y288D01*
X935Y288D02*
X939Y288D01*
X995Y288D02*
X1011Y288D01*
X1029Y288D02*
X1033Y288D01*
X1090Y288D02*
X1105Y288D01*
X1124Y288D02*
X1128Y288D01*
X1184Y288D02*
X1200Y288D01*
X2755Y288D02*
X2772Y288D01*
X2849Y288D02*
X2858Y288D01*
X2960Y288D02*
X2967Y288D01*
X0Y287D02*
X7Y287D01*
X935Y287D02*
X939Y287D01*
X996Y287D02*
X1013Y287D01*
X1029Y287D02*
X1033Y287D01*
X1091Y287D02*
X1107Y287D01*
X1124Y287D02*
X1128Y287D01*
X1185Y287D02*
X1202Y287D01*
X2757Y287D02*
X2773Y287D01*
X2849Y287D02*
X2858Y287D01*
X2960Y287D02*
X2967Y287D01*
X0Y286D02*
X7Y286D01*
X935Y286D02*
X939Y286D01*
X1003Y286D02*
X1014Y286D01*
X1029Y286D02*
X1033Y286D01*
X1098Y286D02*
X1109Y286D01*
X1124Y286D02*
X1128Y286D01*
X1192Y286D02*
X1203Y286D01*
X2764Y286D02*
X2774Y286D01*
X2849Y286D02*
X2858Y286D01*
X2960Y286D02*
X2967Y286D01*
X0Y285D02*
X7Y285D01*
X935Y285D02*
X939Y285D01*
X1007Y285D02*
X1016Y285D01*
X1029Y285D02*
X1033Y285D01*
X1101Y285D02*
X1110Y285D01*
X1124Y285D02*
X1128Y285D01*
X1196Y285D02*
X1205Y285D01*
X2765Y285D02*
X2775Y285D01*
X2849Y285D02*
X2858Y285D01*
X2960Y285D02*
X2967Y285D01*
X0Y284D02*
X7Y284D01*
X935Y284D02*
X939Y284D01*
X1009Y284D02*
X1017Y284D01*
X1029Y284D02*
X1033Y284D01*
X1104Y284D02*
X1111Y284D01*
X1124Y284D02*
X1128Y284D01*
X1198Y284D02*
X1206Y284D01*
X2766Y284D02*
X2777Y284D01*
X2849Y284D02*
X2858Y284D01*
X2960Y284D02*
X2967Y284D01*
X0Y283D02*
X7Y283D01*
X935Y283D02*
X939Y283D01*
X1011Y283D02*
X1018Y283D01*
X1029Y283D02*
X1033Y283D01*
X1106Y283D02*
X1113Y283D01*
X1124Y283D02*
X1128Y283D01*
X1200Y283D02*
X1207Y283D01*
X2768Y283D02*
X2778Y283D01*
X2849Y283D02*
X2858Y283D01*
X2960Y283D02*
X2967Y283D01*
X0Y282D02*
X7Y282D01*
X935Y282D02*
X939Y282D01*
X1013Y282D02*
X1019Y282D01*
X1029Y282D02*
X1033Y282D01*
X1107Y282D02*
X1114Y282D01*
X1124Y282D02*
X1128Y282D01*
X1202Y282D02*
X1208Y282D01*
X2769Y282D02*
X2779Y282D01*
X2849Y282D02*
X2858Y282D01*
X2960Y282D02*
X2967Y282D01*
X0Y281D02*
X7Y281D01*
X935Y281D02*
X939Y281D01*
X1014Y281D02*
X1020Y281D01*
X1029Y281D02*
X1033Y281D01*
X1109Y281D02*
X1115Y281D01*
X1124Y281D02*
X1128Y281D01*
X1203Y281D02*
X1209Y281D01*
X2770Y281D02*
X2781Y281D01*
X2849Y281D02*
X2858Y281D01*
X2960Y281D02*
X2967Y281D01*
X0Y280D02*
X7Y280D01*
X935Y280D02*
X939Y280D01*
X1015Y280D02*
X1021Y280D01*
X1029Y280D02*
X1033Y280D01*
X1110Y280D02*
X1115Y280D01*
X1124Y280D02*
X1128Y280D01*
X1204Y280D02*
X1210Y280D01*
X2771Y280D02*
X2782Y280D01*
X2849Y280D02*
X2858Y280D01*
X2960Y280D02*
X2967Y280D01*
X0Y279D02*
X7Y279D01*
X935Y279D02*
X939Y279D01*
X1017Y279D02*
X1022Y279D01*
X1029Y279D02*
X1033Y279D01*
X1111Y279D02*
X1116Y279D01*
X1124Y279D02*
X1128Y279D01*
X1206Y279D02*
X1211Y279D01*
X2773Y279D02*
X2807Y279D01*
X2849Y279D02*
X2858Y279D01*
X2960Y279D02*
X2967Y279D01*
X0Y278D02*
X7Y278D01*
X935Y278D02*
X939Y278D01*
X1018Y278D02*
X1023Y278D01*
X1029Y278D02*
X1033Y278D01*
X1112Y278D02*
X1117Y278D01*
X1124Y278D02*
X1128Y278D01*
X1206Y278D02*
X1212Y278D01*
X2774Y278D02*
X2807Y278D01*
X2849Y278D02*
X2858Y278D01*
X2960Y278D02*
X2967Y278D01*
X0Y277D02*
X7Y277D01*
X935Y277D02*
X939Y277D01*
X1018Y277D02*
X1023Y277D01*
X1029Y277D02*
X1033Y277D01*
X1113Y277D02*
X1118Y277D01*
X1124Y277D02*
X1128Y277D01*
X1207Y277D02*
X1212Y277D01*
X2775Y277D02*
X2808Y277D01*
X2849Y277D02*
X2858Y277D01*
X2960Y277D02*
X2967Y277D01*
X0Y276D02*
X7Y276D01*
X935Y276D02*
X939Y276D01*
X1019Y276D02*
X1024Y276D01*
X1029Y276D02*
X1033Y276D01*
X1114Y276D02*
X1118Y276D01*
X1124Y276D02*
X1128Y276D01*
X1208Y276D02*
X1213Y276D01*
X2775Y276D02*
X2808Y276D01*
X2849Y276D02*
X2858Y276D01*
X2960Y276D02*
X2967Y276D01*
X0Y275D02*
X7Y275D01*
X935Y275D02*
X939Y275D01*
X1020Y275D02*
X1025Y275D01*
X1029Y275D02*
X1033Y275D01*
X1114Y275D02*
X1119Y275D01*
X1124Y275D02*
X1128Y275D01*
X1209Y275D02*
X1213Y275D01*
X2774Y275D02*
X2807Y275D01*
X2849Y275D02*
X2858Y275D01*
X2960Y275D02*
X2967Y275D01*
X0Y274D02*
X7Y274D01*
X935Y274D02*
X939Y274D01*
X1021Y274D02*
X1025Y274D01*
X1029Y274D02*
X1033Y274D01*
X1115Y274D02*
X1120Y274D01*
X1124Y274D02*
X1128Y274D01*
X1210Y274D02*
X1214Y274D01*
X2773Y274D02*
X2807Y274D01*
X2849Y274D02*
X2858Y274D01*
X2960Y274D02*
X2967Y274D01*
X0Y273D02*
X7Y273D01*
X935Y273D02*
X938Y273D01*
X1021Y273D02*
X1026Y273D01*
X1030Y273D02*
X1033Y273D01*
X1116Y273D02*
X1120Y273D01*
X1124Y273D02*
X1127Y273D01*
X1210Y273D02*
X1215Y273D01*
X2772Y273D02*
X2805Y273D01*
X2849Y273D02*
X2858Y273D01*
X2960Y273D02*
X2967Y273D01*
X0Y272D02*
X7Y272D01*
X936Y272D02*
X937Y272D01*
X1022Y272D02*
X1026Y272D01*
X1031Y272D02*
X1032Y272D01*
X1116Y272D02*
X1121Y272D01*
X1125Y272D02*
X1126Y272D01*
X1211Y272D02*
X1215Y272D01*
X2770Y272D02*
X2781Y272D01*
X2849Y272D02*
X2858Y272D01*
X2960Y272D02*
X2967Y272D01*
X0Y271D02*
X7Y271D01*
X1022Y271D02*
X1026Y271D01*
X1117Y271D02*
X1121Y271D01*
X1211Y271D02*
X1215Y271D01*
X2769Y271D02*
X2779Y271D01*
X2849Y271D02*
X2858Y271D01*
X2960Y271D02*
X2967Y271D01*
X0Y270D02*
X7Y270D01*
X1023Y270D02*
X1027Y270D01*
X1117Y270D02*
X1121Y270D01*
X1212Y270D02*
X1216Y270D01*
X2768Y270D02*
X2778Y270D01*
X2849Y270D02*
X2858Y270D01*
X2960Y270D02*
X2967Y270D01*
X0Y269D02*
X7Y269D01*
X1023Y269D02*
X1027Y269D01*
X1118Y269D02*
X1122Y269D01*
X1212Y269D02*
X1216Y269D01*
X2766Y269D02*
X2777Y269D01*
X2849Y269D02*
X2858Y269D01*
X2960Y269D02*
X2967Y269D01*
X0Y268D02*
X7Y268D01*
X1023Y268D02*
X1028Y268D01*
X1118Y268D02*
X1122Y268D01*
X1212Y268D02*
X1216Y268D01*
X2765Y268D02*
X2776Y268D01*
X2849Y268D02*
X2858Y268D01*
X2960Y268D02*
X2967Y268D01*
X0Y267D02*
X7Y267D01*
X1024Y267D02*
X1028Y267D01*
X1118Y267D02*
X1122Y267D01*
X1213Y267D02*
X1217Y267D01*
X2764Y267D02*
X2774Y267D01*
X2849Y267D02*
X2858Y267D01*
X2960Y267D02*
X2967Y267D01*
X0Y266D02*
X7Y266D01*
X1024Y266D02*
X1028Y266D01*
X1118Y266D02*
X1123Y266D01*
X1213Y266D02*
X1217Y266D01*
X2757Y266D02*
X2773Y266D01*
X2849Y266D02*
X2858Y266D01*
X2960Y266D02*
X2967Y266D01*
X0Y265D02*
X7Y265D01*
X1024Y265D02*
X1028Y265D01*
X1119Y265D02*
X1123Y265D01*
X1213Y265D02*
X1217Y265D01*
X2756Y265D02*
X2772Y265D01*
X2849Y265D02*
X2858Y265D01*
X2960Y265D02*
X2967Y265D01*
X0Y264D02*
X7Y264D01*
X1024Y264D02*
X1028Y264D01*
X1119Y264D02*
X1123Y264D01*
X1213Y264D02*
X1217Y264D01*
X2755Y264D02*
X2771Y264D01*
X2849Y264D02*
X2858Y264D01*
X2960Y264D02*
X2967Y264D01*
X0Y263D02*
X7Y263D01*
X1025Y263D02*
X1029Y263D01*
X1119Y263D02*
X1123Y263D01*
X1213Y263D02*
X1218Y263D01*
X2755Y263D02*
X2769Y263D01*
X2849Y263D02*
X2858Y263D01*
X2960Y263D02*
X2967Y263D01*
X0Y262D02*
X7Y262D01*
X1025Y262D02*
X1029Y262D01*
X1119Y262D02*
X1123Y262D01*
X1214Y262D02*
X1218Y262D01*
X2755Y262D02*
X2768Y262D01*
X2849Y262D02*
X2858Y262D01*
X2960Y262D02*
X2967Y262D01*
X0Y261D02*
X7Y261D01*
X1025Y261D02*
X1029Y261D01*
X1119Y261D02*
X1123Y261D01*
X1214Y261D02*
X1218Y261D01*
X2755Y261D02*
X2767Y261D01*
X2849Y261D02*
X2858Y261D01*
X2960Y261D02*
X2967Y261D01*
X0Y260D02*
X7Y260D01*
X1025Y260D02*
X1029Y260D01*
X1119Y260D02*
X1123Y260D01*
X1214Y260D02*
X1218Y260D01*
X2756Y260D02*
X2765Y260D01*
X2849Y260D02*
X2858Y260D01*
X2960Y260D02*
X2967Y260D01*
X0Y259D02*
X7Y259D01*
X1025Y259D02*
X1029Y259D01*
X1119Y259D02*
X1123Y259D01*
X1214Y259D02*
X1218Y259D01*
X2849Y259D02*
X2858Y259D01*
X2960Y259D02*
X2967Y259D01*
X0Y258D02*
X7Y258D01*
X1025Y258D02*
X1029Y258D01*
X1119Y258D02*
X1123Y258D01*
X1214Y258D02*
X1218Y258D01*
X2849Y258D02*
X2858Y258D01*
X2960Y258D02*
X2967Y258D01*
X0Y257D02*
X7Y257D01*
X1025Y257D02*
X1029Y257D01*
X1119Y257D02*
X1123Y257D01*
X1214Y257D02*
X1218Y257D01*
X2849Y257D02*
X2858Y257D01*
X2960Y257D02*
X2967Y257D01*
X0Y256D02*
X7Y256D01*
X1025Y256D02*
X1029Y256D01*
X1119Y256D02*
X1123Y256D01*
X1214Y256D02*
X1218Y256D01*
X2849Y256D02*
X2858Y256D01*
X2960Y256D02*
X2967Y256D01*
X0Y255D02*
X7Y255D01*
X1024Y255D02*
X1029Y255D01*
X1119Y255D02*
X1123Y255D01*
X1213Y255D02*
X1217Y255D01*
X2849Y255D02*
X2858Y255D01*
X2960Y255D02*
X2967Y255D01*
X0Y254D02*
X7Y254D01*
X1024Y254D02*
X1028Y254D01*
X1119Y254D02*
X1123Y254D01*
X1213Y254D02*
X1217Y254D01*
X2849Y254D02*
X2858Y254D01*
X2960Y254D02*
X2967Y254D01*
X0Y253D02*
X7Y253D01*
X1024Y253D02*
X1028Y253D01*
X1119Y253D02*
X1123Y253D01*
X1213Y253D02*
X1217Y253D01*
X2849Y253D02*
X2858Y253D01*
X2960Y253D02*
X2967Y253D01*
X0Y252D02*
X7Y252D01*
X1024Y252D02*
X1028Y252D01*
X1118Y252D02*
X1122Y252D01*
X1213Y252D02*
X1217Y252D01*
X2849Y252D02*
X2858Y252D01*
X2960Y252D02*
X2967Y252D01*
X0Y251D02*
X7Y251D01*
X1024Y251D02*
X1028Y251D01*
X1118Y251D02*
X1122Y251D01*
X1213Y251D02*
X1217Y251D01*
X2849Y251D02*
X2858Y251D01*
X2960Y251D02*
X2967Y251D01*
X0Y250D02*
X7Y250D01*
X1023Y250D02*
X1027Y250D01*
X1118Y250D02*
X1122Y250D01*
X1212Y250D02*
X1216Y250D01*
X2849Y250D02*
X2858Y250D01*
X2960Y250D02*
X2967Y250D01*
X0Y249D02*
X7Y249D01*
X1023Y249D02*
X1027Y249D01*
X1117Y249D02*
X1122Y249D01*
X1212Y249D02*
X1216Y249D01*
X2849Y249D02*
X2858Y249D01*
X2960Y249D02*
X2967Y249D01*
X0Y248D02*
X7Y248D01*
X1023Y248D02*
X1027Y248D01*
X1117Y248D02*
X1121Y248D01*
X1212Y248D02*
X1216Y248D01*
X2849Y248D02*
X2858Y248D01*
X2960Y248D02*
X2967Y248D01*
X0Y247D02*
X7Y247D01*
X1022Y247D02*
X1026Y247D01*
X1117Y247D02*
X1121Y247D01*
X1211Y247D02*
X1215Y247D01*
X2849Y247D02*
X2858Y247D01*
X2960Y247D02*
X2967Y247D01*
X0Y246D02*
X7Y246D01*
X936Y246D02*
X938Y246D01*
X1022Y246D02*
X1026Y246D01*
X1030Y246D02*
X1032Y246D01*
X1116Y246D02*
X1120Y246D01*
X1125Y246D02*
X1127Y246D01*
X1211Y246D02*
X1215Y246D01*
X2849Y246D02*
X2858Y246D01*
X2960Y246D02*
X2967Y246D01*
X0Y245D02*
X7Y245D01*
X935Y245D02*
X939Y245D01*
X1021Y245D02*
X1025Y245D01*
X1029Y245D02*
X1033Y245D01*
X1115Y245D02*
X1120Y245D01*
X1124Y245D02*
X1128Y245D01*
X1210Y245D02*
X1214Y245D01*
X2849Y245D02*
X2858Y245D01*
X2960Y245D02*
X2967Y245D01*
X0Y244D02*
X7Y244D01*
X935Y244D02*
X939Y244D01*
X1020Y244D02*
X1025Y244D01*
X1029Y244D02*
X1033Y244D01*
X1115Y244D02*
X1119Y244D01*
X1124Y244D02*
X1128Y244D01*
X1209Y244D02*
X1214Y244D01*
X2849Y244D02*
X2858Y244D01*
X2960Y244D02*
X2967Y244D01*
X0Y243D02*
X7Y243D01*
X935Y243D02*
X939Y243D01*
X1020Y243D02*
X1024Y243D01*
X1029Y243D02*
X1033Y243D01*
X1114Y243D02*
X1119Y243D01*
X1124Y243D02*
X1128Y243D01*
X1209Y243D02*
X1213Y243D01*
X2756Y243D02*
X2759Y243D01*
X2849Y243D02*
X2858Y243D01*
X2960Y243D02*
X2967Y243D01*
X0Y242D02*
X7Y242D01*
X935Y242D02*
X939Y242D01*
X1019Y242D02*
X1024Y242D01*
X1029Y242D02*
X1033Y242D01*
X1113Y242D02*
X1118Y242D01*
X1124Y242D02*
X1128Y242D01*
X1208Y242D02*
X1213Y242D01*
X2755Y242D02*
X2761Y242D01*
X2849Y242D02*
X2858Y242D01*
X2960Y242D02*
X2967Y242D01*
X0Y241D02*
X7Y241D01*
X935Y241D02*
X939Y241D01*
X1018Y241D02*
X1023Y241D01*
X1029Y241D02*
X1033Y241D01*
X1113Y241D02*
X1118Y241D01*
X1124Y241D02*
X1128Y241D01*
X1207Y241D02*
X1212Y241D01*
X2755Y241D02*
X2762Y241D01*
X2849Y241D02*
X2858Y241D01*
X2960Y241D02*
X2967Y241D01*
X0Y240D02*
X7Y240D01*
X935Y240D02*
X939Y240D01*
X1017Y240D02*
X1022Y240D01*
X1029Y240D02*
X1033Y240D01*
X1112Y240D02*
X1117Y240D01*
X1124Y240D02*
X1128Y240D01*
X1206Y240D02*
X1211Y240D01*
X2755Y240D02*
X2764Y240D01*
X2849Y240D02*
X2858Y240D01*
X2960Y240D02*
X2967Y240D01*
X0Y239D02*
X7Y239D01*
X935Y239D02*
X939Y239D01*
X1016Y239D02*
X1022Y239D01*
X1029Y239D02*
X1033Y239D01*
X1111Y239D02*
X1116Y239D01*
X1124Y239D02*
X1128Y239D01*
X1205Y239D02*
X1211Y239D01*
X2755Y239D02*
X2766Y239D01*
X2849Y239D02*
X2858Y239D01*
X2960Y239D02*
X2967Y239D01*
X0Y238D02*
X7Y238D01*
X935Y238D02*
X939Y238D01*
X1015Y238D02*
X1021Y238D01*
X1029Y238D02*
X1033Y238D01*
X1109Y238D02*
X1115Y238D01*
X1124Y238D02*
X1128Y238D01*
X1204Y238D02*
X1210Y238D01*
X2755Y238D02*
X2768Y238D01*
X2849Y238D02*
X2858Y238D01*
X2960Y238D02*
X2967Y238D01*
X0Y237D02*
X7Y237D01*
X935Y237D02*
X939Y237D01*
X1014Y237D02*
X1020Y237D01*
X1029Y237D02*
X1033Y237D01*
X1108Y237D02*
X1114Y237D01*
X1124Y237D02*
X1128Y237D01*
X1203Y237D02*
X1209Y237D01*
X2756Y237D02*
X2769Y237D01*
X2849Y237D02*
X2858Y237D01*
X2960Y237D02*
X2967Y237D01*
X0Y236D02*
X7Y236D01*
X935Y236D02*
X939Y236D01*
X1012Y236D02*
X1019Y236D01*
X1029Y236D02*
X1033Y236D01*
X1107Y236D02*
X1113Y236D01*
X1124Y236D02*
X1128Y236D01*
X1201Y236D02*
X1208Y236D01*
X2758Y236D02*
X2771Y236D01*
X2849Y236D02*
X2858Y236D01*
X2960Y236D02*
X2967Y236D01*
X0Y235D02*
X7Y235D01*
X935Y235D02*
X939Y235D01*
X1011Y235D02*
X1018Y235D01*
X1029Y235D02*
X1033Y235D01*
X1105Y235D02*
X1112Y235D01*
X1124Y235D02*
X1128Y235D01*
X1200Y235D02*
X1207Y235D01*
X2760Y235D02*
X2773Y235D01*
X2849Y235D02*
X2858Y235D01*
X2960Y235D02*
X2967Y235D01*
X0Y234D02*
X7Y234D01*
X935Y234D02*
X939Y234D01*
X1009Y234D02*
X1017Y234D01*
X1029Y234D02*
X1033Y234D01*
X1103Y234D02*
X1111Y234D01*
X1124Y234D02*
X1128Y234D01*
X1198Y234D02*
X1206Y234D01*
X2761Y234D02*
X2774Y234D01*
X2849Y234D02*
X2858Y234D01*
X2960Y234D02*
X2967Y234D01*
X0Y233D02*
X7Y233D01*
X935Y233D02*
X939Y233D01*
X1006Y233D02*
X1015Y233D01*
X1029Y233D02*
X1033Y233D01*
X1100Y233D02*
X1110Y233D01*
X1124Y233D02*
X1128Y233D01*
X1195Y233D02*
X1204Y233D01*
X2763Y233D02*
X2776Y233D01*
X2849Y233D02*
X2858Y233D01*
X2960Y233D02*
X2967Y233D01*
X0Y232D02*
X7Y232D01*
X935Y232D02*
X939Y232D01*
X1001Y232D02*
X1014Y232D01*
X1029Y232D02*
X1033Y232D01*
X1096Y232D02*
X1108Y232D01*
X1124Y232D02*
X1128Y232D01*
X1190Y232D02*
X1203Y232D01*
X2765Y232D02*
X2778Y232D01*
X2849Y232D02*
X2858Y232D01*
X2960Y232D02*
X2967Y232D01*
X0Y231D02*
X7Y231D01*
X935Y231D02*
X939Y231D01*
X996Y231D02*
X1012Y231D01*
X1029Y231D02*
X1033Y231D01*
X1090Y231D02*
X1107Y231D01*
X1124Y231D02*
X1128Y231D01*
X1185Y231D02*
X1201Y231D01*
X2767Y231D02*
X2780Y231D01*
X2849Y231D02*
X2858Y231D01*
X2960Y231D02*
X2967Y231D01*
X0Y230D02*
X7Y230D01*
X935Y230D02*
X939Y230D01*
X995Y230D02*
X1010Y230D01*
X1029Y230D02*
X1033Y230D01*
X1089Y230D02*
X1105Y230D01*
X1124Y230D02*
X1128Y230D01*
X1184Y230D02*
X1199Y230D01*
X2768Y230D02*
X2781Y230D01*
X2849Y230D02*
X2858Y230D01*
X2960Y230D02*
X2967Y230D01*
X0Y229D02*
X7Y229D01*
X935Y229D02*
X939Y229D01*
X995Y229D02*
X1008Y229D01*
X1029Y229D02*
X1033Y229D01*
X1089Y229D02*
X1103Y229D01*
X1124Y229D02*
X1128Y229D01*
X1184Y229D02*
X1197Y229D01*
X2770Y229D02*
X2783Y229D01*
X2849Y229D02*
X2858Y229D01*
X2960Y229D02*
X2967Y229D01*
X0Y228D02*
X7Y228D01*
X935Y228D02*
X939Y228D01*
X995Y228D02*
X1005Y228D01*
X1029Y228D02*
X1033Y228D01*
X1089Y228D02*
X1100Y228D01*
X1124Y228D02*
X1128Y228D01*
X1184Y228D02*
X1194Y228D01*
X2772Y228D02*
X2785Y228D01*
X2849Y228D02*
X2858Y228D01*
X2960Y228D02*
X2967Y228D01*
X0Y227D02*
X7Y227D01*
X935Y227D02*
X939Y227D01*
X995Y227D02*
X1000Y227D01*
X1029Y227D02*
X1033Y227D01*
X1089Y227D02*
X1095Y227D01*
X1124Y227D02*
X1128Y227D01*
X1184Y227D02*
X1189Y227D01*
X2773Y227D02*
X2786Y227D01*
X2849Y227D02*
X2858Y227D01*
X2960Y227D02*
X2967Y227D01*
X0Y226D02*
X7Y226D01*
X935Y226D02*
X939Y226D01*
X995Y226D02*
X999Y226D01*
X1029Y226D02*
X1033Y226D01*
X1089Y226D02*
X1093Y226D01*
X1124Y226D02*
X1128Y226D01*
X1184Y226D02*
X1188Y226D01*
X2775Y226D02*
X2788Y226D01*
X2849Y226D02*
X2858Y226D01*
X2960Y226D02*
X2967Y226D01*
X0Y225D02*
X7Y225D01*
X935Y225D02*
X939Y225D01*
X995Y225D02*
X999Y225D01*
X1029Y225D02*
X1033Y225D01*
X1089Y225D02*
X1093Y225D01*
X1124Y225D02*
X1128Y225D01*
X1184Y225D02*
X1188Y225D01*
X2777Y225D02*
X2790Y225D01*
X2849Y225D02*
X2858Y225D01*
X2960Y225D02*
X2967Y225D01*
X0Y224D02*
X7Y224D01*
X935Y224D02*
X939Y224D01*
X995Y224D02*
X999Y224D01*
X1029Y224D02*
X1033Y224D01*
X1089Y224D02*
X1093Y224D01*
X1124Y224D02*
X1128Y224D01*
X1184Y224D02*
X1188Y224D01*
X2779Y224D02*
X2792Y224D01*
X2849Y224D02*
X2858Y224D01*
X2960Y224D02*
X2967Y224D01*
X0Y223D02*
X7Y223D01*
X935Y223D02*
X939Y223D01*
X995Y223D02*
X999Y223D01*
X1029Y223D02*
X1033Y223D01*
X1089Y223D02*
X1093Y223D01*
X1124Y223D02*
X1128Y223D01*
X1184Y223D02*
X1188Y223D01*
X2780Y223D02*
X2793Y223D01*
X2849Y223D02*
X2858Y223D01*
X2960Y223D02*
X2967Y223D01*
X0Y222D02*
X7Y222D01*
X935Y222D02*
X939Y222D01*
X995Y222D02*
X999Y222D01*
X1029Y222D02*
X1033Y222D01*
X1089Y222D02*
X1093Y222D01*
X1124Y222D02*
X1128Y222D01*
X1184Y222D02*
X1188Y222D01*
X2782Y222D02*
X2795Y222D01*
X2849Y222D02*
X2858Y222D01*
X2960Y222D02*
X2967Y222D01*
X0Y221D02*
X7Y221D01*
X935Y221D02*
X938Y221D01*
X995Y221D02*
X999Y221D01*
X1029Y221D02*
X1033Y221D01*
X1090Y221D02*
X1093Y221D01*
X1124Y221D02*
X1127Y221D01*
X1184Y221D02*
X1188Y221D01*
X2784Y221D02*
X2797Y221D01*
X2849Y221D02*
X2858Y221D01*
X2960Y221D02*
X2967Y221D01*
X0Y220D02*
X7Y220D01*
X935Y220D02*
X938Y220D01*
X996Y220D02*
X999Y220D01*
X1029Y220D02*
X1032Y220D01*
X1090Y220D02*
X1093Y220D01*
X1124Y220D02*
X1127Y220D01*
X1185Y220D02*
X1188Y220D01*
X2785Y220D02*
X2798Y220D01*
X2849Y220D02*
X2858Y220D01*
X2960Y220D02*
X2967Y220D01*
X0Y219D02*
X7Y219D01*
X935Y219D02*
X938Y219D01*
X996Y219D02*
X999Y219D01*
X1029Y219D02*
X1032Y219D01*
X1091Y219D02*
X1093Y219D01*
X1124Y219D02*
X1127Y219D01*
X1185Y219D02*
X1188Y219D01*
X2787Y219D02*
X2800Y219D01*
X2849Y219D02*
X2858Y219D01*
X2960Y219D02*
X2967Y219D01*
X0Y218D02*
X7Y218D01*
X935Y218D02*
X937Y218D01*
X997Y218D02*
X999Y218D01*
X1029Y218D02*
X1032Y218D01*
X1091Y218D02*
X1093Y218D01*
X1124Y218D02*
X1126Y218D01*
X1185Y218D02*
X1188Y218D01*
X2789Y218D02*
X2802Y218D01*
X2849Y218D02*
X2858Y218D01*
X2960Y218D02*
X2967Y218D01*
X0Y217D02*
X7Y217D01*
X935Y217D02*
X937Y217D01*
X997Y217D02*
X999Y217D01*
X1029Y217D02*
X1031Y217D01*
X1091Y217D02*
X1093Y217D01*
X1124Y217D02*
X1126Y217D01*
X1186Y217D02*
X1188Y217D01*
X2791Y217D02*
X2804Y217D01*
X2849Y217D02*
X2858Y217D01*
X2960Y217D02*
X2967Y217D01*
X0Y216D02*
X7Y216D01*
X935Y216D02*
X937Y216D01*
X997Y216D02*
X999Y216D01*
X1029Y216D02*
X1031Y216D01*
X1092Y216D02*
X1093Y216D01*
X1124Y216D02*
X1126Y216D01*
X1186Y216D02*
X1188Y216D01*
X2792Y216D02*
X2805Y216D01*
X2849Y216D02*
X2858Y216D01*
X2960Y216D02*
X2967Y216D01*
X0Y215D02*
X7Y215D01*
X935Y215D02*
X936Y215D01*
X997Y215D02*
X999Y215D01*
X1029Y215D02*
X1031Y215D01*
X1092Y215D02*
X1093Y215D01*
X1124Y215D02*
X1125Y215D01*
X1186Y215D02*
X1188Y215D01*
X2794Y215D02*
X2807Y215D01*
X2849Y215D02*
X2858Y215D01*
X2960Y215D02*
X2967Y215D01*
X0Y214D02*
X7Y214D01*
X935Y214D02*
X936Y214D01*
X998Y214D02*
X999Y214D01*
X1029Y214D02*
X1031Y214D01*
X1092Y214D02*
X1093Y214D01*
X1124Y214D02*
X1125Y214D01*
X1187Y214D02*
X1188Y214D01*
X2796Y214D02*
X2807Y214D01*
X2849Y214D02*
X2858Y214D01*
X2960Y214D02*
X2967Y214D01*
X0Y213D02*
X7Y213D01*
X935Y213D02*
X936Y213D01*
X998Y213D02*
X999Y213D01*
X1029Y213D02*
X1030Y213D01*
X1092Y213D02*
X1093Y213D01*
X1124Y213D02*
X1125Y213D01*
X1187Y213D02*
X1188Y213D01*
X2797Y213D02*
X2808Y213D01*
X2849Y213D02*
X2858Y213D01*
X2960Y213D02*
X2967Y213D01*
X0Y212D02*
X7Y212D01*
X935Y212D02*
X936Y212D01*
X998Y212D02*
X999Y212D01*
X1029Y212D02*
X1030Y212D01*
X1092Y212D02*
X1093Y212D01*
X1124Y212D02*
X1125Y212D01*
X1187Y212D02*
X1188Y212D01*
X2799Y212D02*
X2808Y212D01*
X2850Y212D02*
X2858Y212D01*
X2960Y212D02*
X2967Y212D01*
X0Y211D02*
X7Y211D01*
X935Y211D02*
X936Y211D01*
X998Y211D02*
X999Y211D01*
X1029Y211D02*
X1030Y211D01*
X1092Y211D02*
X1093Y211D01*
X1124Y211D02*
X1125Y211D01*
X1187Y211D02*
X1188Y211D01*
X2801Y211D02*
X2807Y211D01*
X2849Y211D02*
X2858Y211D01*
X2960Y211D02*
X2967Y211D01*
X0Y210D02*
X7Y210D01*
X935Y210D02*
X936Y210D01*
X998Y210D02*
X999Y210D01*
X1029Y210D02*
X1030Y210D01*
X1093Y210D02*
X1093Y210D01*
X1124Y210D02*
X1125Y210D01*
X1187Y210D02*
X1188Y210D01*
X2802Y210D02*
X2807Y210D01*
X2849Y210D02*
X2858Y210D01*
X2960Y210D02*
X2967Y210D01*
X0Y209D02*
X7Y209D01*
X935Y209D02*
X936Y209D01*
X998Y209D02*
X999Y209D01*
X1029Y209D02*
X1030Y209D01*
X1093Y209D02*
X1093Y209D01*
X1124Y209D02*
X1125Y209D01*
X1187Y209D02*
X1188Y209D01*
X2849Y209D02*
X2858Y209D01*
X2960Y209D02*
X2967Y209D01*
X0Y208D02*
X7Y208D01*
X935Y208D02*
X936Y208D01*
X998Y208D02*
X999Y208D01*
X1029Y208D02*
X1030Y208D01*
X1092Y208D02*
X1093Y208D01*
X1124Y208D02*
X1125Y208D01*
X1187Y208D02*
X1188Y208D01*
X2849Y208D02*
X2858Y208D01*
X2960Y208D02*
X2967Y208D01*
X0Y207D02*
X7Y207D01*
X935Y207D02*
X936Y207D01*
X998Y207D02*
X999Y207D01*
X1029Y207D02*
X1030Y207D01*
X1092Y207D02*
X1093Y207D01*
X1124Y207D02*
X1125Y207D01*
X1187Y207D02*
X1188Y207D01*
X2849Y207D02*
X2858Y207D01*
X2960Y207D02*
X2967Y207D01*
X0Y206D02*
X7Y206D01*
X935Y206D02*
X936Y206D01*
X998Y206D02*
X999Y206D01*
X1029Y206D02*
X1030Y206D01*
X1092Y206D02*
X1093Y206D01*
X1124Y206D02*
X1125Y206D01*
X1187Y206D02*
X1188Y206D01*
X2849Y206D02*
X2858Y206D01*
X2960Y206D02*
X2967Y206D01*
X0Y205D02*
X7Y205D01*
X935Y205D02*
X936Y205D01*
X998Y205D02*
X999Y205D01*
X1029Y205D02*
X1030Y205D01*
X1092Y205D02*
X1093Y205D01*
X1124Y205D02*
X1125Y205D01*
X1187Y205D02*
X1188Y205D01*
X2849Y205D02*
X2858Y205D01*
X2960Y205D02*
X2967Y205D01*
X0Y204D02*
X7Y204D01*
X935Y204D02*
X936Y204D01*
X997Y204D02*
X999Y204D01*
X1029Y204D02*
X1031Y204D01*
X1092Y204D02*
X1093Y204D01*
X1124Y204D02*
X1125Y204D01*
X1186Y204D02*
X1188Y204D01*
X2849Y204D02*
X2858Y204D01*
X2960Y204D02*
X2967Y204D01*
X0Y203D02*
X7Y203D01*
X935Y203D02*
X936Y203D01*
X997Y203D02*
X999Y203D01*
X1029Y203D02*
X1031Y203D01*
X1092Y203D02*
X1093Y203D01*
X1124Y203D02*
X1125Y203D01*
X1186Y203D02*
X1188Y203D01*
X2849Y203D02*
X2858Y203D01*
X2960Y203D02*
X2967Y203D01*
X0Y202D02*
X7Y202D01*
X935Y202D02*
X937Y202D01*
X997Y202D02*
X999Y202D01*
X1029Y202D02*
X1031Y202D01*
X1091Y202D02*
X1093Y202D01*
X1124Y202D02*
X1126Y202D01*
X1186Y202D02*
X1188Y202D01*
X2849Y202D02*
X2858Y202D01*
X2960Y202D02*
X2967Y202D01*
X0Y201D02*
X7Y201D01*
X935Y201D02*
X937Y201D01*
X997Y201D02*
X999Y201D01*
X1029Y201D02*
X1031Y201D01*
X1091Y201D02*
X1093Y201D01*
X1124Y201D02*
X1126Y201D01*
X1186Y201D02*
X1188Y201D01*
X2849Y201D02*
X2858Y201D01*
X2960Y201D02*
X2967Y201D01*
X0Y200D02*
X7Y200D01*
X935Y200D02*
X937Y200D01*
X996Y200D02*
X999Y200D01*
X1029Y200D02*
X1032Y200D01*
X1091Y200D02*
X1093Y200D01*
X1124Y200D02*
X1126Y200D01*
X1185Y200D02*
X1188Y200D01*
X2849Y200D02*
X2858Y200D01*
X2960Y200D02*
X2967Y200D01*
X0Y199D02*
X7Y199D01*
X935Y199D02*
X938Y199D01*
X996Y199D02*
X999Y199D01*
X1029Y199D02*
X1032Y199D01*
X1090Y199D02*
X1093Y199D01*
X1124Y199D02*
X1127Y199D01*
X1185Y199D02*
X1188Y199D01*
X2849Y199D02*
X2858Y199D01*
X2960Y199D02*
X2967Y199D01*
X0Y198D02*
X7Y198D01*
X935Y198D02*
X938Y198D01*
X996Y198D02*
X999Y198D01*
X1029Y198D02*
X1033Y198D01*
X1090Y198D02*
X1093Y198D01*
X1124Y198D02*
X1127Y198D01*
X1184Y198D02*
X1188Y198D01*
X2849Y198D02*
X2858Y198D01*
X2960Y198D02*
X2967Y198D01*
X0Y197D02*
X7Y197D01*
X935Y197D02*
X939Y197D01*
X995Y197D02*
X999Y197D01*
X1029Y197D02*
X1033Y197D01*
X1090Y197D02*
X1093Y197D01*
X1124Y197D02*
X1128Y197D01*
X1184Y197D02*
X1188Y197D01*
X2849Y197D02*
X2858Y197D01*
X2960Y197D02*
X2967Y197D01*
X0Y196D02*
X7Y196D01*
X935Y196D02*
X939Y196D01*
X995Y196D02*
X999Y196D01*
X1029Y196D02*
X1033Y196D01*
X1089Y196D02*
X1093Y196D01*
X1124Y196D02*
X1128Y196D01*
X1184Y196D02*
X1188Y196D01*
X2849Y196D02*
X2858Y196D01*
X2960Y196D02*
X2967Y196D01*
X0Y195D02*
X7Y195D01*
X935Y195D02*
X939Y195D01*
X995Y195D02*
X999Y195D01*
X1029Y195D02*
X1033Y195D01*
X1089Y195D02*
X1093Y195D01*
X1124Y195D02*
X1128Y195D01*
X1184Y195D02*
X1188Y195D01*
X2849Y195D02*
X2858Y195D01*
X2960Y195D02*
X2967Y195D01*
X0Y194D02*
X7Y194D01*
X935Y194D02*
X939Y194D01*
X995Y194D02*
X999Y194D01*
X1029Y194D02*
X1033Y194D01*
X1089Y194D02*
X1093Y194D01*
X1124Y194D02*
X1128Y194D01*
X1184Y194D02*
X1188Y194D01*
X2849Y194D02*
X2858Y194D01*
X2960Y194D02*
X2967Y194D01*
X0Y193D02*
X7Y193D01*
X935Y193D02*
X939Y193D01*
X995Y193D02*
X999Y193D01*
X1029Y193D02*
X1033Y193D01*
X1089Y193D02*
X1093Y193D01*
X1124Y193D02*
X1128Y193D01*
X1184Y193D02*
X1188Y193D01*
X2766Y193D02*
X2773Y193D01*
X2789Y193D02*
X2797Y193D01*
X2849Y193D02*
X2858Y193D01*
X2960Y193D02*
X2967Y193D01*
X0Y192D02*
X7Y192D01*
X935Y192D02*
X939Y192D01*
X995Y192D02*
X999Y192D01*
X1029Y192D02*
X1033Y192D01*
X1089Y192D02*
X1093Y192D01*
X1124Y192D02*
X1128Y192D01*
X1184Y192D02*
X1188Y192D01*
X2763Y192D02*
X2776Y192D01*
X2786Y192D02*
X2800Y192D01*
X2849Y192D02*
X2858Y192D01*
X2960Y192D02*
X2967Y192D01*
X0Y191D02*
X7Y191D01*
X935Y191D02*
X939Y191D01*
X995Y191D02*
X999Y191D01*
X1029Y191D02*
X1033Y191D01*
X1089Y191D02*
X1093Y191D01*
X1124Y191D02*
X1128Y191D01*
X1184Y191D02*
X1188Y191D01*
X2761Y191D02*
X2778Y191D01*
X2785Y191D02*
X2801Y191D01*
X2849Y191D02*
X2858Y191D01*
X2960Y191D02*
X2967Y191D01*
X0Y190D02*
X7Y190D01*
X935Y190D02*
X939Y190D01*
X995Y190D02*
X999Y190D01*
X1029Y190D02*
X1033Y190D01*
X1089Y190D02*
X1093Y190D01*
X1124Y190D02*
X1128Y190D01*
X1184Y190D02*
X1188Y190D01*
X2760Y190D02*
X2779Y190D01*
X2783Y190D02*
X2803Y190D01*
X2849Y190D02*
X2858Y190D01*
X2960Y190D02*
X2967Y190D01*
X0Y189D02*
X7Y189D01*
X935Y189D02*
X939Y189D01*
X995Y189D02*
X999Y189D01*
X1029Y189D02*
X1033Y189D01*
X1089Y189D02*
X1093Y189D01*
X1124Y189D02*
X1128Y189D01*
X1184Y189D02*
X1188Y189D01*
X2759Y189D02*
X2780Y189D01*
X2782Y189D02*
X2804Y189D01*
X2849Y189D02*
X2858Y189D01*
X2960Y189D02*
X2967Y189D01*
X0Y188D02*
X7Y188D01*
X935Y188D02*
X939Y188D01*
X995Y188D02*
X999Y188D01*
X1029Y188D02*
X1033Y188D01*
X1089Y188D02*
X1093Y188D01*
X1124Y188D02*
X1128Y188D01*
X1184Y188D02*
X1188Y188D01*
X2758Y188D02*
X2805Y188D01*
X2849Y188D02*
X2858Y188D01*
X2960Y188D02*
X2967Y188D01*
X0Y187D02*
X7Y187D01*
X935Y187D02*
X939Y187D01*
X995Y187D02*
X999Y187D01*
X1029Y187D02*
X1033Y187D01*
X1089Y187D02*
X1093Y187D01*
X1124Y187D02*
X1128Y187D01*
X1184Y187D02*
X1188Y187D01*
X2038Y187D02*
X2047Y187D01*
X2063Y187D02*
X2072Y187D01*
X2088Y187D02*
X2116Y187D01*
X2140Y187D02*
X2143Y187D01*
X2167Y187D02*
X2171Y187D01*
X2240Y187D02*
X2247Y187D01*
X2293Y187D02*
X2319Y187D01*
X2346Y187D02*
X2372Y187D01*
X2393Y187D02*
X2420Y187D01*
X2757Y187D02*
X2805Y187D01*
X2849Y187D02*
X2858Y187D01*
X2960Y187D02*
X2967Y187D01*
X0Y186D02*
X7Y186D01*
X935Y186D02*
X939Y186D01*
X995Y186D02*
X999Y186D01*
X1029Y186D02*
X1033Y186D01*
X1089Y186D02*
X1093Y186D01*
X1124Y186D02*
X1128Y186D01*
X1184Y186D02*
X1188Y186D01*
X2038Y186D02*
X2047Y186D01*
X2063Y186D02*
X2072Y186D01*
X2088Y186D02*
X2118Y186D01*
X2139Y186D02*
X2144Y186D01*
X2167Y186D02*
X2172Y186D01*
X2240Y186D02*
X2248Y186D01*
X2292Y186D02*
X2321Y186D01*
X2346Y186D02*
X2373Y186D01*
X2392Y186D02*
X2421Y186D01*
X2756Y186D02*
X2766Y186D01*
X2773Y186D02*
X2789Y186D01*
X2797Y186D02*
X2806Y186D01*
X2849Y186D02*
X2858Y186D01*
X2960Y186D02*
X2967Y186D01*
X0Y185D02*
X7Y185D01*
X935Y185D02*
X939Y185D01*
X995Y185D02*
X999Y185D01*
X1029Y185D02*
X1033Y185D01*
X1089Y185D02*
X1093Y185D01*
X1124Y185D02*
X1128Y185D01*
X1184Y185D02*
X1188Y185D01*
X2038Y185D02*
X2048Y185D01*
X2062Y185D02*
X2072Y185D01*
X2088Y185D02*
X2119Y185D01*
X2139Y185D02*
X2145Y185D01*
X2166Y185D02*
X2172Y185D01*
X2239Y185D02*
X2248Y185D01*
X2291Y185D02*
X2321Y185D01*
X2346Y185D02*
X2373Y185D01*
X2391Y185D02*
X2422Y185D01*
X2756Y185D02*
X2764Y185D01*
X2775Y185D02*
X2787Y185D01*
X2799Y185D02*
X2807Y185D01*
X2849Y185D02*
X2858Y185D01*
X2960Y185D02*
X2967Y185D01*
X0Y184D02*
X7Y184D01*
X935Y184D02*
X939Y184D01*
X995Y184D02*
X999Y184D01*
X1029Y184D02*
X1033Y184D01*
X1089Y184D02*
X1093Y184D01*
X1124Y184D02*
X1128Y184D01*
X1184Y184D02*
X1188Y184D01*
X2038Y184D02*
X2049Y184D01*
X2061Y184D02*
X2072Y184D01*
X2088Y184D02*
X2120Y184D01*
X2139Y184D02*
X2145Y184D01*
X2166Y184D02*
X2172Y184D01*
X2239Y184D02*
X2248Y184D01*
X2290Y184D02*
X2322Y184D01*
X2346Y184D02*
X2373Y184D01*
X2390Y184D02*
X2423Y184D01*
X2755Y184D02*
X2763Y184D01*
X2776Y184D02*
X2786Y184D01*
X2800Y184D02*
X2807Y184D01*
X2849Y184D02*
X2858Y184D01*
X2960Y184D02*
X2967Y184D01*
X0Y183D02*
X7Y183D01*
X935Y183D02*
X939Y183D01*
X995Y183D02*
X999Y183D01*
X1029Y183D02*
X1033Y183D01*
X1089Y183D02*
X1093Y183D01*
X1124Y183D02*
X1128Y183D01*
X1184Y183D02*
X1188Y183D01*
X2038Y183D02*
X2049Y183D01*
X2061Y183D02*
X2072Y183D01*
X2088Y183D02*
X2120Y183D01*
X2139Y183D02*
X2145Y183D01*
X2166Y183D02*
X2172Y183D01*
X2239Y183D02*
X2248Y183D01*
X2290Y183D02*
X2323Y183D01*
X2346Y183D02*
X2373Y183D01*
X2390Y183D02*
X2423Y183D01*
X2755Y183D02*
X2762Y183D01*
X2777Y183D02*
X2785Y183D01*
X2801Y183D02*
X2807Y183D01*
X2849Y183D02*
X2858Y183D01*
X2960Y183D02*
X2967Y183D01*
X0Y182D02*
X7Y182D01*
X935Y182D02*
X939Y182D01*
X995Y182D02*
X999Y182D01*
X1029Y182D02*
X1033Y182D01*
X1089Y182D02*
X1093Y182D01*
X1124Y182D02*
X1128Y182D01*
X1184Y182D02*
X1188Y182D01*
X2038Y182D02*
X2050Y182D01*
X2060Y182D02*
X2072Y182D01*
X2088Y182D02*
X2121Y182D01*
X2139Y182D02*
X2145Y182D01*
X2166Y182D02*
X2172Y182D01*
X2239Y182D02*
X2247Y182D01*
X2289Y182D02*
X2323Y182D01*
X2346Y182D02*
X2372Y182D01*
X2390Y182D02*
X2423Y182D01*
X2755Y182D02*
X2761Y182D01*
X2778Y182D02*
X2785Y182D01*
X2801Y182D02*
X2808Y182D01*
X2849Y182D02*
X2858Y182D01*
X2960Y182D02*
X2967Y182D01*
X0Y181D02*
X7Y181D01*
X935Y181D02*
X939Y181D01*
X995Y181D02*
X999Y181D01*
X1029Y181D02*
X1033Y181D01*
X1089Y181D02*
X1093Y181D01*
X1124Y181D02*
X1128Y181D01*
X1184Y181D02*
X1188Y181D01*
X2038Y181D02*
X2051Y181D01*
X2059Y181D02*
X2072Y181D01*
X2088Y181D02*
X2121Y181D01*
X2139Y181D02*
X2145Y181D01*
X2166Y181D02*
X2172Y181D01*
X2239Y181D02*
X2246Y181D01*
X2289Y181D02*
X2323Y181D01*
X2346Y181D02*
X2370Y181D01*
X2390Y181D02*
X2423Y181D01*
X2755Y181D02*
X2761Y181D01*
X2778Y181D02*
X2784Y181D01*
X2802Y181D02*
X2808Y181D01*
X2849Y181D02*
X2858Y181D01*
X2960Y181D02*
X2967Y181D01*
X0Y180D02*
X7Y180D01*
X935Y180D02*
X939Y180D01*
X995Y180D02*
X999Y180D01*
X1029Y180D02*
X1033Y180D01*
X1089Y180D02*
X1093Y180D01*
X1124Y180D02*
X1128Y180D01*
X1184Y180D02*
X1188Y180D01*
X2038Y180D02*
X2052Y180D01*
X2059Y180D02*
X2072Y180D01*
X2088Y180D02*
X2095Y180D01*
X2115Y180D02*
X2122Y180D01*
X2139Y180D02*
X2145Y180D01*
X2166Y180D02*
X2172Y180D01*
X2239Y180D02*
X2245Y180D01*
X2289Y180D02*
X2295Y180D01*
X2317Y180D02*
X2323Y180D01*
X2346Y180D02*
X2352Y180D01*
X2390Y180D02*
X2396Y180D01*
X2417Y180D02*
X2423Y180D01*
X2755Y180D02*
X2761Y180D01*
X2778Y180D02*
X2784Y180D01*
X2802Y180D02*
X2808Y180D01*
X2849Y180D02*
X2858Y180D01*
X2960Y180D02*
X2967Y180D01*
X0Y179D02*
X7Y179D01*
X935Y179D02*
X939Y179D01*
X995Y179D02*
X999Y179D01*
X1029Y179D02*
X1033Y179D01*
X1089Y179D02*
X1093Y179D01*
X1124Y179D02*
X1128Y179D01*
X1184Y179D02*
X1188Y179D01*
X2038Y179D02*
X2052Y179D01*
X2058Y179D02*
X2072Y179D01*
X2088Y179D02*
X2095Y179D01*
X2116Y179D02*
X2122Y179D01*
X2139Y179D02*
X2145Y179D01*
X2166Y179D02*
X2172Y179D01*
X2239Y179D02*
X2245Y179D01*
X2289Y179D02*
X2295Y179D01*
X2317Y179D02*
X2323Y179D01*
X2346Y179D02*
X2352Y179D01*
X2390Y179D02*
X2396Y179D01*
X2417Y179D02*
X2423Y179D01*
X2755Y179D02*
X2761Y179D01*
X2778Y179D02*
X2784Y179D01*
X2802Y179D02*
X2808Y179D01*
X2849Y179D02*
X2858Y179D01*
X2960Y179D02*
X2967Y179D01*
X0Y178D02*
X7Y178D01*
X935Y178D02*
X939Y178D01*
X995Y178D02*
X999Y178D01*
X1029Y178D02*
X1033Y178D01*
X1089Y178D02*
X1093Y178D01*
X1124Y178D02*
X1128Y178D01*
X1184Y178D02*
X1188Y178D01*
X2038Y178D02*
X2053Y178D01*
X2057Y178D02*
X2072Y178D01*
X2088Y178D02*
X2095Y178D01*
X2116Y178D02*
X2122Y178D01*
X2139Y178D02*
X2145Y178D01*
X2166Y178D02*
X2172Y178D01*
X2239Y178D02*
X2245Y178D01*
X2289Y178D02*
X2295Y178D01*
X2317Y178D02*
X2323Y178D01*
X2346Y178D02*
X2352Y178D01*
X2390Y178D02*
X2396Y178D01*
X2417Y178D02*
X2423Y178D01*
X2755Y178D02*
X2761Y178D01*
X2778Y178D02*
X2784Y178D01*
X2802Y178D02*
X2808Y178D01*
X2849Y178D02*
X2858Y178D01*
X2960Y178D02*
X2967Y178D01*
X0Y177D02*
X7Y177D01*
X935Y177D02*
X939Y177D01*
X995Y177D02*
X999Y177D01*
X1029Y177D02*
X1033Y177D01*
X1089Y177D02*
X1093Y177D01*
X1124Y177D02*
X1128Y177D01*
X1184Y177D02*
X1188Y177D01*
X2038Y177D02*
X2044Y177D01*
X2046Y177D02*
X2054Y177D01*
X2056Y177D02*
X2064Y177D01*
X2066Y177D02*
X2072Y177D01*
X2088Y177D02*
X2095Y177D01*
X2116Y177D02*
X2122Y177D01*
X2139Y177D02*
X2145Y177D01*
X2166Y177D02*
X2172Y177D01*
X2239Y177D02*
X2245Y177D01*
X2289Y177D02*
X2295Y177D01*
X2317Y177D02*
X2323Y177D01*
X2346Y177D02*
X2352Y177D01*
X2390Y177D02*
X2396Y177D01*
X2417Y177D02*
X2423Y177D01*
X2755Y177D02*
X2761Y177D01*
X2778Y177D02*
X2784Y177D01*
X2802Y177D02*
X2808Y177D01*
X2849Y177D02*
X2858Y177D01*
X2960Y177D02*
X2967Y177D01*
X0Y176D02*
X7Y176D01*
X935Y176D02*
X939Y176D01*
X995Y176D02*
X999Y176D01*
X1029Y176D02*
X1033Y176D01*
X1089Y176D02*
X1093Y176D01*
X1124Y176D02*
X1128Y176D01*
X1184Y176D02*
X1188Y176D01*
X2038Y176D02*
X2044Y176D01*
X2047Y176D02*
X2063Y176D01*
X2066Y176D02*
X2072Y176D01*
X2088Y176D02*
X2095Y176D01*
X2116Y176D02*
X2122Y176D01*
X2139Y176D02*
X2145Y176D01*
X2166Y176D02*
X2172Y176D01*
X2239Y176D02*
X2245Y176D01*
X2289Y176D02*
X2295Y176D01*
X2317Y176D02*
X2323Y176D01*
X2346Y176D02*
X2352Y176D01*
X2390Y176D02*
X2396Y176D01*
X2417Y176D02*
X2423Y176D01*
X2755Y176D02*
X2761Y176D01*
X2778Y176D02*
X2784Y176D01*
X2802Y176D02*
X2808Y176D01*
X2849Y176D02*
X2858Y176D01*
X2960Y176D02*
X2967Y176D01*
X0Y175D02*
X7Y175D01*
X935Y175D02*
X939Y175D01*
X995Y175D02*
X999Y175D01*
X1029Y175D02*
X1033Y175D01*
X1089Y175D02*
X1093Y175D01*
X1124Y175D02*
X1128Y175D01*
X1184Y175D02*
X1188Y175D01*
X2038Y175D02*
X2044Y175D01*
X2048Y175D02*
X2063Y175D01*
X2066Y175D02*
X2072Y175D01*
X2088Y175D02*
X2095Y175D01*
X2116Y175D02*
X2122Y175D01*
X2139Y175D02*
X2145Y175D01*
X2166Y175D02*
X2172Y175D01*
X2239Y175D02*
X2245Y175D01*
X2289Y175D02*
X2295Y175D01*
X2317Y175D02*
X2323Y175D01*
X2346Y175D02*
X2352Y175D01*
X2390Y175D02*
X2396Y175D01*
X2417Y175D02*
X2423Y175D01*
X2755Y175D02*
X2761Y175D01*
X2778Y175D02*
X2784Y175D01*
X2802Y175D02*
X2808Y175D01*
X2849Y175D02*
X2858Y175D01*
X2960Y175D02*
X2967Y175D01*
X0Y174D02*
X7Y174D01*
X935Y174D02*
X939Y174D01*
X995Y174D02*
X999Y174D01*
X1029Y174D02*
X1033Y174D01*
X1089Y174D02*
X1093Y174D01*
X1124Y174D02*
X1128Y174D01*
X1184Y174D02*
X1188Y174D01*
X2038Y174D02*
X2044Y174D01*
X2048Y174D02*
X2062Y174D01*
X2066Y174D02*
X2072Y174D01*
X2088Y174D02*
X2095Y174D01*
X2116Y174D02*
X2122Y174D01*
X2139Y174D02*
X2145Y174D01*
X2166Y174D02*
X2172Y174D01*
X2239Y174D02*
X2245Y174D01*
X2289Y174D02*
X2295Y174D01*
X2317Y174D02*
X2323Y174D01*
X2346Y174D02*
X2352Y174D01*
X2390Y174D02*
X2396Y174D01*
X2417Y174D02*
X2423Y174D01*
X2755Y174D02*
X2761Y174D01*
X2778Y174D02*
X2784Y174D01*
X2802Y174D02*
X2808Y174D01*
X2849Y174D02*
X2858Y174D01*
X2960Y174D02*
X2967Y174D01*
X0Y173D02*
X7Y173D01*
X935Y173D02*
X938Y173D01*
X995Y173D02*
X998Y173D01*
X1030Y173D02*
X1033Y173D01*
X1090Y173D02*
X1093Y173D01*
X1124Y173D02*
X1127Y173D01*
X1184Y173D02*
X1187Y173D01*
X2038Y173D02*
X2044Y173D01*
X2049Y173D02*
X2061Y173D01*
X2066Y173D02*
X2072Y173D01*
X2088Y173D02*
X2095Y173D01*
X2116Y173D02*
X2122Y173D01*
X2139Y173D02*
X2145Y173D01*
X2166Y173D02*
X2172Y173D01*
X2239Y173D02*
X2245Y173D01*
X2289Y173D02*
X2295Y173D01*
X2317Y173D02*
X2323Y173D01*
X2346Y173D02*
X2352Y173D01*
X2390Y173D02*
X2396Y173D01*
X2417Y173D02*
X2423Y173D01*
X2755Y173D02*
X2761Y173D01*
X2778Y173D02*
X2784Y173D01*
X2802Y173D02*
X2808Y173D01*
X2849Y173D02*
X2858Y173D01*
X2960Y173D02*
X2967Y173D01*
X0Y172D02*
X7Y172D01*
X936Y172D02*
X937Y172D01*
X996Y172D02*
X997Y172D01*
X1031Y172D02*
X1032Y172D01*
X1091Y172D02*
X1092Y172D01*
X1125Y172D02*
X1126Y172D01*
X1185Y172D02*
X1186Y172D01*
X2038Y172D02*
X2044Y172D01*
X2050Y172D02*
X2060Y172D01*
X2066Y172D02*
X2072Y172D01*
X2088Y172D02*
X2095Y172D01*
X2116Y172D02*
X2122Y172D01*
X2139Y172D02*
X2145Y172D01*
X2166Y172D02*
X2172Y172D01*
X2239Y172D02*
X2245Y172D01*
X2289Y172D02*
X2295Y172D01*
X2317Y172D02*
X2323Y172D01*
X2346Y172D02*
X2352Y172D01*
X2390Y172D02*
X2396Y172D01*
X2417Y172D02*
X2423Y172D01*
X2755Y172D02*
X2761Y172D01*
X2778Y172D02*
X2784Y172D01*
X2802Y172D02*
X2808Y172D01*
X2849Y172D02*
X2858Y172D01*
X2960Y172D02*
X2967Y172D01*
X0Y171D02*
X7Y171D01*
X2038Y171D02*
X2044Y171D01*
X2050Y171D02*
X2060Y171D01*
X2066Y171D02*
X2072Y171D01*
X2088Y171D02*
X2095Y171D01*
X2116Y171D02*
X2122Y171D01*
X2139Y171D02*
X2145Y171D01*
X2166Y171D02*
X2172Y171D01*
X2239Y171D02*
X2245Y171D01*
X2289Y171D02*
X2295Y171D01*
X2317Y171D02*
X2323Y171D01*
X2346Y171D02*
X2352Y171D01*
X2390Y171D02*
X2396Y171D01*
X2417Y171D02*
X2423Y171D01*
X2755Y171D02*
X2761Y171D01*
X2778Y171D02*
X2784Y171D01*
X2802Y171D02*
X2808Y171D01*
X2849Y171D02*
X2858Y171D01*
X2960Y171D02*
X2967Y171D01*
X0Y170D02*
X7Y170D01*
X2038Y170D02*
X2044Y170D01*
X2051Y170D02*
X2059Y170D01*
X2066Y170D02*
X2072Y170D01*
X2088Y170D02*
X2095Y170D01*
X2116Y170D02*
X2122Y170D01*
X2139Y170D02*
X2145Y170D01*
X2166Y170D02*
X2172Y170D01*
X2239Y170D02*
X2245Y170D01*
X2289Y170D02*
X2295Y170D01*
X2317Y170D02*
X2323Y170D01*
X2346Y170D02*
X2352Y170D01*
X2390Y170D02*
X2396Y170D01*
X2417Y170D02*
X2423Y170D01*
X2755Y170D02*
X2761Y170D01*
X2778Y170D02*
X2784Y170D01*
X2802Y170D02*
X2808Y170D01*
X2849Y170D02*
X2858Y170D01*
X2960Y170D02*
X2967Y170D01*
X0Y169D02*
X7Y169D01*
X2038Y169D02*
X2044Y169D01*
X2052Y169D02*
X2058Y169D01*
X2066Y169D02*
X2072Y169D01*
X2088Y169D02*
X2095Y169D01*
X2116Y169D02*
X2122Y169D01*
X2139Y169D02*
X2145Y169D01*
X2166Y169D02*
X2172Y169D01*
X2239Y169D02*
X2245Y169D01*
X2289Y169D02*
X2295Y169D01*
X2317Y169D02*
X2323Y169D01*
X2346Y169D02*
X2352Y169D01*
X2390Y169D02*
X2396Y169D01*
X2417Y169D02*
X2423Y169D01*
X2755Y169D02*
X2761Y169D01*
X2778Y169D02*
X2784Y169D01*
X2802Y169D02*
X2808Y169D01*
X2849Y169D02*
X2858Y169D01*
X2960Y169D02*
X2967Y169D01*
X0Y168D02*
X7Y168D01*
X2038Y168D02*
X2044Y168D01*
X2052Y168D02*
X2058Y168D01*
X2066Y168D02*
X2072Y168D01*
X2088Y168D02*
X2095Y168D01*
X2116Y168D02*
X2122Y168D01*
X2139Y168D02*
X2145Y168D01*
X2166Y168D02*
X2172Y168D01*
X2239Y168D02*
X2245Y168D01*
X2289Y168D02*
X2295Y168D01*
X2317Y168D02*
X2323Y168D01*
X2346Y168D02*
X2352Y168D01*
X2390Y168D02*
X2396Y168D01*
X2417Y168D02*
X2423Y168D01*
X2755Y168D02*
X2761Y168D01*
X2778Y168D02*
X2784Y168D01*
X2802Y168D02*
X2808Y168D01*
X2849Y168D02*
X2858Y168D01*
X2960Y168D02*
X2967Y168D01*
X0Y167D02*
X7Y167D01*
X2038Y167D02*
X2044Y167D01*
X2052Y167D02*
X2058Y167D01*
X2066Y167D02*
X2072Y167D01*
X2088Y167D02*
X2095Y167D01*
X2116Y167D02*
X2122Y167D01*
X2139Y167D02*
X2145Y167D01*
X2166Y167D02*
X2172Y167D01*
X2239Y167D02*
X2245Y167D01*
X2289Y167D02*
X2295Y167D01*
X2317Y167D02*
X2323Y167D01*
X2346Y167D02*
X2352Y167D01*
X2390Y167D02*
X2396Y167D01*
X2417Y167D02*
X2423Y167D01*
X2755Y167D02*
X2761Y167D01*
X2778Y167D02*
X2784Y167D01*
X2802Y167D02*
X2808Y167D01*
X2849Y167D02*
X2858Y167D01*
X2960Y167D02*
X2967Y167D01*
X0Y166D02*
X7Y166D01*
X2038Y166D02*
X2044Y166D01*
X2052Y166D02*
X2058Y166D01*
X2066Y166D02*
X2072Y166D01*
X2088Y166D02*
X2095Y166D01*
X2116Y166D02*
X2122Y166D01*
X2139Y166D02*
X2145Y166D01*
X2166Y166D02*
X2172Y166D01*
X2239Y166D02*
X2245Y166D01*
X2289Y166D02*
X2295Y166D01*
X2317Y166D02*
X2323Y166D01*
X2346Y166D02*
X2352Y166D01*
X2390Y166D02*
X2396Y166D01*
X2417Y166D02*
X2423Y166D01*
X2755Y166D02*
X2761Y166D01*
X2778Y166D02*
X2784Y166D01*
X2802Y166D02*
X2808Y166D01*
X2849Y166D02*
X2858Y166D01*
X2960Y166D02*
X2967Y166D01*
X0Y165D02*
X7Y165D01*
X2038Y165D02*
X2044Y165D01*
X2053Y165D02*
X2058Y165D01*
X2066Y165D02*
X2072Y165D01*
X2088Y165D02*
X2095Y165D01*
X2116Y165D02*
X2122Y165D01*
X2139Y165D02*
X2145Y165D01*
X2166Y165D02*
X2172Y165D01*
X2239Y165D02*
X2245Y165D01*
X2289Y165D02*
X2295Y165D01*
X2317Y165D02*
X2323Y165D01*
X2346Y165D02*
X2352Y165D01*
X2390Y165D02*
X2396Y165D01*
X2417Y165D02*
X2423Y165D01*
X2755Y165D02*
X2808Y165D01*
X2849Y165D02*
X2858Y165D01*
X2960Y165D02*
X2967Y165D01*
X0Y164D02*
X7Y164D01*
X2038Y164D02*
X2044Y164D01*
X2053Y164D02*
X2057Y164D01*
X2066Y164D02*
X2072Y164D01*
X2088Y164D02*
X2095Y164D01*
X2116Y164D02*
X2122Y164D01*
X2139Y164D02*
X2145Y164D01*
X2166Y164D02*
X2172Y164D01*
X2191Y164D02*
X2220Y164D01*
X2239Y164D02*
X2245Y164D01*
X2289Y164D02*
X2295Y164D01*
X2317Y164D02*
X2323Y164D01*
X2346Y164D02*
X2368Y164D01*
X2390Y164D02*
X2396Y164D01*
X2417Y164D02*
X2423Y164D01*
X2755Y164D02*
X2808Y164D01*
X2849Y164D02*
X2858Y164D01*
X2960Y164D02*
X2967Y164D01*
X0Y163D02*
X7Y163D01*
X2038Y163D02*
X2044Y163D01*
X2066Y163D02*
X2072Y163D01*
X2088Y163D02*
X2095Y163D01*
X2115Y163D02*
X2122Y163D01*
X2139Y163D02*
X2145Y163D01*
X2166Y163D02*
X2172Y163D01*
X2190Y163D02*
X2222Y163D01*
X2239Y163D02*
X2245Y163D01*
X2289Y163D02*
X2295Y163D01*
X2317Y163D02*
X2323Y163D01*
X2346Y163D02*
X2370Y163D01*
X2390Y163D02*
X2396Y163D01*
X2417Y163D02*
X2423Y163D01*
X2755Y163D02*
X2808Y163D01*
X2849Y163D02*
X2858Y163D01*
X2960Y163D02*
X2967Y163D01*
X0Y162D02*
X7Y162D01*
X2038Y162D02*
X2044Y162D01*
X2066Y162D02*
X2072Y162D01*
X2088Y162D02*
X2095Y162D01*
X2114Y162D02*
X2122Y162D01*
X2139Y162D02*
X2145Y162D01*
X2166Y162D02*
X2172Y162D01*
X2189Y162D02*
X2222Y162D01*
X2239Y162D02*
X2245Y162D01*
X2289Y162D02*
X2295Y162D01*
X2317Y162D02*
X2323Y162D01*
X2346Y162D02*
X2371Y162D01*
X2390Y162D02*
X2396Y162D01*
X2417Y162D02*
X2423Y162D01*
X2755Y162D02*
X2808Y162D01*
X2849Y162D02*
X2858Y162D01*
X2960Y162D02*
X2967Y162D01*
X0Y161D02*
X7Y161D01*
X2038Y161D02*
X2044Y161D01*
X2066Y161D02*
X2072Y161D01*
X2088Y161D02*
X2121Y161D01*
X2139Y161D02*
X2145Y161D01*
X2166Y161D02*
X2172Y161D01*
X2189Y161D02*
X2222Y161D01*
X2239Y161D02*
X2245Y161D01*
X2289Y161D02*
X2295Y161D01*
X2317Y161D02*
X2323Y161D01*
X2346Y161D02*
X2372Y161D01*
X2390Y161D02*
X2396Y161D01*
X2417Y161D02*
X2423Y161D01*
X2755Y161D02*
X2808Y161D01*
X2849Y161D02*
X2858Y161D01*
X2960Y161D02*
X2967Y161D01*
X0Y160D02*
X7Y160D01*
X2038Y160D02*
X2044Y160D01*
X2066Y160D02*
X2072Y160D01*
X2088Y160D02*
X2121Y160D01*
X2139Y160D02*
X2145Y160D01*
X2166Y160D02*
X2172Y160D01*
X2189Y160D02*
X2222Y160D01*
X2239Y160D02*
X2245Y160D01*
X2289Y160D02*
X2295Y160D01*
X2317Y160D02*
X2323Y160D01*
X2346Y160D02*
X2373Y160D01*
X2390Y160D02*
X2396Y160D01*
X2417Y160D02*
X2423Y160D01*
X2755Y160D02*
X2808Y160D01*
X2849Y160D02*
X2858Y160D01*
X2960Y160D02*
X2967Y160D01*
X0Y159D02*
X7Y159D01*
X2038Y159D02*
X2044Y159D01*
X2066Y159D02*
X2072Y159D01*
X2088Y159D02*
X2120Y159D01*
X2139Y159D02*
X2145Y159D01*
X2166Y159D02*
X2172Y159D01*
X2189Y159D02*
X2222Y159D01*
X2239Y159D02*
X2245Y159D01*
X2289Y159D02*
X2295Y159D01*
X2317Y159D02*
X2323Y159D01*
X2346Y159D02*
X2373Y159D01*
X2390Y159D02*
X2396Y159D01*
X2417Y159D02*
X2423Y159D01*
X2755Y159D02*
X2808Y159D01*
X2849Y159D02*
X2858Y159D01*
X2960Y159D02*
X2967Y159D01*
X0Y158D02*
X7Y158D01*
X2038Y158D02*
X2044Y158D01*
X2066Y158D02*
X2072Y158D01*
X2088Y158D02*
X2119Y158D01*
X2139Y158D02*
X2145Y158D01*
X2166Y158D02*
X2172Y158D01*
X2189Y158D02*
X2222Y158D01*
X2239Y158D02*
X2271Y158D01*
X2289Y158D02*
X2295Y158D01*
X2317Y158D02*
X2323Y158D01*
X2346Y158D02*
X2373Y158D01*
X2390Y158D02*
X2396Y158D01*
X2417Y158D02*
X2423Y158D01*
X2849Y158D02*
X2858Y158D01*
X2960Y158D02*
X2967Y158D01*
X0Y157D02*
X7Y157D01*
X2038Y157D02*
X2044Y157D01*
X2066Y157D02*
X2072Y157D01*
X2088Y157D02*
X2118Y157D01*
X2139Y157D02*
X2145Y157D01*
X2166Y157D02*
X2172Y157D01*
X2189Y157D02*
X2222Y157D01*
X2239Y157D02*
X2272Y157D01*
X2289Y157D02*
X2295Y157D01*
X2317Y157D02*
X2323Y157D01*
X2367Y157D02*
X2373Y157D01*
X2390Y157D02*
X2396Y157D01*
X2417Y157D02*
X2423Y157D01*
X2849Y157D02*
X2858Y157D01*
X2960Y157D02*
X2967Y157D01*
X0Y156D02*
X7Y156D01*
X2038Y156D02*
X2044Y156D01*
X2066Y156D02*
X2072Y156D01*
X2088Y156D02*
X2117Y156D01*
X2139Y156D02*
X2145Y156D01*
X2166Y156D02*
X2172Y156D01*
X2190Y156D02*
X2222Y156D01*
X2239Y156D02*
X2272Y156D01*
X2289Y156D02*
X2295Y156D01*
X2317Y156D02*
X2323Y156D01*
X2367Y156D02*
X2373Y156D01*
X2390Y156D02*
X2396Y156D01*
X2417Y156D02*
X2423Y156D01*
X2849Y156D02*
X2858Y156D01*
X2960Y156D02*
X2967Y156D01*
X0Y155D02*
X7Y155D01*
X2038Y155D02*
X2044Y155D01*
X2066Y155D02*
X2072Y155D01*
X2088Y155D02*
X2115Y155D01*
X2139Y155D02*
X2145Y155D01*
X2166Y155D02*
X2172Y155D01*
X2191Y155D02*
X2221Y155D01*
X2239Y155D02*
X2273Y155D01*
X2289Y155D02*
X2295Y155D01*
X2317Y155D02*
X2323Y155D01*
X2367Y155D02*
X2373Y155D01*
X2390Y155D02*
X2396Y155D01*
X2417Y155D02*
X2423Y155D01*
X2849Y155D02*
X2858Y155D01*
X2960Y155D02*
X2967Y155D01*
X0Y154D02*
X7Y154D01*
X2038Y154D02*
X2044Y154D01*
X2066Y154D02*
X2072Y154D01*
X2088Y154D02*
X2095Y154D01*
X2139Y154D02*
X2145Y154D01*
X2166Y154D02*
X2172Y154D01*
X2239Y154D02*
X2273Y154D01*
X2289Y154D02*
X2295Y154D01*
X2317Y154D02*
X2323Y154D01*
X2367Y154D02*
X2373Y154D01*
X2390Y154D02*
X2396Y154D01*
X2417Y154D02*
X2423Y154D01*
X2849Y154D02*
X2858Y154D01*
X2960Y154D02*
X2967Y154D01*
X0Y153D02*
X7Y153D01*
X2038Y153D02*
X2044Y153D01*
X2066Y153D02*
X2072Y153D01*
X2088Y153D02*
X2095Y153D01*
X2139Y153D02*
X2145Y153D01*
X2166Y153D02*
X2172Y153D01*
X2239Y153D02*
X2273Y153D01*
X2289Y153D02*
X2295Y153D01*
X2317Y153D02*
X2323Y153D01*
X2367Y153D02*
X2373Y153D01*
X2390Y153D02*
X2396Y153D01*
X2417Y153D02*
X2423Y153D01*
X2849Y153D02*
X2858Y153D01*
X2960Y153D02*
X2967Y153D01*
X0Y152D02*
X7Y152D01*
X2038Y152D02*
X2044Y152D01*
X2066Y152D02*
X2072Y152D01*
X2088Y152D02*
X2095Y152D01*
X2139Y152D02*
X2145Y152D01*
X2166Y152D02*
X2172Y152D01*
X2239Y152D02*
X2273Y152D01*
X2289Y152D02*
X2295Y152D01*
X2317Y152D02*
X2323Y152D01*
X2367Y152D02*
X2373Y152D01*
X2390Y152D02*
X2396Y152D01*
X2417Y152D02*
X2423Y152D01*
X2849Y152D02*
X2858Y152D01*
X2960Y152D02*
X2967Y152D01*
X0Y151D02*
X7Y151D01*
X2038Y151D02*
X2044Y151D01*
X2066Y151D02*
X2072Y151D01*
X2088Y151D02*
X2095Y151D01*
X2139Y151D02*
X2145Y151D01*
X2166Y151D02*
X2172Y151D01*
X2239Y151D02*
X2245Y151D01*
X2267Y151D02*
X2273Y151D01*
X2289Y151D02*
X2295Y151D01*
X2317Y151D02*
X2323Y151D01*
X2367Y151D02*
X2373Y151D01*
X2390Y151D02*
X2396Y151D01*
X2417Y151D02*
X2423Y151D01*
X2849Y151D02*
X2858Y151D01*
X2960Y151D02*
X2967Y151D01*
X0Y150D02*
X7Y150D01*
X2038Y150D02*
X2044Y150D01*
X2066Y150D02*
X2072Y150D01*
X2088Y150D02*
X2095Y150D01*
X2139Y150D02*
X2145Y150D01*
X2166Y150D02*
X2172Y150D01*
X2239Y150D02*
X2245Y150D01*
X2267Y150D02*
X2273Y150D01*
X2289Y150D02*
X2295Y150D01*
X2317Y150D02*
X2323Y150D01*
X2367Y150D02*
X2373Y150D01*
X2390Y150D02*
X2396Y150D01*
X2417Y150D02*
X2423Y150D01*
X2849Y150D02*
X2858Y150D01*
X2960Y150D02*
X2967Y150D01*
X0Y149D02*
X7Y149D01*
X2038Y149D02*
X2044Y149D01*
X2066Y149D02*
X2072Y149D01*
X2088Y149D02*
X2095Y149D01*
X2139Y149D02*
X2145Y149D01*
X2166Y149D02*
X2172Y149D01*
X2239Y149D02*
X2245Y149D01*
X2267Y149D02*
X2273Y149D01*
X2289Y149D02*
X2295Y149D01*
X2317Y149D02*
X2323Y149D01*
X2367Y149D02*
X2373Y149D01*
X2390Y149D02*
X2396Y149D01*
X2417Y149D02*
X2423Y149D01*
X2849Y149D02*
X2858Y149D01*
X2960Y149D02*
X2967Y149D01*
X0Y148D02*
X7Y148D01*
X2038Y148D02*
X2044Y148D01*
X2066Y148D02*
X2072Y148D01*
X2088Y148D02*
X2095Y148D01*
X2139Y148D02*
X2145Y148D01*
X2166Y148D02*
X2172Y148D01*
X2239Y148D02*
X2245Y148D01*
X2267Y148D02*
X2273Y148D01*
X2289Y148D02*
X2295Y148D01*
X2317Y148D02*
X2323Y148D01*
X2367Y148D02*
X2373Y148D01*
X2390Y148D02*
X2396Y148D01*
X2417Y148D02*
X2423Y148D01*
X2849Y148D02*
X2858Y148D01*
X2960Y148D02*
X2967Y148D01*
X0Y147D02*
X7Y147D01*
X2038Y147D02*
X2044Y147D01*
X2066Y147D02*
X2072Y147D01*
X2088Y147D02*
X2095Y147D01*
X2139Y147D02*
X2145Y147D01*
X2166Y147D02*
X2172Y147D01*
X2239Y147D02*
X2245Y147D01*
X2267Y147D02*
X2273Y147D01*
X2289Y147D02*
X2295Y147D01*
X2317Y147D02*
X2323Y147D01*
X2367Y147D02*
X2373Y147D01*
X2390Y147D02*
X2396Y147D01*
X2417Y147D02*
X2423Y147D01*
X2849Y147D02*
X2858Y147D01*
X2960Y147D02*
X2967Y147D01*
X0Y146D02*
X7Y146D01*
X2038Y146D02*
X2044Y146D01*
X2066Y146D02*
X2072Y146D01*
X2088Y146D02*
X2095Y146D01*
X2139Y146D02*
X2145Y146D01*
X2166Y146D02*
X2172Y146D01*
X2239Y146D02*
X2245Y146D01*
X2267Y146D02*
X2273Y146D01*
X2289Y146D02*
X2295Y146D01*
X2317Y146D02*
X2323Y146D01*
X2367Y146D02*
X2373Y146D01*
X2390Y146D02*
X2396Y146D01*
X2417Y146D02*
X2423Y146D01*
X2849Y146D02*
X2858Y146D01*
X2960Y146D02*
X2967Y146D01*
X0Y145D02*
X7Y145D01*
X2038Y145D02*
X2044Y145D01*
X2066Y145D02*
X2072Y145D01*
X2088Y145D02*
X2095Y145D01*
X2139Y145D02*
X2145Y145D01*
X2166Y145D02*
X2172Y145D01*
X2239Y145D02*
X2245Y145D01*
X2267Y145D02*
X2273Y145D01*
X2289Y145D02*
X2295Y145D01*
X2317Y145D02*
X2323Y145D01*
X2367Y145D02*
X2373Y145D01*
X2390Y145D02*
X2396Y145D01*
X2417Y145D02*
X2423Y145D01*
X2849Y145D02*
X2858Y145D01*
X2960Y145D02*
X2967Y145D01*
X0Y144D02*
X7Y144D01*
X2038Y144D02*
X2044Y144D01*
X2066Y144D02*
X2072Y144D01*
X2088Y144D02*
X2095Y144D01*
X2139Y144D02*
X2145Y144D01*
X2166Y144D02*
X2172Y144D01*
X2239Y144D02*
X2245Y144D01*
X2267Y144D02*
X2273Y144D01*
X2289Y144D02*
X2295Y144D01*
X2317Y144D02*
X2323Y144D01*
X2367Y144D02*
X2373Y144D01*
X2390Y144D02*
X2396Y144D01*
X2417Y144D02*
X2423Y144D01*
X2849Y144D02*
X2858Y144D01*
X2960Y144D02*
X2967Y144D01*
X0Y143D02*
X7Y143D01*
X2038Y143D02*
X2044Y143D01*
X2066Y143D02*
X2072Y143D01*
X2088Y143D02*
X2095Y143D01*
X2139Y143D02*
X2145Y143D01*
X2166Y143D02*
X2172Y143D01*
X2239Y143D02*
X2245Y143D01*
X2267Y143D02*
X2273Y143D01*
X2289Y143D02*
X2295Y143D01*
X2317Y143D02*
X2323Y143D01*
X2341Y143D02*
X2344Y143D01*
X2367Y143D02*
X2373Y143D01*
X2390Y143D02*
X2396Y143D01*
X2417Y143D02*
X2423Y143D01*
X2757Y143D02*
X2758Y143D01*
X2849Y143D02*
X2858Y143D01*
X2960Y143D02*
X2967Y143D01*
X0Y142D02*
X7Y142D01*
X2038Y142D02*
X2044Y142D01*
X2066Y142D02*
X2072Y142D01*
X2088Y142D02*
X2095Y142D01*
X2139Y142D02*
X2146Y142D01*
X2165Y142D02*
X2172Y142D01*
X2239Y142D02*
X2245Y142D01*
X2267Y142D02*
X2273Y142D01*
X2289Y142D02*
X2295Y142D01*
X2317Y142D02*
X2323Y142D01*
X2340Y142D02*
X2347Y142D01*
X2367Y142D02*
X2373Y142D01*
X2390Y142D02*
X2396Y142D01*
X2417Y142D02*
X2423Y142D01*
X2756Y142D02*
X2760Y142D01*
X2849Y142D02*
X2858Y142D01*
X2960Y142D02*
X2967Y142D01*
X0Y141D02*
X7Y141D01*
X2038Y141D02*
X2044Y141D01*
X2066Y141D02*
X2072Y141D01*
X2088Y141D02*
X2095Y141D01*
X2139Y141D02*
X2147Y141D01*
X2164Y141D02*
X2172Y141D01*
X2239Y141D02*
X2245Y141D01*
X2266Y141D02*
X2273Y141D01*
X2289Y141D02*
X2296Y141D01*
X2317Y141D02*
X2323Y141D01*
X2340Y141D02*
X2349Y141D01*
X2367Y141D02*
X2373Y141D01*
X2390Y141D02*
X2396Y141D01*
X2417Y141D02*
X2423Y141D01*
X2755Y141D02*
X2762Y141D01*
X2849Y141D02*
X2858Y141D01*
X2960Y141D02*
X2967Y141D01*
X0Y140D02*
X7Y140D01*
X2038Y140D02*
X2044Y140D01*
X2066Y140D02*
X2072Y140D01*
X2088Y140D02*
X2095Y140D01*
X2140Y140D02*
X2171Y140D01*
X2239Y140D02*
X2273Y140D01*
X2289Y140D02*
X2323Y140D01*
X2340Y140D02*
X2373Y140D01*
X2390Y140D02*
X2423Y140D01*
X2755Y140D02*
X2764Y140D01*
X2849Y140D02*
X2858Y140D01*
X2960Y140D02*
X2967Y140D01*
X0Y139D02*
X7Y139D01*
X2038Y139D02*
X2044Y139D01*
X2066Y139D02*
X2072Y139D01*
X2088Y139D02*
X2095Y139D01*
X2140Y139D02*
X2171Y139D01*
X2239Y139D02*
X2273Y139D01*
X2290Y139D02*
X2323Y139D01*
X2340Y139D02*
X2373Y139D01*
X2390Y139D02*
X2423Y139D01*
X2755Y139D02*
X2765Y139D01*
X2849Y139D02*
X2858Y139D01*
X2960Y139D02*
X2967Y139D01*
X0Y138D02*
X7Y138D01*
X2038Y138D02*
X2044Y138D01*
X2066Y138D02*
X2072Y138D01*
X2088Y138D02*
X2095Y138D01*
X2141Y138D02*
X2170Y138D01*
X2239Y138D02*
X2273Y138D01*
X2290Y138D02*
X2322Y138D01*
X2340Y138D02*
X2372Y138D01*
X2390Y138D02*
X2423Y138D01*
X2755Y138D02*
X2767Y138D01*
X2849Y138D02*
X2858Y138D01*
X2960Y138D02*
X2967Y138D01*
X0Y137D02*
X7Y137D01*
X2038Y137D02*
X2044Y137D01*
X2066Y137D02*
X2072Y137D01*
X2089Y137D02*
X2094Y137D01*
X2142Y137D02*
X2169Y137D01*
X2239Y137D02*
X2273Y137D01*
X2290Y137D02*
X2322Y137D01*
X2342Y137D02*
X2372Y137D01*
X2391Y137D02*
X2422Y137D01*
X2756Y137D02*
X2769Y137D01*
X2849Y137D02*
X2858Y137D01*
X2960Y137D02*
X2967Y137D01*
X0Y136D02*
X7Y136D01*
X2039Y136D02*
X2044Y136D01*
X2066Y136D02*
X2072Y136D01*
X2089Y136D02*
X2094Y136D01*
X2143Y136D02*
X2168Y136D01*
X2239Y136D02*
X2272Y136D01*
X2291Y136D02*
X2321Y136D01*
X2344Y136D02*
X2371Y136D01*
X2392Y136D02*
X2421Y136D01*
X2757Y136D02*
X2770Y136D01*
X2849Y136D02*
X2858Y136D01*
X2960Y136D02*
X2967Y136D01*
X0Y135D02*
X7Y135D01*
X2039Y135D02*
X2043Y135D01*
X2067Y135D02*
X2071Y135D01*
X2089Y135D02*
X2094Y135D01*
X2144Y135D02*
X2167Y135D01*
X2240Y135D02*
X2272Y135D01*
X2292Y135D02*
X2320Y135D01*
X2346Y135D02*
X2370Y135D01*
X2393Y135D02*
X2420Y135D01*
X2759Y135D02*
X2772Y135D01*
X2849Y135D02*
X2858Y135D01*
X2960Y135D02*
X2967Y135D01*
X0Y134D02*
X7Y134D01*
X2041Y134D02*
X2042Y134D01*
X2068Y134D02*
X2069Y134D01*
X2091Y134D02*
X2092Y134D01*
X2147Y134D02*
X2164Y134D01*
X2242Y134D02*
X2270Y134D01*
X2295Y134D02*
X2318Y134D01*
X2350Y134D02*
X2368Y134D01*
X2395Y134D02*
X2418Y134D01*
X2761Y134D02*
X2774Y134D01*
X2849Y134D02*
X2858Y134D01*
X2960Y134D02*
X2967Y134D01*
X0Y133D02*
X7Y133D01*
X2763Y133D02*
X2776Y133D01*
X2849Y133D02*
X2858Y133D01*
X2960Y133D02*
X2967Y133D01*
X0Y132D02*
X7Y132D01*
X2764Y132D02*
X2777Y132D01*
X2849Y132D02*
X2858Y132D01*
X2960Y132D02*
X2967Y132D01*
X0Y131D02*
X7Y131D01*
X2766Y131D02*
X2779Y131D01*
X2849Y131D02*
X2858Y131D01*
X2960Y131D02*
X2967Y131D01*
X0Y130D02*
X7Y130D01*
X2768Y130D02*
X2781Y130D01*
X2849Y130D02*
X2858Y130D01*
X2960Y130D02*
X2967Y130D01*
X0Y129D02*
X7Y129D01*
X2769Y129D02*
X2782Y129D01*
X2849Y129D02*
X2858Y129D01*
X2960Y129D02*
X2967Y129D01*
X0Y128D02*
X7Y128D01*
X2771Y128D02*
X2784Y128D01*
X2849Y128D02*
X2858Y128D01*
X2960Y128D02*
X2967Y128D01*
X0Y127D02*
X7Y127D01*
X2773Y127D02*
X2786Y127D01*
X2849Y127D02*
X2858Y127D01*
X2960Y127D02*
X2967Y127D01*
X0Y126D02*
X7Y126D01*
X2775Y126D02*
X2787Y126D01*
X2849Y126D02*
X2858Y126D01*
X2960Y126D02*
X2967Y126D01*
X0Y125D02*
X7Y125D01*
X2776Y125D02*
X2789Y125D01*
X2849Y125D02*
X2858Y125D01*
X2960Y125D02*
X2967Y125D01*
X0Y124D02*
X7Y124D01*
X2778Y124D02*
X2791Y124D01*
X2849Y124D02*
X2858Y124D01*
X2960Y124D02*
X2967Y124D01*
X0Y123D02*
X7Y123D01*
X2780Y123D02*
X2793Y123D01*
X2849Y123D02*
X2858Y123D01*
X2960Y123D02*
X2967Y123D01*
X0Y122D02*
X7Y122D01*
X2781Y122D02*
X2794Y122D01*
X2849Y122D02*
X2858Y122D01*
X2960Y122D02*
X2967Y122D01*
X0Y121D02*
X7Y121D01*
X2783Y121D02*
X2796Y121D01*
X2849Y121D02*
X2858Y121D01*
X2960Y121D02*
X2967Y121D01*
X0Y120D02*
X7Y120D01*
X2785Y120D02*
X2798Y120D01*
X2849Y120D02*
X2858Y120D01*
X2960Y120D02*
X2967Y120D01*
X0Y119D02*
X7Y119D01*
X2786Y119D02*
X2799Y119D01*
X2849Y119D02*
X2858Y119D01*
X2960Y119D02*
X2967Y119D01*
X0Y118D02*
X7Y118D01*
X2788Y118D02*
X2801Y118D01*
X2849Y118D02*
X2858Y118D01*
X2960Y118D02*
X2967Y118D01*
X0Y117D02*
X7Y117D01*
X2790Y117D02*
X2803Y117D01*
X2849Y117D02*
X2858Y117D01*
X2960Y117D02*
X2967Y117D01*
X0Y116D02*
X7Y116D01*
X2792Y116D02*
X2805Y116D01*
X2849Y116D02*
X2858Y116D01*
X2960Y116D02*
X2967Y116D01*
X0Y115D02*
X7Y115D01*
X2793Y115D02*
X2806Y115D01*
X2849Y115D02*
X2858Y115D01*
X2960Y115D02*
X2967Y115D01*
X0Y114D02*
X7Y114D01*
X2795Y114D02*
X2807Y114D01*
X2849Y114D02*
X2858Y114D01*
X2960Y114D02*
X2967Y114D01*
X0Y113D02*
X7Y113D01*
X2797Y113D02*
X2808Y113D01*
X2849Y113D02*
X2858Y113D01*
X2960Y113D02*
X2967Y113D01*
X0Y112D02*
X7Y112D01*
X2798Y112D02*
X2808Y112D01*
X2849Y112D02*
X2858Y112D01*
X2960Y112D02*
X2967Y112D01*
X0Y111D02*
X7Y111D01*
X2800Y111D02*
X2808Y111D01*
X2849Y111D02*
X2858Y111D01*
X2960Y111D02*
X2967Y111D01*
X0Y110D02*
X7Y110D01*
X2802Y110D02*
X2807Y110D01*
X2849Y110D02*
X2858Y110D01*
X2960Y110D02*
X2967Y110D01*
X0Y109D02*
X7Y109D01*
X2804Y109D02*
X2806Y109D01*
X2849Y109D02*
X2858Y109D01*
X2960Y109D02*
X2967Y109D01*
X0Y108D02*
X7Y108D01*
X2849Y108D02*
X2858Y108D01*
X2960Y108D02*
X2967Y108D01*
X0Y107D02*
X7Y107D01*
X2849Y107D02*
X2858Y107D01*
X2960Y107D02*
X2967Y107D01*
X0Y106D02*
X7Y106D01*
X2849Y106D02*
X2858Y106D01*
X2960Y106D02*
X2967Y106D01*
X0Y105D02*
X7Y105D01*
X2849Y105D02*
X2858Y105D01*
X2960Y105D02*
X2967Y105D01*
X0Y104D02*
X7Y104D01*
X2849Y104D02*
X2858Y104D01*
X2960Y104D02*
X2967Y104D01*
X0Y103D02*
X7Y103D01*
X2849Y103D02*
X2858Y103D01*
X2960Y103D02*
X2967Y103D01*
X0Y102D02*
X7Y102D01*
X2849Y102D02*
X2858Y102D01*
X2960Y102D02*
X2967Y102D01*
X0Y101D02*
X7Y101D01*
X2849Y101D02*
X2858Y101D01*
X2960Y101D02*
X2967Y101D01*
X0Y100D02*
X7Y100D01*
X2849Y100D02*
X2858Y100D01*
X2960Y100D02*
X2967Y100D01*
X0Y99D02*
X7Y99D01*
X2849Y99D02*
X2858Y99D01*
X2960Y99D02*
X2967Y99D01*
X0Y98D02*
X7Y98D01*
X2849Y98D02*
X2858Y98D01*
X2960Y98D02*
X2967Y98D01*
X0Y97D02*
X7Y97D01*
X2849Y97D02*
X2858Y97D01*
X2960Y97D02*
X2967Y97D01*
X0Y96D02*
X7Y96D01*
X2849Y96D02*
X2858Y96D01*
X2960Y96D02*
X2967Y96D01*
X0Y95D02*
X7Y95D01*
X2849Y95D02*
X2858Y95D01*
X2960Y95D02*
X2967Y95D01*
X0Y94D02*
X7Y94D01*
X2849Y94D02*
X2858Y94D01*
X2960Y94D02*
X2967Y94D01*
X0Y93D02*
X7Y93D01*
X2765Y93D02*
X2768Y93D01*
X2849Y93D02*
X2858Y93D01*
X2960Y93D02*
X2967Y93D01*
X0Y92D02*
X7Y92D01*
X2761Y92D02*
X2772Y92D01*
X2803Y92D02*
X2807Y92D01*
X2849Y92D02*
X2858Y92D01*
X2960Y92D02*
X2967Y92D01*
X0Y91D02*
X7Y91D01*
X2759Y91D02*
X2774Y91D01*
X2801Y91D02*
X2807Y91D01*
X2849Y91D02*
X2858Y91D01*
X2960Y91D02*
X2967Y91D01*
X0Y90D02*
X7Y90D01*
X2758Y90D02*
X2775Y90D01*
X2799Y90D02*
X2808Y90D01*
X2850Y90D02*
X2858Y90D01*
X2960Y90D02*
X2967Y90D01*
X0Y89D02*
X7Y89D01*
X2757Y89D02*
X2776Y89D01*
X2797Y89D02*
X2808Y89D01*
X2851Y89D02*
X2858Y89D01*
X2960Y89D02*
X2967Y89D01*
X0Y88D02*
X7Y88D01*
X2756Y88D02*
X2777Y88D01*
X2796Y88D02*
X2807Y88D01*
X2852Y88D02*
X2858Y88D01*
X2960Y88D02*
X2967Y88D01*
X0Y87D02*
X7Y87D01*
X2756Y87D02*
X2777Y87D01*
X2794Y87D02*
X2807Y87D01*
X2853Y87D02*
X2858Y87D01*
X2960Y87D02*
X2967Y87D01*
X0Y86D02*
X7Y86D01*
X2755Y86D02*
X2778Y86D01*
X2792Y86D02*
X2805Y86D01*
X2854Y86D02*
X2858Y86D01*
X2960Y86D02*
X2967Y86D01*
X0Y85D02*
X7Y85D01*
X2755Y85D02*
X2762Y85D01*
X2771Y85D02*
X2778Y85D01*
X2791Y85D02*
X2804Y85D01*
X2854Y85D02*
X2858Y85D01*
X2960Y85D02*
X2967Y85D01*
X0Y84D02*
X7Y84D01*
X2755Y84D02*
X2761Y84D01*
X2772Y84D02*
X2778Y84D01*
X2789Y84D02*
X2802Y84D01*
X2855Y84D02*
X2858Y84D01*
X2960Y84D02*
X2967Y84D01*
X0Y83D02*
X7Y83D01*
X2755Y83D02*
X2761Y83D01*
X2772Y83D02*
X2778Y83D01*
X2787Y83D02*
X2800Y83D01*
X2855Y83D02*
X2858Y83D01*
X2960Y83D02*
X2967Y83D01*
X0Y82D02*
X7Y82D01*
X2755Y82D02*
X2761Y82D01*
X2772Y82D02*
X2778Y82D01*
X2785Y82D02*
X2798Y82D01*
X2856Y82D02*
X2858Y82D01*
X2960Y82D02*
X2967Y82D01*
X0Y81D02*
X7Y81D01*
X2755Y81D02*
X2761Y81D01*
X2772Y81D02*
X2778Y81D01*
X2784Y81D02*
X2797Y81D01*
X2856Y81D02*
X2858Y81D01*
X2960Y81D02*
X2967Y81D01*
X0Y80D02*
X7Y80D01*
X2755Y80D02*
X2761Y80D01*
X2772Y80D02*
X2778Y80D01*
X2782Y80D02*
X2795Y80D01*
X2857Y80D02*
X2858Y80D01*
X2960Y80D02*
X2967Y80D01*
X0Y79D02*
X7Y79D01*
X2755Y79D02*
X2761Y79D01*
X2772Y79D02*
X2778Y79D01*
X2780Y79D02*
X2793Y79D01*
X2857Y79D02*
X2858Y79D01*
X2960Y79D02*
X2967Y79D01*
X0Y78D02*
X7Y78D01*
X2755Y78D02*
X2761Y78D01*
X2772Y78D02*
X2792Y78D01*
X2857Y78D02*
X2858Y78D01*
X2960Y78D02*
X2967Y78D01*
X0Y77D02*
X7Y77D01*
X2755Y77D02*
X2761Y77D01*
X2772Y77D02*
X2790Y77D01*
X2858Y77D02*
X2858Y77D01*
X2960Y77D02*
X2967Y77D01*
X0Y76D02*
X7Y76D01*
X2755Y76D02*
X2761Y76D01*
X2772Y76D02*
X2788Y76D01*
X2858Y76D02*
X2858Y76D01*
X2960Y76D02*
X2967Y76D01*
X0Y75D02*
X7Y75D01*
X2755Y75D02*
X2761Y75D01*
X2772Y75D02*
X2787Y75D01*
X2858Y75D02*
X2858Y75D01*
X2960Y75D02*
X2967Y75D01*
X0Y74D02*
X7Y74D01*
X2755Y74D02*
X2761Y74D01*
X2772Y74D02*
X2785Y74D01*
X2858Y74D02*
X2858Y74D01*
X2960Y74D02*
X2967Y74D01*
X0Y73D02*
X7Y73D01*
X2755Y73D02*
X2761Y73D01*
X2772Y73D02*
X2783Y73D01*
X2858Y73D02*
X2858Y73D01*
X2960Y73D02*
X2967Y73D01*
X0Y72D02*
X7Y72D01*
X2755Y72D02*
X2761Y72D01*
X2772Y72D02*
X2781Y72D01*
X2858Y72D02*
X2858Y72D01*
X2960Y72D02*
X2967Y72D01*
X0Y71D02*
X7Y71D01*
X2755Y71D02*
X2761Y71D01*
X2772Y71D02*
X2780Y71D01*
X2858Y71D02*
X2858Y71D01*
X2960Y71D02*
X2967Y71D01*
X0Y70D02*
X7Y70D01*
X2755Y70D02*
X2761Y70D01*
X2772Y70D02*
X2778Y70D01*
X2858Y70D02*
X2858Y70D01*
X2960Y70D02*
X2967Y70D01*
X0Y69D02*
X7Y69D01*
X2755Y69D02*
X2761Y69D01*
X2772Y69D02*
X2778Y69D01*
X2858Y69D02*
X2858Y69D01*
X2960Y69D02*
X2967Y69D01*
X0Y68D02*
X7Y68D01*
X2755Y68D02*
X2761Y68D01*
X2772Y68D02*
X2778Y68D01*
X2857Y68D02*
X2858Y68D01*
X2960Y68D02*
X2967Y68D01*
X0Y67D02*
X7Y67D01*
X2755Y67D02*
X2761Y67D01*
X2772Y67D02*
X2778Y67D01*
X2857Y67D02*
X2858Y67D01*
X2960Y67D02*
X2967Y67D01*
X0Y66D02*
X7Y66D01*
X2755Y66D02*
X2761Y66D01*
X2772Y66D02*
X2778Y66D01*
X2857Y66D02*
X2858Y66D01*
X2960Y66D02*
X2967Y66D01*
X0Y65D02*
X7Y65D01*
X2755Y65D02*
X2806Y65D01*
X2856Y65D02*
X2858Y65D01*
X2960Y65D02*
X2967Y65D01*
X0Y64D02*
X7Y64D01*
X2755Y64D02*
X2807Y64D01*
X2856Y64D02*
X2858Y64D01*
X2960Y64D02*
X2967Y64D01*
X0Y63D02*
X7Y63D01*
X2755Y63D02*
X2808Y63D01*
X2855Y63D02*
X2858Y63D01*
X2960Y63D02*
X2967Y63D01*
X0Y62D02*
X7Y62D01*
X2755Y62D02*
X2808Y62D01*
X2855Y62D02*
X2858Y62D01*
X2960Y62D02*
X2967Y62D01*
X0Y61D02*
X7Y61D01*
X2755Y61D02*
X2808Y61D01*
X2854Y61D02*
X2858Y61D01*
X2960Y61D02*
X2967Y61D01*
X0Y60D02*
X7Y60D01*
X2755Y60D02*
X2807Y60D01*
X2853Y60D02*
X2858Y60D01*
X2960Y60D02*
X2967Y60D01*
X0Y59D02*
X7Y59D01*
X2755Y59D02*
X2806Y59D01*
X2853Y59D02*
X2858Y59D01*
X2960Y59D02*
X2967Y59D01*
X0Y58D02*
X7Y58D01*
X2852Y58D02*
X2858Y58D01*
X2960Y58D02*
X2967Y58D01*
X0Y57D02*
X7Y57D01*
X2851Y57D02*
X2858Y57D01*
X2960Y57D02*
X2967Y57D01*
X0Y56D02*
X7Y56D01*
X2850Y56D02*
X2858Y56D01*
X2960Y56D02*
X2967Y56D01*
X0Y55D02*
X7Y55D01*
X2849Y55D02*
X2858Y55D01*
X2960Y55D02*
X2967Y55D01*
X0Y54D02*
X7Y54D01*
X2849Y54D02*
X2858Y54D01*
X2960Y54D02*
X2967Y54D01*
X0Y53D02*
X7Y53D01*
X2849Y53D02*
X2858Y53D01*
X2960Y53D02*
X2967Y53D01*
X0Y52D02*
X7Y52D01*
X2849Y52D02*
X2858Y52D01*
X2960Y52D02*
X2967Y52D01*
X0Y51D02*
X7Y51D01*
X2849Y51D02*
X2858Y51D01*
X2960Y51D02*
X2967Y51D01*
X0Y50D02*
X7Y50D01*
X2849Y50D02*
X2858Y50D01*
X2960Y50D02*
X2967Y50D01*
X0Y49D02*
X7Y49D01*
X2849Y49D02*
X2858Y49D01*
X2960Y49D02*
X2967Y49D01*
X0Y48D02*
X7Y48D01*
X2849Y48D02*
X2858Y48D01*
X2960Y48D02*
X2967Y48D01*
X0Y47D02*
X7Y47D01*
X2849Y47D02*
X2858Y47D01*
X2960Y47D02*
X2967Y47D01*
X0Y46D02*
X7Y46D01*
X2849Y46D02*
X2858Y46D01*
X2960Y46D02*
X2967Y46D01*
X0Y45D02*
X7Y45D01*
X2849Y45D02*
X2858Y45D01*
X2960Y45D02*
X2967Y45D01*
X0Y44D02*
X7Y44D01*
X2849Y44D02*
X2858Y44D01*
X2960Y44D02*
X2967Y44D01*
X0Y43D02*
X7Y43D01*
X2849Y43D02*
X2858Y43D01*
X2960Y43D02*
X2967Y43D01*
X0Y42D02*
X7Y42D01*
X2849Y42D02*
X2858Y42D01*
X2960Y42D02*
X2967Y42D01*
X0Y41D02*
X7Y41D01*
X2849Y41D02*
X2858Y41D01*
X2960Y41D02*
X2967Y41D01*
X0Y40D02*
X7Y40D01*
X2849Y40D02*
X2858Y40D01*
X2960Y40D02*
X2967Y40D01*
X0Y39D02*
X7Y39D01*
X2849Y39D02*
X2858Y39D01*
X2960Y39D02*
X2967Y39D01*
X0Y38D02*
X7Y38D01*
X2849Y38D02*
X2858Y38D01*
X2960Y38D02*
X2967Y38D01*
X0Y37D02*
X7Y37D01*
X2849Y37D02*
X2858Y37D01*
X2960Y37D02*
X2967Y37D01*
X0Y36D02*
X7Y36D01*
X2849Y36D02*
X2858Y36D01*
X2960Y36D02*
X2967Y36D01*
X0Y35D02*
X7Y35D01*
X2849Y35D02*
X2858Y35D01*
X2960Y35D02*
X2967Y35D01*
X0Y34D02*
X7Y34D01*
X2849Y34D02*
X2858Y34D01*
X2960Y34D02*
X2967Y34D01*
X0Y33D02*
X7Y33D01*
X2849Y33D02*
X2858Y33D01*
X2960Y33D02*
X2967Y33D01*
X0Y32D02*
X7Y32D01*
X2849Y32D02*
X2858Y32D01*
X2960Y32D02*
X2967Y32D01*
X0Y31D02*
X7Y31D01*
X2849Y31D02*
X2858Y31D01*
X2960Y31D02*
X2967Y31D01*
X0Y30D02*
X7Y30D01*
X2849Y30D02*
X2858Y30D01*
X2960Y30D02*
X2967Y30D01*
X0Y29D02*
X7Y29D01*
X2849Y29D02*
X2858Y29D01*
X2960Y29D02*
X2967Y29D01*
X0Y28D02*
X7Y28D01*
X2849Y28D02*
X2858Y28D01*
X2960Y28D02*
X2967Y28D01*
X0Y27D02*
X7Y27D01*
X2849Y27D02*
X2858Y27D01*
X2960Y27D02*
X2967Y27D01*
X0Y26D02*
X7Y26D01*
X2849Y26D02*
X2858Y26D01*
X2960Y26D02*
X2967Y26D01*
X0Y25D02*
X7Y25D01*
X2849Y25D02*
X2858Y25D01*
X2960Y25D02*
X2967Y25D01*
X0Y24D02*
X7Y24D01*
X2849Y24D02*
X2858Y24D01*
X2960Y24D02*
X2967Y24D01*
X0Y23D02*
X7Y23D01*
X2849Y23D02*
X2858Y23D01*
X2960Y23D02*
X2967Y23D01*
X0Y22D02*
X7Y22D01*
X2849Y22D02*
X2858Y22D01*
X2960Y22D02*
X2967Y22D01*
X0Y21D02*
X7Y21D01*
X2849Y21D02*
X2858Y21D01*
X2960Y21D02*
X2967Y21D01*
X0Y20D02*
X7Y20D01*
X2849Y20D02*
X2858Y20D01*
X2960Y20D02*
X2967Y20D01*
X0Y19D02*
X7Y19D01*
X2849Y19D02*
X2858Y19D01*
X2960Y19D02*
X2967Y19D01*
X0Y18D02*
X7Y18D01*
X2849Y18D02*
X2858Y18D01*
X2960Y18D02*
X2967Y18D01*
X0Y17D02*
X7Y17D01*
X2849Y17D02*
X2858Y17D01*
X2960Y17D02*
X2967Y17D01*
X0Y16D02*
X7Y16D01*
X2849Y16D02*
X2858Y16D01*
X2960Y16D02*
X2967Y16D01*
X0Y15D02*
X7Y15D01*
X2849Y15D02*
X2858Y15D01*
X2960Y15D02*
X2967Y15D01*
X0Y14D02*
X7Y14D01*
X2849Y14D02*
X2858Y14D01*
X2960Y14D02*
X2967Y14D01*
X0Y13D02*
X7Y13D01*
X2849Y13D02*
X2858Y13D01*
X2960Y13D02*
X2967Y13D01*
X0Y12D02*
X7Y12D01*
X2960Y12D02*
X2967Y12D01*
X0Y11D02*
X7Y11D01*
X2960Y11D02*
X2967Y11D01*
X0Y10D02*
X7Y10D01*
X2960Y10D02*
X2967Y10D01*
X0Y9D02*
X7Y9D01*
X2960Y9D02*
X2967Y9D01*
X0Y8D02*
X2967Y8D01*
X0Y7D02*
X2967Y7D01*
X0Y6D02*
X2967Y6D01*
X0Y5D02*
X2967Y5D01*
X0Y4D02*
X2967Y4D01*
X0Y3D02*
X2967Y3D01*
X0Y2D02*
X2967Y2D01*
X0Y1D02*
X2967Y1D01*
D02*
G04 End of Silk1*
M02*