; NON-PLATED HOLES START AT T1
; THROUGH (PLATED) HOLES START AT T100
M48
INCH
T100C0.015748
T101C0.038000
%
T100
X011440Y002306
X001425Y005310
X004420Y009309
X015432Y008305
X003434Y008305
X014428Y009304
X011428Y007804
X014442Y005318
T101
X014428Y004304
X012428Y004304
X010428Y004304
X024428Y001304
X022428Y001304
X020428Y001304
X019428Y004304
X017428Y004304
X015428Y004304
X013428Y004304
X023428Y001304
X018428Y004304
X016428Y004304
X010428Y010304
X012428Y010304
X014428Y010304
X021428Y006304
X011428Y010304
X019428Y010304
X013428Y010304
X015428Y010304
X017428Y010304
X018428Y010304
X016428Y010304
X004428Y011304
X002428Y011304
X021428Y004304
X009428Y011304
X003428Y011304
X005428Y011304
X007428Y011304
X008428Y011304
X006428Y011304
X020428Y010304
X024428Y010304
X010428Y005304
X021428Y010304
X010428Y011304
X012428Y011304
X014428Y011304
X021428Y007304
X010428Y003304
X011428Y011304
X019428Y011304
X013428Y011304
X015428Y011304
X017428Y011304
X018428Y011304
X016428Y011304
X021428Y005304
X020428Y011304
X024428Y011304
X019428Y001304
X017428Y001304
X010428Y006304
X004428Y010304
X021428Y011304
X002428Y010304
X018428Y001304
X009428Y010304
X003428Y010304
X005428Y010304
X007428Y010304
X008428Y010304
X006428Y010304
T00
M30
