G04 MADE WITH FRITZING*
G04 WWW.FRITZING.ORG*
G04 DOUBLE SIDED*
G04 HOLES PLATED*
G04 CONTOUR ON CENTER OF CONTOUR VECTOR*
%ASAXBY*%
%FSLAX23Y23*%
%MOIN*%
%OFA0B0*%
%SFA1.0B1.0*%
%ADD10R,0.001000X0.001000*%
%LNSILK0*%
G90*
G70*
G54D10*
X0Y1336D02*
X2453Y1336D01*
X0Y1335D02*
X2453Y1335D01*
X0Y1334D02*
X2453Y1334D01*
X0Y1333D02*
X2453Y1333D01*
X0Y1332D02*
X2453Y1332D01*
X0Y1331D02*
X2453Y1331D01*
X0Y1330D02*
X2453Y1330D01*
X0Y1329D02*
X2453Y1329D01*
X0Y1328D02*
X7Y1328D01*
X2446Y1328D02*
X2453Y1328D01*
X0Y1327D02*
X7Y1327D01*
X2446Y1327D02*
X2453Y1327D01*
X0Y1326D02*
X7Y1326D01*
X2446Y1326D02*
X2453Y1326D01*
X0Y1325D02*
X7Y1325D01*
X2446Y1325D02*
X2453Y1325D01*
X0Y1324D02*
X7Y1324D01*
X2446Y1324D02*
X2453Y1324D01*
X0Y1323D02*
X7Y1323D01*
X2446Y1323D02*
X2453Y1323D01*
X0Y1322D02*
X7Y1322D01*
X2446Y1322D02*
X2453Y1322D01*
X0Y1321D02*
X7Y1321D01*
X2446Y1321D02*
X2453Y1321D01*
X0Y1320D02*
X7Y1320D01*
X2446Y1320D02*
X2453Y1320D01*
X0Y1319D02*
X7Y1319D01*
X2446Y1319D02*
X2453Y1319D01*
X0Y1318D02*
X7Y1318D01*
X2446Y1318D02*
X2453Y1318D01*
X0Y1317D02*
X7Y1317D01*
X2446Y1317D02*
X2453Y1317D01*
X0Y1316D02*
X7Y1316D01*
X2446Y1316D02*
X2453Y1316D01*
X0Y1315D02*
X7Y1315D01*
X2446Y1315D02*
X2453Y1315D01*
X0Y1314D02*
X7Y1314D01*
X2446Y1314D02*
X2453Y1314D01*
X0Y1313D02*
X7Y1313D01*
X2446Y1313D02*
X2453Y1313D01*
X0Y1312D02*
X7Y1312D01*
X2446Y1312D02*
X2453Y1312D01*
X0Y1311D02*
X7Y1311D01*
X2446Y1311D02*
X2453Y1311D01*
X0Y1310D02*
X7Y1310D01*
X2446Y1310D02*
X2453Y1310D01*
X0Y1309D02*
X7Y1309D01*
X2446Y1309D02*
X2453Y1309D01*
X0Y1308D02*
X7Y1308D01*
X2446Y1308D02*
X2453Y1308D01*
X0Y1307D02*
X7Y1307D01*
X2446Y1307D02*
X2453Y1307D01*
X0Y1306D02*
X7Y1306D01*
X2446Y1306D02*
X2453Y1306D01*
X0Y1305D02*
X7Y1305D01*
X2446Y1305D02*
X2453Y1305D01*
X0Y1304D02*
X7Y1304D01*
X2446Y1304D02*
X2453Y1304D01*
X0Y1303D02*
X7Y1303D01*
X2446Y1303D02*
X2453Y1303D01*
X0Y1302D02*
X7Y1302D01*
X2446Y1302D02*
X2453Y1302D01*
X0Y1301D02*
X7Y1301D01*
X2446Y1301D02*
X2453Y1301D01*
X0Y1300D02*
X7Y1300D01*
X2446Y1300D02*
X2453Y1300D01*
X0Y1299D02*
X7Y1299D01*
X2446Y1299D02*
X2453Y1299D01*
X0Y1298D02*
X7Y1298D01*
X2446Y1298D02*
X2453Y1298D01*
X0Y1297D02*
X7Y1297D01*
X2446Y1297D02*
X2453Y1297D01*
X0Y1296D02*
X7Y1296D01*
X2446Y1296D02*
X2453Y1296D01*
X0Y1295D02*
X7Y1295D01*
X2446Y1295D02*
X2453Y1295D01*
X0Y1294D02*
X7Y1294D01*
X2446Y1294D02*
X2453Y1294D01*
X0Y1293D02*
X7Y1293D01*
X2446Y1293D02*
X2453Y1293D01*
X0Y1292D02*
X7Y1292D01*
X2446Y1292D02*
X2453Y1292D01*
X0Y1291D02*
X7Y1291D01*
X2446Y1291D02*
X2453Y1291D01*
X0Y1290D02*
X7Y1290D01*
X2446Y1290D02*
X2453Y1290D01*
X0Y1289D02*
X7Y1289D01*
X2446Y1289D02*
X2453Y1289D01*
X0Y1288D02*
X7Y1288D01*
X2446Y1288D02*
X2453Y1288D01*
X0Y1287D02*
X7Y1287D01*
X2446Y1287D02*
X2453Y1287D01*
X0Y1286D02*
X7Y1286D01*
X2446Y1286D02*
X2453Y1286D01*
X0Y1285D02*
X7Y1285D01*
X2446Y1285D02*
X2453Y1285D01*
X0Y1284D02*
X7Y1284D01*
X2446Y1284D02*
X2453Y1284D01*
X0Y1283D02*
X7Y1283D01*
X2446Y1283D02*
X2453Y1283D01*
X0Y1282D02*
X7Y1282D01*
X2446Y1282D02*
X2453Y1282D01*
X0Y1281D02*
X7Y1281D01*
X2446Y1281D02*
X2453Y1281D01*
X0Y1280D02*
X7Y1280D01*
X2446Y1280D02*
X2453Y1280D01*
X0Y1279D02*
X7Y1279D01*
X2446Y1279D02*
X2453Y1279D01*
X0Y1278D02*
X7Y1278D01*
X2446Y1278D02*
X2453Y1278D01*
X0Y1277D02*
X7Y1277D01*
X2446Y1277D02*
X2453Y1277D01*
X0Y1276D02*
X7Y1276D01*
X2446Y1276D02*
X2453Y1276D01*
X0Y1275D02*
X7Y1275D01*
X2446Y1275D02*
X2453Y1275D01*
X0Y1274D02*
X7Y1274D01*
X2446Y1274D02*
X2453Y1274D01*
X0Y1273D02*
X7Y1273D01*
X2446Y1273D02*
X2453Y1273D01*
X0Y1272D02*
X7Y1272D01*
X2446Y1272D02*
X2453Y1272D01*
X0Y1271D02*
X7Y1271D01*
X2446Y1271D02*
X2453Y1271D01*
X0Y1270D02*
X7Y1270D01*
X2446Y1270D02*
X2453Y1270D01*
X0Y1269D02*
X7Y1269D01*
X2446Y1269D02*
X2453Y1269D01*
X0Y1268D02*
X7Y1268D01*
X2446Y1268D02*
X2453Y1268D01*
X0Y1267D02*
X7Y1267D01*
X2446Y1267D02*
X2453Y1267D01*
X0Y1266D02*
X7Y1266D01*
X2446Y1266D02*
X2453Y1266D01*
X0Y1265D02*
X7Y1265D01*
X2446Y1265D02*
X2453Y1265D01*
X0Y1264D02*
X7Y1264D01*
X2446Y1264D02*
X2453Y1264D01*
X0Y1263D02*
X7Y1263D01*
X2446Y1263D02*
X2453Y1263D01*
X0Y1262D02*
X7Y1262D01*
X2446Y1262D02*
X2453Y1262D01*
X0Y1261D02*
X7Y1261D01*
X2446Y1261D02*
X2453Y1261D01*
X0Y1260D02*
X7Y1260D01*
X2446Y1260D02*
X2453Y1260D01*
X0Y1259D02*
X7Y1259D01*
X2446Y1259D02*
X2453Y1259D01*
X0Y1258D02*
X7Y1258D01*
X2446Y1258D02*
X2453Y1258D01*
X0Y1257D02*
X7Y1257D01*
X2446Y1257D02*
X2453Y1257D01*
X0Y1256D02*
X7Y1256D01*
X2446Y1256D02*
X2453Y1256D01*
X0Y1255D02*
X7Y1255D01*
X2446Y1255D02*
X2453Y1255D01*
X0Y1254D02*
X7Y1254D01*
X2446Y1254D02*
X2453Y1254D01*
X0Y1253D02*
X7Y1253D01*
X2446Y1253D02*
X2453Y1253D01*
X0Y1252D02*
X7Y1252D01*
X2446Y1252D02*
X2453Y1252D01*
X0Y1251D02*
X7Y1251D01*
X2446Y1251D02*
X2453Y1251D01*
X0Y1250D02*
X7Y1250D01*
X2446Y1250D02*
X2453Y1250D01*
X0Y1249D02*
X7Y1249D01*
X2446Y1249D02*
X2453Y1249D01*
X0Y1248D02*
X7Y1248D01*
X2446Y1248D02*
X2453Y1248D01*
X0Y1247D02*
X7Y1247D01*
X2446Y1247D02*
X2453Y1247D01*
X0Y1246D02*
X7Y1246D01*
X2446Y1246D02*
X2453Y1246D01*
X0Y1245D02*
X7Y1245D01*
X2446Y1245D02*
X2453Y1245D01*
X0Y1244D02*
X7Y1244D01*
X2446Y1244D02*
X2453Y1244D01*
X0Y1243D02*
X7Y1243D01*
X2446Y1243D02*
X2453Y1243D01*
X0Y1242D02*
X7Y1242D01*
X2446Y1242D02*
X2453Y1242D01*
X0Y1241D02*
X7Y1241D01*
X2446Y1241D02*
X2453Y1241D01*
X0Y1240D02*
X7Y1240D01*
X2446Y1240D02*
X2453Y1240D01*
X0Y1239D02*
X7Y1239D01*
X2446Y1239D02*
X2453Y1239D01*
X0Y1238D02*
X7Y1238D01*
X2446Y1238D02*
X2453Y1238D01*
X0Y1237D02*
X7Y1237D01*
X2446Y1237D02*
X2453Y1237D01*
X0Y1236D02*
X7Y1236D01*
X2446Y1236D02*
X2453Y1236D01*
X0Y1235D02*
X7Y1235D01*
X2446Y1235D02*
X2453Y1235D01*
X0Y1234D02*
X7Y1234D01*
X2446Y1234D02*
X2453Y1234D01*
X0Y1233D02*
X7Y1233D01*
X2446Y1233D02*
X2453Y1233D01*
X0Y1232D02*
X7Y1232D01*
X2446Y1232D02*
X2453Y1232D01*
X0Y1231D02*
X7Y1231D01*
X2446Y1231D02*
X2453Y1231D01*
X0Y1230D02*
X7Y1230D01*
X2446Y1230D02*
X2453Y1230D01*
X0Y1229D02*
X7Y1229D01*
X2446Y1229D02*
X2453Y1229D01*
X0Y1228D02*
X7Y1228D01*
X2446Y1228D02*
X2453Y1228D01*
X0Y1227D02*
X7Y1227D01*
X2446Y1227D02*
X2453Y1227D01*
X0Y1226D02*
X7Y1226D01*
X2446Y1226D02*
X2453Y1226D01*
X0Y1225D02*
X7Y1225D01*
X2446Y1225D02*
X2453Y1225D01*
X0Y1224D02*
X7Y1224D01*
X2446Y1224D02*
X2453Y1224D01*
X0Y1223D02*
X7Y1223D01*
X2446Y1223D02*
X2453Y1223D01*
X0Y1222D02*
X7Y1222D01*
X2446Y1222D02*
X2453Y1222D01*
X0Y1221D02*
X7Y1221D01*
X2446Y1221D02*
X2453Y1221D01*
X0Y1220D02*
X7Y1220D01*
X2446Y1220D02*
X2453Y1220D01*
X0Y1219D02*
X7Y1219D01*
X2446Y1219D02*
X2453Y1219D01*
X0Y1218D02*
X7Y1218D01*
X2446Y1218D02*
X2453Y1218D01*
X0Y1217D02*
X7Y1217D01*
X2446Y1217D02*
X2453Y1217D01*
X0Y1216D02*
X7Y1216D01*
X2446Y1216D02*
X2453Y1216D01*
X0Y1215D02*
X7Y1215D01*
X2446Y1215D02*
X2453Y1215D01*
X0Y1214D02*
X7Y1214D01*
X2446Y1214D02*
X2453Y1214D01*
X0Y1213D02*
X7Y1213D01*
X2446Y1213D02*
X2453Y1213D01*
X0Y1212D02*
X7Y1212D01*
X2446Y1212D02*
X2453Y1212D01*
X0Y1211D02*
X7Y1211D01*
X2446Y1211D02*
X2453Y1211D01*
X0Y1210D02*
X7Y1210D01*
X2446Y1210D02*
X2453Y1210D01*
X0Y1209D02*
X7Y1209D01*
X2446Y1209D02*
X2453Y1209D01*
X0Y1208D02*
X7Y1208D01*
X2446Y1208D02*
X2453Y1208D01*
X0Y1207D02*
X7Y1207D01*
X2446Y1207D02*
X2453Y1207D01*
X0Y1206D02*
X7Y1206D01*
X2446Y1206D02*
X2453Y1206D01*
X0Y1205D02*
X7Y1205D01*
X2446Y1205D02*
X2453Y1205D01*
X0Y1204D02*
X7Y1204D01*
X2446Y1204D02*
X2453Y1204D01*
X0Y1203D02*
X7Y1203D01*
X2446Y1203D02*
X2453Y1203D01*
X0Y1202D02*
X7Y1202D01*
X2446Y1202D02*
X2453Y1202D01*
X0Y1201D02*
X7Y1201D01*
X2446Y1201D02*
X2453Y1201D01*
X0Y1200D02*
X7Y1200D01*
X2446Y1200D02*
X2453Y1200D01*
X0Y1199D02*
X7Y1199D01*
X2446Y1199D02*
X2453Y1199D01*
X0Y1198D02*
X7Y1198D01*
X2446Y1198D02*
X2453Y1198D01*
X0Y1197D02*
X7Y1197D01*
X2446Y1197D02*
X2453Y1197D01*
X0Y1196D02*
X7Y1196D01*
X2446Y1196D02*
X2453Y1196D01*
X0Y1195D02*
X7Y1195D01*
X2446Y1195D02*
X2453Y1195D01*
X0Y1194D02*
X7Y1194D01*
X2446Y1194D02*
X2453Y1194D01*
X0Y1193D02*
X7Y1193D01*
X2446Y1193D02*
X2453Y1193D01*
X0Y1192D02*
X7Y1192D01*
X2446Y1192D02*
X2453Y1192D01*
X0Y1191D02*
X7Y1191D01*
X2446Y1191D02*
X2453Y1191D01*
X0Y1190D02*
X7Y1190D01*
X2446Y1190D02*
X2453Y1190D01*
X0Y1189D02*
X7Y1189D01*
X2446Y1189D02*
X2453Y1189D01*
X0Y1188D02*
X7Y1188D01*
X2446Y1188D02*
X2453Y1188D01*
X0Y1187D02*
X7Y1187D01*
X2446Y1187D02*
X2453Y1187D01*
X0Y1186D02*
X7Y1186D01*
X2446Y1186D02*
X2453Y1186D01*
X0Y1185D02*
X7Y1185D01*
X2446Y1185D02*
X2453Y1185D01*
X0Y1184D02*
X7Y1184D01*
X2446Y1184D02*
X2453Y1184D01*
X0Y1183D02*
X7Y1183D01*
X2446Y1183D02*
X2453Y1183D01*
X0Y1182D02*
X7Y1182D01*
X2446Y1182D02*
X2453Y1182D01*
X0Y1181D02*
X7Y1181D01*
X2446Y1181D02*
X2453Y1181D01*
X0Y1180D02*
X7Y1180D01*
X2446Y1180D02*
X2453Y1180D01*
X0Y1179D02*
X7Y1179D01*
X2446Y1179D02*
X2453Y1179D01*
X0Y1178D02*
X7Y1178D01*
X2446Y1178D02*
X2453Y1178D01*
X0Y1177D02*
X7Y1177D01*
X2446Y1177D02*
X2453Y1177D01*
X0Y1176D02*
X7Y1176D01*
X2446Y1176D02*
X2453Y1176D01*
X0Y1175D02*
X7Y1175D01*
X2446Y1175D02*
X2453Y1175D01*
X0Y1174D02*
X7Y1174D01*
X2446Y1174D02*
X2453Y1174D01*
X0Y1173D02*
X7Y1173D01*
X2446Y1173D02*
X2453Y1173D01*
X0Y1172D02*
X7Y1172D01*
X2446Y1172D02*
X2453Y1172D01*
X0Y1171D02*
X7Y1171D01*
X2446Y1171D02*
X2453Y1171D01*
X0Y1170D02*
X7Y1170D01*
X2446Y1170D02*
X2453Y1170D01*
X0Y1169D02*
X7Y1169D01*
X2446Y1169D02*
X2453Y1169D01*
X0Y1168D02*
X7Y1168D01*
X2446Y1168D02*
X2453Y1168D01*
X0Y1167D02*
X7Y1167D01*
X2446Y1167D02*
X2453Y1167D01*
X0Y1166D02*
X7Y1166D01*
X2446Y1166D02*
X2453Y1166D01*
X0Y1165D02*
X7Y1165D01*
X2446Y1165D02*
X2453Y1165D01*
X0Y1164D02*
X7Y1164D01*
X2446Y1164D02*
X2453Y1164D01*
X0Y1163D02*
X7Y1163D01*
X2446Y1163D02*
X2453Y1163D01*
X0Y1162D02*
X7Y1162D01*
X2446Y1162D02*
X2453Y1162D01*
X0Y1161D02*
X7Y1161D01*
X2446Y1161D02*
X2453Y1161D01*
X0Y1160D02*
X7Y1160D01*
X2446Y1160D02*
X2453Y1160D01*
X0Y1159D02*
X7Y1159D01*
X2446Y1159D02*
X2453Y1159D01*
X0Y1158D02*
X7Y1158D01*
X2446Y1158D02*
X2453Y1158D01*
X0Y1157D02*
X7Y1157D01*
X2446Y1157D02*
X2453Y1157D01*
X0Y1156D02*
X7Y1156D01*
X2446Y1156D02*
X2453Y1156D01*
X0Y1155D02*
X7Y1155D01*
X2446Y1155D02*
X2453Y1155D01*
X0Y1154D02*
X7Y1154D01*
X2446Y1154D02*
X2453Y1154D01*
X0Y1153D02*
X7Y1153D01*
X2446Y1153D02*
X2453Y1153D01*
X0Y1152D02*
X7Y1152D01*
X2446Y1152D02*
X2453Y1152D01*
X0Y1151D02*
X7Y1151D01*
X2446Y1151D02*
X2453Y1151D01*
X0Y1150D02*
X7Y1150D01*
X2446Y1150D02*
X2453Y1150D01*
X0Y1149D02*
X7Y1149D01*
X2446Y1149D02*
X2453Y1149D01*
X0Y1148D02*
X7Y1148D01*
X2446Y1148D02*
X2453Y1148D01*
X0Y1147D02*
X7Y1147D01*
X2446Y1147D02*
X2453Y1147D01*
X0Y1146D02*
X7Y1146D01*
X2446Y1146D02*
X2453Y1146D01*
X0Y1145D02*
X7Y1145D01*
X2446Y1145D02*
X2453Y1145D01*
X0Y1144D02*
X7Y1144D01*
X2446Y1144D02*
X2453Y1144D01*
X0Y1143D02*
X7Y1143D01*
X2446Y1143D02*
X2453Y1143D01*
X0Y1142D02*
X7Y1142D01*
X2446Y1142D02*
X2453Y1142D01*
X0Y1141D02*
X7Y1141D01*
X2446Y1141D02*
X2453Y1141D01*
X0Y1140D02*
X7Y1140D01*
X2446Y1140D02*
X2453Y1140D01*
X0Y1139D02*
X7Y1139D01*
X2446Y1139D02*
X2453Y1139D01*
X0Y1138D02*
X7Y1138D01*
X2446Y1138D02*
X2453Y1138D01*
X0Y1137D02*
X7Y1137D01*
X2446Y1137D02*
X2453Y1137D01*
X0Y1136D02*
X7Y1136D01*
X2446Y1136D02*
X2453Y1136D01*
X0Y1135D02*
X7Y1135D01*
X2446Y1135D02*
X2453Y1135D01*
X0Y1134D02*
X7Y1134D01*
X2446Y1134D02*
X2453Y1134D01*
X0Y1133D02*
X7Y1133D01*
X2446Y1133D02*
X2453Y1133D01*
X0Y1132D02*
X7Y1132D01*
X2446Y1132D02*
X2453Y1132D01*
X0Y1131D02*
X7Y1131D01*
X2446Y1131D02*
X2453Y1131D01*
X0Y1130D02*
X7Y1130D01*
X2446Y1130D02*
X2453Y1130D01*
X0Y1129D02*
X7Y1129D01*
X2446Y1129D02*
X2453Y1129D01*
X0Y1128D02*
X7Y1128D01*
X2446Y1128D02*
X2453Y1128D01*
X0Y1127D02*
X7Y1127D01*
X2446Y1127D02*
X2453Y1127D01*
X0Y1126D02*
X7Y1126D01*
X2446Y1126D02*
X2453Y1126D01*
X0Y1125D02*
X7Y1125D01*
X2446Y1125D02*
X2453Y1125D01*
X0Y1124D02*
X7Y1124D01*
X2446Y1124D02*
X2453Y1124D01*
X0Y1123D02*
X7Y1123D01*
X2446Y1123D02*
X2453Y1123D01*
X0Y1122D02*
X7Y1122D01*
X2446Y1122D02*
X2453Y1122D01*
X0Y1121D02*
X7Y1121D01*
X2446Y1121D02*
X2453Y1121D01*
X0Y1120D02*
X7Y1120D01*
X2446Y1120D02*
X2453Y1120D01*
X0Y1119D02*
X7Y1119D01*
X2446Y1119D02*
X2453Y1119D01*
X0Y1118D02*
X7Y1118D01*
X2446Y1118D02*
X2453Y1118D01*
X0Y1117D02*
X7Y1117D01*
X2446Y1117D02*
X2453Y1117D01*
X0Y1116D02*
X7Y1116D01*
X2446Y1116D02*
X2453Y1116D01*
X0Y1115D02*
X7Y1115D01*
X2446Y1115D02*
X2453Y1115D01*
X0Y1114D02*
X7Y1114D01*
X2446Y1114D02*
X2453Y1114D01*
X0Y1113D02*
X7Y1113D01*
X2446Y1113D02*
X2453Y1113D01*
X0Y1112D02*
X7Y1112D01*
X2446Y1112D02*
X2453Y1112D01*
X0Y1111D02*
X7Y1111D01*
X2446Y1111D02*
X2453Y1111D01*
X0Y1110D02*
X7Y1110D01*
X2446Y1110D02*
X2453Y1110D01*
X0Y1109D02*
X7Y1109D01*
X2446Y1109D02*
X2453Y1109D01*
X0Y1108D02*
X7Y1108D01*
X2446Y1108D02*
X2453Y1108D01*
X0Y1107D02*
X7Y1107D01*
X2446Y1107D02*
X2453Y1107D01*
X0Y1106D02*
X7Y1106D01*
X2446Y1106D02*
X2453Y1106D01*
X0Y1105D02*
X7Y1105D01*
X2446Y1105D02*
X2453Y1105D01*
X0Y1104D02*
X7Y1104D01*
X2446Y1104D02*
X2453Y1104D01*
X0Y1103D02*
X7Y1103D01*
X2446Y1103D02*
X2453Y1103D01*
X0Y1102D02*
X7Y1102D01*
X2446Y1102D02*
X2453Y1102D01*
X0Y1101D02*
X7Y1101D01*
X2446Y1101D02*
X2453Y1101D01*
X0Y1100D02*
X7Y1100D01*
X2446Y1100D02*
X2453Y1100D01*
X0Y1099D02*
X7Y1099D01*
X2446Y1099D02*
X2453Y1099D01*
X0Y1098D02*
X7Y1098D01*
X2446Y1098D02*
X2453Y1098D01*
X0Y1097D02*
X7Y1097D01*
X2446Y1097D02*
X2453Y1097D01*
X0Y1096D02*
X7Y1096D01*
X2446Y1096D02*
X2453Y1096D01*
X0Y1095D02*
X7Y1095D01*
X2446Y1095D02*
X2453Y1095D01*
X0Y1094D02*
X7Y1094D01*
X2446Y1094D02*
X2453Y1094D01*
X0Y1093D02*
X7Y1093D01*
X2446Y1093D02*
X2453Y1093D01*
X0Y1092D02*
X7Y1092D01*
X2446Y1092D02*
X2453Y1092D01*
X0Y1091D02*
X7Y1091D01*
X2446Y1091D02*
X2453Y1091D01*
X0Y1090D02*
X7Y1090D01*
X2446Y1090D02*
X2453Y1090D01*
X0Y1089D02*
X7Y1089D01*
X2446Y1089D02*
X2453Y1089D01*
X0Y1088D02*
X7Y1088D01*
X2446Y1088D02*
X2453Y1088D01*
X0Y1087D02*
X7Y1087D01*
X2446Y1087D02*
X2453Y1087D01*
X0Y1086D02*
X7Y1086D01*
X2446Y1086D02*
X2453Y1086D01*
X0Y1085D02*
X7Y1085D01*
X2446Y1085D02*
X2453Y1085D01*
X0Y1084D02*
X7Y1084D01*
X2446Y1084D02*
X2453Y1084D01*
X0Y1083D02*
X7Y1083D01*
X2446Y1083D02*
X2453Y1083D01*
X0Y1082D02*
X7Y1082D01*
X2446Y1082D02*
X2453Y1082D01*
X0Y1081D02*
X7Y1081D01*
X2446Y1081D02*
X2453Y1081D01*
X0Y1080D02*
X7Y1080D01*
X2446Y1080D02*
X2453Y1080D01*
X0Y1079D02*
X7Y1079D01*
X2446Y1079D02*
X2453Y1079D01*
X0Y1078D02*
X7Y1078D01*
X2446Y1078D02*
X2453Y1078D01*
X0Y1077D02*
X7Y1077D01*
X2446Y1077D02*
X2453Y1077D01*
X0Y1076D02*
X7Y1076D01*
X2446Y1076D02*
X2453Y1076D01*
X0Y1075D02*
X7Y1075D01*
X2446Y1075D02*
X2453Y1075D01*
X0Y1074D02*
X7Y1074D01*
X2446Y1074D02*
X2453Y1074D01*
X0Y1073D02*
X7Y1073D01*
X2446Y1073D02*
X2453Y1073D01*
X0Y1072D02*
X7Y1072D01*
X2446Y1072D02*
X2453Y1072D01*
X0Y1071D02*
X7Y1071D01*
X2446Y1071D02*
X2453Y1071D01*
X0Y1070D02*
X7Y1070D01*
X2446Y1070D02*
X2453Y1070D01*
X0Y1069D02*
X7Y1069D01*
X2446Y1069D02*
X2453Y1069D01*
X0Y1068D02*
X7Y1068D01*
X2446Y1068D02*
X2453Y1068D01*
X0Y1067D02*
X7Y1067D01*
X2446Y1067D02*
X2453Y1067D01*
X0Y1066D02*
X7Y1066D01*
X2446Y1066D02*
X2453Y1066D01*
X0Y1065D02*
X7Y1065D01*
X2446Y1065D02*
X2453Y1065D01*
X0Y1064D02*
X7Y1064D01*
X2446Y1064D02*
X2453Y1064D01*
X0Y1063D02*
X7Y1063D01*
X2446Y1063D02*
X2453Y1063D01*
X0Y1062D02*
X7Y1062D01*
X2446Y1062D02*
X2453Y1062D01*
X0Y1061D02*
X7Y1061D01*
X2446Y1061D02*
X2453Y1061D01*
X0Y1060D02*
X7Y1060D01*
X2446Y1060D02*
X2453Y1060D01*
X0Y1059D02*
X7Y1059D01*
X2446Y1059D02*
X2453Y1059D01*
X0Y1058D02*
X7Y1058D01*
X2446Y1058D02*
X2453Y1058D01*
X0Y1057D02*
X7Y1057D01*
X2446Y1057D02*
X2453Y1057D01*
X0Y1056D02*
X7Y1056D01*
X2446Y1056D02*
X2453Y1056D01*
X0Y1055D02*
X7Y1055D01*
X2446Y1055D02*
X2453Y1055D01*
X0Y1054D02*
X7Y1054D01*
X2446Y1054D02*
X2453Y1054D01*
X0Y1053D02*
X7Y1053D01*
X2446Y1053D02*
X2453Y1053D01*
X0Y1052D02*
X7Y1052D01*
X2446Y1052D02*
X2453Y1052D01*
X0Y1051D02*
X7Y1051D01*
X2446Y1051D02*
X2453Y1051D01*
X0Y1050D02*
X7Y1050D01*
X2446Y1050D02*
X2453Y1050D01*
X0Y1049D02*
X7Y1049D01*
X2446Y1049D02*
X2453Y1049D01*
X0Y1048D02*
X7Y1048D01*
X2446Y1048D02*
X2453Y1048D01*
X0Y1047D02*
X7Y1047D01*
X2446Y1047D02*
X2453Y1047D01*
X0Y1046D02*
X7Y1046D01*
X2446Y1046D02*
X2453Y1046D01*
X0Y1045D02*
X7Y1045D01*
X2446Y1045D02*
X2453Y1045D01*
X0Y1044D02*
X7Y1044D01*
X2446Y1044D02*
X2453Y1044D01*
X0Y1043D02*
X7Y1043D01*
X2446Y1043D02*
X2453Y1043D01*
X0Y1042D02*
X7Y1042D01*
X2446Y1042D02*
X2453Y1042D01*
X0Y1041D02*
X7Y1041D01*
X2446Y1041D02*
X2453Y1041D01*
X0Y1040D02*
X7Y1040D01*
X2446Y1040D02*
X2453Y1040D01*
X0Y1039D02*
X7Y1039D01*
X2446Y1039D02*
X2453Y1039D01*
X0Y1038D02*
X7Y1038D01*
X2446Y1038D02*
X2453Y1038D01*
X0Y1037D02*
X7Y1037D01*
X2446Y1037D02*
X2453Y1037D01*
X0Y1036D02*
X7Y1036D01*
X2446Y1036D02*
X2453Y1036D01*
X0Y1035D02*
X7Y1035D01*
X2446Y1035D02*
X2453Y1035D01*
X0Y1034D02*
X7Y1034D01*
X2446Y1034D02*
X2453Y1034D01*
X0Y1033D02*
X7Y1033D01*
X2446Y1033D02*
X2453Y1033D01*
X0Y1032D02*
X7Y1032D01*
X2446Y1032D02*
X2453Y1032D01*
X0Y1031D02*
X7Y1031D01*
X2446Y1031D02*
X2453Y1031D01*
X0Y1030D02*
X7Y1030D01*
X2446Y1030D02*
X2453Y1030D01*
X0Y1029D02*
X7Y1029D01*
X2446Y1029D02*
X2453Y1029D01*
X0Y1028D02*
X7Y1028D01*
X2446Y1028D02*
X2453Y1028D01*
X0Y1027D02*
X7Y1027D01*
X2446Y1027D02*
X2453Y1027D01*
X0Y1026D02*
X7Y1026D01*
X2446Y1026D02*
X2453Y1026D01*
X0Y1025D02*
X7Y1025D01*
X2446Y1025D02*
X2453Y1025D01*
X0Y1024D02*
X7Y1024D01*
X2446Y1024D02*
X2453Y1024D01*
X0Y1023D02*
X7Y1023D01*
X2446Y1023D02*
X2453Y1023D01*
X0Y1022D02*
X7Y1022D01*
X2446Y1022D02*
X2453Y1022D01*
X0Y1021D02*
X7Y1021D01*
X2446Y1021D02*
X2453Y1021D01*
X0Y1020D02*
X7Y1020D01*
X2446Y1020D02*
X2453Y1020D01*
X0Y1019D02*
X7Y1019D01*
X2446Y1019D02*
X2453Y1019D01*
X0Y1018D02*
X7Y1018D01*
X2446Y1018D02*
X2453Y1018D01*
X0Y1017D02*
X7Y1017D01*
X2446Y1017D02*
X2453Y1017D01*
X0Y1016D02*
X7Y1016D01*
X2446Y1016D02*
X2453Y1016D01*
X0Y1015D02*
X7Y1015D01*
X2446Y1015D02*
X2453Y1015D01*
X0Y1014D02*
X7Y1014D01*
X2446Y1014D02*
X2453Y1014D01*
X0Y1013D02*
X7Y1013D01*
X2446Y1013D02*
X2453Y1013D01*
X0Y1012D02*
X7Y1012D01*
X2446Y1012D02*
X2453Y1012D01*
X0Y1011D02*
X7Y1011D01*
X2446Y1011D02*
X2453Y1011D01*
X0Y1010D02*
X7Y1010D01*
X2446Y1010D02*
X2453Y1010D01*
X0Y1009D02*
X7Y1009D01*
X2446Y1009D02*
X2453Y1009D01*
X0Y1008D02*
X7Y1008D01*
X2446Y1008D02*
X2453Y1008D01*
X0Y1007D02*
X7Y1007D01*
X2446Y1007D02*
X2453Y1007D01*
X0Y1006D02*
X7Y1006D01*
X2446Y1006D02*
X2453Y1006D01*
X0Y1005D02*
X7Y1005D01*
X2446Y1005D02*
X2453Y1005D01*
X0Y1004D02*
X7Y1004D01*
X2446Y1004D02*
X2453Y1004D01*
X0Y1003D02*
X7Y1003D01*
X2446Y1003D02*
X2453Y1003D01*
X0Y1002D02*
X7Y1002D01*
X2446Y1002D02*
X2453Y1002D01*
X0Y1001D02*
X7Y1001D01*
X2446Y1001D02*
X2453Y1001D01*
X0Y1000D02*
X7Y1000D01*
X2446Y1000D02*
X2453Y1000D01*
X0Y999D02*
X7Y999D01*
X2446Y999D02*
X2453Y999D01*
X0Y998D02*
X7Y998D01*
X2446Y998D02*
X2453Y998D01*
X0Y997D02*
X7Y997D01*
X2446Y997D02*
X2453Y997D01*
X0Y996D02*
X7Y996D01*
X2446Y996D02*
X2453Y996D01*
X0Y995D02*
X7Y995D01*
X2446Y995D02*
X2453Y995D01*
X0Y994D02*
X7Y994D01*
X2446Y994D02*
X2453Y994D01*
X0Y993D02*
X7Y993D01*
X2446Y993D02*
X2453Y993D01*
X0Y992D02*
X7Y992D01*
X2446Y992D02*
X2453Y992D01*
X0Y991D02*
X7Y991D01*
X2446Y991D02*
X2453Y991D01*
X0Y990D02*
X7Y990D01*
X2446Y990D02*
X2453Y990D01*
X0Y989D02*
X7Y989D01*
X2446Y989D02*
X2453Y989D01*
X0Y988D02*
X7Y988D01*
X2446Y988D02*
X2453Y988D01*
X0Y987D02*
X7Y987D01*
X2446Y987D02*
X2453Y987D01*
X0Y986D02*
X7Y986D01*
X2446Y986D02*
X2453Y986D01*
X0Y985D02*
X7Y985D01*
X2446Y985D02*
X2453Y985D01*
X0Y984D02*
X7Y984D01*
X2446Y984D02*
X2453Y984D01*
X0Y983D02*
X7Y983D01*
X2446Y983D02*
X2453Y983D01*
X0Y982D02*
X7Y982D01*
X2446Y982D02*
X2453Y982D01*
X0Y981D02*
X7Y981D01*
X2446Y981D02*
X2453Y981D01*
X0Y980D02*
X7Y980D01*
X2446Y980D02*
X2453Y980D01*
X0Y979D02*
X7Y979D01*
X2446Y979D02*
X2453Y979D01*
X0Y978D02*
X7Y978D01*
X2446Y978D02*
X2453Y978D01*
X0Y977D02*
X7Y977D01*
X2446Y977D02*
X2453Y977D01*
X0Y976D02*
X7Y976D01*
X2446Y976D02*
X2453Y976D01*
X0Y975D02*
X7Y975D01*
X2446Y975D02*
X2453Y975D01*
X0Y974D02*
X7Y974D01*
X2446Y974D02*
X2453Y974D01*
X0Y973D02*
X7Y973D01*
X2446Y973D02*
X2453Y973D01*
X0Y972D02*
X7Y972D01*
X2446Y972D02*
X2453Y972D01*
X0Y971D02*
X7Y971D01*
X2446Y971D02*
X2453Y971D01*
X0Y970D02*
X7Y970D01*
X2446Y970D02*
X2453Y970D01*
X0Y969D02*
X7Y969D01*
X2446Y969D02*
X2453Y969D01*
X0Y968D02*
X7Y968D01*
X2446Y968D02*
X2453Y968D01*
X0Y967D02*
X7Y967D01*
X2446Y967D02*
X2453Y967D01*
X0Y966D02*
X7Y966D01*
X2446Y966D02*
X2453Y966D01*
X0Y965D02*
X7Y965D01*
X2446Y965D02*
X2453Y965D01*
X0Y964D02*
X7Y964D01*
X2446Y964D02*
X2453Y964D01*
X0Y963D02*
X7Y963D01*
X2446Y963D02*
X2453Y963D01*
X0Y962D02*
X7Y962D01*
X2446Y962D02*
X2453Y962D01*
X0Y961D02*
X7Y961D01*
X2446Y961D02*
X2453Y961D01*
X0Y960D02*
X7Y960D01*
X2446Y960D02*
X2453Y960D01*
X0Y959D02*
X7Y959D01*
X2446Y959D02*
X2453Y959D01*
X0Y958D02*
X7Y958D01*
X2446Y958D02*
X2453Y958D01*
X0Y957D02*
X7Y957D01*
X2446Y957D02*
X2453Y957D01*
X0Y956D02*
X7Y956D01*
X2446Y956D02*
X2453Y956D01*
X0Y955D02*
X7Y955D01*
X2446Y955D02*
X2453Y955D01*
X0Y954D02*
X7Y954D01*
X2446Y954D02*
X2453Y954D01*
X0Y953D02*
X7Y953D01*
X2446Y953D02*
X2453Y953D01*
X0Y952D02*
X7Y952D01*
X2446Y952D02*
X2453Y952D01*
X0Y951D02*
X7Y951D01*
X2446Y951D02*
X2453Y951D01*
X0Y950D02*
X7Y950D01*
X2446Y950D02*
X2453Y950D01*
X0Y949D02*
X7Y949D01*
X2446Y949D02*
X2453Y949D01*
X0Y948D02*
X7Y948D01*
X2446Y948D02*
X2453Y948D01*
X0Y947D02*
X7Y947D01*
X2446Y947D02*
X2453Y947D01*
X0Y946D02*
X7Y946D01*
X2446Y946D02*
X2453Y946D01*
X0Y945D02*
X7Y945D01*
X2446Y945D02*
X2453Y945D01*
X0Y944D02*
X7Y944D01*
X2446Y944D02*
X2453Y944D01*
X0Y943D02*
X7Y943D01*
X2446Y943D02*
X2453Y943D01*
X0Y942D02*
X7Y942D01*
X2446Y942D02*
X2453Y942D01*
X0Y941D02*
X7Y941D01*
X2446Y941D02*
X2453Y941D01*
X0Y940D02*
X7Y940D01*
X2446Y940D02*
X2453Y940D01*
X0Y939D02*
X7Y939D01*
X2446Y939D02*
X2453Y939D01*
X0Y938D02*
X7Y938D01*
X2446Y938D02*
X2453Y938D01*
X0Y937D02*
X7Y937D01*
X2446Y937D02*
X2453Y937D01*
X0Y936D02*
X7Y936D01*
X2446Y936D02*
X2453Y936D01*
X0Y935D02*
X7Y935D01*
X2446Y935D02*
X2453Y935D01*
X0Y934D02*
X7Y934D01*
X2446Y934D02*
X2453Y934D01*
X0Y933D02*
X7Y933D01*
X2446Y933D02*
X2453Y933D01*
X0Y932D02*
X7Y932D01*
X2446Y932D02*
X2453Y932D01*
X0Y931D02*
X7Y931D01*
X2446Y931D02*
X2453Y931D01*
X0Y930D02*
X7Y930D01*
X2446Y930D02*
X2453Y930D01*
X0Y929D02*
X7Y929D01*
X2446Y929D02*
X2453Y929D01*
X0Y928D02*
X7Y928D01*
X2446Y928D02*
X2453Y928D01*
X0Y927D02*
X7Y927D01*
X2446Y927D02*
X2453Y927D01*
X0Y926D02*
X7Y926D01*
X2446Y926D02*
X2453Y926D01*
X0Y925D02*
X7Y925D01*
X2446Y925D02*
X2453Y925D01*
X0Y924D02*
X7Y924D01*
X2446Y924D02*
X2453Y924D01*
X0Y923D02*
X7Y923D01*
X2446Y923D02*
X2453Y923D01*
X0Y922D02*
X7Y922D01*
X2446Y922D02*
X2453Y922D01*
X0Y921D02*
X7Y921D01*
X2446Y921D02*
X2453Y921D01*
X0Y920D02*
X7Y920D01*
X2446Y920D02*
X2453Y920D01*
X0Y919D02*
X7Y919D01*
X2446Y919D02*
X2453Y919D01*
X0Y918D02*
X7Y918D01*
X2446Y918D02*
X2453Y918D01*
X0Y917D02*
X7Y917D01*
X2446Y917D02*
X2453Y917D01*
X0Y916D02*
X7Y916D01*
X2446Y916D02*
X2453Y916D01*
X0Y915D02*
X7Y915D01*
X2446Y915D02*
X2453Y915D01*
X0Y914D02*
X7Y914D01*
X2446Y914D02*
X2453Y914D01*
X0Y913D02*
X7Y913D01*
X2446Y913D02*
X2453Y913D01*
X0Y912D02*
X7Y912D01*
X2446Y912D02*
X2453Y912D01*
X0Y911D02*
X7Y911D01*
X2446Y911D02*
X2453Y911D01*
X0Y910D02*
X7Y910D01*
X2446Y910D02*
X2453Y910D01*
X0Y909D02*
X7Y909D01*
X2446Y909D02*
X2453Y909D01*
X0Y908D02*
X7Y908D01*
X2446Y908D02*
X2453Y908D01*
X0Y907D02*
X7Y907D01*
X2446Y907D02*
X2453Y907D01*
X0Y906D02*
X7Y906D01*
X2446Y906D02*
X2453Y906D01*
X0Y905D02*
X7Y905D01*
X2446Y905D02*
X2453Y905D01*
X0Y904D02*
X7Y904D01*
X2446Y904D02*
X2453Y904D01*
X0Y903D02*
X7Y903D01*
X2446Y903D02*
X2453Y903D01*
X0Y902D02*
X7Y902D01*
X2446Y902D02*
X2453Y902D01*
X0Y901D02*
X7Y901D01*
X2446Y901D02*
X2453Y901D01*
X0Y900D02*
X7Y900D01*
X2446Y900D02*
X2453Y900D01*
X0Y899D02*
X7Y899D01*
X2446Y899D02*
X2453Y899D01*
X0Y898D02*
X7Y898D01*
X2446Y898D02*
X2453Y898D01*
X0Y897D02*
X7Y897D01*
X2446Y897D02*
X2453Y897D01*
X0Y896D02*
X7Y896D01*
X2446Y896D02*
X2453Y896D01*
X0Y895D02*
X7Y895D01*
X2446Y895D02*
X2453Y895D01*
X0Y894D02*
X7Y894D01*
X2446Y894D02*
X2453Y894D01*
X0Y893D02*
X7Y893D01*
X2446Y893D02*
X2453Y893D01*
X0Y892D02*
X7Y892D01*
X2446Y892D02*
X2453Y892D01*
X0Y891D02*
X7Y891D01*
X2446Y891D02*
X2453Y891D01*
X0Y890D02*
X7Y890D01*
X2446Y890D02*
X2453Y890D01*
X0Y889D02*
X7Y889D01*
X2446Y889D02*
X2453Y889D01*
X0Y888D02*
X7Y888D01*
X2446Y888D02*
X2453Y888D01*
X0Y887D02*
X7Y887D01*
X2446Y887D02*
X2453Y887D01*
X0Y886D02*
X7Y886D01*
X2446Y886D02*
X2453Y886D01*
X0Y885D02*
X7Y885D01*
X2446Y885D02*
X2453Y885D01*
X0Y884D02*
X7Y884D01*
X2446Y884D02*
X2453Y884D01*
X0Y883D02*
X7Y883D01*
X2446Y883D02*
X2453Y883D01*
X0Y882D02*
X7Y882D01*
X2446Y882D02*
X2453Y882D01*
X0Y881D02*
X7Y881D01*
X2446Y881D02*
X2453Y881D01*
X0Y880D02*
X7Y880D01*
X2446Y880D02*
X2453Y880D01*
X0Y879D02*
X7Y879D01*
X2446Y879D02*
X2453Y879D01*
X0Y878D02*
X7Y878D01*
X2446Y878D02*
X2453Y878D01*
X0Y877D02*
X7Y877D01*
X2446Y877D02*
X2453Y877D01*
X0Y876D02*
X7Y876D01*
X2446Y876D02*
X2453Y876D01*
X0Y875D02*
X7Y875D01*
X2446Y875D02*
X2453Y875D01*
X0Y874D02*
X7Y874D01*
X2446Y874D02*
X2453Y874D01*
X0Y873D02*
X7Y873D01*
X2446Y873D02*
X2453Y873D01*
X0Y872D02*
X7Y872D01*
X2446Y872D02*
X2453Y872D01*
X0Y871D02*
X7Y871D01*
X2446Y871D02*
X2453Y871D01*
X0Y870D02*
X7Y870D01*
X2446Y870D02*
X2453Y870D01*
X0Y869D02*
X7Y869D01*
X2446Y869D02*
X2453Y869D01*
X0Y868D02*
X7Y868D01*
X2446Y868D02*
X2453Y868D01*
X0Y867D02*
X7Y867D01*
X2446Y867D02*
X2453Y867D01*
X0Y866D02*
X7Y866D01*
X2446Y866D02*
X2453Y866D01*
X0Y865D02*
X7Y865D01*
X2446Y865D02*
X2453Y865D01*
X0Y864D02*
X7Y864D01*
X2446Y864D02*
X2453Y864D01*
X0Y863D02*
X7Y863D01*
X2446Y863D02*
X2453Y863D01*
X0Y862D02*
X7Y862D01*
X2446Y862D02*
X2453Y862D01*
X0Y861D02*
X7Y861D01*
X2446Y861D02*
X2453Y861D01*
X0Y860D02*
X7Y860D01*
X2446Y860D02*
X2453Y860D01*
X0Y859D02*
X7Y859D01*
X2446Y859D02*
X2453Y859D01*
X0Y858D02*
X7Y858D01*
X2446Y858D02*
X2453Y858D01*
X0Y857D02*
X7Y857D01*
X2446Y857D02*
X2453Y857D01*
X0Y856D02*
X7Y856D01*
X2446Y856D02*
X2453Y856D01*
X0Y855D02*
X7Y855D01*
X2446Y855D02*
X2453Y855D01*
X0Y854D02*
X7Y854D01*
X2446Y854D02*
X2453Y854D01*
X0Y853D02*
X7Y853D01*
X2446Y853D02*
X2453Y853D01*
X0Y852D02*
X7Y852D01*
X2446Y852D02*
X2453Y852D01*
X0Y851D02*
X7Y851D01*
X2446Y851D02*
X2453Y851D01*
X0Y850D02*
X7Y850D01*
X2446Y850D02*
X2453Y850D01*
X0Y849D02*
X7Y849D01*
X2446Y849D02*
X2453Y849D01*
X0Y848D02*
X7Y848D01*
X2446Y848D02*
X2453Y848D01*
X0Y847D02*
X7Y847D01*
X2446Y847D02*
X2453Y847D01*
X0Y846D02*
X7Y846D01*
X2446Y846D02*
X2453Y846D01*
X0Y845D02*
X7Y845D01*
X2446Y845D02*
X2453Y845D01*
X0Y844D02*
X7Y844D01*
X2446Y844D02*
X2453Y844D01*
X0Y843D02*
X7Y843D01*
X2446Y843D02*
X2453Y843D01*
X0Y842D02*
X7Y842D01*
X2446Y842D02*
X2453Y842D01*
X0Y841D02*
X7Y841D01*
X2446Y841D02*
X2453Y841D01*
X0Y840D02*
X7Y840D01*
X2446Y840D02*
X2453Y840D01*
X0Y839D02*
X7Y839D01*
X2446Y839D02*
X2453Y839D01*
X0Y838D02*
X7Y838D01*
X2446Y838D02*
X2453Y838D01*
X0Y837D02*
X7Y837D01*
X2446Y837D02*
X2453Y837D01*
X0Y836D02*
X7Y836D01*
X2446Y836D02*
X2453Y836D01*
X0Y835D02*
X7Y835D01*
X2446Y835D02*
X2453Y835D01*
X0Y834D02*
X7Y834D01*
X2446Y834D02*
X2453Y834D01*
X0Y833D02*
X7Y833D01*
X2446Y833D02*
X2453Y833D01*
X0Y832D02*
X7Y832D01*
X2446Y832D02*
X2453Y832D01*
X0Y831D02*
X7Y831D01*
X2446Y831D02*
X2453Y831D01*
X0Y830D02*
X7Y830D01*
X2446Y830D02*
X2453Y830D01*
X0Y829D02*
X7Y829D01*
X2446Y829D02*
X2453Y829D01*
X0Y828D02*
X7Y828D01*
X2446Y828D02*
X2453Y828D01*
X0Y827D02*
X7Y827D01*
X2446Y827D02*
X2453Y827D01*
X0Y826D02*
X7Y826D01*
X2446Y826D02*
X2453Y826D01*
X0Y825D02*
X7Y825D01*
X2446Y825D02*
X2453Y825D01*
X0Y824D02*
X7Y824D01*
X2446Y824D02*
X2453Y824D01*
X0Y823D02*
X7Y823D01*
X2446Y823D02*
X2453Y823D01*
X0Y822D02*
X7Y822D01*
X2446Y822D02*
X2453Y822D01*
X0Y821D02*
X7Y821D01*
X2446Y821D02*
X2453Y821D01*
X0Y820D02*
X7Y820D01*
X2446Y820D02*
X2453Y820D01*
X0Y819D02*
X7Y819D01*
X2446Y819D02*
X2453Y819D01*
X0Y818D02*
X7Y818D01*
X2446Y818D02*
X2453Y818D01*
X0Y817D02*
X7Y817D01*
X2446Y817D02*
X2453Y817D01*
X0Y816D02*
X7Y816D01*
X2446Y816D02*
X2453Y816D01*
X0Y815D02*
X7Y815D01*
X2446Y815D02*
X2453Y815D01*
X0Y814D02*
X7Y814D01*
X2446Y814D02*
X2453Y814D01*
X0Y813D02*
X7Y813D01*
X2446Y813D02*
X2453Y813D01*
X0Y812D02*
X7Y812D01*
X2446Y812D02*
X2453Y812D01*
X0Y811D02*
X7Y811D01*
X2446Y811D02*
X2453Y811D01*
X0Y810D02*
X7Y810D01*
X2446Y810D02*
X2453Y810D01*
X0Y809D02*
X7Y809D01*
X2446Y809D02*
X2453Y809D01*
X0Y808D02*
X7Y808D01*
X2446Y808D02*
X2453Y808D01*
X0Y807D02*
X7Y807D01*
X2446Y807D02*
X2453Y807D01*
X0Y806D02*
X7Y806D01*
X2446Y806D02*
X2453Y806D01*
X0Y805D02*
X7Y805D01*
X2446Y805D02*
X2453Y805D01*
X0Y804D02*
X7Y804D01*
X2446Y804D02*
X2453Y804D01*
X0Y803D02*
X7Y803D01*
X2446Y803D02*
X2453Y803D01*
X0Y802D02*
X7Y802D01*
X2446Y802D02*
X2453Y802D01*
X0Y801D02*
X7Y801D01*
X2446Y801D02*
X2453Y801D01*
X0Y800D02*
X7Y800D01*
X2446Y800D02*
X2453Y800D01*
X0Y799D02*
X7Y799D01*
X2446Y799D02*
X2453Y799D01*
X0Y798D02*
X7Y798D01*
X2446Y798D02*
X2453Y798D01*
X0Y797D02*
X7Y797D01*
X2446Y797D02*
X2453Y797D01*
X0Y796D02*
X7Y796D01*
X2446Y796D02*
X2453Y796D01*
X0Y795D02*
X7Y795D01*
X2446Y795D02*
X2453Y795D01*
X0Y794D02*
X7Y794D01*
X2446Y794D02*
X2453Y794D01*
X0Y793D02*
X7Y793D01*
X2446Y793D02*
X2453Y793D01*
X0Y792D02*
X7Y792D01*
X2446Y792D02*
X2453Y792D01*
X0Y791D02*
X7Y791D01*
X2446Y791D02*
X2453Y791D01*
X0Y790D02*
X7Y790D01*
X2446Y790D02*
X2453Y790D01*
X0Y789D02*
X7Y789D01*
X2446Y789D02*
X2453Y789D01*
X0Y788D02*
X7Y788D01*
X2446Y788D02*
X2453Y788D01*
X0Y787D02*
X7Y787D01*
X2446Y787D02*
X2453Y787D01*
X0Y786D02*
X7Y786D01*
X2446Y786D02*
X2453Y786D01*
X0Y785D02*
X7Y785D01*
X2446Y785D02*
X2453Y785D01*
X0Y784D02*
X7Y784D01*
X2446Y784D02*
X2453Y784D01*
X0Y783D02*
X7Y783D01*
X2446Y783D02*
X2453Y783D01*
X0Y782D02*
X7Y782D01*
X2446Y782D02*
X2453Y782D01*
X0Y781D02*
X7Y781D01*
X2446Y781D02*
X2453Y781D01*
X0Y780D02*
X7Y780D01*
X2446Y780D02*
X2453Y780D01*
X0Y779D02*
X7Y779D01*
X2446Y779D02*
X2453Y779D01*
X0Y778D02*
X7Y778D01*
X2446Y778D02*
X2453Y778D01*
X0Y777D02*
X7Y777D01*
X2446Y777D02*
X2453Y777D01*
X0Y776D02*
X7Y776D01*
X2446Y776D02*
X2453Y776D01*
X0Y775D02*
X7Y775D01*
X2446Y775D02*
X2453Y775D01*
X0Y774D02*
X7Y774D01*
X2446Y774D02*
X2453Y774D01*
X0Y773D02*
X7Y773D01*
X2446Y773D02*
X2453Y773D01*
X0Y772D02*
X7Y772D01*
X2446Y772D02*
X2453Y772D01*
X0Y771D02*
X7Y771D01*
X2446Y771D02*
X2453Y771D01*
X0Y770D02*
X7Y770D01*
X2446Y770D02*
X2453Y770D01*
X0Y769D02*
X7Y769D01*
X2446Y769D02*
X2453Y769D01*
X0Y768D02*
X7Y768D01*
X2446Y768D02*
X2453Y768D01*
X0Y767D02*
X7Y767D01*
X2446Y767D02*
X2453Y767D01*
X0Y766D02*
X7Y766D01*
X2446Y766D02*
X2453Y766D01*
X0Y765D02*
X7Y765D01*
X2446Y765D02*
X2453Y765D01*
X0Y764D02*
X7Y764D01*
X2446Y764D02*
X2453Y764D01*
X0Y763D02*
X7Y763D01*
X2446Y763D02*
X2453Y763D01*
X0Y762D02*
X7Y762D01*
X2446Y762D02*
X2453Y762D01*
X0Y761D02*
X7Y761D01*
X2446Y761D02*
X2453Y761D01*
X0Y760D02*
X7Y760D01*
X2446Y760D02*
X2453Y760D01*
X0Y759D02*
X7Y759D01*
X2446Y759D02*
X2453Y759D01*
X0Y758D02*
X7Y758D01*
X2446Y758D02*
X2453Y758D01*
X0Y757D02*
X7Y757D01*
X2446Y757D02*
X2453Y757D01*
X0Y756D02*
X7Y756D01*
X2446Y756D02*
X2453Y756D01*
X0Y755D02*
X7Y755D01*
X2446Y755D02*
X2453Y755D01*
X0Y754D02*
X7Y754D01*
X2446Y754D02*
X2453Y754D01*
X0Y753D02*
X7Y753D01*
X2446Y753D02*
X2453Y753D01*
X0Y752D02*
X7Y752D01*
X2446Y752D02*
X2453Y752D01*
X0Y751D02*
X7Y751D01*
X2446Y751D02*
X2453Y751D01*
X0Y750D02*
X7Y750D01*
X2446Y750D02*
X2453Y750D01*
X0Y749D02*
X7Y749D01*
X2446Y749D02*
X2453Y749D01*
X0Y748D02*
X7Y748D01*
X2446Y748D02*
X2453Y748D01*
X0Y747D02*
X7Y747D01*
X2446Y747D02*
X2453Y747D01*
X0Y746D02*
X7Y746D01*
X2446Y746D02*
X2453Y746D01*
X0Y745D02*
X7Y745D01*
X2446Y745D02*
X2453Y745D01*
X0Y744D02*
X7Y744D01*
X2446Y744D02*
X2453Y744D01*
X0Y743D02*
X7Y743D01*
X2446Y743D02*
X2453Y743D01*
X0Y742D02*
X7Y742D01*
X2446Y742D02*
X2453Y742D01*
X0Y741D02*
X7Y741D01*
X2446Y741D02*
X2453Y741D01*
X0Y740D02*
X7Y740D01*
X2446Y740D02*
X2453Y740D01*
X0Y739D02*
X7Y739D01*
X2446Y739D02*
X2453Y739D01*
X0Y738D02*
X7Y738D01*
X2446Y738D02*
X2453Y738D01*
X0Y737D02*
X7Y737D01*
X2446Y737D02*
X2453Y737D01*
X0Y736D02*
X7Y736D01*
X2446Y736D02*
X2453Y736D01*
X0Y735D02*
X7Y735D01*
X2446Y735D02*
X2453Y735D01*
X0Y734D02*
X7Y734D01*
X2446Y734D02*
X2453Y734D01*
X0Y733D02*
X7Y733D01*
X2446Y733D02*
X2453Y733D01*
X0Y732D02*
X7Y732D01*
X2446Y732D02*
X2453Y732D01*
X0Y731D02*
X7Y731D01*
X2446Y731D02*
X2453Y731D01*
X0Y730D02*
X7Y730D01*
X2446Y730D02*
X2453Y730D01*
X0Y729D02*
X7Y729D01*
X2446Y729D02*
X2453Y729D01*
X0Y728D02*
X7Y728D01*
X2446Y728D02*
X2453Y728D01*
X0Y727D02*
X7Y727D01*
X2446Y727D02*
X2453Y727D01*
X0Y726D02*
X7Y726D01*
X2446Y726D02*
X2453Y726D01*
X0Y725D02*
X7Y725D01*
X2446Y725D02*
X2453Y725D01*
X0Y724D02*
X7Y724D01*
X2446Y724D02*
X2453Y724D01*
X0Y723D02*
X7Y723D01*
X2446Y723D02*
X2453Y723D01*
X0Y722D02*
X7Y722D01*
X2446Y722D02*
X2453Y722D01*
X0Y721D02*
X7Y721D01*
X2446Y721D02*
X2453Y721D01*
X0Y720D02*
X7Y720D01*
X2446Y720D02*
X2453Y720D01*
X0Y719D02*
X7Y719D01*
X2446Y719D02*
X2453Y719D01*
X0Y718D02*
X7Y718D01*
X2446Y718D02*
X2453Y718D01*
X0Y717D02*
X7Y717D01*
X2446Y717D02*
X2453Y717D01*
X0Y716D02*
X7Y716D01*
X2446Y716D02*
X2453Y716D01*
X0Y715D02*
X7Y715D01*
X2446Y715D02*
X2453Y715D01*
X0Y714D02*
X7Y714D01*
X2446Y714D02*
X2453Y714D01*
X0Y713D02*
X7Y713D01*
X2446Y713D02*
X2453Y713D01*
X0Y712D02*
X7Y712D01*
X2446Y712D02*
X2453Y712D01*
X0Y711D02*
X7Y711D01*
X2446Y711D02*
X2453Y711D01*
X0Y710D02*
X7Y710D01*
X2446Y710D02*
X2453Y710D01*
X0Y709D02*
X7Y709D01*
X2446Y709D02*
X2453Y709D01*
X0Y708D02*
X7Y708D01*
X2446Y708D02*
X2453Y708D01*
X0Y707D02*
X7Y707D01*
X2446Y707D02*
X2453Y707D01*
X0Y706D02*
X7Y706D01*
X2446Y706D02*
X2453Y706D01*
X0Y705D02*
X7Y705D01*
X2446Y705D02*
X2453Y705D01*
X0Y704D02*
X7Y704D01*
X2446Y704D02*
X2453Y704D01*
X0Y703D02*
X7Y703D01*
X2446Y703D02*
X2453Y703D01*
X0Y702D02*
X7Y702D01*
X2446Y702D02*
X2453Y702D01*
X0Y701D02*
X7Y701D01*
X2446Y701D02*
X2453Y701D01*
X0Y700D02*
X7Y700D01*
X2446Y700D02*
X2453Y700D01*
X0Y699D02*
X7Y699D01*
X2446Y699D02*
X2453Y699D01*
X0Y698D02*
X7Y698D01*
X2446Y698D02*
X2453Y698D01*
X0Y697D02*
X7Y697D01*
X2446Y697D02*
X2453Y697D01*
X0Y696D02*
X7Y696D01*
X2446Y696D02*
X2453Y696D01*
X0Y695D02*
X7Y695D01*
X2446Y695D02*
X2453Y695D01*
X0Y694D02*
X7Y694D01*
X2446Y694D02*
X2453Y694D01*
X0Y693D02*
X7Y693D01*
X2446Y693D02*
X2453Y693D01*
X0Y692D02*
X7Y692D01*
X2446Y692D02*
X2453Y692D01*
X0Y691D02*
X7Y691D01*
X2446Y691D02*
X2453Y691D01*
X0Y690D02*
X7Y690D01*
X2446Y690D02*
X2453Y690D01*
X0Y689D02*
X7Y689D01*
X2446Y689D02*
X2453Y689D01*
X0Y688D02*
X7Y688D01*
X2446Y688D02*
X2453Y688D01*
X0Y687D02*
X7Y687D01*
X2446Y687D02*
X2453Y687D01*
X0Y686D02*
X7Y686D01*
X2446Y686D02*
X2453Y686D01*
X0Y685D02*
X7Y685D01*
X2446Y685D02*
X2453Y685D01*
X0Y684D02*
X7Y684D01*
X2446Y684D02*
X2453Y684D01*
X0Y683D02*
X7Y683D01*
X2446Y683D02*
X2453Y683D01*
X0Y682D02*
X7Y682D01*
X2446Y682D02*
X2453Y682D01*
X0Y681D02*
X7Y681D01*
X2446Y681D02*
X2453Y681D01*
X0Y680D02*
X7Y680D01*
X2446Y680D02*
X2453Y680D01*
X0Y679D02*
X7Y679D01*
X2446Y679D02*
X2453Y679D01*
X0Y678D02*
X7Y678D01*
X2446Y678D02*
X2453Y678D01*
X0Y677D02*
X7Y677D01*
X2446Y677D02*
X2453Y677D01*
X0Y676D02*
X7Y676D01*
X2446Y676D02*
X2453Y676D01*
X0Y675D02*
X7Y675D01*
X2446Y675D02*
X2453Y675D01*
X0Y674D02*
X7Y674D01*
X2446Y674D02*
X2453Y674D01*
X0Y673D02*
X7Y673D01*
X2446Y673D02*
X2453Y673D01*
X0Y672D02*
X7Y672D01*
X2446Y672D02*
X2453Y672D01*
X0Y671D02*
X7Y671D01*
X2446Y671D02*
X2453Y671D01*
X0Y670D02*
X7Y670D01*
X2446Y670D02*
X2453Y670D01*
X0Y669D02*
X7Y669D01*
X2446Y669D02*
X2453Y669D01*
X0Y668D02*
X7Y668D01*
X2446Y668D02*
X2453Y668D01*
X0Y667D02*
X7Y667D01*
X2446Y667D02*
X2453Y667D01*
X0Y666D02*
X7Y666D01*
X2446Y666D02*
X2453Y666D01*
X0Y665D02*
X7Y665D01*
X2446Y665D02*
X2453Y665D01*
X0Y664D02*
X7Y664D01*
X2446Y664D02*
X2453Y664D01*
X0Y663D02*
X7Y663D01*
X2446Y663D02*
X2453Y663D01*
X0Y662D02*
X7Y662D01*
X2446Y662D02*
X2453Y662D01*
X0Y661D02*
X7Y661D01*
X2446Y661D02*
X2453Y661D01*
X0Y660D02*
X7Y660D01*
X2446Y660D02*
X2453Y660D01*
X0Y659D02*
X7Y659D01*
X2446Y659D02*
X2453Y659D01*
X0Y658D02*
X7Y658D01*
X2446Y658D02*
X2453Y658D01*
X0Y657D02*
X7Y657D01*
X2446Y657D02*
X2453Y657D01*
X0Y656D02*
X7Y656D01*
X2446Y656D02*
X2453Y656D01*
X0Y655D02*
X7Y655D01*
X2446Y655D02*
X2453Y655D01*
X0Y654D02*
X7Y654D01*
X2446Y654D02*
X2453Y654D01*
X0Y653D02*
X7Y653D01*
X2446Y653D02*
X2453Y653D01*
X0Y652D02*
X7Y652D01*
X2446Y652D02*
X2453Y652D01*
X0Y651D02*
X7Y651D01*
X2446Y651D02*
X2453Y651D01*
X0Y650D02*
X7Y650D01*
X2446Y650D02*
X2453Y650D01*
X0Y649D02*
X7Y649D01*
X2446Y649D02*
X2453Y649D01*
X0Y648D02*
X7Y648D01*
X2446Y648D02*
X2453Y648D01*
X0Y647D02*
X7Y647D01*
X2446Y647D02*
X2453Y647D01*
X0Y646D02*
X7Y646D01*
X2446Y646D02*
X2453Y646D01*
X0Y645D02*
X7Y645D01*
X2446Y645D02*
X2453Y645D01*
X0Y644D02*
X7Y644D01*
X2446Y644D02*
X2453Y644D01*
X0Y643D02*
X7Y643D01*
X2446Y643D02*
X2453Y643D01*
X0Y642D02*
X7Y642D01*
X2446Y642D02*
X2453Y642D01*
X0Y641D02*
X7Y641D01*
X2446Y641D02*
X2453Y641D01*
X0Y640D02*
X7Y640D01*
X2446Y640D02*
X2453Y640D01*
X0Y639D02*
X7Y639D01*
X2446Y639D02*
X2453Y639D01*
X0Y638D02*
X7Y638D01*
X2446Y638D02*
X2453Y638D01*
X0Y637D02*
X7Y637D01*
X2446Y637D02*
X2453Y637D01*
X0Y636D02*
X7Y636D01*
X2446Y636D02*
X2453Y636D01*
X0Y635D02*
X7Y635D01*
X2446Y635D02*
X2453Y635D01*
X0Y634D02*
X7Y634D01*
X2446Y634D02*
X2453Y634D01*
X0Y633D02*
X7Y633D01*
X2446Y633D02*
X2453Y633D01*
X0Y632D02*
X7Y632D01*
X2446Y632D02*
X2453Y632D01*
X0Y631D02*
X7Y631D01*
X2446Y631D02*
X2453Y631D01*
X0Y630D02*
X7Y630D01*
X2446Y630D02*
X2453Y630D01*
X0Y629D02*
X7Y629D01*
X2446Y629D02*
X2453Y629D01*
X0Y628D02*
X7Y628D01*
X2446Y628D02*
X2453Y628D01*
X0Y627D02*
X7Y627D01*
X2446Y627D02*
X2453Y627D01*
X0Y626D02*
X7Y626D01*
X2446Y626D02*
X2453Y626D01*
X0Y625D02*
X7Y625D01*
X2446Y625D02*
X2453Y625D01*
X0Y624D02*
X7Y624D01*
X2446Y624D02*
X2453Y624D01*
X0Y623D02*
X7Y623D01*
X2446Y623D02*
X2453Y623D01*
X0Y622D02*
X7Y622D01*
X2446Y622D02*
X2453Y622D01*
X0Y621D02*
X7Y621D01*
X2446Y621D02*
X2453Y621D01*
X0Y620D02*
X7Y620D01*
X2446Y620D02*
X2453Y620D01*
X0Y619D02*
X7Y619D01*
X2446Y619D02*
X2453Y619D01*
X0Y618D02*
X7Y618D01*
X2446Y618D02*
X2453Y618D01*
X0Y617D02*
X7Y617D01*
X2446Y617D02*
X2453Y617D01*
X0Y616D02*
X7Y616D01*
X2446Y616D02*
X2453Y616D01*
X0Y615D02*
X7Y615D01*
X2446Y615D02*
X2453Y615D01*
X0Y614D02*
X7Y614D01*
X2446Y614D02*
X2453Y614D01*
X0Y613D02*
X7Y613D01*
X2446Y613D02*
X2453Y613D01*
X0Y612D02*
X7Y612D01*
X2446Y612D02*
X2453Y612D01*
X0Y611D02*
X7Y611D01*
X2446Y611D02*
X2453Y611D01*
X0Y610D02*
X7Y610D01*
X2446Y610D02*
X2453Y610D01*
X0Y609D02*
X7Y609D01*
X2446Y609D02*
X2453Y609D01*
X0Y608D02*
X7Y608D01*
X2446Y608D02*
X2453Y608D01*
X0Y607D02*
X7Y607D01*
X2446Y607D02*
X2453Y607D01*
X0Y606D02*
X7Y606D01*
X2446Y606D02*
X2453Y606D01*
X0Y605D02*
X7Y605D01*
X2446Y605D02*
X2453Y605D01*
X0Y604D02*
X7Y604D01*
X2446Y604D02*
X2453Y604D01*
X0Y603D02*
X7Y603D01*
X2446Y603D02*
X2453Y603D01*
X0Y602D02*
X7Y602D01*
X2446Y602D02*
X2453Y602D01*
X0Y601D02*
X7Y601D01*
X2446Y601D02*
X2453Y601D01*
X0Y600D02*
X7Y600D01*
X2446Y600D02*
X2453Y600D01*
X0Y599D02*
X7Y599D01*
X2446Y599D02*
X2453Y599D01*
X0Y598D02*
X7Y598D01*
X2446Y598D02*
X2453Y598D01*
X0Y597D02*
X7Y597D01*
X2446Y597D02*
X2453Y597D01*
X0Y596D02*
X7Y596D01*
X2446Y596D02*
X2453Y596D01*
X0Y595D02*
X7Y595D01*
X2446Y595D02*
X2453Y595D01*
X0Y594D02*
X7Y594D01*
X2446Y594D02*
X2453Y594D01*
X0Y593D02*
X7Y593D01*
X2446Y593D02*
X2453Y593D01*
X0Y592D02*
X7Y592D01*
X2446Y592D02*
X2453Y592D01*
X0Y591D02*
X7Y591D01*
X2446Y591D02*
X2453Y591D01*
X0Y590D02*
X7Y590D01*
X2446Y590D02*
X2453Y590D01*
X0Y589D02*
X7Y589D01*
X2446Y589D02*
X2453Y589D01*
X0Y588D02*
X7Y588D01*
X2446Y588D02*
X2453Y588D01*
X0Y587D02*
X7Y587D01*
X2446Y587D02*
X2453Y587D01*
X0Y586D02*
X7Y586D01*
X2446Y586D02*
X2453Y586D01*
X0Y585D02*
X7Y585D01*
X2446Y585D02*
X2453Y585D01*
X0Y584D02*
X7Y584D01*
X2446Y584D02*
X2453Y584D01*
X0Y583D02*
X7Y583D01*
X2446Y583D02*
X2453Y583D01*
X0Y582D02*
X7Y582D01*
X2446Y582D02*
X2453Y582D01*
X0Y581D02*
X7Y581D01*
X2446Y581D02*
X2453Y581D01*
X0Y580D02*
X7Y580D01*
X2446Y580D02*
X2453Y580D01*
X0Y579D02*
X7Y579D01*
X2446Y579D02*
X2453Y579D01*
X0Y578D02*
X7Y578D01*
X2446Y578D02*
X2453Y578D01*
X0Y577D02*
X7Y577D01*
X2446Y577D02*
X2453Y577D01*
X0Y576D02*
X7Y576D01*
X2446Y576D02*
X2453Y576D01*
X0Y575D02*
X7Y575D01*
X2446Y575D02*
X2453Y575D01*
X0Y574D02*
X7Y574D01*
X2446Y574D02*
X2453Y574D01*
X0Y573D02*
X7Y573D01*
X2446Y573D02*
X2453Y573D01*
X0Y572D02*
X7Y572D01*
X2446Y572D02*
X2453Y572D01*
X0Y571D02*
X7Y571D01*
X2446Y571D02*
X2453Y571D01*
X0Y570D02*
X7Y570D01*
X2446Y570D02*
X2453Y570D01*
X0Y569D02*
X7Y569D01*
X2446Y569D02*
X2453Y569D01*
X0Y568D02*
X7Y568D01*
X2446Y568D02*
X2453Y568D01*
X0Y567D02*
X7Y567D01*
X2446Y567D02*
X2453Y567D01*
X0Y566D02*
X7Y566D01*
X2446Y566D02*
X2453Y566D01*
X0Y565D02*
X7Y565D01*
X2446Y565D02*
X2453Y565D01*
X0Y564D02*
X7Y564D01*
X2446Y564D02*
X2453Y564D01*
X0Y563D02*
X7Y563D01*
X2446Y563D02*
X2453Y563D01*
X0Y562D02*
X7Y562D01*
X2446Y562D02*
X2453Y562D01*
X0Y561D02*
X7Y561D01*
X2446Y561D02*
X2453Y561D01*
X0Y560D02*
X7Y560D01*
X2446Y560D02*
X2453Y560D01*
X0Y559D02*
X7Y559D01*
X2446Y559D02*
X2453Y559D01*
X0Y558D02*
X7Y558D01*
X2446Y558D02*
X2453Y558D01*
X0Y557D02*
X7Y557D01*
X2446Y557D02*
X2453Y557D01*
X0Y556D02*
X7Y556D01*
X2446Y556D02*
X2453Y556D01*
X0Y555D02*
X7Y555D01*
X2446Y555D02*
X2453Y555D01*
X0Y554D02*
X7Y554D01*
X2446Y554D02*
X2453Y554D01*
X0Y553D02*
X7Y553D01*
X2446Y553D02*
X2453Y553D01*
X0Y552D02*
X7Y552D01*
X2446Y552D02*
X2453Y552D01*
X0Y551D02*
X7Y551D01*
X2446Y551D02*
X2453Y551D01*
X0Y550D02*
X7Y550D01*
X2446Y550D02*
X2453Y550D01*
X0Y549D02*
X7Y549D01*
X2446Y549D02*
X2453Y549D01*
X0Y548D02*
X7Y548D01*
X2446Y548D02*
X2453Y548D01*
X0Y547D02*
X7Y547D01*
X2446Y547D02*
X2453Y547D01*
X0Y546D02*
X7Y546D01*
X2446Y546D02*
X2453Y546D01*
X0Y545D02*
X7Y545D01*
X2446Y545D02*
X2453Y545D01*
X0Y544D02*
X7Y544D01*
X2446Y544D02*
X2453Y544D01*
X0Y543D02*
X7Y543D01*
X2446Y543D02*
X2453Y543D01*
X0Y542D02*
X7Y542D01*
X2446Y542D02*
X2453Y542D01*
X0Y541D02*
X7Y541D01*
X2446Y541D02*
X2453Y541D01*
X0Y540D02*
X7Y540D01*
X2446Y540D02*
X2453Y540D01*
X0Y539D02*
X7Y539D01*
X2446Y539D02*
X2453Y539D01*
X0Y538D02*
X7Y538D01*
X2446Y538D02*
X2453Y538D01*
X0Y537D02*
X7Y537D01*
X2446Y537D02*
X2453Y537D01*
X0Y536D02*
X7Y536D01*
X2446Y536D02*
X2453Y536D01*
X0Y535D02*
X7Y535D01*
X2446Y535D02*
X2453Y535D01*
X0Y534D02*
X7Y534D01*
X2446Y534D02*
X2453Y534D01*
X0Y533D02*
X7Y533D01*
X2446Y533D02*
X2453Y533D01*
X0Y532D02*
X7Y532D01*
X2446Y532D02*
X2453Y532D01*
X0Y531D02*
X7Y531D01*
X2446Y531D02*
X2453Y531D01*
X0Y530D02*
X7Y530D01*
X2446Y530D02*
X2453Y530D01*
X0Y529D02*
X7Y529D01*
X2446Y529D02*
X2453Y529D01*
X0Y528D02*
X7Y528D01*
X2446Y528D02*
X2453Y528D01*
X0Y527D02*
X7Y527D01*
X2446Y527D02*
X2453Y527D01*
X0Y526D02*
X7Y526D01*
X2446Y526D02*
X2453Y526D01*
X0Y525D02*
X7Y525D01*
X2446Y525D02*
X2453Y525D01*
X0Y524D02*
X7Y524D01*
X2446Y524D02*
X2453Y524D01*
X0Y523D02*
X7Y523D01*
X2446Y523D02*
X2453Y523D01*
X0Y522D02*
X7Y522D01*
X2446Y522D02*
X2453Y522D01*
X0Y521D02*
X7Y521D01*
X2446Y521D02*
X2453Y521D01*
X0Y520D02*
X7Y520D01*
X2446Y520D02*
X2453Y520D01*
X0Y519D02*
X7Y519D01*
X2446Y519D02*
X2453Y519D01*
X0Y518D02*
X7Y518D01*
X2446Y518D02*
X2453Y518D01*
X0Y517D02*
X7Y517D01*
X2446Y517D02*
X2453Y517D01*
X0Y516D02*
X7Y516D01*
X2446Y516D02*
X2453Y516D01*
X0Y515D02*
X7Y515D01*
X2446Y515D02*
X2453Y515D01*
X0Y514D02*
X7Y514D01*
X2446Y514D02*
X2453Y514D01*
X0Y513D02*
X7Y513D01*
X2446Y513D02*
X2453Y513D01*
X0Y512D02*
X7Y512D01*
X2446Y512D02*
X2453Y512D01*
X0Y511D02*
X7Y511D01*
X2446Y511D02*
X2453Y511D01*
X0Y510D02*
X7Y510D01*
X2446Y510D02*
X2453Y510D01*
X0Y509D02*
X7Y509D01*
X2446Y509D02*
X2453Y509D01*
X0Y508D02*
X7Y508D01*
X2446Y508D02*
X2453Y508D01*
X0Y507D02*
X7Y507D01*
X2446Y507D02*
X2453Y507D01*
X0Y506D02*
X7Y506D01*
X2446Y506D02*
X2453Y506D01*
X0Y505D02*
X7Y505D01*
X2446Y505D02*
X2453Y505D01*
X0Y504D02*
X7Y504D01*
X2446Y504D02*
X2453Y504D01*
X0Y503D02*
X7Y503D01*
X2446Y503D02*
X2453Y503D01*
X0Y502D02*
X7Y502D01*
X2446Y502D02*
X2453Y502D01*
X0Y501D02*
X7Y501D01*
X2446Y501D02*
X2453Y501D01*
X0Y500D02*
X7Y500D01*
X2446Y500D02*
X2453Y500D01*
X0Y499D02*
X7Y499D01*
X2446Y499D02*
X2453Y499D01*
X0Y498D02*
X7Y498D01*
X2446Y498D02*
X2453Y498D01*
X0Y497D02*
X7Y497D01*
X2446Y497D02*
X2453Y497D01*
X0Y496D02*
X7Y496D01*
X2446Y496D02*
X2453Y496D01*
X0Y495D02*
X7Y495D01*
X2446Y495D02*
X2453Y495D01*
X0Y494D02*
X7Y494D01*
X2446Y494D02*
X2453Y494D01*
X0Y493D02*
X7Y493D01*
X2446Y493D02*
X2453Y493D01*
X0Y492D02*
X7Y492D01*
X2446Y492D02*
X2453Y492D01*
X0Y491D02*
X7Y491D01*
X2446Y491D02*
X2453Y491D01*
X0Y490D02*
X7Y490D01*
X2446Y490D02*
X2453Y490D01*
X0Y489D02*
X7Y489D01*
X2446Y489D02*
X2453Y489D01*
X0Y488D02*
X7Y488D01*
X2446Y488D02*
X2453Y488D01*
X0Y487D02*
X7Y487D01*
X2446Y487D02*
X2453Y487D01*
X0Y486D02*
X7Y486D01*
X2446Y486D02*
X2453Y486D01*
X0Y485D02*
X7Y485D01*
X2446Y485D02*
X2453Y485D01*
X0Y484D02*
X7Y484D01*
X2446Y484D02*
X2453Y484D01*
X0Y483D02*
X7Y483D01*
X2446Y483D02*
X2453Y483D01*
X0Y482D02*
X7Y482D01*
X2446Y482D02*
X2453Y482D01*
X0Y481D02*
X7Y481D01*
X2446Y481D02*
X2453Y481D01*
X0Y480D02*
X7Y480D01*
X2446Y480D02*
X2453Y480D01*
X0Y479D02*
X7Y479D01*
X2446Y479D02*
X2453Y479D01*
X0Y478D02*
X7Y478D01*
X2446Y478D02*
X2453Y478D01*
X0Y477D02*
X7Y477D01*
X2446Y477D02*
X2453Y477D01*
X0Y476D02*
X7Y476D01*
X2446Y476D02*
X2453Y476D01*
X0Y475D02*
X7Y475D01*
X2446Y475D02*
X2453Y475D01*
X0Y474D02*
X7Y474D01*
X2446Y474D02*
X2453Y474D01*
X0Y473D02*
X7Y473D01*
X2446Y473D02*
X2453Y473D01*
X0Y472D02*
X7Y472D01*
X2446Y472D02*
X2453Y472D01*
X0Y471D02*
X7Y471D01*
X2446Y471D02*
X2453Y471D01*
X0Y470D02*
X7Y470D01*
X2446Y470D02*
X2453Y470D01*
X0Y469D02*
X7Y469D01*
X2446Y469D02*
X2453Y469D01*
X0Y468D02*
X7Y468D01*
X2446Y468D02*
X2453Y468D01*
X0Y467D02*
X7Y467D01*
X2446Y467D02*
X2453Y467D01*
X0Y466D02*
X7Y466D01*
X2446Y466D02*
X2453Y466D01*
X0Y465D02*
X7Y465D01*
X2446Y465D02*
X2453Y465D01*
X0Y464D02*
X7Y464D01*
X2446Y464D02*
X2453Y464D01*
X0Y463D02*
X7Y463D01*
X2446Y463D02*
X2453Y463D01*
X0Y462D02*
X7Y462D01*
X2446Y462D02*
X2453Y462D01*
X0Y461D02*
X7Y461D01*
X2446Y461D02*
X2453Y461D01*
X0Y460D02*
X7Y460D01*
X2446Y460D02*
X2453Y460D01*
X0Y459D02*
X7Y459D01*
X2446Y459D02*
X2453Y459D01*
X0Y458D02*
X7Y458D01*
X2446Y458D02*
X2453Y458D01*
X0Y457D02*
X7Y457D01*
X2446Y457D02*
X2453Y457D01*
X0Y456D02*
X7Y456D01*
X2446Y456D02*
X2453Y456D01*
X0Y455D02*
X7Y455D01*
X2446Y455D02*
X2453Y455D01*
X0Y454D02*
X7Y454D01*
X2446Y454D02*
X2453Y454D01*
X0Y453D02*
X7Y453D01*
X2446Y453D02*
X2453Y453D01*
X0Y452D02*
X7Y452D01*
X2446Y452D02*
X2453Y452D01*
X0Y451D02*
X7Y451D01*
X2446Y451D02*
X2453Y451D01*
X0Y450D02*
X7Y450D01*
X2446Y450D02*
X2453Y450D01*
X0Y449D02*
X7Y449D01*
X2446Y449D02*
X2453Y449D01*
X0Y448D02*
X7Y448D01*
X2446Y448D02*
X2453Y448D01*
X0Y447D02*
X7Y447D01*
X2446Y447D02*
X2453Y447D01*
X0Y446D02*
X7Y446D01*
X2446Y446D02*
X2453Y446D01*
X0Y445D02*
X7Y445D01*
X2446Y445D02*
X2453Y445D01*
X0Y444D02*
X7Y444D01*
X2446Y444D02*
X2453Y444D01*
X0Y443D02*
X7Y443D01*
X2446Y443D02*
X2453Y443D01*
X0Y442D02*
X7Y442D01*
X2446Y442D02*
X2453Y442D01*
X0Y441D02*
X7Y441D01*
X2446Y441D02*
X2453Y441D01*
X0Y440D02*
X7Y440D01*
X2446Y440D02*
X2453Y440D01*
X0Y439D02*
X7Y439D01*
X2446Y439D02*
X2453Y439D01*
X0Y438D02*
X7Y438D01*
X2446Y438D02*
X2453Y438D01*
X0Y437D02*
X7Y437D01*
X2446Y437D02*
X2453Y437D01*
X0Y436D02*
X7Y436D01*
X2446Y436D02*
X2453Y436D01*
X0Y435D02*
X7Y435D01*
X2446Y435D02*
X2453Y435D01*
X0Y434D02*
X7Y434D01*
X2446Y434D02*
X2453Y434D01*
X0Y433D02*
X7Y433D01*
X2446Y433D02*
X2453Y433D01*
X0Y432D02*
X7Y432D01*
X2446Y432D02*
X2453Y432D01*
X0Y431D02*
X7Y431D01*
X2446Y431D02*
X2453Y431D01*
X0Y430D02*
X7Y430D01*
X2446Y430D02*
X2453Y430D01*
X0Y429D02*
X7Y429D01*
X2446Y429D02*
X2453Y429D01*
X0Y428D02*
X7Y428D01*
X2446Y428D02*
X2453Y428D01*
X0Y427D02*
X7Y427D01*
X2446Y427D02*
X2453Y427D01*
X0Y426D02*
X7Y426D01*
X2446Y426D02*
X2453Y426D01*
X0Y425D02*
X7Y425D01*
X2446Y425D02*
X2453Y425D01*
X0Y424D02*
X7Y424D01*
X2446Y424D02*
X2453Y424D01*
X0Y423D02*
X7Y423D01*
X2446Y423D02*
X2453Y423D01*
X0Y422D02*
X7Y422D01*
X2446Y422D02*
X2453Y422D01*
X0Y421D02*
X7Y421D01*
X2446Y421D02*
X2453Y421D01*
X0Y420D02*
X7Y420D01*
X2446Y420D02*
X2453Y420D01*
X0Y419D02*
X7Y419D01*
X2446Y419D02*
X2453Y419D01*
X0Y418D02*
X7Y418D01*
X2446Y418D02*
X2453Y418D01*
X0Y417D02*
X7Y417D01*
X2446Y417D02*
X2453Y417D01*
X0Y416D02*
X7Y416D01*
X2446Y416D02*
X2453Y416D01*
X0Y415D02*
X7Y415D01*
X2446Y415D02*
X2453Y415D01*
X0Y414D02*
X7Y414D01*
X2446Y414D02*
X2453Y414D01*
X0Y413D02*
X7Y413D01*
X2446Y413D02*
X2453Y413D01*
X0Y412D02*
X7Y412D01*
X2446Y412D02*
X2453Y412D01*
X0Y411D02*
X7Y411D01*
X2446Y411D02*
X2453Y411D01*
X0Y410D02*
X7Y410D01*
X2446Y410D02*
X2453Y410D01*
X0Y409D02*
X7Y409D01*
X2446Y409D02*
X2453Y409D01*
X0Y408D02*
X7Y408D01*
X2446Y408D02*
X2453Y408D01*
X0Y407D02*
X7Y407D01*
X2446Y407D02*
X2453Y407D01*
X0Y406D02*
X7Y406D01*
X2446Y406D02*
X2453Y406D01*
X0Y405D02*
X7Y405D01*
X2446Y405D02*
X2453Y405D01*
X0Y404D02*
X7Y404D01*
X2446Y404D02*
X2453Y404D01*
X0Y403D02*
X7Y403D01*
X2446Y403D02*
X2453Y403D01*
X0Y402D02*
X7Y402D01*
X2446Y402D02*
X2453Y402D01*
X0Y401D02*
X7Y401D01*
X2446Y401D02*
X2453Y401D01*
X0Y400D02*
X7Y400D01*
X2446Y400D02*
X2453Y400D01*
X0Y399D02*
X7Y399D01*
X2446Y399D02*
X2453Y399D01*
X0Y398D02*
X7Y398D01*
X2446Y398D02*
X2453Y398D01*
X0Y397D02*
X7Y397D01*
X2446Y397D02*
X2453Y397D01*
X0Y396D02*
X7Y396D01*
X2446Y396D02*
X2453Y396D01*
X0Y395D02*
X7Y395D01*
X2446Y395D02*
X2453Y395D01*
X0Y394D02*
X7Y394D01*
X2446Y394D02*
X2453Y394D01*
X0Y393D02*
X7Y393D01*
X2446Y393D02*
X2453Y393D01*
X0Y392D02*
X7Y392D01*
X2446Y392D02*
X2453Y392D01*
X0Y391D02*
X7Y391D01*
X2446Y391D02*
X2453Y391D01*
X0Y390D02*
X7Y390D01*
X2446Y390D02*
X2453Y390D01*
X0Y389D02*
X7Y389D01*
X2446Y389D02*
X2453Y389D01*
X0Y388D02*
X7Y388D01*
X2446Y388D02*
X2453Y388D01*
X0Y387D02*
X7Y387D01*
X2446Y387D02*
X2453Y387D01*
X0Y386D02*
X7Y386D01*
X2446Y386D02*
X2453Y386D01*
X0Y385D02*
X7Y385D01*
X2446Y385D02*
X2453Y385D01*
X0Y384D02*
X7Y384D01*
X2446Y384D02*
X2453Y384D01*
X0Y383D02*
X7Y383D01*
X2446Y383D02*
X2453Y383D01*
X0Y382D02*
X7Y382D01*
X2446Y382D02*
X2453Y382D01*
X0Y381D02*
X7Y381D01*
X2446Y381D02*
X2453Y381D01*
X0Y380D02*
X7Y380D01*
X2446Y380D02*
X2453Y380D01*
X0Y379D02*
X7Y379D01*
X2446Y379D02*
X2453Y379D01*
X0Y378D02*
X7Y378D01*
X2446Y378D02*
X2453Y378D01*
X0Y377D02*
X7Y377D01*
X2446Y377D02*
X2453Y377D01*
X0Y376D02*
X7Y376D01*
X2446Y376D02*
X2453Y376D01*
X0Y375D02*
X7Y375D01*
X2446Y375D02*
X2453Y375D01*
X0Y374D02*
X7Y374D01*
X2446Y374D02*
X2453Y374D01*
X0Y373D02*
X7Y373D01*
X2446Y373D02*
X2453Y373D01*
X0Y372D02*
X7Y372D01*
X2446Y372D02*
X2453Y372D01*
X0Y371D02*
X7Y371D01*
X2446Y371D02*
X2453Y371D01*
X0Y370D02*
X7Y370D01*
X2446Y370D02*
X2453Y370D01*
X0Y369D02*
X7Y369D01*
X2446Y369D02*
X2453Y369D01*
X0Y368D02*
X7Y368D01*
X2446Y368D02*
X2453Y368D01*
X0Y367D02*
X7Y367D01*
X2446Y367D02*
X2453Y367D01*
X0Y366D02*
X7Y366D01*
X2446Y366D02*
X2453Y366D01*
X0Y365D02*
X7Y365D01*
X2446Y365D02*
X2453Y365D01*
X0Y364D02*
X7Y364D01*
X2446Y364D02*
X2453Y364D01*
X0Y363D02*
X7Y363D01*
X2446Y363D02*
X2453Y363D01*
X0Y362D02*
X7Y362D01*
X2446Y362D02*
X2453Y362D01*
X0Y361D02*
X7Y361D01*
X2446Y361D02*
X2453Y361D01*
X0Y360D02*
X7Y360D01*
X2446Y360D02*
X2453Y360D01*
X0Y359D02*
X7Y359D01*
X2446Y359D02*
X2453Y359D01*
X0Y358D02*
X7Y358D01*
X2446Y358D02*
X2453Y358D01*
X0Y357D02*
X7Y357D01*
X2446Y357D02*
X2453Y357D01*
X0Y356D02*
X7Y356D01*
X2446Y356D02*
X2453Y356D01*
X0Y355D02*
X7Y355D01*
X2446Y355D02*
X2453Y355D01*
X0Y354D02*
X7Y354D01*
X2446Y354D02*
X2453Y354D01*
X0Y353D02*
X7Y353D01*
X2446Y353D02*
X2453Y353D01*
X0Y352D02*
X7Y352D01*
X2446Y352D02*
X2453Y352D01*
X0Y351D02*
X7Y351D01*
X2446Y351D02*
X2453Y351D01*
X0Y350D02*
X7Y350D01*
X2446Y350D02*
X2453Y350D01*
X0Y349D02*
X7Y349D01*
X2446Y349D02*
X2453Y349D01*
X0Y348D02*
X7Y348D01*
X2446Y348D02*
X2453Y348D01*
X0Y347D02*
X7Y347D01*
X2446Y347D02*
X2453Y347D01*
X0Y346D02*
X7Y346D01*
X2446Y346D02*
X2453Y346D01*
X0Y345D02*
X7Y345D01*
X2446Y345D02*
X2453Y345D01*
X0Y344D02*
X7Y344D01*
X2446Y344D02*
X2453Y344D01*
X0Y343D02*
X7Y343D01*
X2446Y343D02*
X2453Y343D01*
X0Y342D02*
X7Y342D01*
X2446Y342D02*
X2453Y342D01*
X0Y341D02*
X7Y341D01*
X2446Y341D02*
X2453Y341D01*
X0Y340D02*
X7Y340D01*
X2446Y340D02*
X2453Y340D01*
X0Y339D02*
X7Y339D01*
X2446Y339D02*
X2453Y339D01*
X0Y338D02*
X7Y338D01*
X2446Y338D02*
X2453Y338D01*
X0Y337D02*
X7Y337D01*
X2446Y337D02*
X2453Y337D01*
X0Y336D02*
X7Y336D01*
X2446Y336D02*
X2453Y336D01*
X0Y335D02*
X7Y335D01*
X2446Y335D02*
X2453Y335D01*
X0Y334D02*
X7Y334D01*
X2446Y334D02*
X2453Y334D01*
X0Y333D02*
X7Y333D01*
X2446Y333D02*
X2453Y333D01*
X0Y332D02*
X7Y332D01*
X2446Y332D02*
X2453Y332D01*
X0Y331D02*
X7Y331D01*
X2446Y331D02*
X2453Y331D01*
X0Y330D02*
X7Y330D01*
X2446Y330D02*
X2453Y330D01*
X0Y329D02*
X7Y329D01*
X2446Y329D02*
X2453Y329D01*
X0Y328D02*
X7Y328D01*
X2446Y328D02*
X2453Y328D01*
X0Y327D02*
X7Y327D01*
X2446Y327D02*
X2453Y327D01*
X0Y326D02*
X7Y326D01*
X2446Y326D02*
X2453Y326D01*
X0Y325D02*
X7Y325D01*
X2446Y325D02*
X2453Y325D01*
X0Y324D02*
X7Y324D01*
X2446Y324D02*
X2453Y324D01*
X0Y323D02*
X7Y323D01*
X2446Y323D02*
X2453Y323D01*
X0Y322D02*
X7Y322D01*
X2446Y322D02*
X2453Y322D01*
X0Y321D02*
X7Y321D01*
X2446Y321D02*
X2453Y321D01*
X0Y320D02*
X7Y320D01*
X2446Y320D02*
X2453Y320D01*
X0Y319D02*
X7Y319D01*
X2446Y319D02*
X2453Y319D01*
X0Y318D02*
X7Y318D01*
X2446Y318D02*
X2453Y318D01*
X0Y317D02*
X7Y317D01*
X2446Y317D02*
X2453Y317D01*
X0Y316D02*
X7Y316D01*
X2446Y316D02*
X2453Y316D01*
X0Y315D02*
X7Y315D01*
X2446Y315D02*
X2453Y315D01*
X0Y314D02*
X7Y314D01*
X2446Y314D02*
X2453Y314D01*
X0Y313D02*
X7Y313D01*
X2446Y313D02*
X2453Y313D01*
X0Y312D02*
X7Y312D01*
X2446Y312D02*
X2453Y312D01*
X0Y311D02*
X7Y311D01*
X2446Y311D02*
X2453Y311D01*
X0Y310D02*
X7Y310D01*
X2446Y310D02*
X2453Y310D01*
X0Y309D02*
X7Y309D01*
X2446Y309D02*
X2453Y309D01*
X0Y308D02*
X7Y308D01*
X2446Y308D02*
X2453Y308D01*
X0Y307D02*
X7Y307D01*
X2446Y307D02*
X2453Y307D01*
X0Y306D02*
X7Y306D01*
X2446Y306D02*
X2453Y306D01*
X0Y305D02*
X7Y305D01*
X2446Y305D02*
X2453Y305D01*
X0Y304D02*
X7Y304D01*
X2446Y304D02*
X2453Y304D01*
X0Y303D02*
X7Y303D01*
X2446Y303D02*
X2453Y303D01*
X0Y302D02*
X7Y302D01*
X2446Y302D02*
X2453Y302D01*
X0Y301D02*
X7Y301D01*
X2446Y301D02*
X2453Y301D01*
X0Y300D02*
X7Y300D01*
X2446Y300D02*
X2453Y300D01*
X0Y299D02*
X7Y299D01*
X2446Y299D02*
X2453Y299D01*
X0Y298D02*
X7Y298D01*
X2446Y298D02*
X2453Y298D01*
X0Y297D02*
X7Y297D01*
X2446Y297D02*
X2453Y297D01*
X0Y296D02*
X7Y296D01*
X2446Y296D02*
X2453Y296D01*
X0Y295D02*
X7Y295D01*
X2446Y295D02*
X2453Y295D01*
X0Y294D02*
X7Y294D01*
X2446Y294D02*
X2453Y294D01*
X0Y293D02*
X7Y293D01*
X2446Y293D02*
X2453Y293D01*
X0Y292D02*
X7Y292D01*
X2446Y292D02*
X2453Y292D01*
X0Y291D02*
X7Y291D01*
X2446Y291D02*
X2453Y291D01*
X0Y290D02*
X7Y290D01*
X2446Y290D02*
X2453Y290D01*
X0Y289D02*
X7Y289D01*
X2446Y289D02*
X2453Y289D01*
X0Y288D02*
X7Y288D01*
X2446Y288D02*
X2453Y288D01*
X0Y287D02*
X7Y287D01*
X2446Y287D02*
X2453Y287D01*
X0Y286D02*
X7Y286D01*
X2446Y286D02*
X2453Y286D01*
X0Y285D02*
X7Y285D01*
X2446Y285D02*
X2453Y285D01*
X0Y284D02*
X7Y284D01*
X2446Y284D02*
X2453Y284D01*
X0Y283D02*
X7Y283D01*
X2446Y283D02*
X2453Y283D01*
X0Y282D02*
X7Y282D01*
X2446Y282D02*
X2453Y282D01*
X0Y281D02*
X7Y281D01*
X2446Y281D02*
X2453Y281D01*
X0Y280D02*
X7Y280D01*
X2446Y280D02*
X2453Y280D01*
X0Y279D02*
X7Y279D01*
X2446Y279D02*
X2453Y279D01*
X0Y278D02*
X7Y278D01*
X2446Y278D02*
X2453Y278D01*
X0Y277D02*
X7Y277D01*
X2446Y277D02*
X2453Y277D01*
X0Y276D02*
X7Y276D01*
X2446Y276D02*
X2453Y276D01*
X0Y275D02*
X7Y275D01*
X2446Y275D02*
X2453Y275D01*
X0Y274D02*
X7Y274D01*
X2446Y274D02*
X2453Y274D01*
X0Y273D02*
X7Y273D01*
X2446Y273D02*
X2453Y273D01*
X0Y272D02*
X7Y272D01*
X2446Y272D02*
X2453Y272D01*
X0Y271D02*
X7Y271D01*
X2446Y271D02*
X2453Y271D01*
X0Y270D02*
X7Y270D01*
X2446Y270D02*
X2453Y270D01*
X0Y269D02*
X7Y269D01*
X2446Y269D02*
X2453Y269D01*
X0Y268D02*
X7Y268D01*
X2446Y268D02*
X2453Y268D01*
X0Y267D02*
X7Y267D01*
X2446Y267D02*
X2453Y267D01*
X0Y266D02*
X7Y266D01*
X2446Y266D02*
X2453Y266D01*
X0Y265D02*
X7Y265D01*
X2446Y265D02*
X2453Y265D01*
X0Y264D02*
X7Y264D01*
X2446Y264D02*
X2453Y264D01*
X0Y263D02*
X7Y263D01*
X2446Y263D02*
X2453Y263D01*
X0Y262D02*
X7Y262D01*
X2446Y262D02*
X2453Y262D01*
X0Y261D02*
X7Y261D01*
X2446Y261D02*
X2453Y261D01*
X0Y260D02*
X7Y260D01*
X2446Y260D02*
X2453Y260D01*
X0Y259D02*
X7Y259D01*
X2446Y259D02*
X2453Y259D01*
X0Y258D02*
X7Y258D01*
X2446Y258D02*
X2453Y258D01*
X0Y257D02*
X7Y257D01*
X2446Y257D02*
X2453Y257D01*
X0Y256D02*
X7Y256D01*
X2446Y256D02*
X2453Y256D01*
X0Y255D02*
X7Y255D01*
X2446Y255D02*
X2453Y255D01*
X0Y254D02*
X7Y254D01*
X2446Y254D02*
X2453Y254D01*
X0Y253D02*
X7Y253D01*
X2446Y253D02*
X2453Y253D01*
X0Y252D02*
X7Y252D01*
X2446Y252D02*
X2453Y252D01*
X0Y251D02*
X7Y251D01*
X2446Y251D02*
X2453Y251D01*
X0Y250D02*
X7Y250D01*
X2446Y250D02*
X2453Y250D01*
X0Y249D02*
X7Y249D01*
X2446Y249D02*
X2453Y249D01*
X0Y248D02*
X7Y248D01*
X2446Y248D02*
X2453Y248D01*
X0Y247D02*
X7Y247D01*
X2446Y247D02*
X2453Y247D01*
X0Y246D02*
X7Y246D01*
X2446Y246D02*
X2453Y246D01*
X0Y245D02*
X7Y245D01*
X2446Y245D02*
X2453Y245D01*
X0Y244D02*
X7Y244D01*
X2446Y244D02*
X2453Y244D01*
X0Y243D02*
X7Y243D01*
X2446Y243D02*
X2453Y243D01*
X0Y242D02*
X7Y242D01*
X2446Y242D02*
X2453Y242D01*
X0Y241D02*
X7Y241D01*
X2446Y241D02*
X2453Y241D01*
X0Y240D02*
X7Y240D01*
X2446Y240D02*
X2453Y240D01*
X0Y239D02*
X7Y239D01*
X2446Y239D02*
X2453Y239D01*
X0Y238D02*
X7Y238D01*
X2446Y238D02*
X2453Y238D01*
X0Y237D02*
X7Y237D01*
X2446Y237D02*
X2453Y237D01*
X0Y236D02*
X7Y236D01*
X2446Y236D02*
X2453Y236D01*
X0Y235D02*
X7Y235D01*
X2446Y235D02*
X2453Y235D01*
X0Y234D02*
X7Y234D01*
X2446Y234D02*
X2453Y234D01*
X0Y233D02*
X7Y233D01*
X2446Y233D02*
X2453Y233D01*
X0Y232D02*
X7Y232D01*
X2446Y232D02*
X2453Y232D01*
X0Y231D02*
X7Y231D01*
X2446Y231D02*
X2453Y231D01*
X0Y230D02*
X7Y230D01*
X2446Y230D02*
X2453Y230D01*
X0Y229D02*
X7Y229D01*
X2446Y229D02*
X2453Y229D01*
X0Y228D02*
X7Y228D01*
X2446Y228D02*
X2453Y228D01*
X0Y227D02*
X7Y227D01*
X2446Y227D02*
X2453Y227D01*
X0Y226D02*
X7Y226D01*
X2446Y226D02*
X2453Y226D01*
X0Y225D02*
X7Y225D01*
X2446Y225D02*
X2453Y225D01*
X0Y224D02*
X7Y224D01*
X2446Y224D02*
X2453Y224D01*
X0Y223D02*
X7Y223D01*
X2446Y223D02*
X2453Y223D01*
X0Y222D02*
X7Y222D01*
X2446Y222D02*
X2453Y222D01*
X0Y221D02*
X7Y221D01*
X2446Y221D02*
X2453Y221D01*
X0Y220D02*
X7Y220D01*
X2446Y220D02*
X2453Y220D01*
X0Y219D02*
X7Y219D01*
X2446Y219D02*
X2453Y219D01*
X0Y218D02*
X7Y218D01*
X2446Y218D02*
X2453Y218D01*
X0Y217D02*
X7Y217D01*
X2446Y217D02*
X2453Y217D01*
X0Y216D02*
X7Y216D01*
X2446Y216D02*
X2453Y216D01*
X0Y215D02*
X7Y215D01*
X2446Y215D02*
X2453Y215D01*
X0Y214D02*
X7Y214D01*
X2446Y214D02*
X2453Y214D01*
X0Y213D02*
X7Y213D01*
X2446Y213D02*
X2453Y213D01*
X0Y212D02*
X7Y212D01*
X2446Y212D02*
X2453Y212D01*
X0Y211D02*
X7Y211D01*
X2446Y211D02*
X2453Y211D01*
X0Y210D02*
X7Y210D01*
X2446Y210D02*
X2453Y210D01*
X0Y209D02*
X7Y209D01*
X2446Y209D02*
X2453Y209D01*
X0Y208D02*
X7Y208D01*
X2446Y208D02*
X2453Y208D01*
X0Y207D02*
X7Y207D01*
X2446Y207D02*
X2453Y207D01*
X0Y206D02*
X7Y206D01*
X2446Y206D02*
X2453Y206D01*
X0Y205D02*
X7Y205D01*
X2446Y205D02*
X2453Y205D01*
X0Y204D02*
X7Y204D01*
X2446Y204D02*
X2453Y204D01*
X0Y203D02*
X7Y203D01*
X2446Y203D02*
X2453Y203D01*
X0Y202D02*
X7Y202D01*
X2446Y202D02*
X2453Y202D01*
X0Y201D02*
X7Y201D01*
X2446Y201D02*
X2453Y201D01*
X0Y200D02*
X7Y200D01*
X2446Y200D02*
X2453Y200D01*
X0Y199D02*
X7Y199D01*
X2446Y199D02*
X2453Y199D01*
X0Y198D02*
X7Y198D01*
X2446Y198D02*
X2453Y198D01*
X0Y197D02*
X7Y197D01*
X2446Y197D02*
X2453Y197D01*
X0Y196D02*
X7Y196D01*
X2446Y196D02*
X2453Y196D01*
X0Y195D02*
X7Y195D01*
X2446Y195D02*
X2453Y195D01*
X0Y194D02*
X7Y194D01*
X2446Y194D02*
X2453Y194D01*
X0Y193D02*
X7Y193D01*
X2446Y193D02*
X2453Y193D01*
X0Y192D02*
X7Y192D01*
X2446Y192D02*
X2453Y192D01*
X0Y191D02*
X7Y191D01*
X2446Y191D02*
X2453Y191D01*
X0Y190D02*
X7Y190D01*
X2446Y190D02*
X2453Y190D01*
X0Y189D02*
X7Y189D01*
X2446Y189D02*
X2453Y189D01*
X0Y188D02*
X7Y188D01*
X2446Y188D02*
X2453Y188D01*
X0Y187D02*
X7Y187D01*
X2446Y187D02*
X2453Y187D01*
X0Y186D02*
X7Y186D01*
X2446Y186D02*
X2453Y186D01*
X0Y185D02*
X7Y185D01*
X2446Y185D02*
X2453Y185D01*
X0Y184D02*
X7Y184D01*
X2446Y184D02*
X2453Y184D01*
X0Y183D02*
X7Y183D01*
X2446Y183D02*
X2453Y183D01*
X0Y182D02*
X7Y182D01*
X2446Y182D02*
X2453Y182D01*
X0Y181D02*
X7Y181D01*
X2446Y181D02*
X2453Y181D01*
X0Y180D02*
X7Y180D01*
X2446Y180D02*
X2453Y180D01*
X0Y179D02*
X7Y179D01*
X2446Y179D02*
X2453Y179D01*
X0Y178D02*
X7Y178D01*
X2446Y178D02*
X2453Y178D01*
X0Y177D02*
X7Y177D01*
X2446Y177D02*
X2453Y177D01*
X0Y176D02*
X7Y176D01*
X2446Y176D02*
X2453Y176D01*
X0Y175D02*
X7Y175D01*
X2446Y175D02*
X2453Y175D01*
X0Y174D02*
X7Y174D01*
X2446Y174D02*
X2453Y174D01*
X0Y173D02*
X7Y173D01*
X2446Y173D02*
X2453Y173D01*
X0Y172D02*
X7Y172D01*
X2446Y172D02*
X2453Y172D01*
X0Y171D02*
X7Y171D01*
X2446Y171D02*
X2453Y171D01*
X0Y170D02*
X7Y170D01*
X2446Y170D02*
X2453Y170D01*
X0Y169D02*
X7Y169D01*
X2446Y169D02*
X2453Y169D01*
X0Y168D02*
X7Y168D01*
X2446Y168D02*
X2453Y168D01*
X0Y167D02*
X7Y167D01*
X2446Y167D02*
X2453Y167D01*
X0Y166D02*
X7Y166D01*
X2446Y166D02*
X2453Y166D01*
X0Y165D02*
X7Y165D01*
X2446Y165D02*
X2453Y165D01*
X0Y164D02*
X7Y164D01*
X2446Y164D02*
X2453Y164D01*
X0Y163D02*
X7Y163D01*
X2446Y163D02*
X2453Y163D01*
X0Y162D02*
X7Y162D01*
X2446Y162D02*
X2453Y162D01*
X0Y161D02*
X7Y161D01*
X2446Y161D02*
X2453Y161D01*
X0Y160D02*
X7Y160D01*
X2446Y160D02*
X2453Y160D01*
X0Y159D02*
X7Y159D01*
X2446Y159D02*
X2453Y159D01*
X0Y158D02*
X7Y158D01*
X2446Y158D02*
X2453Y158D01*
X0Y157D02*
X7Y157D01*
X2446Y157D02*
X2453Y157D01*
X0Y156D02*
X7Y156D01*
X2446Y156D02*
X2453Y156D01*
X0Y155D02*
X7Y155D01*
X2446Y155D02*
X2453Y155D01*
X0Y154D02*
X7Y154D01*
X2446Y154D02*
X2453Y154D01*
X0Y153D02*
X7Y153D01*
X2446Y153D02*
X2453Y153D01*
X0Y152D02*
X7Y152D01*
X2446Y152D02*
X2453Y152D01*
X0Y151D02*
X7Y151D01*
X2446Y151D02*
X2453Y151D01*
X0Y150D02*
X7Y150D01*
X2446Y150D02*
X2453Y150D01*
X0Y149D02*
X7Y149D01*
X2446Y149D02*
X2453Y149D01*
X0Y148D02*
X7Y148D01*
X2446Y148D02*
X2453Y148D01*
X0Y147D02*
X7Y147D01*
X2446Y147D02*
X2453Y147D01*
X0Y146D02*
X7Y146D01*
X2446Y146D02*
X2453Y146D01*
X0Y145D02*
X7Y145D01*
X2446Y145D02*
X2453Y145D01*
X0Y144D02*
X7Y144D01*
X2446Y144D02*
X2453Y144D01*
X0Y143D02*
X7Y143D01*
X2446Y143D02*
X2453Y143D01*
X0Y142D02*
X7Y142D01*
X2446Y142D02*
X2453Y142D01*
X0Y141D02*
X7Y141D01*
X2446Y141D02*
X2453Y141D01*
X0Y140D02*
X7Y140D01*
X2446Y140D02*
X2453Y140D01*
X0Y139D02*
X7Y139D01*
X2446Y139D02*
X2453Y139D01*
X0Y138D02*
X7Y138D01*
X2446Y138D02*
X2453Y138D01*
X0Y137D02*
X7Y137D01*
X2446Y137D02*
X2453Y137D01*
X0Y136D02*
X7Y136D01*
X2446Y136D02*
X2453Y136D01*
X0Y135D02*
X7Y135D01*
X2446Y135D02*
X2453Y135D01*
X0Y134D02*
X7Y134D01*
X2446Y134D02*
X2453Y134D01*
X0Y133D02*
X7Y133D01*
X2446Y133D02*
X2453Y133D01*
X0Y132D02*
X7Y132D01*
X2446Y132D02*
X2453Y132D01*
X0Y131D02*
X7Y131D01*
X2446Y131D02*
X2453Y131D01*
X0Y130D02*
X7Y130D01*
X2446Y130D02*
X2453Y130D01*
X0Y129D02*
X7Y129D01*
X2446Y129D02*
X2453Y129D01*
X0Y128D02*
X7Y128D01*
X2446Y128D02*
X2453Y128D01*
X0Y127D02*
X7Y127D01*
X2446Y127D02*
X2453Y127D01*
X0Y126D02*
X7Y126D01*
X2446Y126D02*
X2453Y126D01*
X0Y125D02*
X7Y125D01*
X2446Y125D02*
X2453Y125D01*
X0Y124D02*
X7Y124D01*
X2446Y124D02*
X2453Y124D01*
X0Y123D02*
X7Y123D01*
X2446Y123D02*
X2453Y123D01*
X0Y122D02*
X7Y122D01*
X2446Y122D02*
X2453Y122D01*
X0Y121D02*
X7Y121D01*
X2446Y121D02*
X2453Y121D01*
X0Y120D02*
X7Y120D01*
X2446Y120D02*
X2453Y120D01*
X0Y119D02*
X7Y119D01*
X2446Y119D02*
X2453Y119D01*
X0Y118D02*
X7Y118D01*
X2446Y118D02*
X2453Y118D01*
X0Y117D02*
X7Y117D01*
X2446Y117D02*
X2453Y117D01*
X0Y116D02*
X7Y116D01*
X2446Y116D02*
X2453Y116D01*
X0Y115D02*
X7Y115D01*
X2446Y115D02*
X2453Y115D01*
X0Y114D02*
X7Y114D01*
X2446Y114D02*
X2453Y114D01*
X0Y113D02*
X7Y113D01*
X2446Y113D02*
X2453Y113D01*
X0Y112D02*
X7Y112D01*
X2446Y112D02*
X2453Y112D01*
X0Y111D02*
X7Y111D01*
X2446Y111D02*
X2453Y111D01*
X0Y110D02*
X7Y110D01*
X2446Y110D02*
X2453Y110D01*
X0Y109D02*
X7Y109D01*
X2446Y109D02*
X2453Y109D01*
X0Y108D02*
X7Y108D01*
X2446Y108D02*
X2453Y108D01*
X0Y107D02*
X7Y107D01*
X2446Y107D02*
X2453Y107D01*
X0Y106D02*
X7Y106D01*
X2446Y106D02*
X2453Y106D01*
X0Y105D02*
X7Y105D01*
X2446Y105D02*
X2453Y105D01*
X0Y104D02*
X7Y104D01*
X2446Y104D02*
X2453Y104D01*
X0Y103D02*
X7Y103D01*
X2446Y103D02*
X2453Y103D01*
X0Y102D02*
X7Y102D01*
X2446Y102D02*
X2453Y102D01*
X0Y101D02*
X7Y101D01*
X2446Y101D02*
X2453Y101D01*
X0Y100D02*
X7Y100D01*
X2446Y100D02*
X2453Y100D01*
X0Y99D02*
X7Y99D01*
X2446Y99D02*
X2453Y99D01*
X0Y98D02*
X7Y98D01*
X2446Y98D02*
X2453Y98D01*
X0Y97D02*
X7Y97D01*
X2446Y97D02*
X2453Y97D01*
X0Y96D02*
X7Y96D01*
X2446Y96D02*
X2453Y96D01*
X0Y95D02*
X7Y95D01*
X2446Y95D02*
X2453Y95D01*
X0Y94D02*
X7Y94D01*
X2446Y94D02*
X2453Y94D01*
X0Y93D02*
X7Y93D01*
X2446Y93D02*
X2453Y93D01*
X0Y92D02*
X7Y92D01*
X2446Y92D02*
X2453Y92D01*
X0Y91D02*
X7Y91D01*
X2446Y91D02*
X2453Y91D01*
X0Y90D02*
X7Y90D01*
X2446Y90D02*
X2453Y90D01*
X0Y89D02*
X7Y89D01*
X2446Y89D02*
X2453Y89D01*
X0Y88D02*
X7Y88D01*
X2446Y88D02*
X2453Y88D01*
X0Y87D02*
X7Y87D01*
X2446Y87D02*
X2453Y87D01*
X0Y86D02*
X7Y86D01*
X2446Y86D02*
X2453Y86D01*
X0Y85D02*
X7Y85D01*
X2446Y85D02*
X2453Y85D01*
X0Y84D02*
X7Y84D01*
X2446Y84D02*
X2453Y84D01*
X0Y83D02*
X7Y83D01*
X2446Y83D02*
X2453Y83D01*
X0Y82D02*
X7Y82D01*
X2446Y82D02*
X2453Y82D01*
X0Y81D02*
X7Y81D01*
X2446Y81D02*
X2453Y81D01*
X0Y80D02*
X7Y80D01*
X2446Y80D02*
X2453Y80D01*
X0Y79D02*
X7Y79D01*
X2446Y79D02*
X2453Y79D01*
X0Y78D02*
X7Y78D01*
X2446Y78D02*
X2453Y78D01*
X0Y77D02*
X7Y77D01*
X2446Y77D02*
X2453Y77D01*
X0Y76D02*
X7Y76D01*
X2446Y76D02*
X2453Y76D01*
X0Y75D02*
X7Y75D01*
X2446Y75D02*
X2453Y75D01*
X0Y74D02*
X7Y74D01*
X2446Y74D02*
X2453Y74D01*
X0Y73D02*
X7Y73D01*
X2446Y73D02*
X2453Y73D01*
X0Y72D02*
X7Y72D01*
X2446Y72D02*
X2453Y72D01*
X0Y71D02*
X7Y71D01*
X2446Y71D02*
X2453Y71D01*
X0Y70D02*
X7Y70D01*
X2446Y70D02*
X2453Y70D01*
X0Y69D02*
X7Y69D01*
X2446Y69D02*
X2453Y69D01*
X0Y68D02*
X7Y68D01*
X2446Y68D02*
X2453Y68D01*
X0Y67D02*
X7Y67D01*
X2446Y67D02*
X2453Y67D01*
X0Y66D02*
X7Y66D01*
X2446Y66D02*
X2453Y66D01*
X0Y65D02*
X7Y65D01*
X2446Y65D02*
X2453Y65D01*
X0Y64D02*
X7Y64D01*
X2446Y64D02*
X2453Y64D01*
X0Y63D02*
X7Y63D01*
X2446Y63D02*
X2453Y63D01*
X0Y62D02*
X7Y62D01*
X2446Y62D02*
X2453Y62D01*
X0Y61D02*
X7Y61D01*
X2446Y61D02*
X2453Y61D01*
X0Y60D02*
X7Y60D01*
X2446Y60D02*
X2453Y60D01*
X0Y59D02*
X7Y59D01*
X2446Y59D02*
X2453Y59D01*
X0Y58D02*
X7Y58D01*
X2446Y58D02*
X2453Y58D01*
X0Y57D02*
X7Y57D01*
X2446Y57D02*
X2453Y57D01*
X0Y56D02*
X7Y56D01*
X2446Y56D02*
X2453Y56D01*
X0Y55D02*
X7Y55D01*
X2446Y55D02*
X2453Y55D01*
X0Y54D02*
X7Y54D01*
X2446Y54D02*
X2453Y54D01*
X0Y53D02*
X7Y53D01*
X2446Y53D02*
X2453Y53D01*
X0Y52D02*
X7Y52D01*
X2446Y52D02*
X2453Y52D01*
X0Y51D02*
X7Y51D01*
X2446Y51D02*
X2453Y51D01*
X0Y50D02*
X7Y50D01*
X2446Y50D02*
X2453Y50D01*
X0Y49D02*
X7Y49D01*
X2446Y49D02*
X2453Y49D01*
X0Y48D02*
X7Y48D01*
X2446Y48D02*
X2453Y48D01*
X0Y47D02*
X7Y47D01*
X2446Y47D02*
X2453Y47D01*
X0Y46D02*
X7Y46D01*
X2446Y46D02*
X2453Y46D01*
X0Y45D02*
X7Y45D01*
X2446Y45D02*
X2453Y45D01*
X0Y44D02*
X7Y44D01*
X2446Y44D02*
X2453Y44D01*
X0Y43D02*
X7Y43D01*
X2446Y43D02*
X2453Y43D01*
X0Y42D02*
X7Y42D01*
X2446Y42D02*
X2453Y42D01*
X0Y41D02*
X7Y41D01*
X2446Y41D02*
X2453Y41D01*
X0Y40D02*
X7Y40D01*
X2446Y40D02*
X2453Y40D01*
X0Y39D02*
X7Y39D01*
X2446Y39D02*
X2453Y39D01*
X0Y38D02*
X7Y38D01*
X2446Y38D02*
X2453Y38D01*
X0Y37D02*
X7Y37D01*
X2446Y37D02*
X2453Y37D01*
X0Y36D02*
X7Y36D01*
X2446Y36D02*
X2453Y36D01*
X0Y35D02*
X7Y35D01*
X2446Y35D02*
X2453Y35D01*
X0Y34D02*
X7Y34D01*
X2446Y34D02*
X2453Y34D01*
X0Y33D02*
X7Y33D01*
X2446Y33D02*
X2453Y33D01*
X0Y32D02*
X7Y32D01*
X2446Y32D02*
X2453Y32D01*
X0Y31D02*
X7Y31D01*
X2446Y31D02*
X2453Y31D01*
X0Y30D02*
X7Y30D01*
X2446Y30D02*
X2453Y30D01*
X0Y29D02*
X7Y29D01*
X2446Y29D02*
X2453Y29D01*
X0Y28D02*
X7Y28D01*
X2446Y28D02*
X2453Y28D01*
X0Y27D02*
X7Y27D01*
X2446Y27D02*
X2453Y27D01*
X0Y26D02*
X7Y26D01*
X2446Y26D02*
X2453Y26D01*
X0Y25D02*
X7Y25D01*
X2446Y25D02*
X2453Y25D01*
X0Y24D02*
X7Y24D01*
X2446Y24D02*
X2453Y24D01*
X0Y23D02*
X7Y23D01*
X2446Y23D02*
X2453Y23D01*
X0Y22D02*
X7Y22D01*
X2446Y22D02*
X2453Y22D01*
X0Y21D02*
X7Y21D01*
X2446Y21D02*
X2453Y21D01*
X0Y20D02*
X7Y20D01*
X2446Y20D02*
X2453Y20D01*
X0Y19D02*
X7Y19D01*
X2446Y19D02*
X2453Y19D01*
X0Y18D02*
X7Y18D01*
X2446Y18D02*
X2453Y18D01*
X0Y17D02*
X7Y17D01*
X2446Y17D02*
X2453Y17D01*
X0Y16D02*
X7Y16D01*
X2446Y16D02*
X2453Y16D01*
X0Y15D02*
X7Y15D01*
X2446Y15D02*
X2453Y15D01*
X0Y14D02*
X7Y14D01*
X2446Y14D02*
X2453Y14D01*
X0Y13D02*
X7Y13D01*
X2446Y13D02*
X2453Y13D01*
X0Y12D02*
X7Y12D01*
X2446Y12D02*
X2453Y12D01*
X0Y11D02*
X7Y11D01*
X2446Y11D02*
X2453Y11D01*
X0Y10D02*
X7Y10D01*
X2446Y10D02*
X2453Y10D01*
X0Y9D02*
X1202Y9D01*
X1225Y9D02*
X1458Y9D01*
X1481Y9D02*
X2453Y9D01*
X0Y8D02*
X1206Y8D01*
X1221Y8D02*
X1462Y8D01*
X1477Y8D02*
X2453Y8D01*
X0Y7D02*
X2453Y7D01*
X0Y6D02*
X2453Y6D01*
X0Y5D02*
X2453Y5D01*
X0Y4D02*
X2453Y4D01*
X0Y3D02*
X2453Y3D01*
X0Y2D02*
X2453Y2D01*
D02*
G04 End of Silk0*
M02*