; NON-PLATED HOLES START AT T1
; THROUGH (PLATED) HOLES START AT T100
M48
INCH
T100C0.035000
T101C0.015748
T102C0.038000
%
T100
X012143Y000481
X014702Y000481
X012143Y002253
X014702Y002253
T101
X013991Y006015
X014981Y009002
X021977Y004503
X003969Y010007
X000975Y006007
X010978Y008501
X019479Y009499
X002984Y009002
X017979Y003013
X013978Y010001
X001971Y007001
X021977Y009499
T102
X018977Y012001
X012977Y012001
X014977Y012001
X016977Y012001
X023977Y001001
X021977Y001001
X020977Y006001
X018977Y004001
X016977Y004001
X014977Y004001
X012977Y004001
X019977Y012001
X022977Y001001
X020977Y012001
X023977Y012001
X009977Y005001
X007977Y011001
X003977Y011001
X005977Y011001
X001977Y011001
X008977Y011001
X002977Y011001
X004977Y011001
X006977Y011001
X009977Y011001
X009977Y003001
X020977Y007001
X010977Y011001
X011977Y011001
X017977Y011001
X013977Y011001
X015977Y011001
X018977Y011001
X012977Y011001
X014977Y011001
X016977Y011001
X020977Y005001
X019977Y011001
X009977Y006001
X007977Y012001
X003977Y012001
X005977Y012001
X001977Y012001
X008977Y012001
X002977Y012001
X004977Y012001
X006977Y012001
X020977Y011001
X017977Y001001
X009977Y012001
X023977Y011001
X018977Y001001
X016977Y001001
X009977Y004001
X020977Y008001
X019977Y001001
X010977Y012001
X011977Y012001
X017977Y012001
X013977Y012001
X015977Y012001
X017977Y004001
X015977Y004001
X013977Y004001
X011977Y004001
T00
M30
