G04 MADE WITH FRITZING*
G04 WWW.FRITZING.ORG*
G04 DOUBLE SIDED*
G04 HOLES PLATED*
G04 CONTOUR ON CENTER OF CONTOUR VECTOR*
%ASAXBY*%
%FSLAX23Y23*%
%MOIN*%
%OFA0B0*%
%SFA1.0B1.0*%
%ADD10C,0.039370*%
%ADD11C,0.078000*%
%ADD12C,0.075000*%
%ADD13R,0.078000X0.078000*%
%ADD14C,0.024000*%
%LNCOPPER1*%
G90*
G70*
G54D10*
X2198Y950D03*
X2198Y450D03*
X197Y700D03*
X1948Y950D03*
G54D11*
X2398Y1100D03*
X2398Y1200D03*
X1798Y100D03*
X1698Y100D03*
X1998Y100D03*
X1898Y100D03*
X998Y600D03*
X998Y500D03*
X998Y400D03*
X998Y300D03*
X1198Y400D03*
X1298Y400D03*
X1398Y400D03*
X1498Y400D03*
X1598Y400D03*
X1698Y400D03*
X1798Y400D03*
X1898Y400D03*
X2098Y800D03*
X2098Y700D03*
X2098Y600D03*
X2098Y500D03*
X198Y1200D03*
X198Y1100D03*
X1598Y1200D03*
X1598Y1100D03*
X1398Y1200D03*
X1398Y1100D03*
X1698Y1200D03*
X1698Y1100D03*
X1498Y1200D03*
X1498Y1100D03*
X1798Y1200D03*
X1798Y1100D03*
X1298Y1200D03*
X1298Y1100D03*
X1998Y1200D03*
X1998Y1100D03*
X1898Y1200D03*
X1898Y1100D03*
X2098Y1200D03*
X2098Y1100D03*
X598Y1200D03*
X598Y1100D03*
X698Y1200D03*
X698Y1100D03*
X498Y1200D03*
X498Y1100D03*
X298Y1200D03*
X298Y1100D03*
X398Y1200D03*
X398Y1100D03*
X1198Y1200D03*
X1198Y1100D03*
X1098Y1200D03*
X1098Y1100D03*
X998Y1200D03*
X998Y1100D03*
X798Y1200D03*
X798Y1100D03*
X898Y1200D03*
X898Y1100D03*
X2198Y100D03*
X2298Y100D03*
X2398Y100D03*
G54D10*
X298Y900D03*
X1498Y900D03*
X397Y1001D03*
X1398Y1000D03*
X98Y601D03*
X1399Y602D03*
X1098Y850D03*
G54D12*
X1470Y48D03*
X1214Y48D03*
X1470Y225D03*
X1214Y225D03*
G54D10*
X1798Y301D03*
G54D13*
X2198Y100D03*
G54D14*
X123Y1206D02*
X168Y1202D01*
D02*
X1929Y950D02*
X123Y946D01*
D02*
X123Y946D02*
X123Y1206D01*
D02*
X2198Y469D02*
X2198Y931D01*
D02*
X1418Y602D02*
X2068Y600D01*
D02*
X1798Y282D02*
X1798Y130D01*
D02*
X2098Y470D02*
X2097Y301D01*
D02*
X2097Y301D02*
X1817Y301D01*
D02*
X1697Y301D02*
X1698Y130D01*
D02*
X1398Y370D02*
X1398Y301D01*
D02*
X1398Y301D02*
X1697Y301D01*
D02*
X1197Y801D02*
X2068Y800D01*
D02*
X1198Y430D02*
X1197Y801D01*
D02*
X595Y1278D02*
X597Y1230D01*
D02*
X52Y1277D02*
X595Y1278D01*
D02*
X968Y503D02*
X116Y599D01*
D02*
X416Y1001D02*
X1379Y1000D01*
D02*
X317Y900D02*
X1479Y900D01*
D02*
X1297Y301D02*
X1298Y370D01*
D02*
X1028Y300D02*
X1297Y301D01*
D02*
X1297Y699D02*
X2068Y700D01*
D02*
X1298Y430D02*
X1297Y699D01*
D02*
X1177Y421D02*
X1019Y579D01*
D02*
X48Y500D02*
X52Y1277D01*
D02*
X968Y403D02*
X48Y500D01*
D02*
X216Y698D02*
X968Y604D01*
D02*
X1117Y850D02*
X1998Y851D01*
D02*
X1998Y851D02*
X1998Y1070D01*
G04 End of Copper1*
M02*