; NON-PLATED HOLES START AT T1
; THROUGH (PLATED) HOLES START AT T100
M48
INCH
T100C0.015748
T101C0.038000
%
T100
X013991Y005399
X019479Y008884
X001971Y006386
X021977Y008884
X014981Y008386
X010990Y002388
X000975Y005392
X021977Y003888
X010978Y007886
X013978Y009386
X003969Y009391
X002984Y008386
X013478Y000885
T101
X018977Y004386
X016977Y004386
X014977Y004386
X010977Y010386
X012977Y010386
X011977Y010386
X019977Y010386
X017977Y010386
X013977Y010386
X015977Y010386
X009977Y005386
X018977Y010386
X014977Y010386
X016977Y010386
X020977Y004386
X002977Y011386
X007977Y011386
X009977Y011386
X003977Y011386
X005977Y011386
X001977Y011386
X009977Y003386
X008977Y011386
X004977Y011386
X006977Y011386
X020977Y010386
X023977Y010386
X020977Y007386
X010977Y011386
X012977Y011386
X011977Y011386
X019977Y011386
X017977Y011386
X013977Y011386
X015977Y011386
X009977Y006386
X018977Y011386
X014977Y011386
X016977Y011386
X020977Y005386
X009977Y004386
X020977Y011386
X019977Y001385
X017977Y001385
X002977Y010386
X018977Y001385
X016977Y001385
X023977Y011386
X007977Y010386
X009977Y010386
X003977Y010386
X005977Y010386
X001977Y010386
X008977Y010386
X004977Y010386
X006977Y010386
X012977Y004386
X022977Y001385
X017977Y004386
X015977Y004386
X013977Y004386
X011977Y004386
X023977Y001385
X021977Y001385
X020977Y006386
T00
M30
