G04 MADE WITH FRITZING*
G04 WWW.FRITZING.ORG*
G04 DOUBLE SIDED*
G04 HOLES PLATED*
G04 CONTOUR ON CENTER OF CONTOUR VECTOR*
%ASAXBY*%
%FSLAX23Y23*%
%MOIN*%
%OFA0B0*%
%SFA1.0B1.0*%
%ADD10C,0.039370*%
%ADD11C,0.078000*%
%ADD12C,0.075000*%
%ADD13R,0.078000X0.078000*%
%ADD14C,0.024000*%
%LNCOPPER0*%
G90*
G70*
G54D10*
X2198Y950D03*
X2198Y450D03*
X197Y700D03*
X1948Y950D03*
G54D11*
X2398Y1100D03*
X2398Y1200D03*
X1798Y100D03*
X1698Y100D03*
X1998Y100D03*
X1898Y100D03*
X998Y600D03*
X998Y500D03*
X998Y400D03*
X998Y300D03*
X1198Y400D03*
X1298Y400D03*
X1398Y400D03*
X1498Y400D03*
X1598Y400D03*
X1698Y400D03*
X1798Y400D03*
X1898Y400D03*
X2098Y800D03*
X2098Y700D03*
X2098Y600D03*
X2098Y500D03*
X198Y1200D03*
X198Y1100D03*
X1598Y1200D03*
X1598Y1100D03*
X1398Y1200D03*
X1398Y1100D03*
X1698Y1200D03*
X1698Y1100D03*
X1498Y1200D03*
X1498Y1100D03*
X1798Y1200D03*
X1798Y1100D03*
X1298Y1200D03*
X1298Y1100D03*
X1998Y1200D03*
X1998Y1100D03*
X1898Y1200D03*
X1898Y1100D03*
X2098Y1200D03*
X2098Y1100D03*
X598Y1200D03*
X598Y1100D03*
X698Y1200D03*
X698Y1100D03*
X498Y1200D03*
X498Y1100D03*
X298Y1200D03*
X298Y1100D03*
X398Y1200D03*
X398Y1100D03*
X1198Y1200D03*
X1198Y1100D03*
X1098Y1200D03*
X1098Y1100D03*
X998Y1200D03*
X998Y1100D03*
X798Y1200D03*
X798Y1100D03*
X898Y1200D03*
X898Y1100D03*
X2198Y100D03*
X2298Y100D03*
X2398Y100D03*
G54D10*
X298Y900D03*
X1498Y900D03*
X397Y1001D03*
X1398Y1000D03*
X98Y601D03*
X1399Y602D03*
X1098Y850D03*
G54D12*
X1470Y48D03*
X1214Y48D03*
X1470Y225D03*
X1214Y225D03*
G54D10*
X1798Y301D03*
G54D13*
X2198Y100D03*
G54D14*
X2297Y331D02*
X2210Y436D01*
D02*
X2298Y130D02*
X2297Y331D01*
D02*
X198Y1070D02*
X197Y719D01*
D02*
X2179Y950D02*
X1967Y950D01*
D02*
X2398Y200D02*
X2398Y130D01*
D02*
X2398Y1070D02*
X2398Y200D01*
D02*
X2297Y700D02*
X2128Y700D01*
D02*
X2297Y1199D02*
X2297Y700D01*
D02*
X2368Y1200D02*
X2297Y1199D01*
D02*
X1997Y700D02*
X2068Y700D01*
D02*
X1998Y130D02*
X1997Y700D01*
D02*
X1798Y800D02*
X1798Y1070D01*
D02*
X1798Y430D02*
X1798Y800D01*
D02*
X1898Y800D02*
X1898Y1070D01*
D02*
X1898Y430D02*
X1898Y800D01*
D02*
X1499Y301D02*
X1798Y301D01*
D02*
X1498Y500D02*
X1499Y301D01*
D02*
X1498Y430D02*
X1498Y500D01*
D02*
X1498Y881D02*
X1498Y430D01*
D02*
X298Y1070D02*
X298Y919D01*
D02*
X1398Y999D02*
X1398Y430D01*
D02*
X1396Y981D02*
X1398Y999D01*
D02*
X398Y1070D02*
X397Y1020D01*
D02*
X598Y400D02*
X969Y307D01*
D02*
X598Y1070D02*
X598Y400D01*
D02*
X477Y1278D02*
X490Y1229D01*
D02*
X98Y620D02*
X100Y1278D01*
D02*
X100Y1278D02*
X477Y1278D01*
D02*
X1398Y599D02*
X1398Y430D01*
D02*
X1389Y585D02*
X1398Y599D01*
D02*
X1115Y50D02*
X1098Y831D01*
D02*
X1186Y49D02*
X1115Y50D01*
D02*
X1212Y254D02*
X1201Y370D01*
D02*
X1493Y307D02*
X1496Y370D01*
D02*
X1779Y302D02*
X1493Y307D01*
D02*
X1896Y215D02*
X1499Y225D01*
D02*
X1897Y130D02*
X1896Y215D01*
G04 End of Copper0*
M02*