G04 MADE WITH FRITZING*
G04 WWW.FRITZING.ORG*
G04 DOUBLE SIDED*
G04 HOLES PLATED*
G04 CONTOUR ON CENTER OF CONTOUR VECTOR*
%ASAXBY*%
%FSLAX23Y23*%
%MOIN*%
%OFA0B0*%
%SFA1.0B1.0*%
%ADD10C,0.010000*%
%ADD11C,0.005000*%
%ADD12R,0.001000X0.001000*%
%LNSILK1*%
G90*
G70*
G54D10*
X2448Y1050D02*
X2448Y1250D01*
D02*
X2448Y1250D02*
X2348Y1250D01*
D02*
X2348Y1250D02*
X2348Y1050D01*
D02*
X2348Y1050D02*
X2448Y1050D01*
G54D11*
D02*
X2448Y1085D02*
X2413Y1050D01*
G54D10*
D02*
X1848Y150D02*
X1648Y150D01*
D02*
X1648Y150D02*
X1648Y50D01*
D02*
X1648Y50D02*
X1848Y50D01*
D02*
X1848Y50D02*
X1848Y150D01*
G54D11*
D02*
X1813Y150D02*
X1848Y115D01*
G54D10*
D02*
X2048Y150D02*
X1848Y150D01*
D02*
X1848Y150D02*
X1848Y50D01*
D02*
X1848Y50D02*
X2048Y50D01*
D02*
X2048Y50D02*
X2048Y150D01*
G54D11*
D02*
X2013Y150D02*
X2048Y115D01*
G54D10*
D02*
X948Y650D02*
X948Y450D01*
D02*
X948Y450D02*
X1048Y450D01*
D02*
X1048Y450D02*
X1048Y650D01*
D02*
X1048Y650D02*
X948Y650D01*
G54D11*
D02*
X948Y615D02*
X983Y650D01*
G54D10*
D02*
X948Y450D02*
X948Y250D01*
D02*
X948Y250D02*
X1048Y250D01*
D02*
X1048Y250D02*
X1048Y450D01*
D02*
X1048Y450D02*
X948Y450D01*
G54D11*
D02*
X948Y415D02*
X983Y450D01*
G54D10*
D02*
X1148Y350D02*
X1348Y350D01*
D02*
X1348Y350D02*
X1348Y450D01*
D02*
X1348Y450D02*
X1148Y450D01*
D02*
X1148Y450D02*
X1148Y350D01*
G54D11*
D02*
X1183Y350D02*
X1148Y385D01*
G54D10*
D02*
X1348Y350D02*
X1548Y350D01*
D02*
X1548Y350D02*
X1548Y450D01*
D02*
X1548Y450D02*
X1348Y450D01*
D02*
X1348Y450D02*
X1348Y350D01*
G54D11*
D02*
X1383Y350D02*
X1348Y385D01*
G54D10*
D02*
X1548Y350D02*
X1748Y350D01*
D02*
X1748Y350D02*
X1748Y450D01*
D02*
X1748Y450D02*
X1548Y450D01*
D02*
X1548Y450D02*
X1548Y350D01*
G54D11*
D02*
X1583Y350D02*
X1548Y385D01*
G54D10*
D02*
X1748Y350D02*
X1948Y350D01*
D02*
X1948Y350D02*
X1948Y450D01*
D02*
X1948Y450D02*
X1748Y450D01*
D02*
X1748Y450D02*
X1748Y350D01*
G54D11*
D02*
X1783Y350D02*
X1748Y385D01*
G54D10*
D02*
X2048Y850D02*
X2048Y650D01*
D02*
X2048Y650D02*
X2148Y650D01*
D02*
X2148Y650D02*
X2148Y850D01*
D02*
X2148Y850D02*
X2048Y850D01*
G54D11*
D02*
X2048Y815D02*
X2083Y850D01*
G54D10*
D02*
X2048Y650D02*
X2048Y450D01*
D02*
X2048Y450D02*
X2148Y450D01*
D02*
X2148Y450D02*
X2148Y650D01*
D02*
X2148Y650D02*
X2048Y650D01*
G54D11*
D02*
X2048Y615D02*
X2083Y650D01*
G54D10*
D02*
X148Y1250D02*
X148Y1050D01*
D02*
X148Y1050D02*
X248Y1050D01*
D02*
X248Y1050D02*
X248Y1250D01*
D02*
X248Y1250D02*
X148Y1250D01*
G54D11*
D02*
X148Y1215D02*
X183Y1250D01*
G54D10*
D02*
X1548Y1250D02*
X1548Y1050D01*
D02*
X1548Y1050D02*
X1648Y1050D01*
D02*
X1648Y1050D02*
X1648Y1250D01*
D02*
X1648Y1250D02*
X1548Y1250D01*
G54D11*
D02*
X1548Y1215D02*
X1583Y1250D01*
G54D10*
D02*
X1348Y1250D02*
X1348Y1050D01*
D02*
X1348Y1050D02*
X1448Y1050D01*
D02*
X1448Y1050D02*
X1448Y1250D01*
D02*
X1448Y1250D02*
X1348Y1250D01*
G54D11*
D02*
X1348Y1215D02*
X1383Y1250D01*
G54D10*
D02*
X1648Y1250D02*
X1648Y1050D01*
D02*
X1648Y1050D02*
X1748Y1050D01*
D02*
X1748Y1050D02*
X1748Y1250D01*
D02*
X1748Y1250D02*
X1648Y1250D01*
G54D11*
D02*
X1648Y1215D02*
X1683Y1250D01*
G54D10*
D02*
X1448Y1250D02*
X1448Y1050D01*
D02*
X1448Y1050D02*
X1548Y1050D01*
D02*
X1548Y1050D02*
X1548Y1250D01*
D02*
X1548Y1250D02*
X1448Y1250D01*
G54D11*
D02*
X1448Y1215D02*
X1483Y1250D01*
G54D10*
D02*
X1748Y1250D02*
X1748Y1050D01*
D02*
X1748Y1050D02*
X1848Y1050D01*
D02*
X1848Y1050D02*
X1848Y1250D01*
D02*
X1848Y1250D02*
X1748Y1250D01*
G54D11*
D02*
X1748Y1215D02*
X1783Y1250D01*
G54D10*
D02*
X1248Y1250D02*
X1248Y1050D01*
D02*
X1248Y1050D02*
X1348Y1050D01*
D02*
X1348Y1050D02*
X1348Y1250D01*
D02*
X1348Y1250D02*
X1248Y1250D01*
G54D11*
D02*
X1248Y1215D02*
X1283Y1250D01*
G54D10*
D02*
X1948Y1250D02*
X1948Y1050D01*
D02*
X1948Y1050D02*
X2048Y1050D01*
D02*
X2048Y1050D02*
X2048Y1250D01*
D02*
X2048Y1250D02*
X1948Y1250D01*
G54D11*
D02*
X1948Y1215D02*
X1983Y1250D01*
G54D10*
D02*
X1848Y1250D02*
X1848Y1050D01*
D02*
X1848Y1050D02*
X1948Y1050D01*
D02*
X1948Y1050D02*
X1948Y1250D01*
D02*
X1948Y1250D02*
X1848Y1250D01*
G54D11*
D02*
X1848Y1215D02*
X1883Y1250D01*
G54D10*
D02*
X2048Y1250D02*
X2048Y1050D01*
D02*
X2048Y1050D02*
X2148Y1050D01*
D02*
X2148Y1050D02*
X2148Y1250D01*
D02*
X2148Y1250D02*
X2048Y1250D01*
G54D11*
D02*
X2048Y1215D02*
X2083Y1250D01*
G54D10*
D02*
X548Y1250D02*
X548Y1050D01*
D02*
X548Y1050D02*
X648Y1050D01*
D02*
X648Y1050D02*
X648Y1250D01*
D02*
X648Y1250D02*
X548Y1250D01*
G54D11*
D02*
X548Y1215D02*
X583Y1250D01*
G54D10*
D02*
X648Y1250D02*
X648Y1050D01*
D02*
X648Y1050D02*
X748Y1050D01*
D02*
X748Y1050D02*
X748Y1250D01*
D02*
X748Y1250D02*
X648Y1250D01*
G54D11*
D02*
X648Y1215D02*
X683Y1250D01*
G54D10*
D02*
X448Y1250D02*
X448Y1050D01*
D02*
X448Y1050D02*
X548Y1050D01*
D02*
X548Y1050D02*
X548Y1250D01*
D02*
X548Y1250D02*
X448Y1250D01*
G54D11*
D02*
X448Y1215D02*
X483Y1250D01*
G54D10*
D02*
X248Y1250D02*
X248Y1050D01*
D02*
X248Y1050D02*
X348Y1050D01*
D02*
X348Y1050D02*
X348Y1250D01*
D02*
X348Y1250D02*
X248Y1250D01*
G54D11*
D02*
X248Y1215D02*
X283Y1250D01*
G54D10*
D02*
X348Y1250D02*
X348Y1050D01*
D02*
X348Y1050D02*
X448Y1050D01*
D02*
X448Y1050D02*
X448Y1250D01*
D02*
X448Y1250D02*
X348Y1250D01*
G54D11*
D02*
X348Y1215D02*
X383Y1250D01*
G54D10*
D02*
X1148Y1250D02*
X1148Y1050D01*
D02*
X1148Y1050D02*
X1248Y1050D01*
D02*
X1248Y1050D02*
X1248Y1250D01*
D02*
X1248Y1250D02*
X1148Y1250D01*
G54D11*
D02*
X1148Y1215D02*
X1183Y1250D01*
G54D10*
D02*
X1048Y1250D02*
X1048Y1050D01*
D02*
X1048Y1050D02*
X1148Y1050D01*
D02*
X1148Y1050D02*
X1148Y1250D01*
D02*
X1148Y1250D02*
X1048Y1250D01*
G54D11*
D02*
X1048Y1215D02*
X1083Y1250D01*
G54D10*
D02*
X948Y1250D02*
X948Y1050D01*
D02*
X948Y1050D02*
X1048Y1050D01*
D02*
X1048Y1050D02*
X1048Y1250D01*
D02*
X1048Y1250D02*
X948Y1250D01*
G54D11*
D02*
X948Y1215D02*
X983Y1250D01*
G54D10*
D02*
X748Y1250D02*
X748Y1050D01*
D02*
X748Y1050D02*
X848Y1050D01*
D02*
X848Y1050D02*
X848Y1250D01*
D02*
X848Y1250D02*
X748Y1250D01*
G54D11*
D02*
X748Y1215D02*
X783Y1250D01*
G54D10*
D02*
X848Y1250D02*
X848Y1050D01*
D02*
X848Y1050D02*
X948Y1050D01*
D02*
X948Y1050D02*
X948Y1250D01*
D02*
X948Y1250D02*
X848Y1250D01*
G54D11*
D02*
X848Y1215D02*
X883Y1250D01*
G54D10*
D02*
X2148Y50D02*
X2448Y50D01*
D02*
X2448Y50D02*
X2448Y150D01*
D02*
X2448Y150D02*
X2148Y150D01*
D02*
X2148Y150D02*
X2148Y50D01*
D02*
X1460Y176D02*
X1460Y97D01*
D02*
X1264Y255D02*
X1431Y255D01*
D02*
X1264Y19D02*
X1431Y19D01*
D02*
X1224Y176D02*
X1224Y97D01*
D02*
X1342Y156D02*
X1342Y117D01*
D02*
X1362Y137D02*
X1323Y137D01*
G54D12*
X0Y1336D02*
X2453Y1336D01*
X0Y1335D02*
X2453Y1335D01*
X0Y1334D02*
X2453Y1334D01*
X0Y1333D02*
X2453Y1333D01*
X0Y1332D02*
X2453Y1332D01*
X0Y1331D02*
X2453Y1331D01*
X0Y1330D02*
X2453Y1330D01*
X0Y1329D02*
X2453Y1329D01*
X0Y1328D02*
X7Y1328D01*
X2446Y1328D02*
X2453Y1328D01*
X0Y1327D02*
X7Y1327D01*
X2446Y1327D02*
X2453Y1327D01*
X0Y1326D02*
X7Y1326D01*
X2446Y1326D02*
X2453Y1326D01*
X0Y1325D02*
X7Y1325D01*
X2446Y1325D02*
X2453Y1325D01*
X0Y1324D02*
X7Y1324D01*
X2446Y1324D02*
X2453Y1324D01*
X0Y1323D02*
X7Y1323D01*
X2446Y1323D02*
X2453Y1323D01*
X0Y1322D02*
X7Y1322D01*
X2446Y1322D02*
X2453Y1322D01*
X0Y1321D02*
X7Y1321D01*
X2446Y1321D02*
X2453Y1321D01*
X0Y1320D02*
X7Y1320D01*
X2446Y1320D02*
X2453Y1320D01*
X0Y1319D02*
X7Y1319D01*
X2446Y1319D02*
X2453Y1319D01*
X0Y1318D02*
X7Y1318D01*
X2446Y1318D02*
X2453Y1318D01*
X0Y1317D02*
X7Y1317D01*
X2446Y1317D02*
X2453Y1317D01*
X0Y1316D02*
X7Y1316D01*
X2446Y1316D02*
X2453Y1316D01*
X0Y1315D02*
X7Y1315D01*
X2446Y1315D02*
X2453Y1315D01*
X0Y1314D02*
X7Y1314D01*
X2446Y1314D02*
X2453Y1314D01*
X0Y1313D02*
X7Y1313D01*
X2446Y1313D02*
X2453Y1313D01*
X0Y1312D02*
X7Y1312D01*
X2446Y1312D02*
X2453Y1312D01*
X0Y1311D02*
X7Y1311D01*
X2446Y1311D02*
X2453Y1311D01*
X0Y1310D02*
X7Y1310D01*
X2446Y1310D02*
X2453Y1310D01*
X0Y1309D02*
X7Y1309D01*
X2446Y1309D02*
X2453Y1309D01*
X0Y1308D02*
X7Y1308D01*
X2446Y1308D02*
X2453Y1308D01*
X0Y1307D02*
X7Y1307D01*
X2446Y1307D02*
X2453Y1307D01*
X0Y1306D02*
X7Y1306D01*
X2446Y1306D02*
X2453Y1306D01*
X0Y1305D02*
X7Y1305D01*
X2446Y1305D02*
X2453Y1305D01*
X0Y1304D02*
X7Y1304D01*
X2446Y1304D02*
X2453Y1304D01*
X0Y1303D02*
X7Y1303D01*
X2446Y1303D02*
X2453Y1303D01*
X0Y1302D02*
X7Y1302D01*
X2446Y1302D02*
X2453Y1302D01*
X0Y1301D02*
X7Y1301D01*
X2446Y1301D02*
X2453Y1301D01*
X0Y1300D02*
X7Y1300D01*
X2446Y1300D02*
X2453Y1300D01*
X0Y1299D02*
X7Y1299D01*
X2446Y1299D02*
X2453Y1299D01*
X0Y1298D02*
X7Y1298D01*
X2446Y1298D02*
X2453Y1298D01*
X0Y1297D02*
X7Y1297D01*
X2446Y1297D02*
X2453Y1297D01*
X0Y1296D02*
X7Y1296D01*
X2446Y1296D02*
X2453Y1296D01*
X0Y1295D02*
X7Y1295D01*
X2446Y1295D02*
X2453Y1295D01*
X0Y1294D02*
X7Y1294D01*
X2446Y1294D02*
X2453Y1294D01*
X0Y1293D02*
X7Y1293D01*
X2446Y1293D02*
X2453Y1293D01*
X0Y1292D02*
X7Y1292D01*
X2446Y1292D02*
X2453Y1292D01*
X0Y1291D02*
X7Y1291D01*
X2446Y1291D02*
X2453Y1291D01*
X0Y1290D02*
X7Y1290D01*
X2446Y1290D02*
X2453Y1290D01*
X0Y1289D02*
X7Y1289D01*
X2446Y1289D02*
X2453Y1289D01*
X0Y1288D02*
X7Y1288D01*
X2446Y1288D02*
X2453Y1288D01*
X0Y1287D02*
X7Y1287D01*
X2446Y1287D02*
X2453Y1287D01*
X0Y1286D02*
X7Y1286D01*
X2446Y1286D02*
X2453Y1286D01*
X0Y1285D02*
X7Y1285D01*
X2446Y1285D02*
X2453Y1285D01*
X0Y1284D02*
X7Y1284D01*
X2446Y1284D02*
X2453Y1284D01*
X0Y1283D02*
X7Y1283D01*
X2446Y1283D02*
X2453Y1283D01*
X0Y1282D02*
X7Y1282D01*
X2446Y1282D02*
X2453Y1282D01*
X0Y1281D02*
X7Y1281D01*
X2446Y1281D02*
X2453Y1281D01*
X0Y1280D02*
X7Y1280D01*
X2446Y1280D02*
X2453Y1280D01*
X0Y1279D02*
X7Y1279D01*
X2446Y1279D02*
X2453Y1279D01*
X0Y1278D02*
X7Y1278D01*
X2446Y1278D02*
X2453Y1278D01*
X0Y1277D02*
X7Y1277D01*
X2446Y1277D02*
X2453Y1277D01*
X0Y1276D02*
X7Y1276D01*
X2446Y1276D02*
X2453Y1276D01*
X0Y1275D02*
X7Y1275D01*
X2446Y1275D02*
X2453Y1275D01*
X0Y1274D02*
X7Y1274D01*
X2446Y1274D02*
X2453Y1274D01*
X0Y1273D02*
X7Y1273D01*
X2446Y1273D02*
X2453Y1273D01*
X0Y1272D02*
X7Y1272D01*
X2446Y1272D02*
X2453Y1272D01*
X0Y1271D02*
X7Y1271D01*
X2446Y1271D02*
X2453Y1271D01*
X0Y1270D02*
X7Y1270D01*
X2446Y1270D02*
X2453Y1270D01*
X0Y1269D02*
X7Y1269D01*
X2446Y1269D02*
X2453Y1269D01*
X0Y1268D02*
X7Y1268D01*
X2446Y1268D02*
X2453Y1268D01*
X0Y1267D02*
X7Y1267D01*
X2446Y1267D02*
X2453Y1267D01*
X0Y1266D02*
X7Y1266D01*
X64Y1266D02*
X68Y1266D01*
X2446Y1266D02*
X2453Y1266D01*
X0Y1265D02*
X7Y1265D01*
X64Y1265D02*
X69Y1265D01*
X2446Y1265D02*
X2453Y1265D01*
X0Y1264D02*
X7Y1264D01*
X63Y1264D02*
X69Y1264D01*
X2446Y1264D02*
X2453Y1264D01*
X0Y1263D02*
X7Y1263D01*
X63Y1263D02*
X69Y1263D01*
X2446Y1263D02*
X2453Y1263D01*
X0Y1262D02*
X7Y1262D01*
X62Y1262D02*
X69Y1262D01*
X2446Y1262D02*
X2453Y1262D01*
X0Y1261D02*
X7Y1261D01*
X62Y1261D02*
X69Y1261D01*
X2446Y1261D02*
X2453Y1261D01*
X0Y1260D02*
X7Y1260D01*
X61Y1260D02*
X68Y1260D01*
X84Y1260D02*
X113Y1260D01*
X2446Y1260D02*
X2453Y1260D01*
X0Y1259D02*
X7Y1259D01*
X61Y1259D02*
X68Y1259D01*
X84Y1259D02*
X114Y1259D01*
X2446Y1259D02*
X2453Y1259D01*
X0Y1258D02*
X7Y1258D01*
X61Y1258D02*
X67Y1258D01*
X84Y1258D02*
X114Y1258D01*
X2446Y1258D02*
X2453Y1258D01*
X0Y1257D02*
X7Y1257D01*
X61Y1257D02*
X67Y1257D01*
X84Y1257D02*
X114Y1257D01*
X2446Y1257D02*
X2453Y1257D01*
X0Y1256D02*
X7Y1256D01*
X60Y1256D02*
X66Y1256D01*
X84Y1256D02*
X114Y1256D01*
X2446Y1256D02*
X2453Y1256D01*
X0Y1255D02*
X7Y1255D01*
X60Y1255D02*
X66Y1255D01*
X84Y1255D02*
X114Y1255D01*
X2446Y1255D02*
X2453Y1255D01*
X0Y1254D02*
X7Y1254D01*
X60Y1254D02*
X66Y1254D01*
X84Y1254D02*
X114Y1254D01*
X2446Y1254D02*
X2453Y1254D01*
X0Y1253D02*
X7Y1253D01*
X60Y1253D02*
X66Y1253D01*
X84Y1253D02*
X90Y1253D01*
X107Y1253D02*
X114Y1253D01*
X2446Y1253D02*
X2453Y1253D01*
X0Y1252D02*
X7Y1252D01*
X60Y1252D02*
X66Y1252D01*
X84Y1252D02*
X90Y1252D01*
X108Y1252D02*
X114Y1252D01*
X2446Y1252D02*
X2453Y1252D01*
X0Y1251D02*
X7Y1251D01*
X60Y1251D02*
X66Y1251D01*
X84Y1251D02*
X90Y1251D01*
X108Y1251D02*
X114Y1251D01*
X2446Y1251D02*
X2453Y1251D01*
X0Y1250D02*
X7Y1250D01*
X60Y1250D02*
X66Y1250D01*
X84Y1250D02*
X90Y1250D01*
X108Y1250D02*
X114Y1250D01*
X2446Y1250D02*
X2453Y1250D01*
X0Y1249D02*
X7Y1249D01*
X60Y1249D02*
X66Y1249D01*
X84Y1249D02*
X90Y1249D01*
X108Y1249D02*
X114Y1249D01*
X2446Y1249D02*
X2453Y1249D01*
X0Y1248D02*
X7Y1248D01*
X60Y1248D02*
X66Y1248D01*
X84Y1248D02*
X90Y1248D01*
X108Y1248D02*
X114Y1248D01*
X2446Y1248D02*
X2453Y1248D01*
X0Y1247D02*
X7Y1247D01*
X60Y1247D02*
X66Y1247D01*
X84Y1247D02*
X90Y1247D01*
X108Y1247D02*
X114Y1247D01*
X2446Y1247D02*
X2453Y1247D01*
X0Y1246D02*
X7Y1246D01*
X60Y1246D02*
X66Y1246D01*
X84Y1246D02*
X90Y1246D01*
X108Y1246D02*
X114Y1246D01*
X2446Y1246D02*
X2453Y1246D01*
X0Y1245D02*
X7Y1245D01*
X60Y1245D02*
X66Y1245D01*
X84Y1245D02*
X90Y1245D01*
X108Y1245D02*
X114Y1245D01*
X2446Y1245D02*
X2453Y1245D01*
X0Y1244D02*
X7Y1244D01*
X60Y1244D02*
X66Y1244D01*
X84Y1244D02*
X90Y1244D01*
X108Y1244D02*
X114Y1244D01*
X2446Y1244D02*
X2453Y1244D01*
X0Y1243D02*
X7Y1243D01*
X60Y1243D02*
X66Y1243D01*
X84Y1243D02*
X90Y1243D01*
X108Y1243D02*
X114Y1243D01*
X2446Y1243D02*
X2453Y1243D01*
X0Y1242D02*
X7Y1242D01*
X60Y1242D02*
X66Y1242D01*
X84Y1242D02*
X90Y1242D01*
X108Y1242D02*
X114Y1242D01*
X2446Y1242D02*
X2453Y1242D01*
X0Y1241D02*
X7Y1241D01*
X60Y1241D02*
X66Y1241D01*
X84Y1241D02*
X90Y1241D01*
X108Y1241D02*
X114Y1241D01*
X2446Y1241D02*
X2453Y1241D01*
X0Y1240D02*
X7Y1240D01*
X60Y1240D02*
X66Y1240D01*
X84Y1240D02*
X90Y1240D01*
X108Y1240D02*
X114Y1240D01*
X2446Y1240D02*
X2453Y1240D01*
X0Y1239D02*
X7Y1239D01*
X60Y1239D02*
X90Y1239D01*
X108Y1239D02*
X114Y1239D01*
X2446Y1239D02*
X2453Y1239D01*
X0Y1238D02*
X7Y1238D01*
X61Y1238D02*
X90Y1238D01*
X108Y1238D02*
X114Y1238D01*
X2446Y1238D02*
X2453Y1238D01*
X0Y1237D02*
X7Y1237D01*
X61Y1237D02*
X90Y1237D01*
X108Y1237D02*
X114Y1237D01*
X2446Y1237D02*
X2453Y1237D01*
X0Y1236D02*
X7Y1236D01*
X61Y1236D02*
X89Y1236D01*
X108Y1236D02*
X114Y1236D01*
X2446Y1236D02*
X2453Y1236D01*
X0Y1235D02*
X7Y1235D01*
X62Y1235D02*
X88Y1235D01*
X108Y1235D02*
X113Y1235D01*
X2446Y1235D02*
X2453Y1235D01*
X0Y1234D02*
X7Y1234D01*
X63Y1234D02*
X87Y1234D01*
X108Y1234D02*
X113Y1234D01*
X2446Y1234D02*
X2453Y1234D01*
X0Y1233D02*
X7Y1233D01*
X65Y1233D02*
X86Y1233D01*
X109Y1233D02*
X112Y1233D01*
X2446Y1233D02*
X2453Y1233D01*
X0Y1232D02*
X7Y1232D01*
X2446Y1232D02*
X2453Y1232D01*
X0Y1231D02*
X7Y1231D01*
X2446Y1231D02*
X2453Y1231D01*
X0Y1230D02*
X7Y1230D01*
X2446Y1230D02*
X2453Y1230D01*
X0Y1229D02*
X7Y1229D01*
X2446Y1229D02*
X2453Y1229D01*
X0Y1228D02*
X7Y1228D01*
X2446Y1228D02*
X2453Y1228D01*
X0Y1227D02*
X7Y1227D01*
X2446Y1227D02*
X2453Y1227D01*
X0Y1226D02*
X7Y1226D01*
X2446Y1226D02*
X2453Y1226D01*
X0Y1225D02*
X7Y1225D01*
X2446Y1225D02*
X2453Y1225D01*
X0Y1224D02*
X7Y1224D01*
X2446Y1224D02*
X2453Y1224D01*
X0Y1223D02*
X7Y1223D01*
X2446Y1223D02*
X2453Y1223D01*
X0Y1222D02*
X7Y1222D01*
X2446Y1222D02*
X2453Y1222D01*
X0Y1221D02*
X7Y1221D01*
X2446Y1221D02*
X2453Y1221D01*
X0Y1220D02*
X7Y1220D01*
X2446Y1220D02*
X2453Y1220D01*
X0Y1219D02*
X7Y1219D01*
X2446Y1219D02*
X2453Y1219D01*
X0Y1218D02*
X7Y1218D01*
X2446Y1218D02*
X2453Y1218D01*
X0Y1217D02*
X7Y1217D01*
X2446Y1217D02*
X2453Y1217D01*
X0Y1216D02*
X7Y1216D01*
X88Y1216D02*
X98Y1216D01*
X2446Y1216D02*
X2453Y1216D01*
X0Y1215D02*
X7Y1215D01*
X85Y1215D02*
X98Y1215D01*
X2446Y1215D02*
X2453Y1215D01*
X0Y1214D02*
X7Y1214D01*
X83Y1214D02*
X99Y1214D01*
X2294Y1214D02*
X2299Y1214D01*
X2446Y1214D02*
X2453Y1214D01*
X0Y1213D02*
X7Y1213D01*
X81Y1213D02*
X99Y1213D01*
X2293Y1213D02*
X2300Y1213D01*
X2446Y1213D02*
X2453Y1213D01*
X0Y1212D02*
X7Y1212D01*
X79Y1212D02*
X98Y1212D01*
X2292Y1212D02*
X2301Y1212D01*
X2446Y1212D02*
X2453Y1212D01*
X0Y1211D02*
X7Y1211D01*
X76Y1211D02*
X98Y1211D01*
X2292Y1211D02*
X2301Y1211D01*
X2446Y1211D02*
X2453Y1211D01*
X0Y1210D02*
X7Y1210D01*
X74Y1210D02*
X96Y1210D01*
X2292Y1210D02*
X2301Y1210D01*
X2446Y1210D02*
X2453Y1210D01*
X0Y1209D02*
X7Y1209D01*
X72Y1209D02*
X88Y1209D01*
X2292Y1209D02*
X2301Y1209D01*
X2446Y1209D02*
X2453Y1209D01*
X0Y1208D02*
X7Y1208D01*
X69Y1208D02*
X86Y1208D01*
X2292Y1208D02*
X2301Y1208D01*
X2446Y1208D02*
X2453Y1208D01*
X0Y1207D02*
X7Y1207D01*
X67Y1207D02*
X84Y1207D01*
X2292Y1207D02*
X2301Y1207D01*
X2446Y1207D02*
X2453Y1207D01*
X0Y1206D02*
X7Y1206D01*
X65Y1206D02*
X81Y1206D01*
X2292Y1206D02*
X2301Y1206D01*
X2446Y1206D02*
X2453Y1206D01*
X0Y1205D02*
X7Y1205D01*
X63Y1205D02*
X79Y1205D01*
X2292Y1205D02*
X2301Y1205D01*
X2446Y1205D02*
X2453Y1205D01*
X0Y1204D02*
X7Y1204D01*
X61Y1204D02*
X77Y1204D01*
X2292Y1204D02*
X2301Y1204D01*
X2446Y1204D02*
X2453Y1204D01*
X0Y1203D02*
X7Y1203D01*
X61Y1203D02*
X74Y1203D01*
X2292Y1203D02*
X2301Y1203D01*
X2446Y1203D02*
X2453Y1203D01*
X0Y1202D02*
X7Y1202D01*
X60Y1202D02*
X72Y1202D01*
X2292Y1202D02*
X2301Y1202D01*
X2446Y1202D02*
X2453Y1202D01*
X0Y1201D02*
X7Y1201D01*
X60Y1201D02*
X70Y1201D01*
X2292Y1201D02*
X2301Y1201D01*
X2446Y1201D02*
X2453Y1201D01*
X0Y1200D02*
X7Y1200D01*
X60Y1200D02*
X67Y1200D01*
X2292Y1200D02*
X2301Y1200D01*
X2446Y1200D02*
X2453Y1200D01*
X0Y1199D02*
X7Y1199D01*
X60Y1199D02*
X68Y1199D01*
X2292Y1199D02*
X2301Y1199D01*
X2446Y1199D02*
X2453Y1199D01*
X0Y1198D02*
X7Y1198D01*
X60Y1198D02*
X70Y1198D01*
X2292Y1198D02*
X2301Y1198D01*
X2446Y1198D02*
X2453Y1198D01*
X0Y1197D02*
X7Y1197D01*
X60Y1197D02*
X73Y1197D01*
X2292Y1197D02*
X2301Y1197D01*
X2446Y1197D02*
X2453Y1197D01*
X0Y1196D02*
X7Y1196D01*
X61Y1196D02*
X75Y1196D01*
X2292Y1196D02*
X2301Y1196D01*
X2446Y1196D02*
X2453Y1196D01*
X0Y1195D02*
X7Y1195D01*
X61Y1195D02*
X77Y1195D01*
X2292Y1195D02*
X2301Y1195D01*
X2446Y1195D02*
X2453Y1195D01*
X0Y1194D02*
X7Y1194D01*
X63Y1194D02*
X79Y1194D01*
X2292Y1194D02*
X2301Y1194D01*
X2446Y1194D02*
X2453Y1194D01*
X0Y1193D02*
X7Y1193D01*
X65Y1193D02*
X82Y1193D01*
X2292Y1193D02*
X2301Y1193D01*
X2446Y1193D02*
X2453Y1193D01*
X0Y1192D02*
X7Y1192D01*
X68Y1192D02*
X84Y1192D01*
X2292Y1192D02*
X2301Y1192D01*
X2446Y1192D02*
X2453Y1192D01*
X0Y1191D02*
X7Y1191D01*
X70Y1191D02*
X86Y1191D01*
X2292Y1191D02*
X2301Y1191D01*
X2446Y1191D02*
X2453Y1191D01*
X0Y1190D02*
X7Y1190D01*
X72Y1190D02*
X89Y1190D01*
X2292Y1190D02*
X2301Y1190D01*
X2446Y1190D02*
X2453Y1190D01*
X0Y1189D02*
X7Y1189D01*
X74Y1189D02*
X97Y1189D01*
X2292Y1189D02*
X2301Y1189D01*
X2446Y1189D02*
X2453Y1189D01*
X0Y1188D02*
X7Y1188D01*
X77Y1188D02*
X98Y1188D01*
X2292Y1188D02*
X2301Y1188D01*
X2446Y1188D02*
X2453Y1188D01*
X0Y1187D02*
X7Y1187D01*
X79Y1187D02*
X99Y1187D01*
X2292Y1187D02*
X2301Y1187D01*
X2446Y1187D02*
X2453Y1187D01*
X0Y1186D02*
X7Y1186D01*
X81Y1186D02*
X99Y1186D01*
X2292Y1186D02*
X2301Y1186D01*
X2446Y1186D02*
X2453Y1186D01*
X0Y1185D02*
X7Y1185D01*
X84Y1185D02*
X99Y1185D01*
X2292Y1185D02*
X2301Y1185D01*
X2446Y1185D02*
X2453Y1185D01*
X0Y1184D02*
X7Y1184D01*
X86Y1184D02*
X98Y1184D01*
X2292Y1184D02*
X2301Y1184D01*
X2446Y1184D02*
X2453Y1184D01*
X0Y1183D02*
X7Y1183D01*
X88Y1183D02*
X97Y1183D01*
X2292Y1183D02*
X2301Y1183D01*
X2446Y1183D02*
X2453Y1183D01*
X0Y1182D02*
X7Y1182D01*
X2292Y1182D02*
X2300Y1182D01*
X2446Y1182D02*
X2453Y1182D01*
X0Y1181D02*
X7Y1181D01*
X2293Y1181D02*
X2300Y1181D01*
X2446Y1181D02*
X2453Y1181D01*
X0Y1180D02*
X7Y1180D01*
X2295Y1180D02*
X2298Y1180D01*
X2446Y1180D02*
X2453Y1180D01*
X0Y1179D02*
X7Y1179D01*
X2446Y1179D02*
X2453Y1179D01*
X0Y1178D02*
X7Y1178D01*
X2446Y1178D02*
X2453Y1178D01*
X0Y1177D02*
X7Y1177D01*
X2446Y1177D02*
X2453Y1177D01*
X0Y1176D02*
X7Y1176D01*
X2446Y1176D02*
X2453Y1176D01*
X0Y1175D02*
X7Y1175D01*
X2446Y1175D02*
X2453Y1175D01*
X0Y1174D02*
X7Y1174D01*
X2446Y1174D02*
X2453Y1174D01*
X0Y1173D02*
X7Y1173D01*
X2446Y1173D02*
X2453Y1173D01*
X0Y1172D02*
X7Y1172D01*
X2446Y1172D02*
X2453Y1172D01*
X0Y1171D02*
X7Y1171D01*
X2446Y1171D02*
X2453Y1171D01*
X0Y1170D02*
X7Y1170D01*
X2446Y1170D02*
X2453Y1170D01*
X0Y1169D02*
X7Y1169D01*
X2446Y1169D02*
X2453Y1169D01*
X0Y1168D02*
X7Y1168D01*
X2446Y1168D02*
X2453Y1168D01*
X0Y1167D02*
X7Y1167D01*
X2446Y1167D02*
X2453Y1167D01*
X0Y1166D02*
X7Y1166D01*
X62Y1166D02*
X65Y1166D01*
X2446Y1166D02*
X2453Y1166D01*
X0Y1165D02*
X7Y1165D01*
X61Y1165D02*
X67Y1165D01*
X2446Y1165D02*
X2453Y1165D01*
X0Y1164D02*
X7Y1164D01*
X61Y1164D02*
X69Y1164D01*
X2273Y1164D02*
X2275Y1164D01*
X2446Y1164D02*
X2453Y1164D01*
X0Y1163D02*
X7Y1163D01*
X60Y1163D02*
X70Y1163D01*
X2272Y1163D02*
X2277Y1163D01*
X2446Y1163D02*
X2453Y1163D01*
X0Y1162D02*
X7Y1162D01*
X61Y1162D02*
X72Y1162D01*
X2271Y1162D02*
X2279Y1162D01*
X2446Y1162D02*
X2453Y1162D01*
X0Y1161D02*
X7Y1161D01*
X61Y1161D02*
X74Y1161D01*
X2271Y1161D02*
X2280Y1161D01*
X2446Y1161D02*
X2453Y1161D01*
X0Y1160D02*
X7Y1160D01*
X62Y1160D02*
X75Y1160D01*
X2271Y1160D02*
X2282Y1160D01*
X2446Y1160D02*
X2453Y1160D01*
X0Y1159D02*
X7Y1159D01*
X64Y1159D02*
X77Y1159D01*
X2272Y1159D02*
X2284Y1159D01*
X2446Y1159D02*
X2453Y1159D01*
X0Y1158D02*
X7Y1158D01*
X66Y1158D02*
X79Y1158D01*
X2273Y1158D02*
X2286Y1158D01*
X2446Y1158D02*
X2453Y1158D01*
X0Y1157D02*
X7Y1157D01*
X67Y1157D02*
X80Y1157D01*
X2274Y1157D02*
X2287Y1157D01*
X2446Y1157D02*
X2453Y1157D01*
X0Y1156D02*
X7Y1156D01*
X69Y1156D02*
X82Y1156D01*
X2276Y1156D02*
X2289Y1156D01*
X2446Y1156D02*
X2453Y1156D01*
X0Y1155D02*
X7Y1155D01*
X71Y1155D02*
X84Y1155D01*
X2278Y1155D02*
X2291Y1155D01*
X2446Y1155D02*
X2453Y1155D01*
X0Y1154D02*
X7Y1154D01*
X73Y1154D02*
X86Y1154D01*
X2279Y1154D02*
X2292Y1154D01*
X2446Y1154D02*
X2453Y1154D01*
X0Y1153D02*
X7Y1153D01*
X74Y1153D02*
X87Y1153D01*
X2281Y1153D02*
X2294Y1153D01*
X2446Y1153D02*
X2453Y1153D01*
X0Y1152D02*
X7Y1152D01*
X76Y1152D02*
X89Y1152D01*
X2283Y1152D02*
X2296Y1152D01*
X2446Y1152D02*
X2453Y1152D01*
X0Y1151D02*
X7Y1151D01*
X78Y1151D02*
X91Y1151D01*
X2285Y1151D02*
X2298Y1151D01*
X2446Y1151D02*
X2453Y1151D01*
X0Y1150D02*
X7Y1150D01*
X79Y1150D02*
X92Y1150D01*
X2286Y1150D02*
X2299Y1150D01*
X2446Y1150D02*
X2453Y1150D01*
X0Y1149D02*
X7Y1149D01*
X81Y1149D02*
X94Y1149D01*
X2288Y1149D02*
X2301Y1149D01*
X2446Y1149D02*
X2453Y1149D01*
X0Y1148D02*
X7Y1148D01*
X83Y1148D02*
X96Y1148D01*
X2290Y1148D02*
X2303Y1148D01*
X2446Y1148D02*
X2453Y1148D01*
X0Y1147D02*
X7Y1147D01*
X85Y1147D02*
X98Y1147D01*
X2291Y1147D02*
X2304Y1147D01*
X2446Y1147D02*
X2453Y1147D01*
X0Y1146D02*
X7Y1146D01*
X86Y1146D02*
X99Y1146D01*
X2293Y1146D02*
X2306Y1146D01*
X2446Y1146D02*
X2453Y1146D01*
X0Y1145D02*
X7Y1145D01*
X88Y1145D02*
X101Y1145D01*
X2295Y1145D02*
X2308Y1145D01*
X2446Y1145D02*
X2453Y1145D01*
X0Y1144D02*
X7Y1144D01*
X90Y1144D02*
X103Y1144D01*
X2297Y1144D02*
X2310Y1144D01*
X2446Y1144D02*
X2453Y1144D01*
X0Y1143D02*
X7Y1143D01*
X91Y1143D02*
X104Y1143D01*
X2298Y1143D02*
X2311Y1143D01*
X2446Y1143D02*
X2453Y1143D01*
X0Y1142D02*
X7Y1142D01*
X93Y1142D02*
X106Y1142D01*
X2300Y1142D02*
X2313Y1142D01*
X2446Y1142D02*
X2453Y1142D01*
X0Y1141D02*
X7Y1141D01*
X95Y1141D02*
X108Y1141D01*
X2302Y1141D02*
X2315Y1141D01*
X2446Y1141D02*
X2453Y1141D01*
X0Y1140D02*
X7Y1140D01*
X97Y1140D02*
X110Y1140D01*
X2303Y1140D02*
X2316Y1140D01*
X2446Y1140D02*
X2453Y1140D01*
X0Y1139D02*
X7Y1139D01*
X98Y1139D02*
X111Y1139D01*
X2305Y1139D02*
X2318Y1139D01*
X2446Y1139D02*
X2453Y1139D01*
X0Y1138D02*
X7Y1138D01*
X100Y1138D02*
X112Y1138D01*
X2307Y1138D02*
X2320Y1138D01*
X2446Y1138D02*
X2453Y1138D01*
X0Y1137D02*
X7Y1137D01*
X102Y1137D02*
X113Y1137D01*
X2309Y1137D02*
X2321Y1137D01*
X2446Y1137D02*
X2453Y1137D01*
X0Y1136D02*
X7Y1136D01*
X103Y1136D02*
X113Y1136D01*
X2310Y1136D02*
X2323Y1136D01*
X2446Y1136D02*
X2453Y1136D01*
X0Y1135D02*
X7Y1135D01*
X105Y1135D02*
X113Y1135D01*
X2312Y1135D02*
X2324Y1135D01*
X2446Y1135D02*
X2453Y1135D01*
X0Y1134D02*
X7Y1134D01*
X107Y1134D02*
X113Y1134D01*
X2314Y1134D02*
X2324Y1134D01*
X2446Y1134D02*
X2453Y1134D01*
X0Y1133D02*
X7Y1133D01*
X109Y1133D02*
X112Y1133D01*
X2315Y1133D02*
X2324Y1133D01*
X2446Y1133D02*
X2453Y1133D01*
X0Y1132D02*
X7Y1132D01*
X2317Y1132D02*
X2324Y1132D01*
X2446Y1132D02*
X2453Y1132D01*
X0Y1131D02*
X7Y1131D01*
X2319Y1131D02*
X2323Y1131D01*
X2446Y1131D02*
X2453Y1131D01*
X0Y1130D02*
X7Y1130D01*
X2321Y1130D02*
X2322Y1130D01*
X2446Y1130D02*
X2453Y1130D01*
X0Y1129D02*
X7Y1129D01*
X2446Y1129D02*
X2453Y1129D01*
X0Y1128D02*
X7Y1128D01*
X2446Y1128D02*
X2453Y1128D01*
X0Y1127D02*
X7Y1127D01*
X2446Y1127D02*
X2453Y1127D01*
X0Y1126D02*
X7Y1126D01*
X2446Y1126D02*
X2453Y1126D01*
X0Y1125D02*
X7Y1125D01*
X2446Y1125D02*
X2453Y1125D01*
X0Y1124D02*
X7Y1124D01*
X2446Y1124D02*
X2453Y1124D01*
X0Y1123D02*
X7Y1123D01*
X2446Y1123D02*
X2453Y1123D01*
X0Y1122D02*
X7Y1122D01*
X2446Y1122D02*
X2453Y1122D01*
X0Y1121D02*
X7Y1121D01*
X2446Y1121D02*
X2453Y1121D01*
X0Y1120D02*
X7Y1120D01*
X2446Y1120D02*
X2453Y1120D01*
X0Y1119D02*
X7Y1119D01*
X2446Y1119D02*
X2453Y1119D01*
X0Y1118D02*
X7Y1118D01*
X2446Y1118D02*
X2453Y1118D01*
X0Y1117D02*
X7Y1117D01*
X2446Y1117D02*
X2453Y1117D01*
X0Y1116D02*
X7Y1116D01*
X62Y1116D02*
X65Y1116D01*
X109Y1116D02*
X112Y1116D01*
X2446Y1116D02*
X2453Y1116D01*
X0Y1115D02*
X7Y1115D01*
X61Y1115D02*
X66Y1115D01*
X108Y1115D02*
X113Y1115D01*
X2446Y1115D02*
X2453Y1115D01*
X0Y1114D02*
X7Y1114D01*
X61Y1114D02*
X66Y1114D01*
X108Y1114D02*
X113Y1114D01*
X2446Y1114D02*
X2453Y1114D01*
X0Y1113D02*
X7Y1113D01*
X60Y1113D02*
X66Y1113D01*
X108Y1113D02*
X114Y1113D01*
X2296Y1113D02*
X2300Y1113D01*
X2446Y1113D02*
X2453Y1113D01*
X0Y1112D02*
X7Y1112D01*
X60Y1112D02*
X66Y1112D01*
X108Y1112D02*
X114Y1112D01*
X2295Y1112D02*
X2301Y1112D01*
X2446Y1112D02*
X2453Y1112D01*
X0Y1111D02*
X7Y1111D01*
X60Y1111D02*
X66Y1111D01*
X108Y1111D02*
X114Y1111D01*
X2295Y1111D02*
X2301Y1111D01*
X2446Y1111D02*
X2453Y1111D01*
X0Y1110D02*
X7Y1110D01*
X60Y1110D02*
X66Y1110D01*
X108Y1110D02*
X114Y1110D01*
X2295Y1110D02*
X2301Y1110D01*
X2446Y1110D02*
X2453Y1110D01*
X0Y1109D02*
X7Y1109D01*
X60Y1109D02*
X66Y1109D01*
X86Y1109D02*
X88Y1109D01*
X108Y1109D02*
X114Y1109D01*
X2295Y1109D02*
X2301Y1109D01*
X2446Y1109D02*
X2453Y1109D01*
X0Y1108D02*
X7Y1108D01*
X60Y1108D02*
X66Y1108D01*
X85Y1108D02*
X89Y1108D01*
X108Y1108D02*
X114Y1108D01*
X2295Y1108D02*
X2301Y1108D01*
X2446Y1108D02*
X2453Y1108D01*
X0Y1107D02*
X7Y1107D01*
X60Y1107D02*
X66Y1107D01*
X84Y1107D02*
X90Y1107D01*
X108Y1107D02*
X114Y1107D01*
X2295Y1107D02*
X2301Y1107D01*
X2446Y1107D02*
X2453Y1107D01*
X0Y1106D02*
X7Y1106D01*
X60Y1106D02*
X66Y1106D01*
X84Y1106D02*
X90Y1106D01*
X108Y1106D02*
X114Y1106D01*
X2295Y1106D02*
X2301Y1106D01*
X2446Y1106D02*
X2453Y1106D01*
X0Y1105D02*
X7Y1105D01*
X60Y1105D02*
X66Y1105D01*
X84Y1105D02*
X90Y1105D01*
X108Y1105D02*
X114Y1105D01*
X2295Y1105D02*
X2301Y1105D01*
X2446Y1105D02*
X2453Y1105D01*
X0Y1104D02*
X7Y1104D01*
X60Y1104D02*
X66Y1104D01*
X84Y1104D02*
X90Y1104D01*
X108Y1104D02*
X114Y1104D01*
X2295Y1104D02*
X2301Y1104D01*
X2446Y1104D02*
X2453Y1104D01*
X0Y1103D02*
X7Y1103D01*
X60Y1103D02*
X66Y1103D01*
X84Y1103D02*
X90Y1103D01*
X108Y1103D02*
X114Y1103D01*
X2295Y1103D02*
X2301Y1103D01*
X2446Y1103D02*
X2453Y1103D01*
X0Y1102D02*
X7Y1102D01*
X60Y1102D02*
X66Y1102D01*
X84Y1102D02*
X90Y1102D01*
X108Y1102D02*
X114Y1102D01*
X2295Y1102D02*
X2301Y1102D01*
X2446Y1102D02*
X2453Y1102D01*
X0Y1101D02*
X7Y1101D01*
X60Y1101D02*
X66Y1101D01*
X84Y1101D02*
X90Y1101D01*
X108Y1101D02*
X114Y1101D01*
X2295Y1101D02*
X2301Y1101D01*
X2446Y1101D02*
X2453Y1101D01*
X0Y1100D02*
X7Y1100D01*
X60Y1100D02*
X66Y1100D01*
X84Y1100D02*
X90Y1100D01*
X108Y1100D02*
X114Y1100D01*
X2283Y1100D02*
X2313Y1100D01*
X2446Y1100D02*
X2453Y1100D01*
X0Y1099D02*
X7Y1099D01*
X60Y1099D02*
X66Y1099D01*
X84Y1099D02*
X90Y1099D01*
X108Y1099D02*
X114Y1099D01*
X2282Y1099D02*
X2314Y1099D01*
X2446Y1099D02*
X2453Y1099D01*
X0Y1098D02*
X7Y1098D01*
X60Y1098D02*
X66Y1098D01*
X84Y1098D02*
X90Y1098D01*
X108Y1098D02*
X114Y1098D01*
X2281Y1098D02*
X2314Y1098D01*
X2446Y1098D02*
X2453Y1098D01*
X0Y1097D02*
X7Y1097D01*
X60Y1097D02*
X66Y1097D01*
X84Y1097D02*
X90Y1097D01*
X108Y1097D02*
X114Y1097D01*
X2281Y1097D02*
X2315Y1097D01*
X2446Y1097D02*
X2453Y1097D01*
X0Y1096D02*
X7Y1096D01*
X60Y1096D02*
X66Y1096D01*
X84Y1096D02*
X90Y1096D01*
X108Y1096D02*
X114Y1096D01*
X2281Y1096D02*
X2314Y1096D01*
X2446Y1096D02*
X2453Y1096D01*
X0Y1095D02*
X7Y1095D01*
X60Y1095D02*
X66Y1095D01*
X84Y1095D02*
X90Y1095D01*
X108Y1095D02*
X114Y1095D01*
X2282Y1095D02*
X2314Y1095D01*
X2446Y1095D02*
X2453Y1095D01*
X0Y1094D02*
X7Y1094D01*
X60Y1094D02*
X66Y1094D01*
X84Y1094D02*
X90Y1094D01*
X108Y1094D02*
X114Y1094D01*
X2283Y1094D02*
X2313Y1094D01*
X2446Y1094D02*
X2453Y1094D01*
X0Y1093D02*
X7Y1093D01*
X60Y1093D02*
X66Y1093D01*
X84Y1093D02*
X90Y1093D01*
X108Y1093D02*
X114Y1093D01*
X2295Y1093D02*
X2301Y1093D01*
X2446Y1093D02*
X2453Y1093D01*
X0Y1092D02*
X7Y1092D01*
X60Y1092D02*
X66Y1092D01*
X84Y1092D02*
X90Y1092D01*
X108Y1092D02*
X114Y1092D01*
X2295Y1092D02*
X2301Y1092D01*
X2446Y1092D02*
X2453Y1092D01*
X0Y1091D02*
X7Y1091D01*
X60Y1091D02*
X66Y1091D01*
X84Y1091D02*
X90Y1091D01*
X108Y1091D02*
X114Y1091D01*
X2295Y1091D02*
X2301Y1091D01*
X2446Y1091D02*
X2453Y1091D01*
X0Y1090D02*
X7Y1090D01*
X60Y1090D02*
X66Y1090D01*
X83Y1090D02*
X91Y1090D01*
X108Y1090D02*
X114Y1090D01*
X2295Y1090D02*
X2301Y1090D01*
X2446Y1090D02*
X2453Y1090D01*
X0Y1089D02*
X7Y1089D01*
X60Y1089D02*
X67Y1089D01*
X81Y1089D02*
X93Y1089D01*
X107Y1089D02*
X114Y1089D01*
X2295Y1089D02*
X2301Y1089D01*
X2446Y1089D02*
X2453Y1089D01*
X0Y1088D02*
X7Y1088D01*
X60Y1088D02*
X113Y1088D01*
X2295Y1088D02*
X2301Y1088D01*
X2446Y1088D02*
X2453Y1088D01*
X0Y1087D02*
X7Y1087D01*
X61Y1087D02*
X113Y1087D01*
X2295Y1087D02*
X2301Y1087D01*
X2446Y1087D02*
X2453Y1087D01*
X0Y1086D02*
X7Y1086D01*
X61Y1086D02*
X113Y1086D01*
X2295Y1086D02*
X2301Y1086D01*
X2446Y1086D02*
X2453Y1086D01*
X0Y1085D02*
X7Y1085D01*
X62Y1085D02*
X112Y1085D01*
X2295Y1085D02*
X2301Y1085D01*
X2446Y1085D02*
X2453Y1085D01*
X0Y1084D02*
X7Y1084D01*
X63Y1084D02*
X86Y1084D01*
X88Y1084D02*
X111Y1084D01*
X2295Y1084D02*
X2301Y1084D01*
X2446Y1084D02*
X2453Y1084D01*
X0Y1083D02*
X7Y1083D01*
X64Y1083D02*
X84Y1083D01*
X90Y1083D02*
X110Y1083D01*
X2295Y1083D02*
X2301Y1083D01*
X2446Y1083D02*
X2453Y1083D01*
X0Y1082D02*
X7Y1082D01*
X67Y1082D02*
X80Y1082D01*
X94Y1082D02*
X107Y1082D01*
X2295Y1082D02*
X2301Y1082D01*
X2446Y1082D02*
X2453Y1082D01*
X0Y1081D02*
X7Y1081D01*
X2296Y1081D02*
X2300Y1081D01*
X2446Y1081D02*
X2453Y1081D01*
X0Y1080D02*
X7Y1080D01*
X2297Y1080D02*
X2299Y1080D01*
X2446Y1080D02*
X2453Y1080D01*
X0Y1079D02*
X7Y1079D01*
X2446Y1079D02*
X2453Y1079D01*
X0Y1078D02*
X7Y1078D01*
X2446Y1078D02*
X2453Y1078D01*
X0Y1077D02*
X7Y1077D01*
X2446Y1077D02*
X2453Y1077D01*
X0Y1076D02*
X7Y1076D01*
X2446Y1076D02*
X2453Y1076D01*
X0Y1075D02*
X7Y1075D01*
X2446Y1075D02*
X2453Y1075D01*
X0Y1074D02*
X7Y1074D01*
X2446Y1074D02*
X2453Y1074D01*
X0Y1073D02*
X7Y1073D01*
X2446Y1073D02*
X2453Y1073D01*
X0Y1072D02*
X7Y1072D01*
X2446Y1072D02*
X2453Y1072D01*
X0Y1071D02*
X7Y1071D01*
X2446Y1071D02*
X2453Y1071D01*
X0Y1070D02*
X7Y1070D01*
X2446Y1070D02*
X2453Y1070D01*
X0Y1069D02*
X7Y1069D01*
X2446Y1069D02*
X2453Y1069D01*
X0Y1068D02*
X7Y1068D01*
X2446Y1068D02*
X2453Y1068D01*
X0Y1067D02*
X7Y1067D01*
X2446Y1067D02*
X2453Y1067D01*
X0Y1066D02*
X7Y1066D01*
X2446Y1066D02*
X2453Y1066D01*
X0Y1065D02*
X7Y1065D01*
X2446Y1065D02*
X2453Y1065D01*
X0Y1064D02*
X7Y1064D01*
X2446Y1064D02*
X2453Y1064D01*
X0Y1063D02*
X7Y1063D01*
X2446Y1063D02*
X2453Y1063D01*
X0Y1062D02*
X7Y1062D01*
X2446Y1062D02*
X2453Y1062D01*
X0Y1061D02*
X7Y1061D01*
X2446Y1061D02*
X2453Y1061D01*
X0Y1060D02*
X7Y1060D01*
X2446Y1060D02*
X2453Y1060D01*
X0Y1059D02*
X7Y1059D01*
X2446Y1059D02*
X2453Y1059D01*
X0Y1058D02*
X7Y1058D01*
X2446Y1058D02*
X2453Y1058D01*
X0Y1057D02*
X7Y1057D01*
X2446Y1057D02*
X2453Y1057D01*
X0Y1056D02*
X7Y1056D01*
X73Y1056D02*
X78Y1056D01*
X2446Y1056D02*
X2453Y1056D01*
X0Y1055D02*
X7Y1055D01*
X70Y1055D02*
X80Y1055D01*
X2446Y1055D02*
X2453Y1055D01*
X0Y1054D02*
X7Y1054D01*
X70Y1054D02*
X81Y1054D01*
X2446Y1054D02*
X2453Y1054D01*
X0Y1053D02*
X7Y1053D01*
X69Y1053D02*
X81Y1053D01*
X2446Y1053D02*
X2453Y1053D01*
X0Y1052D02*
X7Y1052D01*
X69Y1052D02*
X81Y1052D01*
X2446Y1052D02*
X2453Y1052D01*
X0Y1051D02*
X7Y1051D01*
X69Y1051D02*
X81Y1051D01*
X2446Y1051D02*
X2453Y1051D01*
X0Y1050D02*
X7Y1050D01*
X69Y1050D02*
X81Y1050D01*
X2446Y1050D02*
X2453Y1050D01*
X0Y1049D02*
X7Y1049D01*
X69Y1049D02*
X81Y1049D01*
X2446Y1049D02*
X2453Y1049D01*
X0Y1048D02*
X7Y1048D01*
X69Y1048D02*
X81Y1048D01*
X2446Y1048D02*
X2453Y1048D01*
X0Y1047D02*
X7Y1047D01*
X69Y1047D02*
X81Y1047D01*
X2446Y1047D02*
X2453Y1047D01*
X0Y1046D02*
X7Y1046D01*
X69Y1046D02*
X81Y1046D01*
X2446Y1046D02*
X2453Y1046D01*
X0Y1045D02*
X7Y1045D01*
X69Y1045D02*
X81Y1045D01*
X2446Y1045D02*
X2453Y1045D01*
X0Y1044D02*
X7Y1044D01*
X70Y1044D02*
X81Y1044D01*
X2446Y1044D02*
X2453Y1044D01*
X0Y1043D02*
X7Y1043D01*
X70Y1043D02*
X80Y1043D01*
X2446Y1043D02*
X2453Y1043D01*
X0Y1042D02*
X7Y1042D01*
X2446Y1042D02*
X2453Y1042D01*
X0Y1041D02*
X7Y1041D01*
X2446Y1041D02*
X2453Y1041D01*
X0Y1040D02*
X7Y1040D01*
X2446Y1040D02*
X2453Y1040D01*
X0Y1039D02*
X7Y1039D01*
X2446Y1039D02*
X2453Y1039D01*
X0Y1038D02*
X7Y1038D01*
X2446Y1038D02*
X2453Y1038D01*
X0Y1037D02*
X7Y1037D01*
X2446Y1037D02*
X2453Y1037D01*
X0Y1036D02*
X7Y1036D01*
X2446Y1036D02*
X2453Y1036D01*
X0Y1035D02*
X7Y1035D01*
X2446Y1035D02*
X2453Y1035D01*
X0Y1034D02*
X7Y1034D01*
X2446Y1034D02*
X2453Y1034D01*
X0Y1033D02*
X7Y1033D01*
X2446Y1033D02*
X2453Y1033D01*
X0Y1032D02*
X7Y1032D01*
X2446Y1032D02*
X2453Y1032D01*
X0Y1031D02*
X7Y1031D01*
X2446Y1031D02*
X2453Y1031D01*
X0Y1030D02*
X7Y1030D01*
X2446Y1030D02*
X2453Y1030D01*
X0Y1029D02*
X7Y1029D01*
X2446Y1029D02*
X2453Y1029D01*
X0Y1028D02*
X7Y1028D01*
X2446Y1028D02*
X2453Y1028D01*
X0Y1027D02*
X7Y1027D01*
X2446Y1027D02*
X2453Y1027D01*
X0Y1026D02*
X7Y1026D01*
X2446Y1026D02*
X2453Y1026D01*
X0Y1025D02*
X7Y1025D01*
X2446Y1025D02*
X2453Y1025D01*
X0Y1024D02*
X7Y1024D01*
X2446Y1024D02*
X2453Y1024D01*
X0Y1023D02*
X7Y1023D01*
X2446Y1023D02*
X2453Y1023D01*
X0Y1022D02*
X7Y1022D01*
X2446Y1022D02*
X2453Y1022D01*
X0Y1021D02*
X7Y1021D01*
X2446Y1021D02*
X2453Y1021D01*
X0Y1020D02*
X7Y1020D01*
X2446Y1020D02*
X2453Y1020D01*
X0Y1019D02*
X7Y1019D01*
X2446Y1019D02*
X2453Y1019D01*
X0Y1018D02*
X7Y1018D01*
X2446Y1018D02*
X2453Y1018D01*
X0Y1017D02*
X7Y1017D01*
X2446Y1017D02*
X2453Y1017D01*
X0Y1016D02*
X7Y1016D01*
X63Y1016D02*
X64Y1016D01*
X110Y1016D02*
X111Y1016D01*
X2446Y1016D02*
X2453Y1016D01*
X0Y1015D02*
X7Y1015D01*
X61Y1015D02*
X65Y1015D01*
X109Y1015D02*
X113Y1015D01*
X2446Y1015D02*
X2453Y1015D01*
X0Y1014D02*
X7Y1014D01*
X61Y1014D02*
X66Y1014D01*
X108Y1014D02*
X113Y1014D01*
X2446Y1014D02*
X2453Y1014D01*
X0Y1013D02*
X7Y1013D01*
X60Y1013D02*
X66Y1013D01*
X108Y1013D02*
X113Y1013D01*
X2275Y1013D02*
X2279Y1013D01*
X2446Y1013D02*
X2453Y1013D01*
X0Y1012D02*
X7Y1012D01*
X60Y1012D02*
X66Y1012D01*
X108Y1012D02*
X114Y1012D01*
X2275Y1012D02*
X2280Y1012D01*
X2446Y1012D02*
X2453Y1012D01*
X0Y1011D02*
X7Y1011D01*
X60Y1011D02*
X66Y1011D01*
X108Y1011D02*
X114Y1011D01*
X2274Y1011D02*
X2280Y1011D01*
X2446Y1011D02*
X2453Y1011D01*
X0Y1010D02*
X7Y1010D01*
X60Y1010D02*
X66Y1010D01*
X108Y1010D02*
X114Y1010D01*
X2274Y1010D02*
X2280Y1010D01*
X2446Y1010D02*
X2453Y1010D01*
X0Y1009D02*
X7Y1009D01*
X60Y1009D02*
X66Y1009D01*
X86Y1009D02*
X88Y1009D01*
X108Y1009D02*
X114Y1009D01*
X2273Y1009D02*
X2280Y1009D01*
X2446Y1009D02*
X2453Y1009D01*
X0Y1008D02*
X7Y1008D01*
X60Y1008D02*
X66Y1008D01*
X85Y1008D02*
X89Y1008D01*
X108Y1008D02*
X114Y1008D01*
X2273Y1008D02*
X2279Y1008D01*
X2446Y1008D02*
X2453Y1008D01*
X0Y1007D02*
X7Y1007D01*
X60Y1007D02*
X66Y1007D01*
X84Y1007D02*
X90Y1007D01*
X108Y1007D02*
X114Y1007D01*
X2272Y1007D02*
X2279Y1007D01*
X2446Y1007D02*
X2453Y1007D01*
X0Y1006D02*
X7Y1006D01*
X60Y1006D02*
X66Y1006D01*
X84Y1006D02*
X90Y1006D01*
X108Y1006D02*
X114Y1006D01*
X2272Y1006D02*
X2279Y1006D01*
X2295Y1006D02*
X2324Y1006D01*
X2446Y1006D02*
X2453Y1006D01*
X0Y1005D02*
X7Y1005D01*
X60Y1005D02*
X66Y1005D01*
X84Y1005D02*
X90Y1005D01*
X108Y1005D02*
X114Y1005D01*
X2272Y1005D02*
X2278Y1005D01*
X2295Y1005D02*
X2324Y1005D01*
X2446Y1005D02*
X2453Y1005D01*
X0Y1004D02*
X7Y1004D01*
X60Y1004D02*
X66Y1004D01*
X84Y1004D02*
X90Y1004D01*
X108Y1004D02*
X114Y1004D01*
X2271Y1004D02*
X2278Y1004D01*
X2295Y1004D02*
X2324Y1004D01*
X2446Y1004D02*
X2453Y1004D01*
X0Y1003D02*
X7Y1003D01*
X60Y1003D02*
X66Y1003D01*
X84Y1003D02*
X90Y1003D01*
X108Y1003D02*
X114Y1003D01*
X2271Y1003D02*
X2277Y1003D01*
X2295Y1003D02*
X2324Y1003D01*
X2446Y1003D02*
X2453Y1003D01*
X0Y1002D02*
X7Y1002D01*
X60Y1002D02*
X66Y1002D01*
X84Y1002D02*
X90Y1002D01*
X108Y1002D02*
X114Y1002D01*
X2271Y1002D02*
X2277Y1002D01*
X2295Y1002D02*
X2324Y1002D01*
X2446Y1002D02*
X2453Y1002D01*
X0Y1001D02*
X7Y1001D01*
X60Y1001D02*
X66Y1001D01*
X84Y1001D02*
X90Y1001D01*
X108Y1001D02*
X114Y1001D01*
X2271Y1001D02*
X2277Y1001D01*
X2295Y1001D02*
X2324Y1001D01*
X2446Y1001D02*
X2453Y1001D01*
X0Y1000D02*
X7Y1000D01*
X60Y1000D02*
X66Y1000D01*
X84Y1000D02*
X90Y1000D01*
X108Y1000D02*
X114Y1000D01*
X2271Y1000D02*
X2277Y1000D01*
X2295Y1000D02*
X2324Y1000D01*
X2446Y1000D02*
X2453Y1000D01*
X0Y999D02*
X7Y999D01*
X60Y999D02*
X66Y999D01*
X84Y999D02*
X90Y999D01*
X108Y999D02*
X114Y999D01*
X2271Y999D02*
X2277Y999D01*
X2295Y999D02*
X2301Y999D01*
X2318Y999D02*
X2324Y999D01*
X2446Y999D02*
X2453Y999D01*
X0Y998D02*
X7Y998D01*
X60Y998D02*
X66Y998D01*
X84Y998D02*
X90Y998D01*
X108Y998D02*
X114Y998D01*
X2271Y998D02*
X2277Y998D01*
X2295Y998D02*
X2301Y998D01*
X2318Y998D02*
X2324Y998D01*
X2446Y998D02*
X2453Y998D01*
X0Y997D02*
X7Y997D01*
X60Y997D02*
X66Y997D01*
X84Y997D02*
X90Y997D01*
X108Y997D02*
X114Y997D01*
X2271Y997D02*
X2277Y997D01*
X2295Y997D02*
X2301Y997D01*
X2318Y997D02*
X2324Y997D01*
X2446Y997D02*
X2453Y997D01*
X0Y996D02*
X7Y996D01*
X60Y996D02*
X66Y996D01*
X84Y996D02*
X90Y996D01*
X108Y996D02*
X114Y996D01*
X2271Y996D02*
X2277Y996D01*
X2295Y996D02*
X2301Y996D01*
X2318Y996D02*
X2324Y996D01*
X2446Y996D02*
X2453Y996D01*
X0Y995D02*
X7Y995D01*
X60Y995D02*
X66Y995D01*
X84Y995D02*
X90Y995D01*
X108Y995D02*
X114Y995D01*
X2271Y995D02*
X2277Y995D01*
X2295Y995D02*
X2301Y995D01*
X2318Y995D02*
X2324Y995D01*
X2446Y995D02*
X2453Y995D01*
X0Y994D02*
X7Y994D01*
X60Y994D02*
X66Y994D01*
X84Y994D02*
X90Y994D01*
X108Y994D02*
X114Y994D01*
X2271Y994D02*
X2277Y994D01*
X2295Y994D02*
X2301Y994D01*
X2318Y994D02*
X2324Y994D01*
X2446Y994D02*
X2453Y994D01*
X0Y993D02*
X7Y993D01*
X60Y993D02*
X66Y993D01*
X84Y993D02*
X90Y993D01*
X108Y993D02*
X114Y993D01*
X2271Y993D02*
X2277Y993D01*
X2295Y993D02*
X2301Y993D01*
X2318Y993D02*
X2324Y993D01*
X2446Y993D02*
X2453Y993D01*
X0Y992D02*
X7Y992D01*
X60Y992D02*
X66Y992D01*
X84Y992D02*
X90Y992D01*
X108Y992D02*
X114Y992D01*
X2271Y992D02*
X2277Y992D01*
X2295Y992D02*
X2301Y992D01*
X2318Y992D02*
X2324Y992D01*
X2446Y992D02*
X2453Y992D01*
X0Y991D02*
X7Y991D01*
X60Y991D02*
X66Y991D01*
X84Y991D02*
X90Y991D01*
X108Y991D02*
X114Y991D01*
X2271Y991D02*
X2277Y991D01*
X2295Y991D02*
X2301Y991D01*
X2318Y991D02*
X2324Y991D01*
X2446Y991D02*
X2453Y991D01*
X0Y990D02*
X7Y990D01*
X60Y990D02*
X66Y990D01*
X83Y990D02*
X91Y990D01*
X108Y990D02*
X114Y990D01*
X2271Y990D02*
X2277Y990D01*
X2295Y990D02*
X2301Y990D01*
X2318Y990D02*
X2324Y990D01*
X2446Y990D02*
X2453Y990D01*
X0Y989D02*
X7Y989D01*
X60Y989D02*
X66Y989D01*
X82Y989D02*
X92Y989D01*
X107Y989D02*
X114Y989D01*
X2271Y989D02*
X2277Y989D01*
X2295Y989D02*
X2301Y989D01*
X2318Y989D02*
X2324Y989D01*
X2446Y989D02*
X2453Y989D01*
X0Y988D02*
X7Y988D01*
X60Y988D02*
X113Y988D01*
X2271Y988D02*
X2277Y988D01*
X2295Y988D02*
X2301Y988D01*
X2318Y988D02*
X2324Y988D01*
X2446Y988D02*
X2453Y988D01*
X0Y987D02*
X7Y987D01*
X61Y987D02*
X113Y987D01*
X2271Y987D02*
X2277Y987D01*
X2295Y987D02*
X2301Y987D01*
X2318Y987D02*
X2324Y987D01*
X2446Y987D02*
X2453Y987D01*
X0Y986D02*
X7Y986D01*
X61Y986D02*
X113Y986D01*
X2271Y986D02*
X2301Y986D01*
X2318Y986D02*
X2324Y986D01*
X2446Y986D02*
X2453Y986D01*
X0Y985D02*
X7Y985D01*
X61Y985D02*
X112Y985D01*
X2271Y985D02*
X2301Y985D01*
X2318Y985D02*
X2324Y985D01*
X2446Y985D02*
X2453Y985D01*
X0Y984D02*
X7Y984D01*
X62Y984D02*
X86Y984D01*
X88Y984D02*
X112Y984D01*
X2272Y984D02*
X2300Y984D01*
X2318Y984D02*
X2324Y984D01*
X2446Y984D02*
X2453Y984D01*
X0Y983D02*
X7Y983D01*
X63Y983D02*
X85Y983D01*
X89Y983D02*
X111Y983D01*
X2272Y983D02*
X2300Y983D01*
X2318Y983D02*
X2324Y983D01*
X2446Y983D02*
X2453Y983D01*
X0Y982D02*
X7Y982D01*
X65Y982D02*
X82Y982D01*
X92Y982D02*
X109Y982D01*
X2273Y982D02*
X2299Y982D01*
X2318Y982D02*
X2324Y982D01*
X2446Y982D02*
X2453Y982D01*
X0Y981D02*
X7Y981D01*
X2274Y981D02*
X2298Y981D01*
X2319Y981D02*
X2324Y981D01*
X2446Y981D02*
X2453Y981D01*
X0Y980D02*
X7Y980D01*
X2275Y980D02*
X2297Y980D01*
X2320Y980D02*
X2323Y980D01*
X2446Y980D02*
X2453Y980D01*
X0Y979D02*
X7Y979D01*
X2446Y979D02*
X2453Y979D01*
X0Y978D02*
X7Y978D01*
X2446Y978D02*
X2453Y978D01*
X0Y977D02*
X7Y977D01*
X2446Y977D02*
X2453Y977D01*
X0Y976D02*
X7Y976D01*
X2446Y976D02*
X2453Y976D01*
X0Y975D02*
X7Y975D01*
X2446Y975D02*
X2453Y975D01*
X0Y974D02*
X7Y974D01*
X2446Y974D02*
X2453Y974D01*
X0Y973D02*
X7Y973D01*
X2446Y973D02*
X2453Y973D01*
X0Y972D02*
X7Y972D01*
X2446Y972D02*
X2453Y972D01*
X0Y971D02*
X7Y971D01*
X2446Y971D02*
X2453Y971D01*
X0Y970D02*
X7Y970D01*
X2446Y970D02*
X2453Y970D01*
X0Y969D02*
X7Y969D01*
X2446Y969D02*
X2453Y969D01*
X0Y968D02*
X7Y968D01*
X2446Y968D02*
X2453Y968D01*
X0Y967D02*
X7Y967D01*
X2446Y967D02*
X2453Y967D01*
X0Y966D02*
X7Y966D01*
X2446Y966D02*
X2453Y966D01*
X0Y965D02*
X7Y965D01*
X87Y965D02*
X98Y965D01*
X2446Y965D02*
X2453Y965D01*
X0Y964D02*
X7Y964D01*
X85Y964D02*
X98Y964D01*
X2446Y964D02*
X2453Y964D01*
X0Y963D02*
X7Y963D01*
X83Y963D02*
X99Y963D01*
X2299Y963D02*
X2308Y963D01*
X2446Y963D02*
X2453Y963D01*
X0Y962D02*
X7Y962D01*
X80Y962D02*
X99Y962D01*
X2297Y962D02*
X2309Y962D01*
X2446Y962D02*
X2453Y962D01*
X0Y961D02*
X7Y961D01*
X78Y961D02*
X98Y961D01*
X2294Y961D02*
X2309Y961D01*
X2446Y961D02*
X2453Y961D01*
X0Y960D02*
X7Y960D01*
X76Y960D02*
X98Y960D01*
X2292Y960D02*
X2310Y960D01*
X2446Y960D02*
X2453Y960D01*
X0Y959D02*
X7Y959D01*
X74Y959D02*
X95Y959D01*
X2290Y959D02*
X2309Y959D01*
X2446Y959D02*
X2453Y959D01*
X0Y958D02*
X7Y958D01*
X71Y958D02*
X88Y958D01*
X2288Y958D02*
X2309Y958D01*
X2446Y958D02*
X2453Y958D01*
X0Y957D02*
X7Y957D01*
X69Y957D02*
X86Y957D01*
X2285Y957D02*
X2308Y957D01*
X2446Y957D02*
X2453Y957D01*
X0Y956D02*
X7Y956D01*
X67Y956D02*
X83Y956D01*
X2283Y956D02*
X2300Y956D01*
X2446Y956D02*
X2453Y956D01*
X0Y955D02*
X7Y955D01*
X64Y955D02*
X81Y955D01*
X2281Y955D02*
X2297Y955D01*
X2446Y955D02*
X2453Y955D01*
X0Y954D02*
X7Y954D01*
X62Y954D02*
X79Y954D01*
X2278Y954D02*
X2295Y954D01*
X2446Y954D02*
X2453Y954D01*
X0Y953D02*
X7Y953D01*
X61Y953D02*
X76Y953D01*
X2276Y953D02*
X2293Y953D01*
X2446Y953D02*
X2453Y953D01*
X0Y952D02*
X7Y952D01*
X61Y952D02*
X74Y952D01*
X2274Y952D02*
X2290Y952D01*
X2446Y952D02*
X2453Y952D01*
X0Y951D02*
X7Y951D01*
X60Y951D02*
X72Y951D01*
X2272Y951D02*
X2288Y951D01*
X2446Y951D02*
X2453Y951D01*
X0Y950D02*
X7Y950D01*
X60Y950D02*
X69Y950D01*
X2271Y950D02*
X2286Y950D01*
X2446Y950D02*
X2453Y950D01*
X0Y949D02*
X7Y949D01*
X60Y949D02*
X67Y949D01*
X2271Y949D02*
X2283Y949D01*
X2446Y949D02*
X2453Y949D01*
X0Y948D02*
X7Y948D01*
X60Y948D02*
X68Y948D01*
X2271Y948D02*
X2281Y948D01*
X2446Y948D02*
X2453Y948D01*
X0Y947D02*
X7Y947D01*
X60Y947D02*
X71Y947D01*
X2271Y947D02*
X2279Y947D01*
X2446Y947D02*
X2453Y947D01*
X0Y946D02*
X7Y946D01*
X60Y946D02*
X73Y946D01*
X2271Y946D02*
X2278Y946D01*
X2446Y946D02*
X2453Y946D01*
X0Y945D02*
X7Y945D01*
X61Y945D02*
X75Y945D01*
X2271Y945D02*
X2281Y945D01*
X2446Y945D02*
X2453Y945D01*
X0Y944D02*
X7Y944D01*
X61Y944D02*
X77Y944D01*
X2271Y944D02*
X2283Y944D01*
X2446Y944D02*
X2453Y944D01*
X0Y943D02*
X7Y943D01*
X63Y943D02*
X80Y943D01*
X2271Y943D02*
X2285Y943D01*
X2446Y943D02*
X2453Y943D01*
X0Y942D02*
X7Y942D01*
X66Y942D02*
X82Y942D01*
X2272Y942D02*
X2287Y942D01*
X2446Y942D02*
X2453Y942D01*
X0Y941D02*
X7Y941D01*
X68Y941D02*
X84Y941D01*
X2273Y941D02*
X2290Y941D01*
X2446Y941D02*
X2453Y941D01*
X0Y940D02*
X7Y940D01*
X70Y940D02*
X87Y940D01*
X2276Y940D02*
X2292Y940D01*
X2446Y940D02*
X2453Y940D01*
X0Y939D02*
X7Y939D01*
X72Y939D02*
X89Y939D01*
X2278Y939D02*
X2294Y939D01*
X2446Y939D02*
X2453Y939D01*
X0Y938D02*
X7Y938D01*
X75Y938D02*
X97Y938D01*
X2280Y938D02*
X2297Y938D01*
X2446Y938D02*
X2453Y938D01*
X0Y937D02*
X7Y937D01*
X77Y937D02*
X98Y937D01*
X2282Y937D02*
X2299Y937D01*
X2446Y937D02*
X2453Y937D01*
X0Y936D02*
X7Y936D01*
X79Y936D02*
X99Y936D01*
X2285Y936D02*
X2307Y936D01*
X2446Y936D02*
X2453Y936D01*
X0Y935D02*
X7Y935D01*
X82Y935D02*
X99Y935D01*
X2287Y935D02*
X2309Y935D01*
X2446Y935D02*
X2453Y935D01*
X0Y934D02*
X7Y934D01*
X84Y934D02*
X99Y934D01*
X2289Y934D02*
X2309Y934D01*
X2446Y934D02*
X2453Y934D01*
X0Y933D02*
X7Y933D01*
X86Y933D02*
X98Y933D01*
X2292Y933D02*
X2310Y933D01*
X2446Y933D02*
X2453Y933D01*
X0Y932D02*
X7Y932D01*
X88Y932D02*
X97Y932D01*
X2294Y932D02*
X2310Y932D01*
X2446Y932D02*
X2453Y932D01*
X0Y931D02*
X7Y931D01*
X2296Y931D02*
X2309Y931D01*
X2446Y931D02*
X2453Y931D01*
X0Y930D02*
X7Y930D01*
X2298Y930D02*
X2308Y930D01*
X2446Y930D02*
X2453Y930D01*
X0Y929D02*
X7Y929D01*
X2446Y929D02*
X2453Y929D01*
X0Y928D02*
X7Y928D01*
X2446Y928D02*
X2453Y928D01*
X0Y927D02*
X7Y927D01*
X2446Y927D02*
X2453Y927D01*
X0Y926D02*
X7Y926D01*
X2446Y926D02*
X2453Y926D01*
X0Y925D02*
X7Y925D01*
X2446Y925D02*
X2453Y925D01*
X0Y924D02*
X7Y924D01*
X2446Y924D02*
X2453Y924D01*
X0Y923D02*
X7Y923D01*
X2446Y923D02*
X2453Y923D01*
X0Y922D02*
X7Y922D01*
X2446Y922D02*
X2453Y922D01*
X0Y921D02*
X7Y921D01*
X2446Y921D02*
X2453Y921D01*
X0Y920D02*
X7Y920D01*
X2446Y920D02*
X2453Y920D01*
X0Y919D02*
X7Y919D01*
X2446Y919D02*
X2453Y919D01*
X0Y918D02*
X7Y918D01*
X2446Y918D02*
X2453Y918D01*
X0Y917D02*
X7Y917D01*
X2446Y917D02*
X2453Y917D01*
X0Y916D02*
X7Y916D01*
X2446Y916D02*
X2453Y916D01*
X0Y915D02*
X7Y915D01*
X2446Y915D02*
X2453Y915D01*
X0Y914D02*
X7Y914D01*
X2446Y914D02*
X2453Y914D01*
X0Y913D02*
X7Y913D01*
X2446Y913D02*
X2453Y913D01*
X0Y912D02*
X7Y912D01*
X2446Y912D02*
X2453Y912D01*
X0Y911D02*
X7Y911D01*
X2446Y911D02*
X2453Y911D01*
X0Y910D02*
X7Y910D01*
X2446Y910D02*
X2453Y910D01*
X0Y909D02*
X7Y909D01*
X2446Y909D02*
X2453Y909D01*
X0Y908D02*
X7Y908D01*
X2446Y908D02*
X2453Y908D01*
X0Y907D02*
X7Y907D01*
X2446Y907D02*
X2453Y907D01*
X0Y906D02*
X7Y906D01*
X2446Y906D02*
X2453Y906D01*
X0Y905D02*
X7Y905D01*
X2446Y905D02*
X2453Y905D01*
X0Y904D02*
X7Y904D01*
X2446Y904D02*
X2453Y904D01*
X0Y903D02*
X7Y903D01*
X2446Y903D02*
X2453Y903D01*
X0Y902D02*
X7Y902D01*
X2446Y902D02*
X2453Y902D01*
X0Y901D02*
X7Y901D01*
X2446Y901D02*
X2453Y901D01*
X0Y900D02*
X7Y900D01*
X2446Y900D02*
X2453Y900D01*
X0Y899D02*
X7Y899D01*
X2446Y899D02*
X2453Y899D01*
X0Y898D02*
X7Y898D01*
X2446Y898D02*
X2453Y898D01*
X0Y897D02*
X7Y897D01*
X2446Y897D02*
X2453Y897D01*
X0Y896D02*
X7Y896D01*
X2446Y896D02*
X2453Y896D01*
X0Y895D02*
X7Y895D01*
X2446Y895D02*
X2453Y895D01*
X0Y894D02*
X7Y894D01*
X2446Y894D02*
X2453Y894D01*
X0Y893D02*
X7Y893D01*
X2446Y893D02*
X2453Y893D01*
X0Y892D02*
X7Y892D01*
X2446Y892D02*
X2453Y892D01*
X0Y891D02*
X7Y891D01*
X2446Y891D02*
X2453Y891D01*
X0Y890D02*
X7Y890D01*
X2446Y890D02*
X2453Y890D01*
X0Y889D02*
X7Y889D01*
X2446Y889D02*
X2453Y889D01*
X0Y888D02*
X7Y888D01*
X2446Y888D02*
X2453Y888D01*
X0Y887D02*
X7Y887D01*
X2446Y887D02*
X2453Y887D01*
X0Y886D02*
X7Y886D01*
X2446Y886D02*
X2453Y886D01*
X0Y885D02*
X7Y885D01*
X2446Y885D02*
X2453Y885D01*
X0Y884D02*
X7Y884D01*
X2446Y884D02*
X2453Y884D01*
X0Y883D02*
X7Y883D01*
X2446Y883D02*
X2453Y883D01*
X0Y882D02*
X7Y882D01*
X2446Y882D02*
X2453Y882D01*
X0Y881D02*
X7Y881D01*
X2446Y881D02*
X2453Y881D01*
X0Y880D02*
X7Y880D01*
X2446Y880D02*
X2453Y880D01*
X0Y879D02*
X7Y879D01*
X2446Y879D02*
X2453Y879D01*
X0Y878D02*
X7Y878D01*
X2446Y878D02*
X2453Y878D01*
X0Y877D02*
X7Y877D01*
X2446Y877D02*
X2453Y877D01*
X0Y876D02*
X7Y876D01*
X2446Y876D02*
X2453Y876D01*
X0Y875D02*
X7Y875D01*
X2446Y875D02*
X2453Y875D01*
X0Y874D02*
X7Y874D01*
X2446Y874D02*
X2453Y874D01*
X0Y873D02*
X7Y873D01*
X2446Y873D02*
X2453Y873D01*
X0Y872D02*
X7Y872D01*
X2446Y872D02*
X2453Y872D01*
X0Y871D02*
X7Y871D01*
X2446Y871D02*
X2453Y871D01*
X0Y870D02*
X7Y870D01*
X2446Y870D02*
X2453Y870D01*
X0Y869D02*
X7Y869D01*
X2446Y869D02*
X2453Y869D01*
X0Y868D02*
X7Y868D01*
X2446Y868D02*
X2453Y868D01*
X0Y867D02*
X7Y867D01*
X2446Y867D02*
X2453Y867D01*
X0Y866D02*
X7Y866D01*
X2446Y866D02*
X2453Y866D01*
X0Y865D02*
X7Y865D01*
X2446Y865D02*
X2453Y865D01*
X0Y864D02*
X7Y864D01*
X2446Y864D02*
X2453Y864D01*
X0Y863D02*
X7Y863D01*
X2446Y863D02*
X2453Y863D01*
X0Y862D02*
X7Y862D01*
X2446Y862D02*
X2453Y862D01*
X0Y861D02*
X7Y861D01*
X2446Y861D02*
X2453Y861D01*
X0Y860D02*
X7Y860D01*
X2446Y860D02*
X2453Y860D01*
X0Y859D02*
X7Y859D01*
X2446Y859D02*
X2453Y859D01*
X0Y858D02*
X7Y858D01*
X2446Y858D02*
X2453Y858D01*
X0Y857D02*
X7Y857D01*
X2446Y857D02*
X2453Y857D01*
X0Y856D02*
X7Y856D01*
X2446Y856D02*
X2453Y856D01*
X0Y855D02*
X7Y855D01*
X2446Y855D02*
X2453Y855D01*
X0Y854D02*
X7Y854D01*
X2446Y854D02*
X2453Y854D01*
X0Y853D02*
X7Y853D01*
X2446Y853D02*
X2453Y853D01*
X0Y852D02*
X7Y852D01*
X2446Y852D02*
X2453Y852D01*
X0Y851D02*
X7Y851D01*
X2446Y851D02*
X2453Y851D01*
X0Y850D02*
X7Y850D01*
X2446Y850D02*
X2453Y850D01*
X0Y849D02*
X7Y849D01*
X2446Y849D02*
X2453Y849D01*
X0Y848D02*
X7Y848D01*
X2446Y848D02*
X2453Y848D01*
X0Y847D02*
X7Y847D01*
X2446Y847D02*
X2453Y847D01*
X0Y846D02*
X7Y846D01*
X2446Y846D02*
X2453Y846D01*
X0Y845D02*
X7Y845D01*
X2446Y845D02*
X2453Y845D01*
X0Y844D02*
X7Y844D01*
X2446Y844D02*
X2453Y844D01*
X0Y843D02*
X7Y843D01*
X2446Y843D02*
X2453Y843D01*
X0Y842D02*
X7Y842D01*
X2446Y842D02*
X2453Y842D01*
X0Y841D02*
X7Y841D01*
X2446Y841D02*
X2453Y841D01*
X0Y840D02*
X7Y840D01*
X2446Y840D02*
X2453Y840D01*
X0Y839D02*
X7Y839D01*
X2446Y839D02*
X2453Y839D01*
X0Y838D02*
X7Y838D01*
X2446Y838D02*
X2453Y838D01*
X0Y837D02*
X7Y837D01*
X2446Y837D02*
X2453Y837D01*
X0Y836D02*
X7Y836D01*
X1980Y836D02*
X2031Y836D01*
X2446Y836D02*
X2453Y836D01*
X0Y835D02*
X7Y835D01*
X1979Y835D02*
X2032Y835D01*
X2446Y835D02*
X2453Y835D01*
X0Y834D02*
X7Y834D01*
X1979Y834D02*
X2032Y834D01*
X2446Y834D02*
X2453Y834D01*
X0Y833D02*
X7Y833D01*
X1979Y833D02*
X2032Y833D01*
X2446Y833D02*
X2453Y833D01*
X0Y832D02*
X7Y832D01*
X1979Y832D02*
X2032Y832D01*
X2446Y832D02*
X2453Y832D01*
X0Y831D02*
X7Y831D01*
X1980Y831D02*
X2031Y831D01*
X2446Y831D02*
X2453Y831D01*
X0Y830D02*
X7Y830D01*
X1982Y830D02*
X2029Y830D01*
X2446Y830D02*
X2453Y830D01*
X0Y829D02*
X7Y829D01*
X2003Y829D02*
X2009Y829D01*
X2446Y829D02*
X2453Y829D01*
X0Y828D02*
X7Y828D01*
X2003Y828D02*
X2009Y828D01*
X2446Y828D02*
X2453Y828D01*
X0Y827D02*
X7Y827D01*
X2003Y827D02*
X2009Y827D01*
X2446Y827D02*
X2453Y827D01*
X0Y826D02*
X7Y826D01*
X2003Y826D02*
X2009Y826D01*
X2446Y826D02*
X2453Y826D01*
X0Y825D02*
X7Y825D01*
X2003Y825D02*
X2009Y825D01*
X2446Y825D02*
X2453Y825D01*
X0Y824D02*
X7Y824D01*
X2003Y824D02*
X2009Y824D01*
X2446Y824D02*
X2453Y824D01*
X0Y823D02*
X7Y823D01*
X2003Y823D02*
X2009Y823D01*
X2446Y823D02*
X2453Y823D01*
X0Y822D02*
X7Y822D01*
X2003Y822D02*
X2009Y822D01*
X2446Y822D02*
X2453Y822D01*
X0Y821D02*
X7Y821D01*
X2003Y821D02*
X2009Y821D01*
X2446Y821D02*
X2453Y821D01*
X0Y820D02*
X7Y820D01*
X2003Y820D02*
X2009Y820D01*
X2446Y820D02*
X2453Y820D01*
X0Y819D02*
X7Y819D01*
X2003Y819D02*
X2009Y819D01*
X2446Y819D02*
X2453Y819D01*
X0Y818D02*
X7Y818D01*
X2003Y818D02*
X2009Y818D01*
X2446Y818D02*
X2453Y818D01*
X0Y817D02*
X7Y817D01*
X2003Y817D02*
X2009Y817D01*
X2446Y817D02*
X2453Y817D01*
X0Y816D02*
X7Y816D01*
X2003Y816D02*
X2009Y816D01*
X2446Y816D02*
X2453Y816D01*
X0Y815D02*
X7Y815D01*
X2003Y815D02*
X2009Y815D01*
X2446Y815D02*
X2453Y815D01*
X0Y814D02*
X7Y814D01*
X2003Y814D02*
X2009Y814D01*
X2446Y814D02*
X2453Y814D01*
X0Y813D02*
X7Y813D01*
X2003Y813D02*
X2009Y813D01*
X2446Y813D02*
X2453Y813D01*
X0Y812D02*
X7Y812D01*
X2003Y812D02*
X2009Y812D01*
X2446Y812D02*
X2453Y812D01*
X0Y811D02*
X7Y811D01*
X2003Y811D02*
X2009Y811D01*
X2446Y811D02*
X2453Y811D01*
X0Y810D02*
X7Y810D01*
X2003Y810D02*
X2009Y810D01*
X2446Y810D02*
X2453Y810D01*
X0Y809D02*
X7Y809D01*
X1981Y809D02*
X2030Y809D01*
X2446Y809D02*
X2453Y809D01*
X0Y808D02*
X7Y808D01*
X1980Y808D02*
X2031Y808D01*
X2446Y808D02*
X2453Y808D01*
X0Y807D02*
X7Y807D01*
X1979Y807D02*
X2032Y807D01*
X2446Y807D02*
X2453Y807D01*
X0Y806D02*
X7Y806D01*
X1979Y806D02*
X2032Y806D01*
X2446Y806D02*
X2453Y806D01*
X0Y805D02*
X7Y805D01*
X1979Y805D02*
X2032Y805D01*
X2446Y805D02*
X2453Y805D01*
X0Y804D02*
X7Y804D01*
X1980Y804D02*
X2032Y804D01*
X2446Y804D02*
X2453Y804D01*
X0Y803D02*
X7Y803D01*
X1981Y803D02*
X2031Y803D01*
X2446Y803D02*
X2453Y803D01*
X0Y802D02*
X7Y802D01*
X2446Y802D02*
X2453Y802D01*
X0Y801D02*
X7Y801D01*
X2446Y801D02*
X2453Y801D01*
X0Y800D02*
X7Y800D01*
X2446Y800D02*
X2453Y800D01*
X0Y799D02*
X7Y799D01*
X2446Y799D02*
X2453Y799D01*
X0Y798D02*
X7Y798D01*
X2446Y798D02*
X2453Y798D01*
X0Y797D02*
X7Y797D01*
X2446Y797D02*
X2453Y797D01*
X0Y796D02*
X7Y796D01*
X2446Y796D02*
X2453Y796D01*
X0Y795D02*
X7Y795D01*
X2446Y795D02*
X2453Y795D01*
X0Y794D02*
X7Y794D01*
X2446Y794D02*
X2453Y794D01*
X0Y793D02*
X7Y793D01*
X2446Y793D02*
X2453Y793D01*
X0Y792D02*
X7Y792D01*
X2446Y792D02*
X2453Y792D01*
X0Y791D02*
X7Y791D01*
X2446Y791D02*
X2453Y791D01*
X0Y790D02*
X7Y790D01*
X2446Y790D02*
X2453Y790D01*
X0Y789D02*
X7Y789D01*
X2446Y789D02*
X2453Y789D01*
X0Y788D02*
X7Y788D01*
X2446Y788D02*
X2453Y788D01*
X0Y787D02*
X7Y787D01*
X2446Y787D02*
X2453Y787D01*
X0Y786D02*
X7Y786D01*
X1980Y786D02*
X2032Y786D01*
X2446Y786D02*
X2453Y786D01*
X0Y785D02*
X7Y785D01*
X1980Y785D02*
X2032Y785D01*
X2446Y785D02*
X2453Y785D01*
X0Y784D02*
X7Y784D01*
X1979Y784D02*
X2032Y784D01*
X2446Y784D02*
X2453Y784D01*
X0Y783D02*
X7Y783D01*
X1979Y783D02*
X2032Y783D01*
X2446Y783D02*
X2453Y783D01*
X0Y782D02*
X7Y782D01*
X1979Y782D02*
X2032Y782D01*
X2446Y782D02*
X2453Y782D01*
X0Y781D02*
X7Y781D01*
X1980Y781D02*
X2032Y781D01*
X2446Y781D02*
X2453Y781D01*
X0Y780D02*
X7Y780D01*
X1981Y780D02*
X2032Y780D01*
X2446Y780D02*
X2453Y780D01*
X0Y779D02*
X7Y779D01*
X2022Y779D02*
X2032Y779D01*
X2446Y779D02*
X2453Y779D01*
X0Y778D02*
X7Y778D01*
X2021Y778D02*
X2032Y778D01*
X2446Y778D02*
X2453Y778D01*
X0Y777D02*
X7Y777D01*
X2020Y777D02*
X2031Y777D01*
X2446Y777D02*
X2453Y777D01*
X0Y776D02*
X7Y776D01*
X2018Y776D02*
X2029Y776D01*
X2446Y776D02*
X2453Y776D01*
X0Y775D02*
X7Y775D01*
X2017Y775D02*
X2028Y775D01*
X2446Y775D02*
X2453Y775D01*
X0Y774D02*
X7Y774D01*
X2015Y774D02*
X2027Y774D01*
X2446Y774D02*
X2453Y774D01*
X0Y773D02*
X7Y773D01*
X2012Y773D02*
X2025Y773D01*
X2446Y773D02*
X2453Y773D01*
X0Y772D02*
X7Y772D01*
X2010Y772D02*
X2024Y772D01*
X2446Y772D02*
X2453Y772D01*
X0Y771D02*
X7Y771D01*
X2009Y771D02*
X2022Y771D01*
X2446Y771D02*
X2453Y771D01*
X0Y770D02*
X7Y770D01*
X2009Y770D02*
X2021Y770D01*
X2446Y770D02*
X2453Y770D01*
X0Y769D02*
X7Y769D01*
X2009Y769D02*
X2021Y769D01*
X2446Y769D02*
X2453Y769D01*
X0Y768D02*
X7Y768D01*
X2009Y768D02*
X2022Y768D01*
X2446Y768D02*
X2453Y768D01*
X0Y767D02*
X7Y767D01*
X2010Y767D02*
X2024Y767D01*
X2446Y767D02*
X2453Y767D01*
X0Y766D02*
X7Y766D01*
X2014Y766D02*
X2025Y766D01*
X2446Y766D02*
X2453Y766D01*
X0Y765D02*
X7Y765D01*
X2015Y765D02*
X2027Y765D01*
X2446Y765D02*
X2453Y765D01*
X0Y764D02*
X7Y764D01*
X2017Y764D02*
X2028Y764D01*
X2446Y764D02*
X2453Y764D01*
X0Y763D02*
X7Y763D01*
X2018Y763D02*
X2029Y763D01*
X2446Y763D02*
X2453Y763D01*
X0Y762D02*
X7Y762D01*
X2020Y762D02*
X2031Y762D01*
X2446Y762D02*
X2453Y762D01*
X0Y761D02*
X7Y761D01*
X2021Y761D02*
X2032Y761D01*
X2446Y761D02*
X2453Y761D01*
X0Y760D02*
X7Y760D01*
X2022Y760D02*
X2032Y760D01*
X2446Y760D02*
X2453Y760D01*
X0Y759D02*
X7Y759D01*
X1982Y759D02*
X2032Y759D01*
X2446Y759D02*
X2453Y759D01*
X0Y758D02*
X7Y758D01*
X1980Y758D02*
X2032Y758D01*
X2446Y758D02*
X2453Y758D01*
X0Y757D02*
X7Y757D01*
X1979Y757D02*
X2032Y757D01*
X2446Y757D02*
X2453Y757D01*
X0Y756D02*
X7Y756D01*
X1979Y756D02*
X2032Y756D01*
X2446Y756D02*
X2453Y756D01*
X0Y755D02*
X7Y755D01*
X1979Y755D02*
X2032Y755D01*
X2446Y755D02*
X2453Y755D01*
X0Y754D02*
X7Y754D01*
X1980Y754D02*
X2032Y754D01*
X2446Y754D02*
X2453Y754D01*
X0Y753D02*
X7Y753D01*
X1980Y753D02*
X2032Y753D01*
X2446Y753D02*
X2453Y753D01*
X0Y752D02*
X7Y752D01*
X2446Y752D02*
X2453Y752D01*
X0Y751D02*
X7Y751D01*
X2446Y751D02*
X2453Y751D01*
X0Y750D02*
X7Y750D01*
X2446Y750D02*
X2453Y750D01*
X0Y749D02*
X7Y749D01*
X2446Y749D02*
X2453Y749D01*
X0Y748D02*
X7Y748D01*
X2446Y748D02*
X2453Y748D01*
X0Y747D02*
X7Y747D01*
X2446Y747D02*
X2453Y747D01*
X0Y746D02*
X7Y746D01*
X2446Y746D02*
X2453Y746D01*
X0Y745D02*
X7Y745D01*
X2446Y745D02*
X2453Y745D01*
X0Y744D02*
X7Y744D01*
X2446Y744D02*
X2453Y744D01*
X0Y743D02*
X7Y743D01*
X2446Y743D02*
X2453Y743D01*
X0Y742D02*
X7Y742D01*
X2446Y742D02*
X2453Y742D01*
X0Y741D02*
X7Y741D01*
X2446Y741D02*
X2453Y741D01*
X0Y740D02*
X7Y740D01*
X2446Y740D02*
X2453Y740D01*
X0Y739D02*
X7Y739D01*
X2446Y739D02*
X2453Y739D01*
X0Y738D02*
X7Y738D01*
X2446Y738D02*
X2453Y738D01*
X0Y737D02*
X7Y737D01*
X2446Y737D02*
X2453Y737D01*
X0Y736D02*
X7Y736D01*
X2002Y736D02*
X2009Y736D01*
X2446Y736D02*
X2453Y736D01*
X0Y735D02*
X7Y735D01*
X1999Y735D02*
X2012Y735D01*
X2446Y735D02*
X2453Y735D01*
X0Y734D02*
X7Y734D01*
X1997Y734D02*
X2014Y734D01*
X2446Y734D02*
X2453Y734D01*
X0Y733D02*
X7Y733D01*
X1995Y733D02*
X2016Y733D01*
X2446Y733D02*
X2453Y733D01*
X0Y732D02*
X7Y732D01*
X1993Y732D02*
X2018Y732D01*
X2446Y732D02*
X2453Y732D01*
X0Y731D02*
X7Y731D01*
X1991Y731D02*
X2020Y731D01*
X2446Y731D02*
X2453Y731D01*
X0Y730D02*
X7Y730D01*
X1989Y730D02*
X2022Y730D01*
X2446Y730D02*
X2453Y730D01*
X0Y729D02*
X7Y729D01*
X1987Y729D02*
X2002Y729D01*
X2009Y729D02*
X2024Y729D01*
X2446Y729D02*
X2453Y729D01*
X0Y728D02*
X7Y728D01*
X1985Y728D02*
X2000Y728D01*
X2012Y728D02*
X2026Y728D01*
X2446Y728D02*
X2453Y728D01*
X0Y727D02*
X7Y727D01*
X1984Y727D02*
X1998Y727D01*
X2013Y727D02*
X2028Y727D01*
X2446Y727D02*
X2453Y727D01*
X0Y726D02*
X7Y726D01*
X1982Y726D02*
X1996Y726D01*
X2015Y726D02*
X2029Y726D01*
X2446Y726D02*
X2453Y726D01*
X0Y725D02*
X7Y725D01*
X1982Y725D02*
X1994Y725D01*
X2017Y725D02*
X2030Y725D01*
X2446Y725D02*
X2453Y725D01*
X0Y724D02*
X7Y724D01*
X1981Y724D02*
X1992Y724D01*
X2019Y724D02*
X2031Y724D01*
X2446Y724D02*
X2453Y724D01*
X0Y723D02*
X7Y723D01*
X1980Y723D02*
X1990Y723D01*
X2021Y723D02*
X2031Y723D01*
X2446Y723D02*
X2453Y723D01*
X0Y722D02*
X7Y722D01*
X1980Y722D02*
X1988Y722D01*
X2023Y722D02*
X2032Y722D01*
X2446Y722D02*
X2453Y722D01*
X0Y721D02*
X7Y721D01*
X1979Y721D02*
X1986Y721D01*
X2025Y721D02*
X2032Y721D01*
X2446Y721D02*
X2453Y721D01*
X0Y720D02*
X7Y720D01*
X1979Y720D02*
X1985Y720D01*
X2026Y720D02*
X2032Y720D01*
X2446Y720D02*
X2453Y720D01*
X0Y719D02*
X7Y719D01*
X1979Y719D02*
X1985Y719D01*
X2026Y719D02*
X2032Y719D01*
X2446Y719D02*
X2453Y719D01*
X0Y718D02*
X7Y718D01*
X1979Y718D02*
X1985Y718D01*
X2026Y718D02*
X2032Y718D01*
X2446Y718D02*
X2453Y718D01*
X0Y717D02*
X7Y717D01*
X1979Y717D02*
X1985Y717D01*
X2026Y717D02*
X2032Y717D01*
X2446Y717D02*
X2453Y717D01*
X0Y716D02*
X7Y716D01*
X1979Y716D02*
X1985Y716D01*
X2026Y716D02*
X2032Y716D01*
X2446Y716D02*
X2453Y716D01*
X0Y715D02*
X7Y715D01*
X1979Y715D02*
X1985Y715D01*
X2026Y715D02*
X2032Y715D01*
X2446Y715D02*
X2453Y715D01*
X0Y714D02*
X7Y714D01*
X1979Y714D02*
X1985Y714D01*
X2026Y714D02*
X2032Y714D01*
X2446Y714D02*
X2453Y714D01*
X0Y713D02*
X7Y713D01*
X1979Y713D02*
X1985Y713D01*
X2026Y713D02*
X2032Y713D01*
X2446Y713D02*
X2453Y713D01*
X0Y712D02*
X7Y712D01*
X1979Y712D02*
X1985Y712D01*
X2026Y712D02*
X2032Y712D01*
X2446Y712D02*
X2453Y712D01*
X0Y711D02*
X7Y711D01*
X1979Y711D02*
X1985Y711D01*
X2026Y711D02*
X2032Y711D01*
X2446Y711D02*
X2453Y711D01*
X0Y710D02*
X7Y710D01*
X1979Y710D02*
X1985Y710D01*
X2026Y710D02*
X2032Y710D01*
X2446Y710D02*
X2453Y710D01*
X0Y709D02*
X7Y709D01*
X1979Y709D02*
X1985Y709D01*
X2026Y709D02*
X2032Y709D01*
X2446Y709D02*
X2453Y709D01*
X0Y708D02*
X7Y708D01*
X1979Y708D02*
X1985Y708D01*
X2026Y708D02*
X2032Y708D01*
X2446Y708D02*
X2453Y708D01*
X0Y707D02*
X7Y707D01*
X1979Y707D02*
X1985Y707D01*
X2026Y707D02*
X2032Y707D01*
X2446Y707D02*
X2453Y707D01*
X0Y706D02*
X7Y706D01*
X1979Y706D02*
X1985Y706D01*
X2026Y706D02*
X2032Y706D01*
X2446Y706D02*
X2453Y706D01*
X0Y705D02*
X7Y705D01*
X1979Y705D02*
X1985Y705D01*
X2026Y705D02*
X2032Y705D01*
X2446Y705D02*
X2453Y705D01*
X0Y704D02*
X7Y704D01*
X1980Y704D02*
X1985Y704D01*
X2027Y704D02*
X2032Y704D01*
X2446Y704D02*
X2453Y704D01*
X0Y703D02*
X7Y703D01*
X1980Y703D02*
X1984Y703D01*
X2027Y703D02*
X2031Y703D01*
X2446Y703D02*
X2453Y703D01*
X0Y702D02*
X7Y702D01*
X2446Y702D02*
X2453Y702D01*
X0Y701D02*
X7Y701D01*
X2446Y701D02*
X2453Y701D01*
X0Y700D02*
X7Y700D01*
X2446Y700D02*
X2453Y700D01*
X0Y699D02*
X7Y699D01*
X2446Y699D02*
X2453Y699D01*
X0Y698D02*
X7Y698D01*
X2446Y698D02*
X2453Y698D01*
X0Y697D02*
X7Y697D01*
X2446Y697D02*
X2453Y697D01*
X0Y696D02*
X7Y696D01*
X2446Y696D02*
X2453Y696D01*
X0Y695D02*
X7Y695D01*
X2446Y695D02*
X2453Y695D01*
X0Y694D02*
X7Y694D01*
X2446Y694D02*
X2453Y694D01*
X0Y693D02*
X7Y693D01*
X2446Y693D02*
X2453Y693D01*
X0Y692D02*
X7Y692D01*
X2446Y692D02*
X2453Y692D01*
X0Y691D02*
X7Y691D01*
X2446Y691D02*
X2453Y691D01*
X0Y690D02*
X7Y690D01*
X2446Y690D02*
X2453Y690D01*
X0Y689D02*
X7Y689D01*
X2446Y689D02*
X2453Y689D01*
X0Y688D02*
X7Y688D01*
X2446Y688D02*
X2453Y688D01*
X0Y687D02*
X7Y687D01*
X2446Y687D02*
X2453Y687D01*
X0Y686D02*
X7Y686D01*
X1984Y686D02*
X1986Y686D01*
X2446Y686D02*
X2453Y686D01*
X0Y685D02*
X7Y685D01*
X1983Y685D02*
X1987Y685D01*
X2446Y685D02*
X2453Y685D01*
X0Y684D02*
X7Y684D01*
X1982Y684D02*
X1988Y684D01*
X2446Y684D02*
X2453Y684D01*
X0Y683D02*
X7Y683D01*
X1982Y683D02*
X1988Y683D01*
X2446Y683D02*
X2453Y683D01*
X0Y682D02*
X7Y682D01*
X1981Y682D02*
X1988Y682D01*
X2446Y682D02*
X2453Y682D01*
X0Y681D02*
X7Y681D01*
X1981Y681D02*
X1987Y681D01*
X2446Y681D02*
X2453Y681D01*
X0Y680D02*
X7Y680D01*
X1980Y680D02*
X1987Y680D01*
X2446Y680D02*
X2453Y680D01*
X0Y679D02*
X7Y679D01*
X1980Y679D02*
X1987Y679D01*
X2003Y679D02*
X2032Y679D01*
X2446Y679D02*
X2453Y679D01*
X0Y678D02*
X7Y678D01*
X1980Y678D02*
X1986Y678D01*
X2003Y678D02*
X2032Y678D01*
X2446Y678D02*
X2453Y678D01*
X0Y677D02*
X7Y677D01*
X1979Y677D02*
X1986Y677D01*
X2003Y677D02*
X2032Y677D01*
X2446Y677D02*
X2453Y677D01*
X0Y676D02*
X7Y676D01*
X1979Y676D02*
X1985Y676D01*
X2003Y676D02*
X2032Y676D01*
X2446Y676D02*
X2453Y676D01*
X0Y675D02*
X7Y675D01*
X1979Y675D02*
X1985Y675D01*
X2003Y675D02*
X2032Y675D01*
X2446Y675D02*
X2453Y675D01*
X0Y674D02*
X7Y674D01*
X1979Y674D02*
X1985Y674D01*
X2003Y674D02*
X2032Y674D01*
X2446Y674D02*
X2453Y674D01*
X0Y673D02*
X7Y673D01*
X1979Y673D02*
X1985Y673D01*
X2003Y673D02*
X2032Y673D01*
X2446Y673D02*
X2453Y673D01*
X0Y672D02*
X7Y672D01*
X1979Y672D02*
X1985Y672D01*
X2003Y672D02*
X2009Y672D01*
X2026Y672D02*
X2032Y672D01*
X2446Y672D02*
X2453Y672D01*
X0Y671D02*
X7Y671D01*
X1979Y671D02*
X1985Y671D01*
X2003Y671D02*
X2009Y671D01*
X2026Y671D02*
X2032Y671D01*
X2446Y671D02*
X2453Y671D01*
X0Y670D02*
X7Y670D01*
X1979Y670D02*
X1985Y670D01*
X2003Y670D02*
X2009Y670D01*
X2026Y670D02*
X2032Y670D01*
X2446Y670D02*
X2453Y670D01*
X0Y669D02*
X7Y669D01*
X1979Y669D02*
X1985Y669D01*
X2003Y669D02*
X2009Y669D01*
X2026Y669D02*
X2032Y669D01*
X2446Y669D02*
X2453Y669D01*
X0Y668D02*
X7Y668D01*
X1979Y668D02*
X1985Y668D01*
X2003Y668D02*
X2009Y668D01*
X2026Y668D02*
X2032Y668D01*
X2446Y668D02*
X2453Y668D01*
X0Y667D02*
X7Y667D01*
X1979Y667D02*
X1985Y667D01*
X2003Y667D02*
X2009Y667D01*
X2026Y667D02*
X2032Y667D01*
X2446Y667D02*
X2453Y667D01*
X0Y666D02*
X7Y666D01*
X1979Y666D02*
X1985Y666D01*
X2003Y666D02*
X2009Y666D01*
X2026Y666D02*
X2032Y666D01*
X2446Y666D02*
X2453Y666D01*
X0Y665D02*
X7Y665D01*
X1979Y665D02*
X1985Y665D01*
X2003Y665D02*
X2009Y665D01*
X2026Y665D02*
X2032Y665D01*
X2446Y665D02*
X2453Y665D01*
X0Y664D02*
X7Y664D01*
X1979Y664D02*
X1985Y664D01*
X2003Y664D02*
X2009Y664D01*
X2026Y664D02*
X2032Y664D01*
X2446Y664D02*
X2453Y664D01*
X0Y663D02*
X7Y663D01*
X1979Y663D02*
X1985Y663D01*
X2003Y663D02*
X2009Y663D01*
X2026Y663D02*
X2032Y663D01*
X2446Y663D02*
X2453Y663D01*
X0Y662D02*
X7Y662D01*
X1979Y662D02*
X1985Y662D01*
X2003Y662D02*
X2009Y662D01*
X2026Y662D02*
X2032Y662D01*
X2446Y662D02*
X2453Y662D01*
X0Y661D02*
X7Y661D01*
X1979Y661D02*
X1985Y661D01*
X2003Y661D02*
X2009Y661D01*
X2026Y661D02*
X2032Y661D01*
X2446Y661D02*
X2453Y661D01*
X0Y660D02*
X7Y660D01*
X1979Y660D02*
X1985Y660D01*
X2003Y660D02*
X2009Y660D01*
X2026Y660D02*
X2032Y660D01*
X2446Y660D02*
X2453Y660D01*
X0Y659D02*
X7Y659D01*
X1979Y659D02*
X1985Y659D01*
X2002Y659D02*
X2009Y659D01*
X2026Y659D02*
X2032Y659D01*
X2446Y659D02*
X2453Y659D01*
X0Y658D02*
X7Y658D01*
X1979Y658D02*
X2009Y658D01*
X2026Y658D02*
X2032Y658D01*
X2446Y658D02*
X2453Y658D01*
X0Y657D02*
X7Y657D01*
X1979Y657D02*
X2008Y657D01*
X2026Y657D02*
X2032Y657D01*
X2446Y657D02*
X2453Y657D01*
X0Y656D02*
X7Y656D01*
X1980Y656D02*
X2008Y656D01*
X2026Y656D02*
X2032Y656D01*
X2446Y656D02*
X2453Y656D01*
X0Y655D02*
X7Y655D01*
X1980Y655D02*
X2007Y655D01*
X2026Y655D02*
X2032Y655D01*
X2446Y655D02*
X2453Y655D01*
X0Y654D02*
X7Y654D01*
X1981Y654D02*
X2007Y654D01*
X2027Y654D02*
X2032Y654D01*
X2446Y654D02*
X2453Y654D01*
X0Y653D02*
X7Y653D01*
X1982Y653D02*
X2005Y653D01*
X2027Y653D02*
X2031Y653D01*
X2446Y653D02*
X2453Y653D01*
X0Y652D02*
X7Y652D01*
X1985Y652D02*
X2003Y652D01*
X2029Y652D02*
X2030Y652D01*
X2446Y652D02*
X2453Y652D01*
X0Y651D02*
X7Y651D01*
X2446Y651D02*
X2453Y651D01*
X0Y650D02*
X7Y650D01*
X2446Y650D02*
X2453Y650D01*
X0Y649D02*
X7Y649D01*
X2446Y649D02*
X2453Y649D01*
X0Y648D02*
X7Y648D01*
X2446Y648D02*
X2453Y648D01*
X0Y647D02*
X7Y647D01*
X2446Y647D02*
X2453Y647D01*
X0Y646D02*
X7Y646D01*
X2446Y646D02*
X2453Y646D01*
X0Y645D02*
X7Y645D01*
X2446Y645D02*
X2453Y645D01*
X0Y644D02*
X7Y644D01*
X2446Y644D02*
X2453Y644D01*
X0Y643D02*
X7Y643D01*
X2446Y643D02*
X2453Y643D01*
X0Y642D02*
X7Y642D01*
X2446Y642D02*
X2453Y642D01*
X0Y641D02*
X7Y641D01*
X2446Y641D02*
X2453Y641D01*
X0Y640D02*
X7Y640D01*
X2446Y640D02*
X2453Y640D01*
X0Y639D02*
X7Y639D01*
X2446Y639D02*
X2453Y639D01*
X0Y638D02*
X7Y638D01*
X2446Y638D02*
X2453Y638D01*
X0Y637D02*
X7Y637D01*
X2446Y637D02*
X2453Y637D01*
X0Y636D02*
X7Y636D01*
X1984Y636D02*
X2003Y636D01*
X2446Y636D02*
X2453Y636D01*
X0Y635D02*
X7Y635D01*
X1982Y635D02*
X2006Y635D01*
X2446Y635D02*
X2453Y635D01*
X0Y634D02*
X7Y634D01*
X1981Y634D02*
X2007Y634D01*
X2446Y634D02*
X2453Y634D01*
X0Y633D02*
X7Y633D01*
X1980Y633D02*
X2008Y633D01*
X2446Y633D02*
X2453Y633D01*
X0Y632D02*
X7Y632D01*
X1980Y632D02*
X2008Y632D01*
X2446Y632D02*
X2453Y632D01*
X0Y631D02*
X7Y631D01*
X1979Y631D02*
X2008Y631D01*
X2446Y631D02*
X2453Y631D01*
X0Y630D02*
X7Y630D01*
X1979Y630D02*
X2009Y630D01*
X2446Y630D02*
X2453Y630D01*
X0Y629D02*
X7Y629D01*
X1979Y629D02*
X1985Y629D01*
X2003Y629D02*
X2030Y629D01*
X2446Y629D02*
X2453Y629D01*
X0Y628D02*
X7Y628D01*
X1979Y628D02*
X1985Y628D01*
X2003Y628D02*
X2031Y628D01*
X2446Y628D02*
X2453Y628D01*
X0Y627D02*
X7Y627D01*
X1979Y627D02*
X1985Y627D01*
X2003Y627D02*
X2032Y627D01*
X2446Y627D02*
X2453Y627D01*
X0Y626D02*
X7Y626D01*
X1979Y626D02*
X1985Y626D01*
X2003Y626D02*
X2032Y626D01*
X2446Y626D02*
X2453Y626D01*
X0Y625D02*
X7Y625D01*
X1979Y625D02*
X1985Y625D01*
X2003Y625D02*
X2032Y625D01*
X2446Y625D02*
X2453Y625D01*
X0Y624D02*
X7Y624D01*
X1979Y624D02*
X1985Y624D01*
X2003Y624D02*
X2032Y624D01*
X2446Y624D02*
X2453Y624D01*
X0Y623D02*
X7Y623D01*
X1979Y623D02*
X1985Y623D01*
X2003Y623D02*
X2032Y623D01*
X2446Y623D02*
X2453Y623D01*
X0Y622D02*
X7Y622D01*
X1979Y622D02*
X1985Y622D01*
X2003Y622D02*
X2009Y622D01*
X2026Y622D02*
X2032Y622D01*
X2446Y622D02*
X2453Y622D01*
X0Y621D02*
X7Y621D01*
X1979Y621D02*
X1985Y621D01*
X2003Y621D02*
X2009Y621D01*
X2026Y621D02*
X2032Y621D01*
X2446Y621D02*
X2453Y621D01*
X0Y620D02*
X7Y620D01*
X1979Y620D02*
X1985Y620D01*
X2003Y620D02*
X2009Y620D01*
X2026Y620D02*
X2032Y620D01*
X2446Y620D02*
X2453Y620D01*
X0Y619D02*
X7Y619D01*
X1979Y619D02*
X1985Y619D01*
X2003Y619D02*
X2009Y619D01*
X2026Y619D02*
X2032Y619D01*
X2446Y619D02*
X2453Y619D01*
X0Y618D02*
X7Y618D01*
X1979Y618D02*
X1985Y618D01*
X2003Y618D02*
X2009Y618D01*
X2026Y618D02*
X2032Y618D01*
X2446Y618D02*
X2453Y618D01*
X0Y617D02*
X7Y617D01*
X1979Y617D02*
X1985Y617D01*
X2003Y617D02*
X2009Y617D01*
X2026Y617D02*
X2032Y617D01*
X2446Y617D02*
X2453Y617D01*
X0Y616D02*
X7Y616D01*
X1979Y616D02*
X1985Y616D01*
X2003Y616D02*
X2009Y616D01*
X2026Y616D02*
X2032Y616D01*
X2446Y616D02*
X2453Y616D01*
X0Y615D02*
X7Y615D01*
X1979Y615D02*
X1985Y615D01*
X2003Y615D02*
X2032Y615D01*
X2446Y615D02*
X2453Y615D01*
X0Y614D02*
X7Y614D01*
X1979Y614D02*
X1985Y614D01*
X2003Y614D02*
X2032Y614D01*
X2446Y614D02*
X2453Y614D01*
X0Y613D02*
X7Y613D01*
X1979Y613D02*
X1985Y613D01*
X2003Y613D02*
X2032Y613D01*
X2446Y613D02*
X2453Y613D01*
X0Y612D02*
X7Y612D01*
X1979Y612D02*
X1985Y612D01*
X2003Y612D02*
X2032Y612D01*
X2446Y612D02*
X2453Y612D01*
X0Y611D02*
X7Y611D01*
X1979Y611D02*
X1985Y611D01*
X2003Y611D02*
X2032Y611D01*
X2446Y611D02*
X2453Y611D01*
X0Y610D02*
X7Y610D01*
X1979Y610D02*
X1985Y610D01*
X2003Y610D02*
X2031Y610D01*
X2446Y610D02*
X2453Y610D01*
X0Y609D02*
X7Y609D01*
X1979Y609D02*
X1985Y609D01*
X2003Y609D02*
X2030Y609D01*
X2446Y609D02*
X2453Y609D01*
X0Y608D02*
X7Y608D01*
X1979Y608D02*
X2009Y608D01*
X2446Y608D02*
X2453Y608D01*
X0Y607D02*
X7Y607D01*
X1979Y607D02*
X2008Y607D01*
X2446Y607D02*
X2453Y607D01*
X0Y606D02*
X7Y606D01*
X1980Y606D02*
X2008Y606D01*
X2446Y606D02*
X2453Y606D01*
X0Y605D02*
X7Y605D01*
X1980Y605D02*
X2008Y605D01*
X2446Y605D02*
X2453Y605D01*
X0Y604D02*
X7Y604D01*
X1981Y604D02*
X2007Y604D01*
X2446Y604D02*
X2453Y604D01*
X0Y603D02*
X7Y603D01*
X1982Y603D02*
X2006Y603D01*
X2446Y603D02*
X2453Y603D01*
X0Y602D02*
X7Y602D01*
X1984Y602D02*
X2004Y602D01*
X2446Y602D02*
X2453Y602D01*
X0Y601D02*
X7Y601D01*
X2446Y601D02*
X2453Y601D01*
X0Y600D02*
X7Y600D01*
X2446Y600D02*
X2453Y600D01*
X0Y599D02*
X7Y599D01*
X2446Y599D02*
X2453Y599D01*
X0Y598D02*
X7Y598D01*
X2446Y598D02*
X2453Y598D01*
X0Y597D02*
X7Y597D01*
X2446Y597D02*
X2453Y597D01*
X0Y596D02*
X7Y596D01*
X2446Y596D02*
X2453Y596D01*
X0Y595D02*
X7Y595D01*
X2446Y595D02*
X2453Y595D01*
X0Y594D02*
X7Y594D01*
X2446Y594D02*
X2453Y594D01*
X0Y593D02*
X7Y593D01*
X2446Y593D02*
X2453Y593D01*
X0Y592D02*
X7Y592D01*
X2446Y592D02*
X2453Y592D01*
X0Y591D02*
X7Y591D01*
X2446Y591D02*
X2453Y591D01*
X0Y590D02*
X7Y590D01*
X2446Y590D02*
X2453Y590D01*
X0Y589D02*
X7Y589D01*
X2446Y589D02*
X2453Y589D01*
X0Y588D02*
X7Y588D01*
X2446Y588D02*
X2453Y588D01*
X0Y587D02*
X7Y587D01*
X2446Y587D02*
X2453Y587D01*
X0Y586D02*
X7Y586D01*
X1985Y586D02*
X2002Y586D01*
X2446Y586D02*
X2453Y586D01*
X0Y585D02*
X7Y585D01*
X1982Y585D02*
X2005Y585D01*
X2446Y585D02*
X2453Y585D01*
X0Y584D02*
X7Y584D01*
X1981Y584D02*
X2007Y584D01*
X2446Y584D02*
X2453Y584D01*
X0Y583D02*
X7Y583D01*
X1980Y583D02*
X2007Y583D01*
X2446Y583D02*
X2453Y583D01*
X0Y582D02*
X7Y582D01*
X1980Y582D02*
X2008Y582D01*
X2446Y582D02*
X2453Y582D01*
X0Y581D02*
X7Y581D01*
X1979Y581D02*
X2008Y581D01*
X2446Y581D02*
X2453Y581D01*
X0Y580D02*
X7Y580D01*
X1979Y580D02*
X2009Y580D01*
X2446Y580D02*
X2453Y580D01*
X0Y579D02*
X7Y579D01*
X1979Y579D02*
X1985Y579D01*
X2002Y579D02*
X2030Y579D01*
X2446Y579D02*
X2453Y579D01*
X0Y578D02*
X7Y578D01*
X1979Y578D02*
X1985Y578D01*
X2003Y578D02*
X2031Y578D01*
X2446Y578D02*
X2453Y578D01*
X0Y577D02*
X7Y577D01*
X1979Y577D02*
X1985Y577D01*
X2003Y577D02*
X2032Y577D01*
X2446Y577D02*
X2453Y577D01*
X0Y576D02*
X7Y576D01*
X1979Y576D02*
X1985Y576D01*
X2003Y576D02*
X2032Y576D01*
X2446Y576D02*
X2453Y576D01*
X0Y575D02*
X7Y575D01*
X1979Y575D02*
X1985Y575D01*
X2003Y575D02*
X2032Y575D01*
X2446Y575D02*
X2453Y575D01*
X0Y574D02*
X7Y574D01*
X1979Y574D02*
X1985Y574D01*
X2003Y574D02*
X2032Y574D01*
X2446Y574D02*
X2453Y574D01*
X0Y573D02*
X7Y573D01*
X1979Y573D02*
X1985Y573D01*
X2003Y573D02*
X2032Y573D01*
X2446Y573D02*
X2453Y573D01*
X0Y572D02*
X7Y572D01*
X1979Y572D02*
X1985Y572D01*
X2003Y572D02*
X2009Y572D01*
X2026Y572D02*
X2032Y572D01*
X2446Y572D02*
X2453Y572D01*
X0Y571D02*
X7Y571D01*
X1979Y571D02*
X1985Y571D01*
X2003Y571D02*
X2009Y571D01*
X2026Y571D02*
X2032Y571D01*
X2446Y571D02*
X2453Y571D01*
X0Y570D02*
X7Y570D01*
X1979Y570D02*
X1985Y570D01*
X2003Y570D02*
X2009Y570D01*
X2026Y570D02*
X2032Y570D01*
X2446Y570D02*
X2453Y570D01*
X0Y569D02*
X7Y569D01*
X1979Y569D02*
X1985Y569D01*
X2003Y569D02*
X2009Y569D01*
X2026Y569D02*
X2032Y569D01*
X2446Y569D02*
X2453Y569D01*
X0Y568D02*
X7Y568D01*
X1979Y568D02*
X1985Y568D01*
X2003Y568D02*
X2009Y568D01*
X2026Y568D02*
X2032Y568D01*
X2446Y568D02*
X2453Y568D01*
X0Y567D02*
X7Y567D01*
X1979Y567D02*
X1985Y567D01*
X2003Y567D02*
X2009Y567D01*
X2026Y567D02*
X2032Y567D01*
X2446Y567D02*
X2453Y567D01*
X0Y566D02*
X7Y566D01*
X1979Y566D02*
X1985Y566D01*
X2003Y566D02*
X2009Y566D01*
X2026Y566D02*
X2032Y566D01*
X2446Y566D02*
X2453Y566D01*
X0Y565D02*
X7Y565D01*
X1979Y565D02*
X1985Y565D01*
X2003Y565D02*
X2032Y565D01*
X2446Y565D02*
X2453Y565D01*
X0Y564D02*
X7Y564D01*
X1979Y564D02*
X1985Y564D01*
X2003Y564D02*
X2032Y564D01*
X2446Y564D02*
X2453Y564D01*
X0Y563D02*
X7Y563D01*
X1979Y563D02*
X1985Y563D01*
X2003Y563D02*
X2032Y563D01*
X2446Y563D02*
X2453Y563D01*
X0Y562D02*
X7Y562D01*
X1979Y562D02*
X1985Y562D01*
X2003Y562D02*
X2032Y562D01*
X2446Y562D02*
X2453Y562D01*
X0Y561D02*
X7Y561D01*
X1979Y561D02*
X1985Y561D01*
X2003Y561D02*
X2032Y561D01*
X2446Y561D02*
X2453Y561D01*
X0Y560D02*
X7Y560D01*
X1979Y560D02*
X1985Y560D01*
X2003Y560D02*
X2032Y560D01*
X2446Y560D02*
X2453Y560D01*
X0Y559D02*
X7Y559D01*
X1979Y559D02*
X1985Y559D01*
X2003Y559D02*
X2030Y559D01*
X2446Y559D02*
X2453Y559D01*
X0Y558D02*
X7Y558D01*
X1979Y558D02*
X2009Y558D01*
X2446Y558D02*
X2453Y558D01*
X0Y557D02*
X7Y557D01*
X1979Y557D02*
X2009Y557D01*
X2446Y557D02*
X2453Y557D01*
X0Y556D02*
X7Y556D01*
X1980Y556D02*
X2008Y556D01*
X2446Y556D02*
X2453Y556D01*
X0Y555D02*
X7Y555D01*
X1980Y555D02*
X2008Y555D01*
X2446Y555D02*
X2453Y555D01*
X0Y554D02*
X7Y554D01*
X1981Y554D02*
X2007Y554D01*
X2446Y554D02*
X2453Y554D01*
X0Y553D02*
X7Y553D01*
X1982Y553D02*
X2006Y553D01*
X2446Y553D02*
X2453Y553D01*
X0Y552D02*
X7Y552D01*
X1984Y552D02*
X2004Y552D01*
X2446Y552D02*
X2453Y552D01*
X0Y551D02*
X7Y551D01*
X2446Y551D02*
X2453Y551D01*
X0Y550D02*
X7Y550D01*
X2446Y550D02*
X2453Y550D01*
X0Y549D02*
X7Y549D01*
X2446Y549D02*
X2453Y549D01*
X0Y548D02*
X7Y548D01*
X2446Y548D02*
X2453Y548D01*
X0Y547D02*
X7Y547D01*
X2446Y547D02*
X2453Y547D01*
X0Y546D02*
X7Y546D01*
X2446Y546D02*
X2453Y546D01*
X0Y545D02*
X7Y545D01*
X2446Y545D02*
X2453Y545D01*
X0Y544D02*
X7Y544D01*
X2446Y544D02*
X2453Y544D01*
X0Y543D02*
X7Y543D01*
X2446Y543D02*
X2453Y543D01*
X0Y542D02*
X7Y542D01*
X2446Y542D02*
X2453Y542D01*
X0Y541D02*
X7Y541D01*
X2446Y541D02*
X2453Y541D01*
X0Y540D02*
X7Y540D01*
X2446Y540D02*
X2453Y540D01*
X0Y539D02*
X7Y539D01*
X2446Y539D02*
X2453Y539D01*
X0Y538D02*
X7Y538D01*
X2446Y538D02*
X2453Y538D01*
X0Y537D02*
X7Y537D01*
X2446Y537D02*
X2453Y537D01*
X0Y536D02*
X7Y536D01*
X2446Y536D02*
X2453Y536D01*
X0Y535D02*
X7Y535D01*
X1980Y535D02*
X1984Y535D01*
X2027Y535D02*
X2031Y535D01*
X2446Y535D02*
X2453Y535D01*
X0Y534D02*
X7Y534D01*
X1980Y534D02*
X1985Y534D01*
X2027Y534D02*
X2032Y534D01*
X2446Y534D02*
X2453Y534D01*
X0Y533D02*
X7Y533D01*
X1979Y533D02*
X1985Y533D01*
X2026Y533D02*
X2032Y533D01*
X2446Y533D02*
X2453Y533D01*
X0Y532D02*
X7Y532D01*
X1979Y532D02*
X1985Y532D01*
X2026Y532D02*
X2032Y532D01*
X2446Y532D02*
X2453Y532D01*
X0Y531D02*
X7Y531D01*
X1979Y531D02*
X1985Y531D01*
X2026Y531D02*
X2032Y531D01*
X2446Y531D02*
X2453Y531D01*
X0Y530D02*
X7Y530D01*
X1979Y530D02*
X1985Y530D01*
X2026Y530D02*
X2032Y530D01*
X2446Y530D02*
X2453Y530D01*
X0Y529D02*
X7Y529D01*
X1979Y529D02*
X1985Y529D01*
X2026Y529D02*
X2032Y529D01*
X2446Y529D02*
X2453Y529D01*
X0Y528D02*
X7Y528D01*
X1359Y528D02*
X1367Y528D01*
X1384Y528D02*
X1392Y528D01*
X1409Y528D02*
X1436Y528D01*
X1460Y528D02*
X1464Y528D01*
X1488Y528D02*
X1491Y528D01*
X1561Y528D02*
X1567Y528D01*
X1614Y528D02*
X1639Y528D01*
X1667Y528D02*
X1692Y528D01*
X1714Y528D02*
X1740Y528D01*
X1979Y528D02*
X1985Y528D01*
X2004Y528D02*
X2008Y528D01*
X2026Y528D02*
X2032Y528D01*
X2446Y528D02*
X2453Y528D01*
X0Y527D02*
X7Y527D01*
X1359Y527D02*
X1368Y527D01*
X1383Y527D02*
X1392Y527D01*
X1409Y527D02*
X1438Y527D01*
X1460Y527D02*
X1464Y527D01*
X1487Y527D02*
X1492Y527D01*
X1560Y527D02*
X1568Y527D01*
X1612Y527D02*
X1641Y527D01*
X1667Y527D02*
X1693Y527D01*
X1712Y527D02*
X1741Y527D01*
X1979Y527D02*
X1985Y527D01*
X2003Y527D02*
X2008Y527D01*
X2026Y527D02*
X2032Y527D01*
X2446Y527D02*
X2453Y527D01*
X0Y526D02*
X7Y526D01*
X1359Y526D02*
X1368Y526D01*
X1382Y526D02*
X1392Y526D01*
X1409Y526D02*
X1439Y526D01*
X1459Y526D02*
X1465Y526D01*
X1487Y526D02*
X1492Y526D01*
X1560Y526D02*
X1569Y526D01*
X1611Y526D02*
X1642Y526D01*
X1667Y526D02*
X1693Y526D01*
X1712Y526D02*
X1742Y526D01*
X1979Y526D02*
X1985Y526D01*
X2003Y526D02*
X2009Y526D01*
X2026Y526D02*
X2032Y526D01*
X2446Y526D02*
X2453Y526D01*
X0Y525D02*
X7Y525D01*
X1359Y525D02*
X1369Y525D01*
X1382Y525D02*
X1392Y525D01*
X1409Y525D02*
X1440Y525D01*
X1459Y525D02*
X1465Y525D01*
X1487Y525D02*
X1493Y525D01*
X1559Y525D02*
X1569Y525D01*
X1610Y525D02*
X1642Y525D01*
X1667Y525D02*
X1693Y525D01*
X1711Y525D02*
X1743Y525D01*
X1979Y525D02*
X1985Y525D01*
X2003Y525D02*
X2009Y525D01*
X2026Y525D02*
X2032Y525D01*
X2446Y525D02*
X2453Y525D01*
X0Y524D02*
X7Y524D01*
X1359Y524D02*
X1370Y524D01*
X1381Y524D02*
X1392Y524D01*
X1409Y524D02*
X1441Y524D01*
X1459Y524D02*
X1465Y524D01*
X1487Y524D02*
X1493Y524D01*
X1559Y524D02*
X1569Y524D01*
X1610Y524D02*
X1643Y524D01*
X1667Y524D02*
X1693Y524D01*
X1710Y524D02*
X1743Y524D01*
X1979Y524D02*
X1985Y524D01*
X2003Y524D02*
X2009Y524D01*
X2026Y524D02*
X2032Y524D01*
X2446Y524D02*
X2453Y524D01*
X0Y523D02*
X7Y523D01*
X1359Y523D02*
X1370Y523D01*
X1380Y523D02*
X1392Y523D01*
X1409Y523D02*
X1441Y523D01*
X1459Y523D02*
X1465Y523D01*
X1487Y523D02*
X1493Y523D01*
X1559Y523D02*
X1568Y523D01*
X1610Y523D02*
X1643Y523D01*
X1667Y523D02*
X1692Y523D01*
X1710Y523D02*
X1743Y523D01*
X1979Y523D02*
X1985Y523D01*
X2003Y523D02*
X2009Y523D01*
X2026Y523D02*
X2032Y523D01*
X2446Y523D02*
X2453Y523D01*
X0Y522D02*
X7Y522D01*
X1359Y522D02*
X1371Y522D01*
X1380Y522D02*
X1392Y522D01*
X1409Y522D02*
X1442Y522D01*
X1459Y522D02*
X1465Y522D01*
X1487Y522D02*
X1493Y522D01*
X1559Y522D02*
X1567Y522D01*
X1610Y522D02*
X1643Y522D01*
X1667Y522D02*
X1691Y522D01*
X1710Y522D02*
X1744Y522D01*
X1979Y522D02*
X1985Y522D01*
X2003Y522D02*
X2009Y522D01*
X2026Y522D02*
X2032Y522D01*
X2446Y522D02*
X2453Y522D01*
X0Y521D02*
X7Y521D01*
X1359Y521D02*
X1372Y521D01*
X1379Y521D02*
X1392Y521D01*
X1409Y521D02*
X1415Y521D01*
X1435Y521D02*
X1442Y521D01*
X1459Y521D02*
X1465Y521D01*
X1487Y521D02*
X1493Y521D01*
X1559Y521D02*
X1565Y521D01*
X1610Y521D02*
X1616Y521D01*
X1637Y521D02*
X1643Y521D01*
X1667Y521D02*
X1673Y521D01*
X1710Y521D02*
X1716Y521D01*
X1738Y521D02*
X1744Y521D01*
X1979Y521D02*
X1985Y521D01*
X2003Y521D02*
X2009Y521D01*
X2026Y521D02*
X2032Y521D01*
X2446Y521D02*
X2453Y521D01*
X0Y520D02*
X7Y520D01*
X1359Y520D02*
X1373Y520D01*
X1378Y520D02*
X1392Y520D01*
X1409Y520D02*
X1415Y520D01*
X1436Y520D02*
X1442Y520D01*
X1459Y520D02*
X1465Y520D01*
X1487Y520D02*
X1493Y520D01*
X1559Y520D02*
X1565Y520D01*
X1610Y520D02*
X1616Y520D01*
X1637Y520D02*
X1643Y520D01*
X1667Y520D02*
X1673Y520D01*
X1710Y520D02*
X1716Y520D01*
X1738Y520D02*
X1744Y520D01*
X1979Y520D02*
X1985Y520D01*
X2003Y520D02*
X2009Y520D01*
X2026Y520D02*
X2032Y520D01*
X2446Y520D02*
X2453Y520D01*
X0Y519D02*
X7Y519D01*
X1359Y519D02*
X1373Y519D01*
X1378Y519D02*
X1392Y519D01*
X1409Y519D02*
X1415Y519D01*
X1436Y519D02*
X1442Y519D01*
X1459Y519D02*
X1465Y519D01*
X1487Y519D02*
X1493Y519D01*
X1559Y519D02*
X1565Y519D01*
X1610Y519D02*
X1616Y519D01*
X1637Y519D02*
X1643Y519D01*
X1667Y519D02*
X1673Y519D01*
X1710Y519D02*
X1716Y519D01*
X1738Y519D02*
X1744Y519D01*
X1979Y519D02*
X1985Y519D01*
X2003Y519D02*
X2009Y519D01*
X2026Y519D02*
X2032Y519D01*
X2446Y519D02*
X2453Y519D01*
X0Y518D02*
X7Y518D01*
X879Y518D02*
X905Y518D01*
X1359Y518D02*
X1374Y518D01*
X1377Y518D02*
X1384Y518D01*
X1386Y518D02*
X1392Y518D01*
X1409Y518D02*
X1415Y518D01*
X1436Y518D02*
X1442Y518D01*
X1459Y518D02*
X1465Y518D01*
X1487Y518D02*
X1493Y518D01*
X1559Y518D02*
X1565Y518D01*
X1610Y518D02*
X1616Y518D01*
X1637Y518D02*
X1643Y518D01*
X1667Y518D02*
X1673Y518D01*
X1710Y518D02*
X1716Y518D01*
X1738Y518D02*
X1744Y518D01*
X1979Y518D02*
X1985Y518D01*
X2003Y518D02*
X2009Y518D01*
X2026Y518D02*
X2032Y518D01*
X2446Y518D02*
X2453Y518D01*
X0Y517D02*
X7Y517D01*
X877Y517D02*
X907Y517D01*
X1359Y517D02*
X1365Y517D01*
X1367Y517D02*
X1384Y517D01*
X1386Y517D02*
X1392Y517D01*
X1409Y517D02*
X1415Y517D01*
X1436Y517D02*
X1442Y517D01*
X1459Y517D02*
X1465Y517D01*
X1487Y517D02*
X1493Y517D01*
X1559Y517D02*
X1565Y517D01*
X1610Y517D02*
X1616Y517D01*
X1637Y517D02*
X1643Y517D01*
X1667Y517D02*
X1673Y517D01*
X1710Y517D02*
X1716Y517D01*
X1738Y517D02*
X1744Y517D01*
X1979Y517D02*
X1985Y517D01*
X2003Y517D02*
X2009Y517D01*
X2026Y517D02*
X2032Y517D01*
X2446Y517D02*
X2453Y517D01*
X0Y516D02*
X7Y516D01*
X876Y516D02*
X909Y516D01*
X1359Y516D02*
X1365Y516D01*
X1368Y516D02*
X1383Y516D01*
X1386Y516D02*
X1392Y516D01*
X1409Y516D02*
X1415Y516D01*
X1436Y516D02*
X1442Y516D01*
X1459Y516D02*
X1465Y516D01*
X1487Y516D02*
X1493Y516D01*
X1559Y516D02*
X1565Y516D01*
X1610Y516D02*
X1616Y516D01*
X1637Y516D02*
X1643Y516D01*
X1667Y516D02*
X1673Y516D01*
X1710Y516D02*
X1716Y516D01*
X1738Y516D02*
X1744Y516D01*
X1979Y516D02*
X1985Y516D01*
X2003Y516D02*
X2009Y516D01*
X2026Y516D02*
X2032Y516D01*
X2446Y516D02*
X2453Y516D01*
X0Y515D02*
X7Y515D01*
X875Y515D02*
X910Y515D01*
X1359Y515D02*
X1365Y515D01*
X1368Y515D02*
X1382Y515D01*
X1386Y515D02*
X1392Y515D01*
X1409Y515D02*
X1415Y515D01*
X1436Y515D02*
X1442Y515D01*
X1459Y515D02*
X1465Y515D01*
X1487Y515D02*
X1493Y515D01*
X1559Y515D02*
X1565Y515D01*
X1610Y515D02*
X1616Y515D01*
X1637Y515D02*
X1643Y515D01*
X1667Y515D02*
X1673Y515D01*
X1710Y515D02*
X1716Y515D01*
X1738Y515D02*
X1744Y515D01*
X1979Y515D02*
X1985Y515D01*
X2003Y515D02*
X2009Y515D01*
X2026Y515D02*
X2032Y515D01*
X2446Y515D02*
X2453Y515D01*
X0Y514D02*
X7Y514D01*
X874Y514D02*
X911Y514D01*
X1359Y514D02*
X1365Y514D01*
X1369Y514D02*
X1382Y514D01*
X1386Y514D02*
X1392Y514D01*
X1409Y514D02*
X1415Y514D01*
X1436Y514D02*
X1442Y514D01*
X1459Y514D02*
X1465Y514D01*
X1487Y514D02*
X1493Y514D01*
X1559Y514D02*
X1565Y514D01*
X1610Y514D02*
X1616Y514D01*
X1637Y514D02*
X1643Y514D01*
X1667Y514D02*
X1673Y514D01*
X1710Y514D02*
X1716Y514D01*
X1738Y514D02*
X1744Y514D01*
X1979Y514D02*
X1985Y514D01*
X2003Y514D02*
X2009Y514D01*
X2026Y514D02*
X2032Y514D01*
X2446Y514D02*
X2453Y514D01*
X0Y513D02*
X7Y513D01*
X874Y513D02*
X913Y513D01*
X1359Y513D02*
X1365Y513D01*
X1370Y513D02*
X1381Y513D01*
X1386Y513D02*
X1392Y513D01*
X1409Y513D02*
X1415Y513D01*
X1436Y513D02*
X1442Y513D01*
X1459Y513D02*
X1465Y513D01*
X1487Y513D02*
X1493Y513D01*
X1559Y513D02*
X1565Y513D01*
X1610Y513D02*
X1616Y513D01*
X1637Y513D02*
X1643Y513D01*
X1667Y513D02*
X1673Y513D01*
X1710Y513D02*
X1716Y513D01*
X1738Y513D02*
X1744Y513D01*
X1979Y513D02*
X1985Y513D01*
X2003Y513D02*
X2009Y513D01*
X2026Y513D02*
X2032Y513D01*
X2446Y513D02*
X2453Y513D01*
X0Y512D02*
X7Y512D01*
X873Y512D02*
X914Y512D01*
X1359Y512D02*
X1365Y512D01*
X1371Y512D02*
X1380Y512D01*
X1386Y512D02*
X1392Y512D01*
X1409Y512D02*
X1415Y512D01*
X1436Y512D02*
X1442Y512D01*
X1459Y512D02*
X1465Y512D01*
X1487Y512D02*
X1493Y512D01*
X1559Y512D02*
X1565Y512D01*
X1610Y512D02*
X1616Y512D01*
X1637Y512D02*
X1643Y512D01*
X1667Y512D02*
X1673Y512D01*
X1710Y512D02*
X1716Y512D01*
X1738Y512D02*
X1744Y512D01*
X1979Y512D02*
X1985Y512D01*
X2003Y512D02*
X2009Y512D01*
X2026Y512D02*
X2032Y512D01*
X2446Y512D02*
X2453Y512D01*
X0Y511D02*
X7Y511D01*
X873Y511D02*
X880Y511D01*
X904Y511D02*
X915Y511D01*
X1359Y511D02*
X1365Y511D01*
X1371Y511D02*
X1380Y511D01*
X1386Y511D02*
X1392Y511D01*
X1409Y511D02*
X1415Y511D01*
X1436Y511D02*
X1442Y511D01*
X1459Y511D02*
X1465Y511D01*
X1487Y511D02*
X1493Y511D01*
X1559Y511D02*
X1565Y511D01*
X1610Y511D02*
X1616Y511D01*
X1637Y511D02*
X1643Y511D01*
X1667Y511D02*
X1673Y511D01*
X1710Y511D02*
X1716Y511D01*
X1738Y511D02*
X1744Y511D01*
X1979Y511D02*
X1985Y511D01*
X2003Y511D02*
X2009Y511D01*
X2026Y511D02*
X2032Y511D01*
X2446Y511D02*
X2453Y511D01*
X0Y510D02*
X7Y510D01*
X872Y510D02*
X879Y510D01*
X906Y510D02*
X917Y510D01*
X1359Y510D02*
X1365Y510D01*
X1372Y510D02*
X1379Y510D01*
X1386Y510D02*
X1392Y510D01*
X1409Y510D02*
X1415Y510D01*
X1436Y510D02*
X1442Y510D01*
X1459Y510D02*
X1465Y510D01*
X1487Y510D02*
X1493Y510D01*
X1559Y510D02*
X1565Y510D01*
X1610Y510D02*
X1616Y510D01*
X1637Y510D02*
X1643Y510D01*
X1667Y510D02*
X1673Y510D01*
X1710Y510D02*
X1716Y510D01*
X1738Y510D02*
X1744Y510D01*
X1979Y510D02*
X1985Y510D01*
X2002Y510D02*
X2009Y510D01*
X2026Y510D02*
X2032Y510D01*
X2446Y510D02*
X2453Y510D01*
X0Y509D02*
X7Y509D01*
X872Y509D02*
X878Y509D01*
X907Y509D02*
X918Y509D01*
X1359Y509D02*
X1365Y509D01*
X1372Y509D02*
X1378Y509D01*
X1386Y509D02*
X1392Y509D01*
X1409Y509D02*
X1415Y509D01*
X1436Y509D02*
X1442Y509D01*
X1459Y509D02*
X1465Y509D01*
X1487Y509D02*
X1493Y509D01*
X1559Y509D02*
X1565Y509D01*
X1610Y509D02*
X1616Y509D01*
X1637Y509D02*
X1643Y509D01*
X1667Y509D02*
X1673Y509D01*
X1710Y509D02*
X1716Y509D01*
X1738Y509D02*
X1744Y509D01*
X1979Y509D02*
X1985Y509D01*
X2001Y509D02*
X2010Y509D01*
X2026Y509D02*
X2032Y509D01*
X2446Y509D02*
X2453Y509D01*
X0Y508D02*
X7Y508D01*
X872Y508D02*
X878Y508D01*
X909Y508D02*
X919Y508D01*
X1359Y508D02*
X1365Y508D01*
X1372Y508D02*
X1378Y508D01*
X1386Y508D02*
X1392Y508D01*
X1409Y508D02*
X1415Y508D01*
X1436Y508D02*
X1442Y508D01*
X1459Y508D02*
X1465Y508D01*
X1487Y508D02*
X1493Y508D01*
X1559Y508D02*
X1565Y508D01*
X1610Y508D02*
X1616Y508D01*
X1637Y508D02*
X1643Y508D01*
X1667Y508D02*
X1673Y508D01*
X1710Y508D02*
X1716Y508D01*
X1738Y508D02*
X1744Y508D01*
X1979Y508D02*
X2032Y508D01*
X2446Y508D02*
X2453Y508D01*
X0Y507D02*
X7Y507D01*
X872Y507D02*
X878Y507D01*
X910Y507D02*
X920Y507D01*
X1359Y507D02*
X1365Y507D01*
X1372Y507D02*
X1378Y507D01*
X1386Y507D02*
X1392Y507D01*
X1409Y507D02*
X1415Y507D01*
X1436Y507D02*
X1442Y507D01*
X1459Y507D02*
X1465Y507D01*
X1487Y507D02*
X1493Y507D01*
X1559Y507D02*
X1565Y507D01*
X1610Y507D02*
X1616Y507D01*
X1637Y507D02*
X1643Y507D01*
X1667Y507D02*
X1673Y507D01*
X1710Y507D02*
X1716Y507D01*
X1738Y507D02*
X1744Y507D01*
X1979Y507D02*
X2032Y507D01*
X2446Y507D02*
X2453Y507D01*
X0Y506D02*
X7Y506D01*
X872Y506D02*
X878Y506D01*
X911Y506D02*
X922Y506D01*
X1359Y506D02*
X1365Y506D01*
X1373Y506D02*
X1378Y506D01*
X1386Y506D02*
X1392Y506D01*
X1409Y506D02*
X1415Y506D01*
X1436Y506D02*
X1442Y506D01*
X1459Y506D02*
X1465Y506D01*
X1487Y506D02*
X1493Y506D01*
X1559Y506D02*
X1565Y506D01*
X1610Y506D02*
X1616Y506D01*
X1637Y506D02*
X1643Y506D01*
X1667Y506D02*
X1673Y506D01*
X1710Y506D02*
X1716Y506D01*
X1738Y506D02*
X1744Y506D01*
X1980Y506D02*
X2032Y506D01*
X2446Y506D02*
X2453Y506D01*
X0Y505D02*
X7Y505D01*
X872Y505D02*
X878Y505D01*
X913Y505D02*
X923Y505D01*
X1359Y505D02*
X1365Y505D01*
X1374Y505D02*
X1377Y505D01*
X1386Y505D02*
X1392Y505D01*
X1409Y505D02*
X1415Y505D01*
X1436Y505D02*
X1442Y505D01*
X1459Y505D02*
X1465Y505D01*
X1487Y505D02*
X1493Y505D01*
X1512Y505D02*
X1540Y505D01*
X1559Y505D02*
X1565Y505D01*
X1610Y505D02*
X1616Y505D01*
X1637Y505D02*
X1643Y505D01*
X1667Y505D02*
X1688Y505D01*
X1710Y505D02*
X1716Y505D01*
X1738Y505D02*
X1744Y505D01*
X1980Y505D02*
X2031Y505D01*
X2446Y505D02*
X2453Y505D01*
X0Y504D02*
X7Y504D01*
X872Y504D02*
X878Y504D01*
X914Y504D02*
X924Y504D01*
X1359Y504D02*
X1365Y504D01*
X1386Y504D02*
X1392Y504D01*
X1409Y504D02*
X1415Y504D01*
X1436Y504D02*
X1442Y504D01*
X1459Y504D02*
X1465Y504D01*
X1487Y504D02*
X1493Y504D01*
X1510Y504D02*
X1542Y504D01*
X1559Y504D02*
X1565Y504D01*
X1610Y504D02*
X1616Y504D01*
X1637Y504D02*
X1643Y504D01*
X1667Y504D02*
X1690Y504D01*
X1710Y504D02*
X1716Y504D01*
X1738Y504D02*
X1744Y504D01*
X1981Y504D02*
X2031Y504D01*
X2446Y504D02*
X2453Y504D01*
X0Y503D02*
X7Y503D01*
X872Y503D02*
X878Y503D01*
X915Y503D02*
X924Y503D01*
X1359Y503D02*
X1365Y503D01*
X1386Y503D02*
X1392Y503D01*
X1409Y503D02*
X1415Y503D01*
X1435Y503D02*
X1442Y503D01*
X1459Y503D02*
X1465Y503D01*
X1487Y503D02*
X1493Y503D01*
X1510Y503D02*
X1543Y503D01*
X1559Y503D02*
X1565Y503D01*
X1610Y503D02*
X1616Y503D01*
X1637Y503D02*
X1643Y503D01*
X1667Y503D02*
X1691Y503D01*
X1710Y503D02*
X1716Y503D01*
X1738Y503D02*
X1744Y503D01*
X1982Y503D02*
X2004Y503D01*
X2008Y503D02*
X2030Y503D01*
X2446Y503D02*
X2453Y503D01*
X0Y502D02*
X7Y502D01*
X872Y502D02*
X878Y502D01*
X916Y502D02*
X925Y502D01*
X1359Y502D02*
X1365Y502D01*
X1386Y502D02*
X1392Y502D01*
X1409Y502D02*
X1442Y502D01*
X1459Y502D02*
X1465Y502D01*
X1487Y502D02*
X1493Y502D01*
X1509Y502D02*
X1543Y502D01*
X1559Y502D02*
X1565Y502D01*
X1610Y502D02*
X1616Y502D01*
X1637Y502D02*
X1643Y502D01*
X1667Y502D02*
X1692Y502D01*
X1710Y502D02*
X1716Y502D01*
X1738Y502D02*
X1744Y502D01*
X1983Y502D02*
X2002Y502D01*
X2010Y502D02*
X2028Y502D01*
X2446Y502D02*
X2453Y502D01*
X0Y501D02*
X7Y501D01*
X872Y501D02*
X878Y501D01*
X892Y501D02*
X894Y501D01*
X918Y501D02*
X925Y501D01*
X1359Y501D02*
X1365Y501D01*
X1386Y501D02*
X1392Y501D01*
X1409Y501D02*
X1441Y501D01*
X1459Y501D02*
X1465Y501D01*
X1487Y501D02*
X1493Y501D01*
X1509Y501D02*
X1543Y501D01*
X1559Y501D02*
X1565Y501D01*
X1610Y501D02*
X1616Y501D01*
X1637Y501D02*
X1643Y501D01*
X1667Y501D02*
X1693Y501D01*
X1710Y501D02*
X1716Y501D01*
X1738Y501D02*
X1744Y501D01*
X2446Y501D02*
X2453Y501D01*
X0Y500D02*
X7Y500D01*
X872Y500D02*
X878Y500D01*
X891Y500D02*
X895Y500D01*
X919Y500D02*
X925Y500D01*
X1359Y500D02*
X1365Y500D01*
X1386Y500D02*
X1392Y500D01*
X1409Y500D02*
X1441Y500D01*
X1459Y500D02*
X1465Y500D01*
X1487Y500D02*
X1493Y500D01*
X1509Y500D02*
X1543Y500D01*
X1559Y500D02*
X1565Y500D01*
X1610Y500D02*
X1616Y500D01*
X1637Y500D02*
X1643Y500D01*
X1667Y500D02*
X1693Y500D01*
X1710Y500D02*
X1716Y500D01*
X1738Y500D02*
X1744Y500D01*
X2446Y500D02*
X2453Y500D01*
X0Y499D02*
X7Y499D01*
X872Y499D02*
X878Y499D01*
X890Y499D02*
X896Y499D01*
X919Y499D02*
X925Y499D01*
X1359Y499D02*
X1365Y499D01*
X1386Y499D02*
X1392Y499D01*
X1409Y499D02*
X1440Y499D01*
X1459Y499D02*
X1465Y499D01*
X1487Y499D02*
X1493Y499D01*
X1509Y499D02*
X1543Y499D01*
X1559Y499D02*
X1591Y499D01*
X1610Y499D02*
X1616Y499D01*
X1637Y499D02*
X1643Y499D01*
X1667Y499D02*
X1693Y499D01*
X1710Y499D02*
X1716Y499D01*
X1738Y499D02*
X1744Y499D01*
X2446Y499D02*
X2453Y499D01*
X0Y498D02*
X7Y498D01*
X872Y498D02*
X878Y498D01*
X890Y498D02*
X896Y498D01*
X919Y498D02*
X925Y498D01*
X1359Y498D02*
X1365Y498D01*
X1386Y498D02*
X1392Y498D01*
X1409Y498D02*
X1439Y498D01*
X1459Y498D02*
X1465Y498D01*
X1487Y498D02*
X1493Y498D01*
X1509Y498D02*
X1543Y498D01*
X1559Y498D02*
X1592Y498D01*
X1610Y498D02*
X1616Y498D01*
X1637Y498D02*
X1643Y498D01*
X1687Y498D02*
X1693Y498D01*
X1710Y498D02*
X1716Y498D01*
X1738Y498D02*
X1744Y498D01*
X2446Y498D02*
X2453Y498D01*
X0Y497D02*
X7Y497D01*
X872Y497D02*
X878Y497D01*
X890Y497D02*
X896Y497D01*
X919Y497D02*
X925Y497D01*
X1359Y497D02*
X1365Y497D01*
X1386Y497D02*
X1392Y497D01*
X1409Y497D02*
X1438Y497D01*
X1459Y497D02*
X1465Y497D01*
X1487Y497D02*
X1493Y497D01*
X1510Y497D02*
X1542Y497D01*
X1559Y497D02*
X1593Y497D01*
X1610Y497D02*
X1616Y497D01*
X1637Y497D02*
X1643Y497D01*
X1687Y497D02*
X1693Y497D01*
X1710Y497D02*
X1716Y497D01*
X1738Y497D02*
X1744Y497D01*
X2446Y497D02*
X2453Y497D01*
X0Y496D02*
X7Y496D01*
X872Y496D02*
X878Y496D01*
X890Y496D02*
X896Y496D01*
X919Y496D02*
X925Y496D01*
X1359Y496D02*
X1365Y496D01*
X1386Y496D02*
X1392Y496D01*
X1409Y496D02*
X1436Y496D01*
X1459Y496D02*
X1465Y496D01*
X1487Y496D02*
X1493Y496D01*
X1511Y496D02*
X1541Y496D01*
X1559Y496D02*
X1593Y496D01*
X1610Y496D02*
X1616Y496D01*
X1637Y496D02*
X1643Y496D01*
X1687Y496D02*
X1693Y496D01*
X1710Y496D02*
X1716Y496D01*
X1738Y496D02*
X1744Y496D01*
X2446Y496D02*
X2453Y496D01*
X0Y495D02*
X7Y495D01*
X872Y495D02*
X878Y495D01*
X890Y495D02*
X896Y495D01*
X919Y495D02*
X925Y495D01*
X1359Y495D02*
X1365Y495D01*
X1386Y495D02*
X1392Y495D01*
X1409Y495D02*
X1415Y495D01*
X1459Y495D02*
X1465Y495D01*
X1487Y495D02*
X1493Y495D01*
X1559Y495D02*
X1593Y495D01*
X1610Y495D02*
X1616Y495D01*
X1637Y495D02*
X1643Y495D01*
X1687Y495D02*
X1693Y495D01*
X1710Y495D02*
X1716Y495D01*
X1738Y495D02*
X1744Y495D01*
X2446Y495D02*
X2453Y495D01*
X0Y494D02*
X7Y494D01*
X872Y494D02*
X878Y494D01*
X890Y494D02*
X896Y494D01*
X919Y494D02*
X925Y494D01*
X1359Y494D02*
X1365Y494D01*
X1386Y494D02*
X1392Y494D01*
X1409Y494D02*
X1415Y494D01*
X1459Y494D02*
X1465Y494D01*
X1487Y494D02*
X1493Y494D01*
X1559Y494D02*
X1593Y494D01*
X1610Y494D02*
X1616Y494D01*
X1637Y494D02*
X1643Y494D01*
X1687Y494D02*
X1693Y494D01*
X1710Y494D02*
X1716Y494D01*
X1738Y494D02*
X1744Y494D01*
X2446Y494D02*
X2453Y494D01*
X0Y493D02*
X7Y493D01*
X872Y493D02*
X879Y493D01*
X890Y493D02*
X896Y493D01*
X919Y493D02*
X925Y493D01*
X1359Y493D02*
X1365Y493D01*
X1386Y493D02*
X1392Y493D01*
X1409Y493D02*
X1415Y493D01*
X1459Y493D02*
X1465Y493D01*
X1487Y493D02*
X1493Y493D01*
X1559Y493D02*
X1593Y493D01*
X1610Y493D02*
X1616Y493D01*
X1637Y493D02*
X1643Y493D01*
X1687Y493D02*
X1693Y493D01*
X1710Y493D02*
X1716Y493D01*
X1738Y493D02*
X1744Y493D01*
X2446Y493D02*
X2453Y493D01*
X0Y492D02*
X7Y492D01*
X873Y492D02*
X880Y492D01*
X890Y492D02*
X896Y492D01*
X919Y492D02*
X925Y492D01*
X1359Y492D02*
X1365Y492D01*
X1386Y492D02*
X1392Y492D01*
X1409Y492D02*
X1415Y492D01*
X1459Y492D02*
X1465Y492D01*
X1487Y492D02*
X1493Y492D01*
X1559Y492D02*
X1565Y492D01*
X1587Y492D02*
X1593Y492D01*
X1610Y492D02*
X1616Y492D01*
X1637Y492D02*
X1643Y492D01*
X1687Y492D02*
X1693Y492D01*
X1710Y492D02*
X1716Y492D01*
X1738Y492D02*
X1744Y492D01*
X2446Y492D02*
X2453Y492D01*
X0Y491D02*
X7Y491D01*
X873Y491D02*
X896Y491D01*
X919Y491D02*
X925Y491D01*
X1359Y491D02*
X1365Y491D01*
X1386Y491D02*
X1392Y491D01*
X1409Y491D02*
X1415Y491D01*
X1459Y491D02*
X1465Y491D01*
X1487Y491D02*
X1493Y491D01*
X1559Y491D02*
X1565Y491D01*
X1587Y491D02*
X1593Y491D01*
X1610Y491D02*
X1616Y491D01*
X1637Y491D02*
X1643Y491D01*
X1687Y491D02*
X1693Y491D01*
X1710Y491D02*
X1716Y491D01*
X1738Y491D02*
X1744Y491D01*
X2446Y491D02*
X2453Y491D01*
X0Y490D02*
X7Y490D01*
X873Y490D02*
X896Y490D01*
X919Y490D02*
X925Y490D01*
X1359Y490D02*
X1365Y490D01*
X1386Y490D02*
X1392Y490D01*
X1409Y490D02*
X1415Y490D01*
X1459Y490D02*
X1465Y490D01*
X1487Y490D02*
X1493Y490D01*
X1559Y490D02*
X1565Y490D01*
X1587Y490D02*
X1593Y490D01*
X1610Y490D02*
X1616Y490D01*
X1637Y490D02*
X1643Y490D01*
X1687Y490D02*
X1693Y490D01*
X1710Y490D02*
X1716Y490D01*
X1738Y490D02*
X1744Y490D01*
X2446Y490D02*
X2453Y490D01*
X0Y489D02*
X7Y489D01*
X874Y489D02*
X896Y489D01*
X919Y489D02*
X925Y489D01*
X1359Y489D02*
X1365Y489D01*
X1386Y489D02*
X1392Y489D01*
X1409Y489D02*
X1415Y489D01*
X1459Y489D02*
X1465Y489D01*
X1487Y489D02*
X1493Y489D01*
X1559Y489D02*
X1565Y489D01*
X1587Y489D02*
X1593Y489D01*
X1610Y489D02*
X1616Y489D01*
X1637Y489D02*
X1643Y489D01*
X1687Y489D02*
X1693Y489D01*
X1710Y489D02*
X1716Y489D01*
X1738Y489D02*
X1744Y489D01*
X2446Y489D02*
X2453Y489D01*
X0Y488D02*
X7Y488D01*
X875Y488D02*
X896Y488D01*
X919Y488D02*
X925Y488D01*
X1359Y488D02*
X1365Y488D01*
X1386Y488D02*
X1392Y488D01*
X1409Y488D02*
X1415Y488D01*
X1459Y488D02*
X1465Y488D01*
X1487Y488D02*
X1493Y488D01*
X1559Y488D02*
X1565Y488D01*
X1587Y488D02*
X1593Y488D01*
X1610Y488D02*
X1616Y488D01*
X1637Y488D02*
X1643Y488D01*
X1687Y488D02*
X1693Y488D01*
X1710Y488D02*
X1716Y488D01*
X1738Y488D02*
X1744Y488D01*
X2446Y488D02*
X2453Y488D01*
X0Y487D02*
X7Y487D01*
X876Y487D02*
X896Y487D01*
X920Y487D02*
X925Y487D01*
X1359Y487D02*
X1365Y487D01*
X1386Y487D02*
X1392Y487D01*
X1409Y487D02*
X1415Y487D01*
X1459Y487D02*
X1465Y487D01*
X1487Y487D02*
X1493Y487D01*
X1559Y487D02*
X1565Y487D01*
X1587Y487D02*
X1593Y487D01*
X1610Y487D02*
X1616Y487D01*
X1637Y487D02*
X1643Y487D01*
X1687Y487D02*
X1693Y487D01*
X1710Y487D02*
X1716Y487D01*
X1738Y487D02*
X1744Y487D01*
X2446Y487D02*
X2453Y487D01*
X0Y486D02*
X7Y486D01*
X877Y486D02*
X896Y486D01*
X920Y486D02*
X925Y486D01*
X1359Y486D02*
X1365Y486D01*
X1386Y486D02*
X1392Y486D01*
X1409Y486D02*
X1415Y486D01*
X1459Y486D02*
X1465Y486D01*
X1487Y486D02*
X1493Y486D01*
X1559Y486D02*
X1565Y486D01*
X1587Y486D02*
X1593Y486D01*
X1610Y486D02*
X1616Y486D01*
X1637Y486D02*
X1643Y486D01*
X1687Y486D02*
X1693Y486D01*
X1710Y486D02*
X1716Y486D01*
X1738Y486D02*
X1744Y486D01*
X2446Y486D02*
X2453Y486D01*
X0Y485D02*
X7Y485D01*
X878Y485D02*
X896Y485D01*
X921Y485D02*
X924Y485D01*
X1359Y485D02*
X1365Y485D01*
X1386Y485D02*
X1392Y485D01*
X1409Y485D02*
X1415Y485D01*
X1459Y485D02*
X1465Y485D01*
X1487Y485D02*
X1493Y485D01*
X1559Y485D02*
X1565Y485D01*
X1587Y485D02*
X1593Y485D01*
X1610Y485D02*
X1616Y485D01*
X1637Y485D02*
X1643Y485D01*
X1687Y485D02*
X1693Y485D01*
X1710Y485D02*
X1716Y485D01*
X1738Y485D02*
X1744Y485D01*
X1979Y485D02*
X2031Y485D01*
X2446Y485D02*
X2453Y485D01*
X0Y484D02*
X7Y484D01*
X1359Y484D02*
X1365Y484D01*
X1386Y484D02*
X1392Y484D01*
X1409Y484D02*
X1415Y484D01*
X1459Y484D02*
X1465Y484D01*
X1486Y484D02*
X1493Y484D01*
X1559Y484D02*
X1565Y484D01*
X1587Y484D02*
X1593Y484D01*
X1610Y484D02*
X1616Y484D01*
X1637Y484D02*
X1643Y484D01*
X1661Y484D02*
X1664Y484D01*
X1687Y484D02*
X1693Y484D01*
X1710Y484D02*
X1716Y484D01*
X1738Y484D02*
X1744Y484D01*
X1979Y484D02*
X2032Y484D01*
X2446Y484D02*
X2453Y484D01*
X0Y483D02*
X7Y483D01*
X1359Y483D02*
X1365Y483D01*
X1386Y483D02*
X1392Y483D01*
X1409Y483D02*
X1415Y483D01*
X1459Y483D02*
X1466Y483D01*
X1486Y483D02*
X1492Y483D01*
X1559Y483D02*
X1565Y483D01*
X1587Y483D02*
X1593Y483D01*
X1610Y483D02*
X1616Y483D01*
X1637Y483D02*
X1643Y483D01*
X1660Y483D02*
X1667Y483D01*
X1687Y483D02*
X1693Y483D01*
X1710Y483D02*
X1716Y483D01*
X1738Y483D02*
X1744Y483D01*
X1979Y483D02*
X2032Y483D01*
X2446Y483D02*
X2453Y483D01*
X0Y482D02*
X7Y482D01*
X1359Y482D02*
X1365Y482D01*
X1386Y482D02*
X1392Y482D01*
X1409Y482D02*
X1415Y482D01*
X1460Y482D02*
X1467Y482D01*
X1484Y482D02*
X1492Y482D01*
X1559Y482D02*
X1565Y482D01*
X1587Y482D02*
X1593Y482D01*
X1610Y482D02*
X1616Y482D01*
X1637Y482D02*
X1643Y482D01*
X1660Y482D02*
X1669Y482D01*
X1687Y482D02*
X1693Y482D01*
X1710Y482D02*
X1716Y482D01*
X1737Y482D02*
X1744Y482D01*
X1979Y482D02*
X2032Y482D01*
X2446Y482D02*
X2453Y482D01*
X0Y481D02*
X7Y481D01*
X1359Y481D02*
X1365Y481D01*
X1386Y481D02*
X1392Y481D01*
X1409Y481D02*
X1415Y481D01*
X1460Y481D02*
X1492Y481D01*
X1559Y481D02*
X1593Y481D01*
X1610Y481D02*
X1643Y481D01*
X1660Y481D02*
X1693Y481D01*
X1710Y481D02*
X1744Y481D01*
X1979Y481D02*
X2032Y481D01*
X2446Y481D02*
X2453Y481D01*
X0Y480D02*
X7Y480D01*
X1359Y480D02*
X1365Y480D01*
X1386Y480D02*
X1392Y480D01*
X1409Y480D02*
X1415Y480D01*
X1460Y480D02*
X1491Y480D01*
X1559Y480D02*
X1593Y480D01*
X1610Y480D02*
X1643Y480D01*
X1660Y480D02*
X1693Y480D01*
X1710Y480D02*
X1743Y480D01*
X1979Y480D02*
X2031Y480D01*
X2446Y480D02*
X2453Y480D01*
X0Y479D02*
X7Y479D01*
X1359Y479D02*
X1365Y479D01*
X1386Y479D02*
X1392Y479D01*
X1409Y479D02*
X1415Y479D01*
X1461Y479D02*
X1491Y479D01*
X1559Y479D02*
X1593Y479D01*
X1610Y479D02*
X1643Y479D01*
X1660Y479D02*
X1693Y479D01*
X1711Y479D02*
X1743Y479D01*
X1979Y479D02*
X2030Y479D01*
X2446Y479D02*
X2453Y479D01*
X0Y478D02*
X7Y478D01*
X1359Y478D02*
X1365Y478D01*
X1386Y478D02*
X1392Y478D01*
X1409Y478D02*
X1415Y478D01*
X1462Y478D02*
X1490Y478D01*
X1559Y478D02*
X1593Y478D01*
X1611Y478D02*
X1642Y478D01*
X1662Y478D02*
X1692Y478D01*
X1711Y478D02*
X1742Y478D01*
X1979Y478D02*
X1985Y478D01*
X2446Y478D02*
X2453Y478D01*
X0Y477D02*
X7Y477D01*
X1359Y477D02*
X1364Y477D01*
X1386Y477D02*
X1392Y477D01*
X1409Y477D02*
X1415Y477D01*
X1463Y477D02*
X1489Y477D01*
X1560Y477D02*
X1593Y477D01*
X1611Y477D02*
X1641Y477D01*
X1664Y477D02*
X1692Y477D01*
X1712Y477D02*
X1742Y477D01*
X1979Y477D02*
X1985Y477D01*
X2446Y477D02*
X2453Y477D01*
X0Y476D02*
X7Y476D01*
X1359Y476D02*
X1364Y476D01*
X1387Y476D02*
X1391Y476D01*
X1410Y476D02*
X1414Y476D01*
X1464Y476D02*
X1487Y476D01*
X1560Y476D02*
X1592Y476D01*
X1613Y476D02*
X1640Y476D01*
X1666Y476D02*
X1690Y476D01*
X1713Y476D02*
X1741Y476D01*
X1979Y476D02*
X1985Y476D01*
X2446Y476D02*
X2453Y476D01*
X0Y475D02*
X7Y475D01*
X1361Y475D02*
X1363Y475D01*
X1388Y475D02*
X1390Y475D01*
X1411Y475D02*
X1413Y475D01*
X1467Y475D02*
X1485Y475D01*
X1561Y475D02*
X1591Y475D01*
X1614Y475D02*
X1638Y475D01*
X1669Y475D02*
X1689Y475D01*
X1715Y475D02*
X1739Y475D01*
X1979Y475D02*
X1985Y475D01*
X2446Y475D02*
X2453Y475D01*
X0Y474D02*
X7Y474D01*
X1979Y474D02*
X1985Y474D01*
X2446Y474D02*
X2453Y474D01*
X0Y473D02*
X7Y473D01*
X1979Y473D02*
X1985Y473D01*
X2446Y473D02*
X2453Y473D01*
X0Y472D02*
X7Y472D01*
X1979Y472D02*
X1985Y472D01*
X2446Y472D02*
X2453Y472D01*
X0Y471D02*
X7Y471D01*
X1979Y471D02*
X1985Y471D01*
X2446Y471D02*
X2453Y471D01*
X0Y470D02*
X7Y470D01*
X1979Y470D02*
X1985Y470D01*
X2446Y470D02*
X2453Y470D01*
X0Y469D02*
X7Y469D01*
X1979Y469D02*
X1985Y469D01*
X2446Y469D02*
X2453Y469D01*
X0Y468D02*
X7Y468D01*
X874Y468D02*
X925Y468D01*
X1979Y468D02*
X1985Y468D01*
X2446Y468D02*
X2453Y468D01*
X0Y467D02*
X7Y467D01*
X873Y467D02*
X925Y467D01*
X1979Y467D02*
X1985Y467D01*
X2446Y467D02*
X2453Y467D01*
X0Y466D02*
X7Y466D01*
X873Y466D02*
X925Y466D01*
X1979Y466D02*
X1985Y466D01*
X2446Y466D02*
X2453Y466D01*
X0Y465D02*
X7Y465D01*
X872Y465D02*
X925Y465D01*
X1979Y465D02*
X1985Y465D01*
X2446Y465D02*
X2453Y465D01*
X0Y464D02*
X7Y464D01*
X872Y464D02*
X925Y464D01*
X1979Y464D02*
X1985Y464D01*
X2446Y464D02*
X2453Y464D01*
X0Y463D02*
X7Y463D01*
X873Y463D02*
X925Y463D01*
X1979Y463D02*
X1985Y463D01*
X2446Y463D02*
X2453Y463D01*
X0Y462D02*
X7Y462D01*
X874Y462D02*
X925Y462D01*
X1979Y462D02*
X1985Y462D01*
X2446Y462D02*
X2453Y462D01*
X0Y461D02*
X7Y461D01*
X893Y461D02*
X899Y461D01*
X919Y461D02*
X925Y461D01*
X1979Y461D02*
X1985Y461D01*
X2446Y461D02*
X2453Y461D01*
X0Y460D02*
X7Y460D01*
X893Y460D02*
X899Y460D01*
X919Y460D02*
X925Y460D01*
X1979Y460D02*
X1985Y460D01*
X2446Y460D02*
X2453Y460D01*
X0Y459D02*
X7Y459D01*
X893Y459D02*
X899Y459D01*
X919Y459D02*
X925Y459D01*
X1979Y459D02*
X1985Y459D01*
X2446Y459D02*
X2453Y459D01*
X0Y458D02*
X7Y458D01*
X893Y458D02*
X899Y458D01*
X919Y458D02*
X925Y458D01*
X1979Y458D02*
X1985Y458D01*
X2446Y458D02*
X2453Y458D01*
X0Y457D02*
X7Y457D01*
X893Y457D02*
X899Y457D01*
X919Y457D02*
X925Y457D01*
X1979Y457D02*
X1985Y457D01*
X2446Y457D02*
X2453Y457D01*
X0Y456D02*
X7Y456D01*
X893Y456D02*
X899Y456D01*
X919Y456D02*
X925Y456D01*
X1979Y456D02*
X1985Y456D01*
X2446Y456D02*
X2453Y456D01*
X0Y455D02*
X7Y455D01*
X893Y455D02*
X899Y455D01*
X919Y455D02*
X925Y455D01*
X1979Y455D02*
X1985Y455D01*
X2446Y455D02*
X2453Y455D01*
X0Y454D02*
X7Y454D01*
X893Y454D02*
X899Y454D01*
X919Y454D02*
X925Y454D01*
X1979Y454D02*
X1985Y454D01*
X2446Y454D02*
X2453Y454D01*
X0Y453D02*
X7Y453D01*
X893Y453D02*
X899Y453D01*
X919Y453D02*
X925Y453D01*
X1980Y453D02*
X1985Y453D01*
X2446Y453D02*
X2453Y453D01*
X0Y452D02*
X7Y452D01*
X893Y452D02*
X899Y452D01*
X919Y452D02*
X925Y452D01*
X1980Y452D02*
X1984Y452D01*
X2446Y452D02*
X2453Y452D01*
X0Y451D02*
X7Y451D01*
X893Y451D02*
X899Y451D01*
X919Y451D02*
X925Y451D01*
X2446Y451D02*
X2453Y451D01*
X0Y450D02*
X7Y450D01*
X893Y450D02*
X899Y450D01*
X919Y450D02*
X925Y450D01*
X2446Y450D02*
X2453Y450D01*
X0Y449D02*
X7Y449D01*
X893Y449D02*
X899Y449D01*
X919Y449D02*
X925Y449D01*
X2446Y449D02*
X2453Y449D01*
X0Y448D02*
X7Y448D01*
X893Y448D02*
X899Y448D01*
X919Y448D02*
X925Y448D01*
X2446Y448D02*
X2453Y448D01*
X0Y447D02*
X7Y447D01*
X893Y447D02*
X899Y447D01*
X919Y447D02*
X925Y447D01*
X2446Y447D02*
X2453Y447D01*
X0Y446D02*
X7Y446D01*
X893Y446D02*
X899Y446D01*
X919Y446D02*
X925Y446D01*
X2446Y446D02*
X2453Y446D01*
X0Y445D02*
X7Y445D01*
X893Y445D02*
X899Y445D01*
X919Y445D02*
X925Y445D01*
X2446Y445D02*
X2453Y445D01*
X0Y444D02*
X7Y444D01*
X893Y444D02*
X899Y444D01*
X919Y444D02*
X925Y444D01*
X2446Y444D02*
X2453Y444D01*
X0Y443D02*
X7Y443D01*
X893Y443D02*
X899Y443D01*
X919Y443D02*
X925Y443D01*
X2446Y443D02*
X2453Y443D01*
X0Y442D02*
X7Y442D01*
X893Y442D02*
X900Y442D01*
X918Y442D02*
X925Y442D01*
X2446Y442D02*
X2453Y442D01*
X0Y441D02*
X7Y441D01*
X894Y441D02*
X902Y441D01*
X917Y441D02*
X925Y441D01*
X2446Y441D02*
X2453Y441D01*
X0Y440D02*
X7Y440D01*
X894Y440D02*
X924Y440D01*
X2446Y440D02*
X2453Y440D01*
X0Y439D02*
X7Y439D01*
X894Y439D02*
X924Y439D01*
X2446Y439D02*
X2453Y439D01*
X0Y438D02*
X7Y438D01*
X895Y438D02*
X923Y438D01*
X2446Y438D02*
X2453Y438D01*
X0Y437D02*
X7Y437D01*
X896Y437D02*
X922Y437D01*
X2446Y437D02*
X2453Y437D01*
X0Y436D02*
X7Y436D01*
X897Y436D02*
X921Y436D01*
X2446Y436D02*
X2453Y436D01*
X0Y435D02*
X7Y435D01*
X899Y435D02*
X920Y435D01*
X2446Y435D02*
X2453Y435D01*
X0Y434D02*
X7Y434D01*
X902Y434D02*
X917Y434D01*
X2446Y434D02*
X2453Y434D01*
X0Y433D02*
X7Y433D01*
X2446Y433D02*
X2453Y433D01*
X0Y432D02*
X7Y432D01*
X2446Y432D02*
X2453Y432D01*
X0Y431D02*
X7Y431D01*
X2446Y431D02*
X2453Y431D01*
X0Y430D02*
X7Y430D01*
X2446Y430D02*
X2453Y430D01*
X0Y429D02*
X7Y429D01*
X2446Y429D02*
X2453Y429D01*
X0Y428D02*
X7Y428D01*
X2446Y428D02*
X2453Y428D01*
X0Y427D02*
X7Y427D01*
X2446Y427D02*
X2453Y427D01*
X0Y426D02*
X7Y426D01*
X2446Y426D02*
X2453Y426D01*
X0Y425D02*
X7Y425D01*
X2446Y425D02*
X2453Y425D01*
X0Y424D02*
X7Y424D01*
X2446Y424D02*
X2453Y424D01*
X0Y423D02*
X7Y423D01*
X2446Y423D02*
X2453Y423D01*
X0Y422D02*
X7Y422D01*
X2446Y422D02*
X2453Y422D01*
X0Y421D02*
X7Y421D01*
X2446Y421D02*
X2453Y421D01*
X0Y420D02*
X7Y420D01*
X2446Y420D02*
X2453Y420D01*
X0Y419D02*
X7Y419D01*
X2446Y419D02*
X2453Y419D01*
X0Y418D02*
X7Y418D01*
X880Y418D02*
X882Y418D01*
X917Y418D02*
X920Y418D01*
X2446Y418D02*
X2453Y418D01*
X0Y417D02*
X7Y417D01*
X877Y417D02*
X883Y417D01*
X914Y417D02*
X922Y417D01*
X2446Y417D02*
X2453Y417D01*
X0Y416D02*
X7Y416D01*
X876Y416D02*
X884Y416D01*
X913Y416D02*
X923Y416D01*
X2446Y416D02*
X2453Y416D01*
X0Y415D02*
X7Y415D01*
X875Y415D02*
X884Y415D01*
X912Y415D02*
X924Y415D01*
X2446Y415D02*
X2453Y415D01*
X0Y414D02*
X7Y414D01*
X874Y414D02*
X884Y414D01*
X910Y414D02*
X925Y414D01*
X2446Y414D02*
X2453Y414D01*
X0Y413D02*
X7Y413D01*
X873Y413D02*
X884Y413D01*
X909Y413D02*
X925Y413D01*
X2446Y413D02*
X2453Y413D01*
X0Y412D02*
X7Y412D01*
X873Y412D02*
X883Y412D01*
X908Y412D02*
X925Y412D01*
X2446Y412D02*
X2453Y412D01*
X0Y411D02*
X7Y411D01*
X873Y411D02*
X880Y411D01*
X906Y411D02*
X917Y411D01*
X919Y411D02*
X925Y411D01*
X2446Y411D02*
X2453Y411D01*
X0Y410D02*
X7Y410D01*
X872Y410D02*
X879Y410D01*
X905Y410D02*
X916Y410D01*
X919Y410D02*
X925Y410D01*
X2446Y410D02*
X2453Y410D01*
X0Y409D02*
X7Y409D01*
X872Y409D02*
X878Y409D01*
X904Y409D02*
X914Y409D01*
X919Y409D02*
X925Y409D01*
X2446Y409D02*
X2453Y409D01*
X0Y408D02*
X7Y408D01*
X872Y408D02*
X878Y408D01*
X903Y408D02*
X913Y408D01*
X919Y408D02*
X925Y408D01*
X2446Y408D02*
X2453Y408D01*
X0Y407D02*
X7Y407D01*
X872Y407D02*
X878Y407D01*
X901Y407D02*
X912Y407D01*
X919Y407D02*
X925Y407D01*
X2446Y407D02*
X2453Y407D01*
X0Y406D02*
X7Y406D01*
X872Y406D02*
X878Y406D01*
X900Y406D02*
X911Y406D01*
X919Y406D02*
X925Y406D01*
X2446Y406D02*
X2453Y406D01*
X0Y405D02*
X7Y405D01*
X872Y405D02*
X878Y405D01*
X899Y405D02*
X909Y405D01*
X919Y405D02*
X925Y405D01*
X2446Y405D02*
X2453Y405D01*
X0Y404D02*
X7Y404D01*
X872Y404D02*
X878Y404D01*
X897Y404D02*
X908Y404D01*
X919Y404D02*
X925Y404D01*
X2446Y404D02*
X2453Y404D01*
X0Y403D02*
X7Y403D01*
X872Y403D02*
X878Y403D01*
X896Y403D02*
X907Y403D01*
X919Y403D02*
X925Y403D01*
X2446Y403D02*
X2453Y403D01*
X0Y402D02*
X7Y402D01*
X872Y402D02*
X878Y402D01*
X895Y402D02*
X905Y402D01*
X919Y402D02*
X925Y402D01*
X2446Y402D02*
X2453Y402D01*
X0Y401D02*
X7Y401D01*
X872Y401D02*
X878Y401D01*
X894Y401D02*
X904Y401D01*
X919Y401D02*
X925Y401D01*
X2446Y401D02*
X2453Y401D01*
X0Y400D02*
X7Y400D01*
X872Y400D02*
X878Y400D01*
X892Y400D02*
X903Y400D01*
X919Y400D02*
X925Y400D01*
X2446Y400D02*
X2453Y400D01*
X0Y399D02*
X7Y399D01*
X872Y399D02*
X878Y399D01*
X891Y399D02*
X902Y399D01*
X919Y399D02*
X925Y399D01*
X2446Y399D02*
X2453Y399D01*
X0Y398D02*
X7Y398D01*
X872Y398D02*
X878Y398D01*
X890Y398D02*
X900Y398D01*
X919Y398D02*
X925Y398D01*
X2446Y398D02*
X2453Y398D01*
X0Y397D02*
X7Y397D01*
X872Y397D02*
X878Y397D01*
X888Y397D02*
X899Y397D01*
X919Y397D02*
X925Y397D01*
X2446Y397D02*
X2453Y397D01*
X0Y396D02*
X7Y396D01*
X872Y396D02*
X878Y396D01*
X887Y396D02*
X898Y396D01*
X919Y396D02*
X925Y396D01*
X2446Y396D02*
X2453Y396D01*
X0Y395D02*
X7Y395D01*
X872Y395D02*
X878Y395D01*
X886Y395D02*
X896Y395D01*
X919Y395D02*
X925Y395D01*
X2446Y395D02*
X2453Y395D01*
X0Y394D02*
X7Y394D01*
X872Y394D02*
X878Y394D01*
X884Y394D02*
X895Y394D01*
X919Y394D02*
X925Y394D01*
X2446Y394D02*
X2453Y394D01*
X0Y393D02*
X7Y393D01*
X872Y393D02*
X878Y393D01*
X883Y393D02*
X894Y393D01*
X919Y393D02*
X925Y393D01*
X2446Y393D02*
X2453Y393D01*
X0Y392D02*
X7Y392D01*
X872Y392D02*
X878Y392D01*
X882Y392D02*
X892Y392D01*
X919Y392D02*
X925Y392D01*
X2446Y392D02*
X2453Y392D01*
X0Y391D02*
X7Y391D01*
X872Y391D02*
X879Y391D01*
X881Y391D02*
X891Y391D01*
X918Y391D02*
X925Y391D01*
X2446Y391D02*
X2453Y391D01*
X0Y390D02*
X7Y390D01*
X872Y390D02*
X890Y390D01*
X915Y390D02*
X925Y390D01*
X2446Y390D02*
X2453Y390D01*
X0Y389D02*
X7Y389D01*
X873Y389D02*
X889Y389D01*
X914Y389D02*
X924Y389D01*
X2446Y389D02*
X2453Y389D01*
X0Y388D02*
X7Y388D01*
X873Y388D02*
X887Y388D01*
X914Y388D02*
X924Y388D01*
X2446Y388D02*
X2453Y388D01*
X0Y387D02*
X7Y387D01*
X874Y387D02*
X886Y387D01*
X914Y387D02*
X923Y387D01*
X2446Y387D02*
X2453Y387D01*
X0Y386D02*
X7Y386D01*
X875Y386D02*
X885Y386D01*
X914Y386D02*
X922Y386D01*
X2446Y386D02*
X2453Y386D01*
X0Y385D02*
X7Y385D01*
X876Y385D02*
X883Y385D01*
X914Y385D02*
X921Y385D01*
X2446Y385D02*
X2453Y385D01*
X0Y384D02*
X7Y384D01*
X878Y384D02*
X881Y384D01*
X916Y384D02*
X918Y384D01*
X2446Y384D02*
X2453Y384D01*
X0Y383D02*
X7Y383D01*
X2446Y383D02*
X2453Y383D01*
X0Y382D02*
X7Y382D01*
X2446Y382D02*
X2453Y382D01*
X0Y381D02*
X7Y381D01*
X2446Y381D02*
X2453Y381D01*
X0Y380D02*
X7Y380D01*
X2446Y380D02*
X2453Y380D01*
X0Y379D02*
X7Y379D01*
X2446Y379D02*
X2453Y379D01*
X0Y378D02*
X7Y378D01*
X2446Y378D02*
X2453Y378D01*
X0Y377D02*
X7Y377D01*
X2446Y377D02*
X2453Y377D01*
X0Y376D02*
X7Y376D01*
X2446Y376D02*
X2453Y376D01*
X0Y375D02*
X7Y375D01*
X2446Y375D02*
X2453Y375D01*
X0Y374D02*
X7Y374D01*
X2446Y374D02*
X2453Y374D01*
X0Y373D02*
X7Y373D01*
X2446Y373D02*
X2453Y373D01*
X0Y372D02*
X7Y372D01*
X2446Y372D02*
X2453Y372D01*
X0Y371D02*
X7Y371D01*
X2446Y371D02*
X2453Y371D01*
X0Y370D02*
X7Y370D01*
X2446Y370D02*
X2453Y370D01*
X0Y369D02*
X7Y369D01*
X2446Y369D02*
X2453Y369D01*
X0Y368D02*
X7Y368D01*
X2446Y368D02*
X2453Y368D01*
X0Y367D02*
X7Y367D01*
X2446Y367D02*
X2453Y367D01*
X0Y366D02*
X7Y366D01*
X2446Y366D02*
X2453Y366D01*
X0Y365D02*
X7Y365D01*
X2446Y365D02*
X2453Y365D01*
X0Y364D02*
X7Y364D01*
X2446Y364D02*
X2453Y364D01*
X0Y363D02*
X7Y363D01*
X2446Y363D02*
X2453Y363D01*
X0Y362D02*
X7Y362D01*
X2446Y362D02*
X2453Y362D01*
X0Y361D02*
X7Y361D01*
X2446Y361D02*
X2453Y361D01*
X0Y360D02*
X7Y360D01*
X2446Y360D02*
X2453Y360D01*
X0Y359D02*
X7Y359D01*
X2446Y359D02*
X2453Y359D01*
X0Y358D02*
X7Y358D01*
X2446Y358D02*
X2453Y358D01*
X0Y357D02*
X7Y357D01*
X2446Y357D02*
X2453Y357D01*
X0Y356D02*
X7Y356D01*
X2446Y356D02*
X2453Y356D01*
X0Y355D02*
X7Y355D01*
X2446Y355D02*
X2453Y355D01*
X0Y354D02*
X7Y354D01*
X2446Y354D02*
X2453Y354D01*
X0Y353D02*
X7Y353D01*
X2446Y353D02*
X2453Y353D01*
X0Y352D02*
X7Y352D01*
X2446Y352D02*
X2453Y352D01*
X0Y351D02*
X7Y351D01*
X2446Y351D02*
X2453Y351D01*
X0Y350D02*
X7Y350D01*
X2446Y350D02*
X2453Y350D01*
X0Y349D02*
X7Y349D01*
X2446Y349D02*
X2453Y349D01*
X0Y348D02*
X7Y348D01*
X2446Y348D02*
X2453Y348D01*
X0Y347D02*
X7Y347D01*
X2446Y347D02*
X2453Y347D01*
X0Y346D02*
X7Y346D01*
X1519Y346D02*
X1536Y346D01*
X1565Y346D02*
X1581Y346D01*
X2446Y346D02*
X2453Y346D01*
X0Y345D02*
X7Y345D01*
X1515Y345D02*
X1540Y345D01*
X1563Y345D02*
X1581Y345D01*
X2446Y345D02*
X2453Y345D01*
X0Y344D02*
X7Y344D01*
X1514Y344D02*
X1541Y344D01*
X1562Y344D02*
X1581Y344D01*
X2446Y344D02*
X2453Y344D01*
X0Y343D02*
X7Y343D01*
X1513Y343D02*
X1542Y343D01*
X1562Y343D02*
X1581Y343D01*
X2446Y343D02*
X2453Y343D01*
X0Y342D02*
X7Y342D01*
X1512Y342D02*
X1543Y342D01*
X1562Y342D02*
X1581Y342D01*
X2446Y342D02*
X2453Y342D01*
X0Y341D02*
X7Y341D01*
X1512Y341D02*
X1544Y341D01*
X1562Y341D02*
X1581Y341D01*
X2446Y341D02*
X2453Y341D01*
X0Y340D02*
X7Y340D01*
X1511Y340D02*
X1544Y340D01*
X1563Y340D02*
X1581Y340D01*
X2446Y340D02*
X2453Y340D01*
X0Y339D02*
X7Y339D01*
X1511Y339D02*
X1518Y339D01*
X1536Y339D02*
X1545Y339D01*
X1575Y339D02*
X1581Y339D01*
X2446Y339D02*
X2453Y339D01*
X0Y338D02*
X7Y338D01*
X1511Y338D02*
X1517Y338D01*
X1538Y338D02*
X1545Y338D01*
X1575Y338D02*
X1581Y338D01*
X2446Y338D02*
X2453Y338D01*
X0Y337D02*
X7Y337D01*
X1511Y337D02*
X1518Y337D01*
X1539Y337D02*
X1545Y337D01*
X1575Y337D02*
X1581Y337D01*
X2446Y337D02*
X2453Y337D01*
X0Y336D02*
X7Y336D01*
X1512Y336D02*
X1519Y336D01*
X1539Y336D02*
X1545Y336D01*
X1575Y336D02*
X1581Y336D01*
X2446Y336D02*
X2453Y336D01*
X0Y335D02*
X7Y335D01*
X1512Y335D02*
X1519Y335D01*
X1539Y335D02*
X1544Y335D01*
X1575Y335D02*
X1581Y335D01*
X2446Y335D02*
X2453Y335D01*
X0Y334D02*
X7Y334D01*
X1512Y334D02*
X1520Y334D01*
X1540Y334D02*
X1544Y334D01*
X1575Y334D02*
X1581Y334D01*
X2446Y334D02*
X2453Y334D01*
X0Y333D02*
X7Y333D01*
X1513Y333D02*
X1521Y333D01*
X1575Y333D02*
X1581Y333D01*
X2446Y333D02*
X2453Y333D01*
X0Y332D02*
X7Y332D01*
X1514Y332D02*
X1522Y332D01*
X1575Y332D02*
X1581Y332D01*
X2446Y332D02*
X2453Y332D01*
X0Y331D02*
X7Y331D01*
X1515Y331D02*
X1523Y331D01*
X1575Y331D02*
X1581Y331D01*
X2446Y331D02*
X2453Y331D01*
X0Y330D02*
X7Y330D01*
X1515Y330D02*
X1523Y330D01*
X1575Y330D02*
X1581Y330D01*
X2446Y330D02*
X2453Y330D01*
X0Y329D02*
X7Y329D01*
X1516Y329D02*
X1524Y329D01*
X1575Y329D02*
X1581Y329D01*
X2446Y329D02*
X2453Y329D01*
X0Y328D02*
X7Y328D01*
X1517Y328D02*
X1525Y328D01*
X1575Y328D02*
X1581Y328D01*
X2446Y328D02*
X2453Y328D01*
X0Y327D02*
X7Y327D01*
X1518Y327D02*
X1526Y327D01*
X1575Y327D02*
X1581Y327D01*
X2446Y327D02*
X2453Y327D01*
X0Y326D02*
X7Y326D01*
X1518Y326D02*
X1526Y326D01*
X1575Y326D02*
X1581Y326D01*
X2446Y326D02*
X2453Y326D01*
X0Y325D02*
X7Y325D01*
X1519Y325D02*
X1527Y325D01*
X1575Y325D02*
X1581Y325D01*
X2446Y325D02*
X2453Y325D01*
X0Y324D02*
X7Y324D01*
X1520Y324D02*
X1528Y324D01*
X1575Y324D02*
X1581Y324D01*
X2446Y324D02*
X2453Y324D01*
X0Y323D02*
X7Y323D01*
X1521Y323D02*
X1529Y323D01*
X1575Y323D02*
X1581Y323D01*
X2446Y323D02*
X2453Y323D01*
X0Y322D02*
X7Y322D01*
X1522Y322D02*
X1530Y322D01*
X1575Y322D02*
X1581Y322D01*
X2446Y322D02*
X2453Y322D01*
X0Y321D02*
X7Y321D01*
X1522Y321D02*
X1530Y321D01*
X1575Y321D02*
X1581Y321D01*
X2446Y321D02*
X2453Y321D01*
X0Y320D02*
X7Y320D01*
X1523Y320D02*
X1531Y320D01*
X1575Y320D02*
X1581Y320D01*
X2446Y320D02*
X2453Y320D01*
X0Y319D02*
X7Y319D01*
X1524Y319D02*
X1532Y319D01*
X1575Y319D02*
X1581Y319D01*
X2446Y319D02*
X2453Y319D01*
X0Y318D02*
X7Y318D01*
X1525Y318D02*
X1533Y318D01*
X1575Y318D02*
X1581Y318D01*
X2446Y318D02*
X2453Y318D01*
X0Y317D02*
X7Y317D01*
X1525Y317D02*
X1533Y317D01*
X1575Y317D02*
X1581Y317D01*
X2446Y317D02*
X2453Y317D01*
X0Y316D02*
X7Y316D01*
X1526Y316D02*
X1534Y316D01*
X1575Y316D02*
X1581Y316D01*
X1591Y316D02*
X1593Y316D01*
X2446Y316D02*
X2453Y316D01*
X0Y315D02*
X7Y315D01*
X1527Y315D02*
X1535Y315D01*
X1575Y315D02*
X1581Y315D01*
X1590Y315D02*
X1594Y315D01*
X2446Y315D02*
X2453Y315D01*
X0Y314D02*
X7Y314D01*
X1528Y314D02*
X1536Y314D01*
X1575Y314D02*
X1581Y314D01*
X1589Y314D02*
X1595Y314D01*
X2446Y314D02*
X2453Y314D01*
X0Y313D02*
X7Y313D01*
X1529Y313D02*
X1537Y313D01*
X1575Y313D02*
X1581Y313D01*
X1589Y313D02*
X1595Y313D01*
X2446Y313D02*
X2453Y313D01*
X0Y312D02*
X7Y312D01*
X1529Y312D02*
X1537Y312D01*
X1575Y312D02*
X1581Y312D01*
X1589Y312D02*
X1595Y312D01*
X2446Y312D02*
X2453Y312D01*
X0Y311D02*
X7Y311D01*
X1530Y311D02*
X1538Y311D01*
X1575Y311D02*
X1581Y311D01*
X1589Y311D02*
X1595Y311D01*
X2446Y311D02*
X2453Y311D01*
X0Y310D02*
X7Y310D01*
X1531Y310D02*
X1539Y310D01*
X1575Y310D02*
X1581Y310D01*
X1589Y310D02*
X1595Y310D01*
X2446Y310D02*
X2453Y310D01*
X0Y309D02*
X7Y309D01*
X1532Y309D02*
X1540Y309D01*
X1575Y309D02*
X1581Y309D01*
X1589Y309D02*
X1595Y309D01*
X2446Y309D02*
X2453Y309D01*
X0Y308D02*
X7Y308D01*
X1532Y308D02*
X1540Y308D01*
X1575Y308D02*
X1581Y308D01*
X1589Y308D02*
X1595Y308D01*
X2446Y308D02*
X2453Y308D01*
X0Y307D02*
X7Y307D01*
X1533Y307D02*
X1541Y307D01*
X1575Y307D02*
X1581Y307D01*
X1589Y307D02*
X1595Y307D01*
X2446Y307D02*
X2453Y307D01*
X0Y306D02*
X7Y306D01*
X1534Y306D02*
X1542Y306D01*
X1575Y306D02*
X1581Y306D01*
X1589Y306D02*
X1595Y306D01*
X2446Y306D02*
X2453Y306D01*
X0Y305D02*
X7Y305D01*
X1535Y305D02*
X1543Y305D01*
X1575Y305D02*
X1581Y305D01*
X1589Y305D02*
X1595Y305D01*
X2446Y305D02*
X2453Y305D01*
X0Y304D02*
X7Y304D01*
X1513Y304D02*
X1516Y304D01*
X1536Y304D02*
X1543Y304D01*
X1575Y304D02*
X1581Y304D01*
X1589Y304D02*
X1595Y304D01*
X2446Y304D02*
X2453Y304D01*
X0Y303D02*
X7Y303D01*
X1512Y303D02*
X1517Y303D01*
X1536Y303D02*
X1544Y303D01*
X1575Y303D02*
X1581Y303D01*
X1589Y303D02*
X1595Y303D01*
X2446Y303D02*
X2453Y303D01*
X0Y302D02*
X7Y302D01*
X1511Y302D02*
X1517Y302D01*
X1537Y302D02*
X1544Y302D01*
X1575Y302D02*
X1581Y302D01*
X1589Y302D02*
X1595Y302D01*
X2446Y302D02*
X2453Y302D01*
X0Y301D02*
X7Y301D01*
X1511Y301D02*
X1517Y301D01*
X1538Y301D02*
X1545Y301D01*
X1575Y301D02*
X1581Y301D01*
X1589Y301D02*
X1595Y301D01*
X2446Y301D02*
X2453Y301D01*
X0Y300D02*
X7Y300D01*
X1511Y300D02*
X1518Y300D01*
X1539Y300D02*
X1545Y300D01*
X1575Y300D02*
X1581Y300D01*
X1589Y300D02*
X1595Y300D01*
X2446Y300D02*
X2453Y300D01*
X0Y299D02*
X7Y299D01*
X1512Y299D02*
X1519Y299D01*
X1538Y299D02*
X1545Y299D01*
X1575Y299D02*
X1582Y299D01*
X1589Y299D02*
X1595Y299D01*
X2446Y299D02*
X2453Y299D01*
X0Y298D02*
X7Y298D01*
X1512Y298D02*
X1545Y298D01*
X1563Y298D02*
X1595Y298D01*
X2446Y298D02*
X2453Y298D01*
X0Y297D02*
X7Y297D01*
X1512Y297D02*
X1544Y297D01*
X1562Y297D02*
X1595Y297D01*
X2446Y297D02*
X2453Y297D01*
X0Y296D02*
X7Y296D01*
X1513Y296D02*
X1544Y296D01*
X1562Y296D02*
X1595Y296D01*
X2446Y296D02*
X2453Y296D01*
X0Y295D02*
X7Y295D01*
X1514Y295D02*
X1543Y295D01*
X1562Y295D02*
X1595Y295D01*
X2446Y295D02*
X2453Y295D01*
X0Y294D02*
X7Y294D01*
X1515Y294D02*
X1542Y294D01*
X1562Y294D02*
X1595Y294D01*
X2446Y294D02*
X2453Y294D01*
X0Y293D02*
X7Y293D01*
X1516Y293D02*
X1541Y293D01*
X1562Y293D02*
X1594Y293D01*
X2446Y293D02*
X2453Y293D01*
X0Y292D02*
X7Y292D01*
X1519Y292D02*
X1538Y292D01*
X1564Y292D02*
X1592Y292D01*
X2446Y292D02*
X2453Y292D01*
X0Y291D02*
X7Y291D01*
X2446Y291D02*
X2453Y291D01*
X0Y290D02*
X7Y290D01*
X2446Y290D02*
X2453Y290D01*
X0Y289D02*
X7Y289D01*
X2446Y289D02*
X2453Y289D01*
X0Y288D02*
X7Y288D01*
X2446Y288D02*
X2453Y288D01*
X0Y287D02*
X7Y287D01*
X2446Y287D02*
X2453Y287D01*
X0Y286D02*
X7Y286D01*
X2446Y286D02*
X2453Y286D01*
X0Y285D02*
X7Y285D01*
X2446Y285D02*
X2453Y285D01*
X0Y284D02*
X7Y284D01*
X2446Y284D02*
X2453Y284D01*
X0Y283D02*
X7Y283D01*
X2446Y283D02*
X2453Y283D01*
X0Y282D02*
X7Y282D01*
X2446Y282D02*
X2453Y282D01*
X0Y281D02*
X7Y281D01*
X2446Y281D02*
X2453Y281D01*
X0Y280D02*
X7Y280D01*
X2446Y280D02*
X2453Y280D01*
X0Y279D02*
X7Y279D01*
X2446Y279D02*
X2453Y279D01*
X0Y278D02*
X7Y278D01*
X2446Y278D02*
X2453Y278D01*
X0Y277D02*
X7Y277D01*
X2446Y277D02*
X2453Y277D01*
X0Y276D02*
X7Y276D01*
X2446Y276D02*
X2453Y276D01*
X0Y275D02*
X7Y275D01*
X2446Y275D02*
X2453Y275D01*
X0Y274D02*
X7Y274D01*
X2446Y274D02*
X2453Y274D01*
X0Y273D02*
X7Y273D01*
X2446Y273D02*
X2453Y273D01*
X0Y272D02*
X7Y272D01*
X2446Y272D02*
X2453Y272D01*
X0Y271D02*
X7Y271D01*
X2446Y271D02*
X2453Y271D01*
X0Y270D02*
X7Y270D01*
X2446Y270D02*
X2453Y270D01*
X0Y269D02*
X7Y269D01*
X2446Y269D02*
X2453Y269D01*
X0Y268D02*
X7Y268D01*
X2446Y268D02*
X2453Y268D01*
X0Y267D02*
X7Y267D01*
X2446Y267D02*
X2453Y267D01*
X0Y266D02*
X7Y266D01*
X2446Y266D02*
X2453Y266D01*
X0Y265D02*
X7Y265D01*
X2446Y265D02*
X2453Y265D01*
X0Y264D02*
X7Y264D01*
X2446Y264D02*
X2453Y264D01*
X0Y263D02*
X7Y263D01*
X2446Y263D02*
X2453Y263D01*
X0Y262D02*
X7Y262D01*
X2446Y262D02*
X2453Y262D01*
X0Y261D02*
X7Y261D01*
X2446Y261D02*
X2453Y261D01*
X0Y260D02*
X7Y260D01*
X2446Y260D02*
X2453Y260D01*
X0Y259D02*
X7Y259D01*
X2446Y259D02*
X2453Y259D01*
X0Y258D02*
X7Y258D01*
X2446Y258D02*
X2453Y258D01*
X0Y257D02*
X7Y257D01*
X2446Y257D02*
X2453Y257D01*
X0Y256D02*
X7Y256D01*
X2446Y256D02*
X2453Y256D01*
X0Y255D02*
X7Y255D01*
X2446Y255D02*
X2453Y255D01*
X0Y254D02*
X7Y254D01*
X2446Y254D02*
X2453Y254D01*
X0Y253D02*
X7Y253D01*
X2446Y253D02*
X2453Y253D01*
X0Y252D02*
X7Y252D01*
X1899Y252D02*
X1926Y252D01*
X1999Y252D02*
X2026Y252D01*
X2446Y252D02*
X2453Y252D01*
X0Y251D02*
X7Y251D01*
X1897Y251D02*
X1927Y251D01*
X1998Y251D02*
X2028Y251D01*
X2446Y251D02*
X2453Y251D01*
X0Y250D02*
X7Y250D01*
X1897Y250D02*
X1929Y250D01*
X1997Y250D02*
X2029Y250D01*
X2446Y250D02*
X2453Y250D01*
X0Y249D02*
X7Y249D01*
X1897Y249D02*
X1929Y249D01*
X1997Y249D02*
X2030Y249D01*
X2446Y249D02*
X2453Y249D01*
X0Y248D02*
X7Y248D01*
X1677Y248D02*
X1682Y248D01*
X1897Y248D02*
X1930Y248D01*
X1997Y248D02*
X2030Y248D01*
X2446Y248D02*
X2453Y248D01*
X0Y247D02*
X7Y247D01*
X1675Y247D02*
X1684Y247D01*
X1897Y247D02*
X1930Y247D01*
X1998Y247D02*
X2030Y247D01*
X2446Y247D02*
X2453Y247D01*
X0Y246D02*
X7Y246D01*
X1675Y246D02*
X1684Y246D01*
X1898Y246D02*
X1930Y246D01*
X1999Y246D02*
X2031Y246D01*
X2446Y246D02*
X2453Y246D01*
X0Y245D02*
X7Y245D01*
X1675Y245D02*
X1684Y245D01*
X1716Y245D02*
X1744Y245D01*
X1924Y245D02*
X1930Y245D01*
X2025Y245D02*
X2031Y245D01*
X2446Y245D02*
X2453Y245D01*
X0Y244D02*
X7Y244D01*
X1675Y244D02*
X1684Y244D01*
X1715Y244D02*
X1746Y244D01*
X1924Y244D02*
X1930Y244D01*
X2025Y244D02*
X2031Y244D01*
X2446Y244D02*
X2453Y244D01*
X0Y243D02*
X7Y243D01*
X1675Y243D02*
X1684Y243D01*
X1715Y243D02*
X1747Y243D01*
X1924Y243D02*
X1930Y243D01*
X2025Y243D02*
X2031Y243D01*
X2446Y243D02*
X2453Y243D01*
X0Y242D02*
X7Y242D01*
X1675Y242D02*
X1684Y242D01*
X1715Y242D02*
X1747Y242D01*
X1924Y242D02*
X1930Y242D01*
X2025Y242D02*
X2031Y242D01*
X2446Y242D02*
X2453Y242D01*
X0Y241D02*
X7Y241D01*
X1675Y241D02*
X1684Y241D01*
X1715Y241D02*
X1748Y241D01*
X1924Y241D02*
X1930Y241D01*
X2025Y241D02*
X2031Y241D01*
X2446Y241D02*
X2453Y241D01*
X0Y240D02*
X7Y240D01*
X1676Y240D02*
X1683Y240D01*
X1715Y240D02*
X1748Y240D01*
X1924Y240D02*
X1930Y240D01*
X2025Y240D02*
X2031Y240D01*
X2446Y240D02*
X2453Y240D01*
X0Y239D02*
X7Y239D01*
X1677Y239D02*
X1682Y239D01*
X1717Y239D02*
X1748Y239D01*
X1924Y239D02*
X1930Y239D01*
X2025Y239D02*
X2031Y239D01*
X2159Y239D02*
X2165Y239D01*
X2274Y239D02*
X2278Y239D01*
X2309Y239D02*
X2315Y239D01*
X2362Y239D02*
X2376Y239D01*
X2412Y239D02*
X2426Y239D01*
X2446Y239D02*
X2453Y239D01*
X0Y238D02*
X7Y238D01*
X1742Y238D02*
X1748Y238D01*
X1924Y238D02*
X1930Y238D01*
X2025Y238D02*
X2031Y238D01*
X2157Y238D02*
X2167Y238D01*
X2273Y238D02*
X2278Y238D01*
X2308Y238D02*
X2317Y238D01*
X2360Y238D02*
X2377Y238D01*
X2410Y238D02*
X2427Y238D01*
X2446Y238D02*
X2453Y238D01*
X0Y237D02*
X7Y237D01*
X1742Y237D02*
X1748Y237D01*
X1924Y237D02*
X1930Y237D01*
X2025Y237D02*
X2031Y237D01*
X2049Y237D02*
X2052Y237D01*
X2076Y237D02*
X2079Y237D01*
X2156Y237D02*
X2168Y237D01*
X2273Y237D02*
X2279Y237D01*
X2306Y237D02*
X2318Y237D01*
X2359Y237D02*
X2377Y237D01*
X2409Y237D02*
X2428Y237D01*
X2446Y237D02*
X2453Y237D01*
X0Y236D02*
X7Y236D01*
X1742Y236D02*
X1748Y236D01*
X1924Y236D02*
X1930Y236D01*
X2025Y236D02*
X2031Y236D01*
X2048Y236D02*
X2053Y236D01*
X2075Y236D02*
X2080Y236D01*
X2155Y236D02*
X2169Y236D01*
X2272Y236D02*
X2279Y236D01*
X2306Y236D02*
X2319Y236D01*
X2358Y236D02*
X2378Y236D01*
X2408Y236D02*
X2428Y236D01*
X2446Y236D02*
X2453Y236D01*
X0Y235D02*
X7Y235D01*
X1742Y235D02*
X1748Y235D01*
X1924Y235D02*
X1930Y235D01*
X2025Y235D02*
X2031Y235D01*
X2047Y235D02*
X2053Y235D01*
X2075Y235D02*
X2081Y235D01*
X2154Y235D02*
X2169Y235D01*
X2272Y235D02*
X2279Y235D01*
X2305Y235D02*
X2320Y235D01*
X2357Y235D02*
X2377Y235D01*
X2407Y235D02*
X2427Y235D01*
X2446Y235D02*
X2453Y235D01*
X0Y234D02*
X7Y234D01*
X1742Y234D02*
X1748Y234D01*
X1924Y234D02*
X1930Y234D01*
X2025Y234D02*
X2031Y234D01*
X2047Y234D02*
X2053Y234D01*
X2075Y234D02*
X2081Y234D01*
X2154Y234D02*
X2170Y234D01*
X2271Y234D02*
X2278Y234D01*
X2304Y234D02*
X2320Y234D01*
X2356Y234D02*
X2377Y234D01*
X2406Y234D02*
X2427Y234D01*
X2446Y234D02*
X2453Y234D01*
X0Y233D02*
X7Y233D01*
X1742Y233D02*
X1748Y233D01*
X1924Y233D02*
X1930Y233D01*
X2025Y233D02*
X2031Y233D01*
X2047Y233D02*
X2053Y233D01*
X2075Y233D02*
X2081Y233D01*
X2153Y233D02*
X2170Y233D01*
X2270Y233D02*
X2278Y233D01*
X2304Y233D02*
X2321Y233D01*
X2356Y233D02*
X2375Y233D01*
X2406Y233D02*
X2425Y233D01*
X2446Y233D02*
X2453Y233D01*
X0Y232D02*
X7Y232D01*
X1742Y232D02*
X1748Y232D01*
X1924Y232D02*
X1930Y232D01*
X2025Y232D02*
X2031Y232D01*
X2047Y232D02*
X2053Y232D01*
X2075Y232D02*
X2081Y232D01*
X2153Y232D02*
X2160Y232D01*
X2164Y232D02*
X2171Y232D01*
X2270Y232D02*
X2277Y232D01*
X2303Y232D02*
X2310Y232D01*
X2314Y232D02*
X2321Y232D01*
X2355Y232D02*
X2363Y232D01*
X2405Y232D02*
X2413Y232D01*
X2446Y232D02*
X2453Y232D01*
X0Y231D02*
X7Y231D01*
X1742Y231D02*
X1748Y231D01*
X1924Y231D02*
X1930Y231D01*
X2024Y231D02*
X2031Y231D01*
X2047Y231D02*
X2053Y231D01*
X2075Y231D02*
X2081Y231D01*
X2152Y231D02*
X2159Y231D01*
X2164Y231D02*
X2171Y231D01*
X2269Y231D02*
X2276Y231D01*
X2303Y231D02*
X2310Y231D01*
X2315Y231D02*
X2322Y231D01*
X2355Y231D02*
X2362Y231D01*
X2405Y231D02*
X2412Y231D01*
X2446Y231D02*
X2453Y231D01*
X0Y230D02*
X7Y230D01*
X1669Y230D02*
X1683Y230D01*
X1742Y230D02*
X1748Y230D01*
X1777Y230D02*
X1797Y230D01*
X1923Y230D02*
X1930Y230D01*
X2024Y230D02*
X2030Y230D01*
X2047Y230D02*
X2053Y230D01*
X2075Y230D02*
X2081Y230D01*
X2152Y230D02*
X2159Y230D01*
X2165Y230D02*
X2172Y230D01*
X2269Y230D02*
X2276Y230D01*
X2302Y230D02*
X2309Y230D01*
X2316Y230D02*
X2322Y230D01*
X2355Y230D02*
X2361Y230D01*
X2405Y230D02*
X2411Y230D01*
X2446Y230D02*
X2453Y230D01*
X0Y229D02*
X7Y229D01*
X1668Y229D02*
X1684Y229D01*
X1742Y229D02*
X1748Y229D01*
X1775Y229D02*
X1798Y229D01*
X1921Y229D02*
X1930Y229D01*
X2021Y229D02*
X2030Y229D01*
X2047Y229D02*
X2053Y229D01*
X2075Y229D02*
X2081Y229D01*
X2151Y229D02*
X2158Y229D01*
X2165Y229D02*
X2172Y229D01*
X2268Y229D02*
X2275Y229D01*
X2302Y229D02*
X2309Y229D01*
X2316Y229D02*
X2323Y229D01*
X2354Y229D02*
X2361Y229D01*
X2405Y229D02*
X2411Y229D01*
X2446Y229D02*
X2453Y229D01*
X0Y228D02*
X7Y228D01*
X1668Y228D02*
X1684Y228D01*
X1742Y228D02*
X1748Y228D01*
X1774Y228D02*
X1798Y228D01*
X1905Y228D02*
X1929Y228D01*
X2005Y228D02*
X2030Y228D01*
X2047Y228D02*
X2054Y228D01*
X2074Y228D02*
X2081Y228D01*
X2151Y228D02*
X2158Y228D01*
X2166Y228D02*
X2173Y228D01*
X2268Y228D02*
X2275Y228D01*
X2301Y228D02*
X2308Y228D01*
X2317Y228D02*
X2323Y228D01*
X2354Y228D02*
X2360Y228D01*
X2405Y228D02*
X2411Y228D01*
X2446Y228D02*
X2453Y228D01*
X0Y227D02*
X7Y227D01*
X1668Y227D02*
X1684Y227D01*
X1742Y227D02*
X1748Y227D01*
X1773Y227D02*
X1798Y227D01*
X1904Y227D02*
X1929Y227D01*
X2004Y227D02*
X2029Y227D01*
X2048Y227D02*
X2054Y227D01*
X2074Y227D02*
X2081Y227D01*
X2150Y227D02*
X2157Y227D01*
X2166Y227D02*
X2173Y227D01*
X2267Y227D02*
X2274Y227D01*
X2301Y227D02*
X2308Y227D01*
X2317Y227D02*
X2324Y227D01*
X2354Y227D02*
X2360Y227D01*
X2405Y227D02*
X2411Y227D01*
X2446Y227D02*
X2453Y227D01*
X0Y226D02*
X7Y226D01*
X1668Y226D02*
X1684Y226D01*
X1742Y226D02*
X1748Y226D01*
X1771Y226D02*
X1798Y226D01*
X1904Y226D02*
X1928Y226D01*
X2004Y226D02*
X2028Y226D01*
X2048Y226D02*
X2055Y226D01*
X2074Y226D02*
X2080Y226D01*
X2150Y226D02*
X2157Y226D01*
X2167Y226D02*
X2174Y226D01*
X2266Y226D02*
X2274Y226D01*
X2300Y226D02*
X2307Y226D01*
X2318Y226D02*
X2324Y226D01*
X2354Y226D02*
X2360Y226D01*
X2405Y226D02*
X2411Y226D01*
X2446Y226D02*
X2453Y226D01*
X0Y225D02*
X7Y225D01*
X1669Y225D02*
X1684Y225D01*
X1742Y225D02*
X1748Y225D01*
X1770Y225D02*
X1797Y225D01*
X1904Y225D02*
X1928Y225D01*
X2004Y225D02*
X2028Y225D01*
X2048Y225D02*
X2055Y225D01*
X2073Y225D02*
X2080Y225D01*
X2149Y225D02*
X2156Y225D01*
X2167Y225D02*
X2174Y225D01*
X2198Y225D02*
X2198Y225D01*
X2214Y225D02*
X2219Y225D01*
X2266Y225D02*
X2273Y225D01*
X2300Y225D02*
X2307Y225D01*
X2318Y225D02*
X2325Y225D01*
X2350Y225D02*
X2368Y225D01*
X2401Y225D02*
X2418Y225D01*
X2446Y225D02*
X2453Y225D01*
X0Y224D02*
X7Y224D01*
X1671Y224D02*
X1684Y224D01*
X1742Y224D02*
X1748Y224D01*
X1769Y224D02*
X1796Y224D01*
X1904Y224D02*
X1929Y224D01*
X2004Y224D02*
X2029Y224D01*
X2049Y224D02*
X2056Y224D01*
X2073Y224D02*
X2079Y224D01*
X2149Y224D02*
X2156Y224D01*
X2168Y224D02*
X2175Y224D01*
X2196Y224D02*
X2200Y224D01*
X2210Y224D02*
X2222Y224D01*
X2265Y224D02*
X2272Y224D01*
X2299Y224D02*
X2306Y224D01*
X2319Y224D02*
X2325Y224D01*
X2349Y224D02*
X2370Y224D01*
X2399Y224D02*
X2420Y224D01*
X2446Y224D02*
X2453Y224D01*
X0Y223D02*
X7Y223D01*
X1678Y223D02*
X1684Y223D01*
X1742Y223D02*
X1748Y223D01*
X1768Y223D02*
X1778Y223D01*
X1905Y223D02*
X1929Y223D01*
X2005Y223D02*
X2030Y223D01*
X2049Y223D02*
X2056Y223D01*
X2072Y223D02*
X2079Y223D01*
X2148Y223D02*
X2155Y223D01*
X2168Y223D02*
X2175Y223D01*
X2196Y223D02*
X2201Y223D01*
X2208Y223D02*
X2224Y223D01*
X2265Y223D02*
X2272Y223D01*
X2299Y223D02*
X2306Y223D01*
X2319Y223D02*
X2326Y223D01*
X2348Y223D02*
X2370Y223D01*
X2398Y223D02*
X2421Y223D01*
X2446Y223D02*
X2453Y223D01*
X0Y222D02*
X7Y222D01*
X1678Y222D02*
X1684Y222D01*
X1722Y222D02*
X1748Y222D01*
X1767Y222D02*
X1777Y222D01*
X1907Y222D02*
X1930Y222D01*
X2007Y222D02*
X2030Y222D01*
X2050Y222D02*
X2056Y222D01*
X2072Y222D02*
X2078Y222D01*
X2148Y222D02*
X2155Y222D01*
X2169Y222D02*
X2176Y222D01*
X2195Y222D02*
X2201Y222D01*
X2207Y222D02*
X2225Y222D01*
X2264Y222D02*
X2271Y222D01*
X2298Y222D02*
X2305Y222D01*
X2320Y222D02*
X2326Y222D01*
X2348Y222D02*
X2371Y222D01*
X2398Y222D02*
X2421Y222D01*
X2446Y222D02*
X2453Y222D01*
X0Y221D02*
X7Y221D01*
X1678Y221D02*
X1684Y221D01*
X1718Y221D02*
X1748Y221D01*
X1767Y221D02*
X1776Y221D01*
X1923Y221D02*
X1930Y221D01*
X2023Y221D02*
X2030Y221D01*
X2050Y221D02*
X2057Y221D01*
X2071Y221D02*
X2078Y221D01*
X2147Y221D02*
X2154Y221D01*
X2169Y221D02*
X2176Y221D01*
X2195Y221D02*
X2201Y221D01*
X2205Y221D02*
X2226Y221D01*
X2263Y221D02*
X2271Y221D01*
X2298Y221D02*
X2305Y221D01*
X2320Y221D02*
X2327Y221D01*
X2348Y221D02*
X2371Y221D01*
X2398Y221D02*
X2421Y221D01*
X2446Y221D02*
X2453Y221D01*
X0Y220D02*
X7Y220D01*
X1678Y220D02*
X1684Y220D01*
X1717Y220D02*
X1748Y220D01*
X1766Y220D02*
X1774Y220D01*
X1924Y220D02*
X1930Y220D01*
X1960Y220D02*
X1967Y220D01*
X2024Y220D02*
X2031Y220D01*
X2051Y220D02*
X2057Y220D01*
X2071Y220D02*
X2078Y220D01*
X2147Y220D02*
X2154Y220D01*
X2170Y220D02*
X2177Y220D01*
X2195Y220D02*
X2201Y220D01*
X2204Y220D02*
X2227Y220D01*
X2263Y220D02*
X2270Y220D01*
X2297Y220D02*
X2304Y220D01*
X2321Y220D02*
X2327Y220D01*
X2348Y220D02*
X2370Y220D01*
X2399Y220D02*
X2420Y220D01*
X2446Y220D02*
X2453Y220D01*
X0Y219D02*
X7Y219D01*
X1678Y219D02*
X1684Y219D01*
X1716Y219D02*
X1747Y219D01*
X1766Y219D02*
X1773Y219D01*
X1924Y219D02*
X1930Y219D01*
X1958Y219D02*
X1969Y219D01*
X2025Y219D02*
X2031Y219D01*
X2051Y219D02*
X2058Y219D01*
X2070Y219D02*
X2077Y219D01*
X2146Y219D02*
X2153Y219D01*
X2171Y219D02*
X2177Y219D01*
X2195Y219D02*
X2227Y219D01*
X2262Y219D02*
X2269Y219D01*
X2297Y219D02*
X2304Y219D01*
X2321Y219D02*
X2328Y219D01*
X2349Y219D02*
X2369Y219D01*
X2399Y219D02*
X2420Y219D01*
X2446Y219D02*
X2453Y219D01*
X0Y218D02*
X7Y218D01*
X1678Y218D02*
X1684Y218D01*
X1715Y218D02*
X1747Y218D01*
X1765Y218D02*
X1772Y218D01*
X1924Y218D02*
X1930Y218D01*
X1958Y218D02*
X1970Y218D01*
X2025Y218D02*
X2031Y218D01*
X2051Y218D02*
X2058Y218D01*
X2070Y218D02*
X2077Y218D01*
X2146Y218D02*
X2153Y218D01*
X2171Y218D02*
X2178Y218D01*
X2195Y218D02*
X2213Y218D01*
X2219Y218D02*
X2228Y218D01*
X2262Y218D02*
X2269Y218D01*
X2297Y218D02*
X2303Y218D01*
X2322Y218D02*
X2328Y218D01*
X2354Y218D02*
X2361Y218D01*
X2404Y218D02*
X2411Y218D01*
X2446Y218D02*
X2453Y218D01*
X0Y217D02*
X7Y217D01*
X1678Y217D02*
X1684Y217D01*
X1715Y217D02*
X1746Y217D01*
X1765Y217D02*
X1771Y217D01*
X1924Y217D02*
X1930Y217D01*
X1957Y217D02*
X1970Y217D01*
X2025Y217D02*
X2031Y217D01*
X2052Y217D02*
X2059Y217D01*
X2070Y217D02*
X2076Y217D01*
X2146Y217D02*
X2152Y217D01*
X2172Y217D02*
X2178Y217D01*
X2195Y217D02*
X2211Y217D01*
X2221Y217D02*
X2228Y217D01*
X2261Y217D02*
X2268Y217D01*
X2296Y217D02*
X2303Y217D01*
X2322Y217D02*
X2329Y217D01*
X2354Y217D02*
X2360Y217D01*
X2405Y217D02*
X2411Y217D01*
X2446Y217D02*
X2453Y217D01*
X0Y216D02*
X7Y216D01*
X1678Y216D02*
X1684Y216D01*
X1715Y216D02*
X1745Y216D01*
X1765Y216D02*
X1771Y216D01*
X1924Y216D02*
X1930Y216D01*
X1957Y216D02*
X1970Y216D01*
X2025Y216D02*
X2031Y216D01*
X2052Y216D02*
X2059Y216D01*
X2069Y216D02*
X2076Y216D01*
X2145Y216D02*
X2152Y216D01*
X2172Y216D02*
X2178Y216D01*
X2195Y216D02*
X2209Y216D01*
X2222Y216D02*
X2228Y216D01*
X2260Y216D02*
X2268Y216D01*
X2296Y216D02*
X2302Y216D01*
X2322Y216D02*
X2329Y216D01*
X2354Y216D02*
X2360Y216D01*
X2405Y216D02*
X2411Y216D01*
X2446Y216D02*
X2453Y216D01*
X0Y215D02*
X7Y215D01*
X1678Y215D02*
X1684Y215D01*
X1715Y215D02*
X1721Y215D01*
X1765Y215D02*
X1771Y215D01*
X1924Y215D02*
X1930Y215D01*
X1957Y215D02*
X1970Y215D01*
X2025Y215D02*
X2031Y215D01*
X2053Y215D02*
X2059Y215D01*
X2069Y215D02*
X2075Y215D01*
X2145Y215D02*
X2151Y215D01*
X2172Y215D02*
X2178Y215D01*
X2195Y215D02*
X2208Y215D01*
X2222Y215D02*
X2228Y215D01*
X2260Y215D02*
X2267Y215D01*
X2296Y215D02*
X2302Y215D01*
X2323Y215D02*
X2329Y215D01*
X2354Y215D02*
X2360Y215D01*
X2405Y215D02*
X2411Y215D01*
X2446Y215D02*
X2453Y215D01*
X0Y214D02*
X7Y214D01*
X1678Y214D02*
X1684Y214D01*
X1715Y214D02*
X1721Y214D01*
X1765Y214D02*
X1771Y214D01*
X1924Y214D02*
X1930Y214D01*
X1957Y214D02*
X1970Y214D01*
X2025Y214D02*
X2031Y214D01*
X2053Y214D02*
X2060Y214D01*
X2068Y214D02*
X2075Y214D01*
X2145Y214D02*
X2151Y214D01*
X2172Y214D02*
X2179Y214D01*
X2195Y214D02*
X2206Y214D01*
X2222Y214D02*
X2228Y214D01*
X2259Y214D02*
X2266Y214D01*
X2296Y214D02*
X2302Y214D01*
X2323Y214D02*
X2329Y214D01*
X2354Y214D02*
X2360Y214D01*
X2405Y214D02*
X2411Y214D01*
X2446Y214D02*
X2453Y214D01*
X0Y213D02*
X7Y213D01*
X1678Y213D02*
X1684Y213D01*
X1715Y213D02*
X1721Y213D01*
X1765Y213D02*
X1771Y213D01*
X1924Y213D02*
X1930Y213D01*
X1957Y213D02*
X1970Y213D01*
X2025Y213D02*
X2031Y213D01*
X2054Y213D02*
X2060Y213D01*
X2068Y213D02*
X2074Y213D01*
X2145Y213D02*
X2151Y213D01*
X2173Y213D02*
X2179Y213D01*
X2195Y213D02*
X2205Y213D01*
X2222Y213D02*
X2228Y213D01*
X2259Y213D02*
X2266Y213D01*
X2296Y213D02*
X2302Y213D01*
X2323Y213D02*
X2329Y213D01*
X2354Y213D02*
X2360Y213D01*
X2405Y213D02*
X2411Y213D01*
X2446Y213D02*
X2453Y213D01*
X0Y212D02*
X7Y212D01*
X1678Y212D02*
X1684Y212D01*
X1715Y212D02*
X1721Y212D01*
X1765Y212D02*
X1771Y212D01*
X1924Y212D02*
X1930Y212D01*
X1957Y212D02*
X1970Y212D01*
X2025Y212D02*
X2031Y212D01*
X2054Y212D02*
X2061Y212D01*
X2067Y212D02*
X2074Y212D01*
X2145Y212D02*
X2151Y212D01*
X2173Y212D02*
X2179Y212D01*
X2195Y212D02*
X2203Y212D01*
X2222Y212D02*
X2228Y212D01*
X2258Y212D02*
X2265Y212D01*
X2296Y212D02*
X2302Y212D01*
X2323Y212D02*
X2329Y212D01*
X2354Y212D02*
X2360Y212D01*
X2405Y212D02*
X2411Y212D01*
X2446Y212D02*
X2453Y212D01*
X0Y211D02*
X7Y211D01*
X1678Y211D02*
X1684Y211D01*
X1715Y211D02*
X1721Y211D01*
X1765Y211D02*
X1771Y211D01*
X1924Y211D02*
X1930Y211D01*
X1957Y211D02*
X1970Y211D01*
X2025Y211D02*
X2031Y211D01*
X2055Y211D02*
X2061Y211D01*
X2067Y211D02*
X2074Y211D01*
X2145Y211D02*
X2151Y211D01*
X2172Y211D02*
X2179Y211D01*
X2195Y211D02*
X2202Y211D01*
X2222Y211D02*
X2228Y211D01*
X2258Y211D02*
X2265Y211D01*
X2296Y211D02*
X2302Y211D01*
X2323Y211D02*
X2329Y211D01*
X2354Y211D02*
X2360Y211D01*
X2405Y211D02*
X2411Y211D01*
X2446Y211D02*
X2453Y211D01*
X0Y210D02*
X7Y210D01*
X1678Y210D02*
X1684Y210D01*
X1715Y210D02*
X1721Y210D01*
X1765Y210D02*
X1771Y210D01*
X1924Y210D02*
X1930Y210D01*
X1957Y210D02*
X1970Y210D01*
X2025Y210D02*
X2031Y210D01*
X2055Y210D02*
X2062Y210D01*
X2066Y210D02*
X2073Y210D01*
X2145Y210D02*
X2152Y210D01*
X2172Y210D02*
X2178Y210D01*
X2195Y210D02*
X2201Y210D01*
X2222Y210D02*
X2228Y210D01*
X2257Y210D02*
X2264Y210D01*
X2296Y210D02*
X2302Y210D01*
X2323Y210D02*
X2329Y210D01*
X2354Y210D02*
X2360Y210D01*
X2405Y210D02*
X2411Y210D01*
X2446Y210D02*
X2453Y210D01*
X0Y209D02*
X7Y209D01*
X1678Y209D02*
X1684Y209D01*
X1715Y209D02*
X1721Y209D01*
X1765Y209D02*
X1771Y209D01*
X1924Y209D02*
X1930Y209D01*
X1958Y209D02*
X1970Y209D01*
X2025Y209D02*
X2031Y209D01*
X2055Y209D02*
X2062Y209D01*
X2066Y209D02*
X2073Y209D01*
X2145Y209D02*
X2152Y209D01*
X2172Y209D02*
X2178Y209D01*
X2195Y209D02*
X2201Y209D01*
X2222Y209D02*
X2228Y209D01*
X2256Y209D02*
X2264Y209D01*
X2296Y209D02*
X2302Y209D01*
X2322Y209D02*
X2329Y209D01*
X2354Y209D02*
X2360Y209D01*
X2405Y209D02*
X2411Y209D01*
X2446Y209D02*
X2453Y209D01*
X0Y208D02*
X7Y208D01*
X1678Y208D02*
X1684Y208D01*
X1715Y208D02*
X1721Y208D01*
X1765Y208D02*
X1771Y208D01*
X1924Y208D02*
X1930Y208D01*
X1959Y208D02*
X1969Y208D01*
X2025Y208D02*
X2031Y208D01*
X2056Y208D02*
X2062Y208D01*
X2066Y208D02*
X2072Y208D01*
X2146Y208D02*
X2152Y208D01*
X2171Y208D02*
X2178Y208D01*
X2195Y208D02*
X2201Y208D01*
X2222Y208D02*
X2228Y208D01*
X2256Y208D02*
X2263Y208D01*
X2296Y208D02*
X2303Y208D01*
X2322Y208D02*
X2328Y208D01*
X2354Y208D02*
X2360Y208D01*
X2405Y208D02*
X2411Y208D01*
X2446Y208D02*
X2453Y208D01*
X0Y207D02*
X7Y207D01*
X1678Y207D02*
X1684Y207D01*
X1715Y207D02*
X1721Y207D01*
X1765Y207D02*
X1771Y207D01*
X1924Y207D02*
X1930Y207D01*
X2025Y207D02*
X2031Y207D01*
X2056Y207D02*
X2063Y207D01*
X2065Y207D02*
X2072Y207D01*
X2146Y207D02*
X2153Y207D01*
X2171Y207D02*
X2177Y207D01*
X2195Y207D02*
X2201Y207D01*
X2222Y207D02*
X2228Y207D01*
X2255Y207D02*
X2262Y207D01*
X2297Y207D02*
X2303Y207D01*
X2321Y207D02*
X2328Y207D01*
X2354Y207D02*
X2360Y207D01*
X2405Y207D02*
X2411Y207D01*
X2446Y207D02*
X2453Y207D01*
X0Y206D02*
X7Y206D01*
X1678Y206D02*
X1684Y206D01*
X1715Y206D02*
X1721Y206D01*
X1765Y206D02*
X1771Y206D01*
X1924Y206D02*
X1930Y206D01*
X2025Y206D02*
X2031Y206D01*
X2057Y206D02*
X2071Y206D01*
X2147Y206D02*
X2153Y206D01*
X2170Y206D02*
X2177Y206D01*
X2195Y206D02*
X2201Y206D01*
X2222Y206D02*
X2228Y206D01*
X2255Y206D02*
X2262Y206D01*
X2297Y206D02*
X2304Y206D01*
X2321Y206D02*
X2328Y206D01*
X2354Y206D02*
X2360Y206D01*
X2405Y206D02*
X2411Y206D01*
X2446Y206D02*
X2453Y206D01*
X0Y205D02*
X7Y205D01*
X1678Y205D02*
X1684Y205D01*
X1715Y205D02*
X1721Y205D01*
X1765Y205D02*
X1772Y205D01*
X1899Y205D02*
X1930Y205D01*
X1999Y205D02*
X2031Y205D01*
X2057Y205D02*
X2071Y205D01*
X2147Y205D02*
X2154Y205D01*
X2170Y205D02*
X2177Y205D01*
X2195Y205D02*
X2201Y205D01*
X2222Y205D02*
X2228Y205D01*
X2254Y205D02*
X2261Y205D01*
X2298Y205D02*
X2304Y205D01*
X2320Y205D02*
X2327Y205D01*
X2354Y205D02*
X2360Y205D01*
X2405Y205D02*
X2411Y205D01*
X2446Y205D02*
X2453Y205D01*
X0Y204D02*
X7Y204D01*
X1678Y204D02*
X1684Y204D01*
X1715Y204D02*
X1721Y204D01*
X1765Y204D02*
X1772Y204D01*
X1898Y204D02*
X1930Y204D01*
X1998Y204D02*
X2031Y204D01*
X2058Y204D02*
X2071Y204D01*
X2148Y204D02*
X2154Y204D01*
X2169Y204D02*
X2176Y204D01*
X2195Y204D02*
X2201Y204D01*
X2222Y204D02*
X2228Y204D01*
X2253Y204D02*
X2261Y204D01*
X2298Y204D02*
X2305Y204D01*
X2320Y204D02*
X2327Y204D01*
X2354Y204D02*
X2360Y204D01*
X2405Y204D02*
X2411Y204D01*
X2446Y204D02*
X2453Y204D01*
X0Y203D02*
X7Y203D01*
X1678Y203D02*
X1684Y203D01*
X1715Y203D02*
X1721Y203D01*
X1766Y203D02*
X1774Y203D01*
X1897Y203D02*
X1930Y203D01*
X1997Y203D02*
X2030Y203D01*
X2058Y203D02*
X2070Y203D01*
X2148Y203D02*
X2155Y203D01*
X2169Y203D02*
X2176Y203D01*
X2195Y203D02*
X2201Y203D01*
X2222Y203D02*
X2228Y203D01*
X2253Y203D02*
X2260Y203D01*
X2299Y203D02*
X2305Y203D01*
X2319Y203D02*
X2326Y203D01*
X2354Y203D02*
X2360Y203D01*
X2405Y203D02*
X2411Y203D01*
X2446Y203D02*
X2453Y203D01*
X0Y202D02*
X7Y202D01*
X1678Y202D02*
X1684Y202D01*
X1715Y202D02*
X1721Y202D01*
X1766Y202D02*
X1775Y202D01*
X1897Y202D02*
X1929Y202D01*
X1997Y202D02*
X2030Y202D01*
X2058Y202D02*
X2070Y202D01*
X2149Y202D02*
X2155Y202D01*
X2168Y202D02*
X2175Y202D01*
X2195Y202D02*
X2201Y202D01*
X2222Y202D02*
X2228Y202D01*
X2252Y202D02*
X2259Y202D01*
X2299Y202D02*
X2306Y202D01*
X2319Y202D02*
X2326Y202D01*
X2354Y202D02*
X2360Y202D01*
X2405Y202D02*
X2411Y202D01*
X2446Y202D02*
X2453Y202D01*
X0Y201D02*
X7Y201D01*
X1678Y201D02*
X1684Y201D01*
X1715Y201D02*
X1721Y201D01*
X1767Y201D02*
X1776Y201D01*
X1897Y201D02*
X1929Y201D01*
X1997Y201D02*
X2029Y201D01*
X2059Y201D02*
X2069Y201D01*
X2149Y201D02*
X2156Y201D01*
X2168Y201D02*
X2175Y201D01*
X2195Y201D02*
X2201Y201D01*
X2222Y201D02*
X2228Y201D01*
X2252Y201D02*
X2259Y201D01*
X2300Y201D02*
X2306Y201D01*
X2318Y201D02*
X2325Y201D01*
X2354Y201D02*
X2360Y201D01*
X2405Y201D02*
X2411Y201D01*
X2446Y201D02*
X2453Y201D01*
X0Y200D02*
X7Y200D01*
X1678Y200D02*
X1684Y200D01*
X1715Y200D02*
X1721Y200D01*
X1768Y200D02*
X1777Y200D01*
X1897Y200D02*
X1928Y200D01*
X1998Y200D02*
X2028Y200D01*
X2059Y200D02*
X2069Y200D01*
X2150Y200D02*
X2156Y200D01*
X2167Y200D02*
X2174Y200D01*
X2195Y200D02*
X2201Y200D01*
X2222Y200D02*
X2228Y200D01*
X2251Y200D02*
X2258Y200D01*
X2300Y200D02*
X2307Y200D01*
X2318Y200D02*
X2325Y200D01*
X2354Y200D02*
X2360Y200D01*
X2405Y200D02*
X2411Y200D01*
X2446Y200D02*
X2453Y200D01*
X0Y199D02*
X7Y199D01*
X1678Y199D02*
X1684Y199D01*
X1715Y199D02*
X1721Y199D01*
X1769Y199D02*
X1778Y199D01*
X1898Y199D02*
X1926Y199D01*
X1999Y199D02*
X2027Y199D01*
X2060Y199D02*
X2068Y199D01*
X2150Y199D02*
X2157Y199D01*
X2167Y199D02*
X2174Y199D01*
X2195Y199D02*
X2201Y199D01*
X2222Y199D02*
X2228Y199D01*
X2251Y199D02*
X2258Y199D01*
X2301Y199D02*
X2307Y199D01*
X2317Y199D02*
X2324Y199D01*
X2354Y199D02*
X2360Y199D01*
X2405Y199D02*
X2411Y199D01*
X2446Y199D02*
X2453Y199D01*
X0Y198D02*
X7Y198D01*
X1670Y198D02*
X1693Y198D01*
X1715Y198D02*
X1746Y198D01*
X1770Y198D02*
X1797Y198D01*
X2150Y198D02*
X2157Y198D01*
X2166Y198D02*
X2173Y198D01*
X2195Y198D02*
X2201Y198D01*
X2222Y198D02*
X2228Y198D01*
X2250Y198D02*
X2257Y198D01*
X2301Y198D02*
X2308Y198D01*
X2317Y198D02*
X2324Y198D01*
X2354Y198D02*
X2360Y198D01*
X2405Y198D02*
X2411Y198D01*
X2446Y198D02*
X2453Y198D01*
X0Y197D02*
X7Y197D01*
X1669Y197D02*
X1694Y197D01*
X1715Y197D02*
X1747Y197D01*
X1771Y197D02*
X1798Y197D01*
X2151Y197D02*
X2158Y197D01*
X2166Y197D02*
X2173Y197D01*
X2195Y197D02*
X2201Y197D01*
X2222Y197D02*
X2228Y197D01*
X2249Y197D02*
X2257Y197D01*
X2302Y197D02*
X2308Y197D01*
X2316Y197D02*
X2323Y197D01*
X2354Y197D02*
X2360Y197D01*
X2405Y197D02*
X2411Y197D01*
X2446Y197D02*
X2453Y197D01*
X0Y196D02*
X7Y196D01*
X1668Y196D02*
X1694Y196D01*
X1715Y196D02*
X1748Y196D01*
X1772Y196D02*
X1798Y196D01*
X2151Y196D02*
X2158Y196D01*
X2165Y196D02*
X2172Y196D01*
X2195Y196D02*
X2201Y196D01*
X2222Y196D02*
X2228Y196D01*
X2249Y196D02*
X2256Y196D01*
X2302Y196D02*
X2309Y196D01*
X2316Y196D02*
X2323Y196D01*
X2354Y196D02*
X2360Y196D01*
X2405Y196D02*
X2411Y196D01*
X2446Y196D02*
X2453Y196D01*
X0Y195D02*
X7Y195D01*
X1668Y195D02*
X1695Y195D01*
X1715Y195D02*
X1748Y195D01*
X1773Y195D02*
X1798Y195D01*
X2152Y195D02*
X2159Y195D01*
X2165Y195D02*
X2172Y195D01*
X2195Y195D02*
X2201Y195D01*
X2222Y195D02*
X2228Y195D01*
X2248Y195D02*
X2255Y195D01*
X2303Y195D02*
X2309Y195D01*
X2315Y195D02*
X2322Y195D01*
X2354Y195D02*
X2360Y195D01*
X2405Y195D02*
X2411Y195D01*
X2446Y195D02*
X2453Y195D01*
X0Y194D02*
X7Y194D01*
X1668Y194D02*
X1694Y194D01*
X1715Y194D02*
X1748Y194D01*
X1774Y194D02*
X1798Y194D01*
X2152Y194D02*
X2159Y194D01*
X2164Y194D02*
X2171Y194D01*
X2195Y194D02*
X2201Y194D01*
X2222Y194D02*
X2228Y194D01*
X2248Y194D02*
X2255Y194D01*
X2303Y194D02*
X2310Y194D01*
X2315Y194D02*
X2322Y194D01*
X2354Y194D02*
X2360Y194D01*
X2405Y194D02*
X2411Y194D01*
X2446Y194D02*
X2453Y194D01*
X0Y193D02*
X7Y193D01*
X1669Y193D02*
X1694Y193D01*
X1715Y193D02*
X1748Y193D01*
X1776Y193D02*
X1798Y193D01*
X2153Y193D02*
X2160Y193D01*
X2163Y193D02*
X2171Y193D01*
X2195Y193D02*
X2201Y193D01*
X2222Y193D02*
X2228Y193D01*
X2247Y193D02*
X2254Y193D01*
X2304Y193D02*
X2311Y193D01*
X2314Y193D02*
X2321Y193D01*
X2354Y193D02*
X2360Y193D01*
X2405Y193D02*
X2411Y193D01*
X2446Y193D02*
X2453Y193D01*
X0Y192D02*
X7Y192D01*
X1670Y192D02*
X1693Y192D01*
X1715Y192D02*
X1746Y192D01*
X1778Y192D02*
X1797Y192D01*
X2153Y192D02*
X2170Y192D01*
X2195Y192D02*
X2201Y192D01*
X2222Y192D02*
X2228Y192D01*
X2246Y192D02*
X2254Y192D01*
X2304Y192D02*
X2321Y192D01*
X2354Y192D02*
X2360Y192D01*
X2405Y192D02*
X2411Y192D01*
X2446Y192D02*
X2453Y192D01*
X0Y191D02*
X7Y191D01*
X2154Y191D02*
X2170Y191D01*
X2195Y191D02*
X2201Y191D01*
X2222Y191D02*
X2228Y191D01*
X2246Y191D02*
X2253Y191D01*
X2305Y191D02*
X2320Y191D01*
X2354Y191D02*
X2360Y191D01*
X2405Y191D02*
X2411Y191D01*
X2446Y191D02*
X2453Y191D01*
X0Y190D02*
X7Y190D01*
X2155Y190D02*
X2169Y190D01*
X2195Y190D02*
X2201Y190D01*
X2222Y190D02*
X2228Y190D01*
X2246Y190D02*
X2252Y190D01*
X2305Y190D02*
X2320Y190D01*
X2354Y190D02*
X2360Y190D01*
X2405Y190D02*
X2411Y190D01*
X2446Y190D02*
X2453Y190D01*
X0Y189D02*
X7Y189D01*
X2155Y189D02*
X2168Y189D01*
X2195Y189D02*
X2201Y189D01*
X2222Y189D02*
X2228Y189D01*
X2245Y189D02*
X2252Y189D01*
X2306Y189D02*
X2319Y189D01*
X2354Y189D02*
X2360Y189D01*
X2405Y189D02*
X2411Y189D01*
X2446Y189D02*
X2453Y189D01*
X0Y188D02*
X7Y188D01*
X2156Y188D02*
X2167Y188D01*
X2195Y188D02*
X2201Y188D01*
X2223Y188D02*
X2228Y188D01*
X2246Y188D02*
X2251Y188D01*
X2307Y188D02*
X2318Y188D01*
X2355Y188D02*
X2360Y188D01*
X2405Y188D02*
X2410Y188D01*
X2446Y188D02*
X2453Y188D01*
X0Y187D02*
X7Y187D01*
X2158Y187D02*
X2166Y187D01*
X2196Y187D02*
X2200Y187D01*
X2223Y187D02*
X2227Y187D01*
X2246Y187D02*
X2251Y187D01*
X2308Y187D02*
X2316Y187D01*
X2355Y187D02*
X2360Y187D01*
X2405Y187D02*
X2410Y187D01*
X2446Y187D02*
X2453Y187D01*
X0Y186D02*
X7Y186D01*
X2160Y186D02*
X2164Y186D01*
X2197Y186D02*
X2199Y186D01*
X2224Y186D02*
X2226Y186D01*
X2248Y186D02*
X2249Y186D01*
X2311Y186D02*
X2314Y186D01*
X2357Y186D02*
X2358Y186D01*
X2407Y186D02*
X2408Y186D01*
X2446Y186D02*
X2453Y186D01*
X0Y185D02*
X7Y185D01*
X2446Y185D02*
X2453Y185D01*
X0Y184D02*
X7Y184D01*
X2446Y184D02*
X2453Y184D01*
X0Y183D02*
X7Y183D01*
X2446Y183D02*
X2453Y183D01*
X0Y182D02*
X7Y182D01*
X2446Y182D02*
X2453Y182D01*
X0Y181D02*
X7Y181D01*
X2446Y181D02*
X2453Y181D01*
X0Y180D02*
X7Y180D01*
X2446Y180D02*
X2453Y180D01*
X0Y179D02*
X7Y179D01*
X2446Y179D02*
X2453Y179D01*
X0Y178D02*
X7Y178D01*
X2446Y178D02*
X2453Y178D01*
X0Y177D02*
X7Y177D01*
X2446Y177D02*
X2453Y177D01*
X0Y176D02*
X7Y176D01*
X2446Y176D02*
X2453Y176D01*
X0Y175D02*
X7Y175D01*
X2446Y175D02*
X2453Y175D01*
X0Y174D02*
X7Y174D01*
X2446Y174D02*
X2453Y174D01*
X0Y173D02*
X7Y173D01*
X2446Y173D02*
X2453Y173D01*
X0Y172D02*
X7Y172D01*
X2446Y172D02*
X2453Y172D01*
X0Y171D02*
X7Y171D01*
X2446Y171D02*
X2453Y171D01*
X0Y170D02*
X7Y170D01*
X2446Y170D02*
X2453Y170D01*
X0Y169D02*
X7Y169D01*
X2446Y169D02*
X2453Y169D01*
X0Y168D02*
X7Y168D01*
X2446Y168D02*
X2453Y168D01*
X0Y167D02*
X7Y167D01*
X2446Y167D02*
X2453Y167D01*
X0Y166D02*
X7Y166D01*
X2446Y166D02*
X2453Y166D01*
X0Y165D02*
X7Y165D01*
X2446Y165D02*
X2453Y165D01*
X0Y164D02*
X7Y164D01*
X2446Y164D02*
X2453Y164D01*
X0Y163D02*
X7Y163D01*
X2446Y163D02*
X2453Y163D01*
X0Y162D02*
X7Y162D01*
X2446Y162D02*
X2453Y162D01*
X0Y161D02*
X7Y161D01*
X2446Y161D02*
X2453Y161D01*
X0Y160D02*
X7Y160D01*
X2446Y160D02*
X2453Y160D01*
X0Y159D02*
X7Y159D01*
X2446Y159D02*
X2453Y159D01*
X0Y158D02*
X7Y158D01*
X2446Y158D02*
X2453Y158D01*
X0Y157D02*
X7Y157D01*
X2446Y157D02*
X2453Y157D01*
X0Y156D02*
X7Y156D01*
X2446Y156D02*
X2453Y156D01*
X0Y155D02*
X7Y155D01*
X2446Y155D02*
X2453Y155D01*
X0Y154D02*
X7Y154D01*
X2446Y154D02*
X2453Y154D01*
X0Y153D02*
X7Y153D01*
X2446Y153D02*
X2453Y153D01*
X0Y152D02*
X7Y152D01*
X2446Y152D02*
X2453Y152D01*
X0Y151D02*
X7Y151D01*
X2446Y151D02*
X2453Y151D01*
X0Y150D02*
X7Y150D01*
X2446Y150D02*
X2453Y150D01*
X0Y149D02*
X7Y149D01*
X2446Y149D02*
X2453Y149D01*
X0Y148D02*
X7Y148D01*
X2446Y148D02*
X2453Y148D01*
X0Y147D02*
X7Y147D01*
X2446Y147D02*
X2453Y147D01*
X0Y146D02*
X7Y146D01*
X2446Y146D02*
X2453Y146D01*
X0Y145D02*
X7Y145D01*
X2446Y145D02*
X2453Y145D01*
X0Y144D02*
X7Y144D01*
X2446Y144D02*
X2453Y144D01*
X0Y143D02*
X7Y143D01*
X2446Y143D02*
X2453Y143D01*
X0Y142D02*
X7Y142D01*
X2446Y142D02*
X2453Y142D01*
X0Y141D02*
X7Y141D01*
X2446Y141D02*
X2453Y141D01*
X0Y140D02*
X7Y140D01*
X2446Y140D02*
X2453Y140D01*
X0Y139D02*
X7Y139D01*
X2446Y139D02*
X2453Y139D01*
X0Y138D02*
X7Y138D01*
X2446Y138D02*
X2453Y138D01*
X0Y137D02*
X7Y137D01*
X2446Y137D02*
X2453Y137D01*
X0Y136D02*
X7Y136D01*
X2446Y136D02*
X2453Y136D01*
X0Y135D02*
X7Y135D01*
X2446Y135D02*
X2453Y135D01*
X0Y134D02*
X7Y134D01*
X2446Y134D02*
X2453Y134D01*
X0Y133D02*
X7Y133D01*
X2446Y133D02*
X2453Y133D01*
X0Y132D02*
X7Y132D01*
X395Y132D02*
X403Y132D01*
X2446Y132D02*
X2453Y132D01*
X0Y131D02*
X7Y131D01*
X394Y131D02*
X405Y131D01*
X2446Y131D02*
X2453Y131D01*
X0Y130D02*
X7Y130D01*
X393Y130D02*
X406Y130D01*
X2446Y130D02*
X2453Y130D01*
X0Y129D02*
X7Y129D01*
X393Y129D02*
X406Y129D01*
X2446Y129D02*
X2453Y129D01*
X0Y128D02*
X7Y128D01*
X27Y128D02*
X38Y128D01*
X63Y128D02*
X74Y128D01*
X333Y128D02*
X352Y128D01*
X393Y128D02*
X406Y128D01*
X451Y128D02*
X454Y128D01*
X522Y128D02*
X525Y128D01*
X803Y128D02*
X828Y128D01*
X943Y128D02*
X981Y128D01*
X2446Y128D02*
X2453Y128D01*
X0Y127D02*
X7Y127D01*
X27Y127D02*
X39Y127D01*
X62Y127D02*
X74Y127D01*
X330Y127D02*
X354Y127D01*
X393Y127D02*
X406Y127D01*
X450Y127D02*
X456Y127D01*
X520Y127D02*
X526Y127D01*
X801Y127D02*
X828Y127D01*
X942Y127D02*
X983Y127D01*
X2446Y127D02*
X2453Y127D01*
X0Y126D02*
X7Y126D01*
X27Y126D02*
X40Y126D01*
X61Y126D02*
X74Y126D01*
X329Y126D02*
X355Y126D01*
X393Y126D02*
X406Y126D01*
X449Y126D02*
X457Y126D01*
X519Y126D02*
X527Y126D01*
X801Y126D02*
X828Y126D01*
X941Y126D02*
X984Y126D01*
X2446Y126D02*
X2453Y126D01*
X0Y125D02*
X7Y125D01*
X27Y125D02*
X41Y125D01*
X61Y125D02*
X74Y125D01*
X327Y125D02*
X355Y125D01*
X393Y125D02*
X406Y125D01*
X449Y125D02*
X457Y125D01*
X519Y125D02*
X527Y125D01*
X800Y125D02*
X828Y125D01*
X941Y125D02*
X985Y125D01*
X2446Y125D02*
X2453Y125D01*
X0Y124D02*
X7Y124D01*
X27Y124D02*
X41Y124D01*
X60Y124D02*
X74Y124D01*
X326Y124D02*
X355Y124D01*
X393Y124D02*
X406Y124D01*
X449Y124D02*
X457Y124D01*
X519Y124D02*
X527Y124D01*
X800Y124D02*
X828Y124D01*
X940Y124D02*
X986Y124D01*
X2446Y124D02*
X2453Y124D01*
X0Y123D02*
X7Y123D01*
X27Y123D02*
X42Y123D01*
X59Y123D02*
X74Y123D01*
X325Y123D02*
X355Y123D01*
X393Y123D02*
X406Y123D01*
X448Y123D02*
X457Y123D01*
X519Y123D02*
X528Y123D01*
X800Y123D02*
X828Y123D01*
X940Y123D02*
X987Y123D01*
X2446Y123D02*
X2453Y123D01*
X0Y122D02*
X7Y122D01*
X27Y122D02*
X43Y122D01*
X58Y122D02*
X74Y122D01*
X325Y122D02*
X355Y122D01*
X393Y122D02*
X406Y122D01*
X448Y122D02*
X457Y122D01*
X519Y122D02*
X528Y122D01*
X800Y122D02*
X828Y122D01*
X941Y122D02*
X987Y122D01*
X2446Y122D02*
X2453Y122D01*
X0Y121D02*
X7Y121D01*
X27Y121D02*
X43Y121D01*
X58Y121D02*
X74Y121D01*
X324Y121D02*
X354Y121D01*
X393Y121D02*
X405Y121D01*
X448Y121D02*
X457Y121D01*
X519Y121D02*
X528Y121D01*
X801Y121D02*
X828Y121D01*
X941Y121D02*
X987Y121D01*
X2446Y121D02*
X2453Y121D01*
X0Y120D02*
X7Y120D01*
X27Y120D02*
X44Y120D01*
X57Y120D02*
X74Y120D01*
X323Y120D02*
X354Y120D01*
X394Y120D02*
X405Y120D01*
X448Y120D02*
X457Y120D01*
X519Y120D02*
X528Y120D01*
X801Y120D02*
X828Y120D01*
X942Y120D02*
X988Y120D01*
X2446Y120D02*
X2453Y120D01*
X0Y119D02*
X7Y119D01*
X27Y119D02*
X45Y119D01*
X56Y119D02*
X74Y119D01*
X322Y119D02*
X352Y119D01*
X396Y119D02*
X403Y119D01*
X448Y119D02*
X457Y119D01*
X519Y119D02*
X528Y119D01*
X803Y119D02*
X828Y119D01*
X943Y119D02*
X988Y119D01*
X2446Y119D02*
X2453Y119D01*
X0Y118D02*
X7Y118D01*
X27Y118D02*
X45Y118D01*
X56Y118D02*
X74Y118D01*
X322Y118D02*
X334Y118D01*
X448Y118D02*
X457Y118D01*
X519Y118D02*
X528Y118D01*
X819Y118D02*
X828Y118D01*
X979Y118D02*
X988Y118D01*
X2446Y118D02*
X2453Y118D01*
X0Y117D02*
X7Y117D01*
X27Y117D02*
X46Y117D01*
X55Y117D02*
X74Y117D01*
X321Y117D02*
X332Y117D01*
X448Y117D02*
X457Y117D01*
X519Y117D02*
X528Y117D01*
X819Y117D02*
X828Y117D01*
X979Y117D02*
X988Y117D01*
X2446Y117D02*
X2453Y117D01*
X0Y116D02*
X7Y116D01*
X27Y116D02*
X47Y116D01*
X54Y116D02*
X74Y116D01*
X320Y116D02*
X331Y116D01*
X448Y116D02*
X457Y116D01*
X519Y116D02*
X528Y116D01*
X819Y116D02*
X828Y116D01*
X979Y116D02*
X988Y116D01*
X2446Y116D02*
X2453Y116D01*
X0Y115D02*
X7Y115D01*
X27Y115D02*
X48Y115D01*
X54Y115D02*
X74Y115D01*
X319Y115D02*
X331Y115D01*
X448Y115D02*
X457Y115D01*
X519Y115D02*
X528Y115D01*
X819Y115D02*
X828Y115D01*
X979Y115D02*
X988Y115D01*
X2446Y115D02*
X2453Y115D01*
X0Y114D02*
X7Y114D01*
X27Y114D02*
X48Y114D01*
X53Y114D02*
X74Y114D01*
X318Y114D02*
X330Y114D01*
X448Y114D02*
X457Y114D01*
X519Y114D02*
X528Y114D01*
X819Y114D02*
X828Y114D01*
X979Y114D02*
X988Y114D01*
X2446Y114D02*
X2453Y114D01*
X0Y113D02*
X7Y113D01*
X27Y113D02*
X36Y113D01*
X38Y113D02*
X49Y113D01*
X52Y113D02*
X63Y113D01*
X65Y113D02*
X74Y113D01*
X318Y113D02*
X329Y113D01*
X448Y113D02*
X457Y113D01*
X519Y113D02*
X528Y113D01*
X819Y113D02*
X828Y113D01*
X979Y113D02*
X988Y113D01*
X2446Y113D02*
X2453Y113D01*
X0Y112D02*
X7Y112D01*
X27Y112D02*
X36Y112D01*
X39Y112D02*
X62Y112D01*
X65Y112D02*
X74Y112D01*
X317Y112D02*
X328Y112D01*
X448Y112D02*
X457Y112D01*
X519Y112D02*
X528Y112D01*
X819Y112D02*
X828Y112D01*
X979Y112D02*
X988Y112D01*
X2446Y112D02*
X2453Y112D01*
X0Y111D02*
X7Y111D01*
X27Y111D02*
X36Y111D01*
X39Y111D02*
X62Y111D01*
X65Y111D02*
X74Y111D01*
X316Y111D02*
X328Y111D01*
X448Y111D02*
X457Y111D01*
X519Y111D02*
X528Y111D01*
X819Y111D02*
X828Y111D01*
X979Y111D02*
X988Y111D01*
X2446Y111D02*
X2453Y111D01*
X0Y110D02*
X7Y110D01*
X27Y110D02*
X36Y110D01*
X40Y110D02*
X61Y110D01*
X65Y110D02*
X74Y110D01*
X315Y110D02*
X327Y110D01*
X448Y110D02*
X457Y110D01*
X519Y110D02*
X528Y110D01*
X819Y110D02*
X828Y110D01*
X979Y110D02*
X988Y110D01*
X2446Y110D02*
X2453Y110D01*
X0Y109D02*
X7Y109D01*
X27Y109D02*
X36Y109D01*
X41Y109D02*
X60Y109D01*
X65Y109D02*
X74Y109D01*
X315Y109D02*
X326Y109D01*
X448Y109D02*
X457Y109D01*
X519Y109D02*
X528Y109D01*
X819Y109D02*
X828Y109D01*
X979Y109D02*
X988Y109D01*
X2446Y109D02*
X2453Y109D01*
X0Y108D02*
X7Y108D01*
X27Y108D02*
X36Y108D01*
X41Y108D02*
X60Y108D01*
X65Y108D02*
X74Y108D01*
X314Y108D02*
X325Y108D01*
X448Y108D02*
X457Y108D01*
X519Y108D02*
X528Y108D01*
X819Y108D02*
X828Y108D01*
X979Y108D02*
X988Y108D01*
X2446Y108D02*
X2453Y108D01*
X0Y107D02*
X7Y107D01*
X27Y107D02*
X36Y107D01*
X42Y107D02*
X59Y107D01*
X65Y107D02*
X74Y107D01*
X99Y107D02*
X104Y107D01*
X118Y107D02*
X135Y107D01*
X313Y107D02*
X324Y107D01*
X385Y107D02*
X404Y107D01*
X448Y107D02*
X457Y107D01*
X467Y107D02*
X482Y107D01*
X519Y107D02*
X528Y107D01*
X537Y107D02*
X553Y107D01*
X598Y107D02*
X627Y107D01*
X732Y107D02*
X736Y107D01*
X770Y107D02*
X775Y107D01*
X819Y107D02*
X828Y107D01*
X979Y107D02*
X988Y107D01*
X2446Y107D02*
X2453Y107D01*
X0Y106D02*
X7Y106D01*
X27Y106D02*
X36Y106D01*
X43Y106D02*
X58Y106D01*
X65Y106D02*
X74Y106D01*
X98Y106D02*
X105Y106D01*
X117Y106D02*
X137Y106D01*
X312Y106D02*
X324Y106D01*
X384Y106D02*
X405Y106D01*
X448Y106D02*
X457Y106D01*
X464Y106D02*
X485Y106D01*
X519Y106D02*
X528Y106D01*
X535Y106D02*
X555Y106D01*
X596Y106D02*
X630Y106D01*
X731Y106D02*
X737Y106D01*
X769Y106D02*
X776Y106D01*
X819Y106D02*
X828Y106D01*
X979Y106D02*
X988Y106D01*
X2446Y106D02*
X2453Y106D01*
X0Y105D02*
X7Y105D01*
X27Y105D02*
X36Y105D01*
X44Y105D02*
X57Y105D01*
X65Y105D02*
X74Y105D01*
X98Y105D02*
X105Y105D01*
X116Y105D02*
X138Y105D01*
X312Y105D02*
X323Y105D01*
X383Y105D02*
X406Y105D01*
X448Y105D02*
X457Y105D01*
X463Y105D02*
X486Y105D01*
X519Y105D02*
X528Y105D01*
X533Y105D02*
X556Y105D01*
X595Y105D02*
X631Y105D01*
X730Y105D02*
X738Y105D01*
X769Y105D02*
X776Y105D01*
X819Y105D02*
X828Y105D01*
X979Y105D02*
X988Y105D01*
X2446Y105D02*
X2453Y105D01*
X0Y104D02*
X7Y104D01*
X27Y104D02*
X36Y104D01*
X44Y104D02*
X57Y104D01*
X65Y104D02*
X74Y104D01*
X97Y104D02*
X106Y104D01*
X115Y104D02*
X140Y104D01*
X311Y104D02*
X322Y104D01*
X383Y104D02*
X406Y104D01*
X448Y104D02*
X457Y104D01*
X461Y104D02*
X488Y104D01*
X519Y104D02*
X528Y104D01*
X531Y104D02*
X558Y104D01*
X594Y104D02*
X632Y104D01*
X730Y104D02*
X738Y104D01*
X768Y104D02*
X777Y104D01*
X819Y104D02*
X828Y104D01*
X979Y104D02*
X988Y104D01*
X2446Y104D02*
X2453Y104D01*
X0Y103D02*
X7Y103D01*
X27Y103D02*
X36Y103D01*
X45Y103D02*
X56Y103D01*
X65Y103D02*
X74Y103D01*
X97Y103D02*
X106Y103D01*
X114Y103D02*
X141Y103D01*
X310Y103D02*
X321Y103D01*
X383Y103D02*
X406Y103D01*
X448Y103D02*
X457Y103D01*
X460Y103D02*
X489Y103D01*
X519Y103D02*
X528Y103D01*
X530Y103D02*
X559Y103D01*
X593Y103D02*
X633Y103D01*
X730Y103D02*
X738Y103D01*
X768Y103D02*
X777Y103D01*
X819Y103D02*
X828Y103D01*
X979Y103D02*
X988Y103D01*
X2446Y103D02*
X2453Y103D01*
X0Y102D02*
X7Y102D01*
X27Y102D02*
X36Y102D01*
X46Y102D02*
X55Y102D01*
X65Y102D02*
X74Y102D01*
X97Y102D02*
X106Y102D01*
X113Y102D02*
X141Y102D01*
X310Y102D02*
X321Y102D01*
X383Y102D02*
X406Y102D01*
X448Y102D02*
X490Y102D01*
X519Y102D02*
X560Y102D01*
X592Y102D02*
X634Y102D01*
X730Y102D02*
X738Y102D01*
X768Y102D02*
X777Y102D01*
X819Y102D02*
X828Y102D01*
X979Y102D02*
X988Y102D01*
X2446Y102D02*
X2453Y102D01*
X0Y101D02*
X7Y101D01*
X27Y101D02*
X36Y101D01*
X46Y101D02*
X55Y101D01*
X65Y101D02*
X74Y101D01*
X97Y101D02*
X106Y101D01*
X111Y101D02*
X142Y101D01*
X309Y101D02*
X320Y101D01*
X383Y101D02*
X406Y101D01*
X448Y101D02*
X491Y101D01*
X519Y101D02*
X561Y101D01*
X591Y101D02*
X635Y101D01*
X730Y101D02*
X738Y101D01*
X768Y101D02*
X777Y101D01*
X819Y101D02*
X828Y101D01*
X979Y101D02*
X988Y101D01*
X2446Y101D02*
X2453Y101D01*
X0Y100D02*
X7Y100D01*
X27Y100D02*
X36Y100D01*
X46Y100D02*
X55Y100D01*
X65Y100D02*
X74Y100D01*
X97Y100D02*
X106Y100D01*
X110Y100D02*
X143Y100D01*
X309Y100D02*
X319Y100D01*
X384Y100D02*
X406Y100D01*
X448Y100D02*
X492Y100D01*
X519Y100D02*
X562Y100D01*
X591Y100D02*
X635Y100D01*
X730Y100D02*
X738Y100D01*
X768Y100D02*
X777Y100D01*
X819Y100D02*
X828Y100D01*
X979Y100D02*
X988Y100D01*
X2446Y100D02*
X2453Y100D01*
X0Y99D02*
X7Y99D01*
X27Y99D02*
X36Y99D01*
X46Y99D02*
X55Y99D01*
X65Y99D02*
X74Y99D01*
X97Y99D02*
X106Y99D01*
X109Y99D02*
X143Y99D01*
X309Y99D02*
X318Y99D01*
X385Y99D02*
X406Y99D01*
X448Y99D02*
X493Y99D01*
X519Y99D02*
X563Y99D01*
X591Y99D02*
X635Y99D01*
X730Y99D02*
X738Y99D01*
X768Y99D02*
X777Y99D01*
X819Y99D02*
X828Y99D01*
X979Y99D02*
X988Y99D01*
X2446Y99D02*
X2453Y99D01*
X0Y98D02*
X7Y98D01*
X27Y98D02*
X36Y98D01*
X46Y98D02*
X55Y98D01*
X65Y98D02*
X74Y98D01*
X97Y98D02*
X106Y98D01*
X108Y98D02*
X122Y98D01*
X131Y98D02*
X144Y98D01*
X308Y98D02*
X318Y98D01*
X397Y98D02*
X406Y98D01*
X448Y98D02*
X470Y98D01*
X479Y98D02*
X494Y98D01*
X519Y98D02*
X541Y98D01*
X549Y98D02*
X564Y98D01*
X590Y98D02*
X602Y98D01*
X624Y98D02*
X635Y98D01*
X730Y98D02*
X738Y98D01*
X768Y98D02*
X777Y98D01*
X819Y98D02*
X828Y98D01*
X979Y98D02*
X988Y98D01*
X2446Y98D02*
X2453Y98D01*
X0Y97D02*
X7Y97D01*
X27Y97D02*
X36Y97D01*
X46Y97D02*
X55Y97D01*
X65Y97D02*
X74Y97D01*
X97Y97D02*
X121Y97D01*
X134Y97D02*
X144Y97D01*
X308Y97D02*
X317Y97D01*
X398Y97D02*
X406Y97D01*
X448Y97D02*
X468Y97D01*
X481Y97D02*
X494Y97D01*
X519Y97D02*
X538Y97D01*
X552Y97D02*
X564Y97D01*
X590Y97D02*
X600Y97D01*
X626Y97D02*
X635Y97D01*
X730Y97D02*
X738Y97D01*
X768Y97D02*
X777Y97D01*
X819Y97D02*
X828Y97D01*
X979Y97D02*
X988Y97D01*
X2446Y97D02*
X2453Y97D01*
X0Y96D02*
X7Y96D01*
X27Y96D02*
X36Y96D01*
X47Y96D02*
X54Y96D01*
X65Y96D02*
X74Y96D01*
X97Y96D02*
X120Y96D01*
X135Y96D02*
X144Y96D01*
X308Y96D02*
X317Y96D01*
X398Y96D02*
X406Y96D01*
X448Y96D02*
X466Y96D01*
X483Y96D02*
X495Y96D01*
X519Y96D02*
X537Y96D01*
X553Y96D02*
X565Y96D01*
X590Y96D02*
X599Y96D01*
X627Y96D02*
X634Y96D01*
X730Y96D02*
X738Y96D01*
X768Y96D02*
X777Y96D01*
X819Y96D02*
X828Y96D01*
X979Y96D02*
X988Y96D01*
X2446Y96D02*
X2453Y96D01*
X0Y95D02*
X7Y95D01*
X27Y95D02*
X36Y95D01*
X48Y95D02*
X53Y95D01*
X65Y95D02*
X74Y95D01*
X97Y95D02*
X119Y95D01*
X135Y95D02*
X144Y95D01*
X308Y95D02*
X317Y95D01*
X398Y95D02*
X406Y95D01*
X448Y95D02*
X465Y95D01*
X484Y95D02*
X495Y95D01*
X519Y95D02*
X535Y95D01*
X554Y95D02*
X565Y95D01*
X590Y95D02*
X599Y95D01*
X629Y95D02*
X633Y95D01*
X730Y95D02*
X739Y95D01*
X768Y95D02*
X777Y95D01*
X819Y95D02*
X828Y95D01*
X947Y95D02*
X988Y95D01*
X2446Y95D02*
X2453Y95D01*
X0Y94D02*
X7Y94D01*
X27Y94D02*
X36Y94D01*
X50Y94D02*
X51Y94D01*
X65Y94D02*
X74Y94D01*
X97Y94D02*
X117Y94D01*
X136Y94D02*
X144Y94D01*
X308Y94D02*
X317Y94D01*
X398Y94D02*
X406Y94D01*
X448Y94D02*
X464Y94D01*
X485Y94D02*
X495Y94D01*
X519Y94D02*
X534Y94D01*
X555Y94D02*
X566Y94D01*
X590Y94D02*
X599Y94D01*
X631Y94D02*
X631Y94D01*
X730Y94D02*
X739Y94D01*
X767Y94D02*
X777Y94D01*
X819Y94D02*
X828Y94D01*
X945Y94D02*
X988Y94D01*
X2446Y94D02*
X2453Y94D01*
X0Y93D02*
X7Y93D01*
X27Y93D02*
X36Y93D01*
X65Y93D02*
X74Y93D01*
X97Y93D02*
X116Y93D01*
X136Y93D02*
X145Y93D01*
X308Y93D02*
X317Y93D01*
X398Y93D02*
X406Y93D01*
X448Y93D02*
X463Y93D01*
X486Y93D02*
X496Y93D01*
X519Y93D02*
X533Y93D01*
X556Y93D02*
X566Y93D01*
X590Y93D02*
X600Y93D01*
X730Y93D02*
X740Y93D01*
X767Y93D02*
X777Y93D01*
X819Y93D02*
X828Y93D01*
X944Y93D02*
X987Y93D01*
X2446Y93D02*
X2453Y93D01*
X0Y92D02*
X7Y92D01*
X27Y92D02*
X36Y92D01*
X65Y92D02*
X74Y92D01*
X97Y92D02*
X115Y92D01*
X136Y92D02*
X145Y92D01*
X308Y92D02*
X317Y92D01*
X398Y92D02*
X406Y92D01*
X448Y92D02*
X462Y92D01*
X487Y92D02*
X496Y92D01*
X519Y92D02*
X532Y92D01*
X557Y92D02*
X566Y92D01*
X591Y92D02*
X603Y92D01*
X730Y92D02*
X740Y92D01*
X766Y92D02*
X776Y92D01*
X819Y92D02*
X828Y92D01*
X943Y92D02*
X987Y92D01*
X2446Y92D02*
X2453Y92D01*
X0Y91D02*
X7Y91D01*
X27Y91D02*
X36Y91D01*
X65Y91D02*
X74Y91D01*
X97Y91D02*
X114Y91D01*
X136Y91D02*
X145Y91D01*
X308Y91D02*
X317Y91D01*
X398Y91D02*
X406Y91D01*
X448Y91D02*
X460Y91D01*
X487Y91D02*
X496Y91D01*
X519Y91D02*
X531Y91D01*
X557Y91D02*
X566Y91D01*
X591Y91D02*
X605Y91D01*
X731Y91D02*
X740Y91D01*
X766Y91D02*
X776Y91D01*
X819Y91D02*
X828Y91D01*
X942Y91D02*
X987Y91D01*
X2446Y91D02*
X2453Y91D01*
X0Y90D02*
X7Y90D01*
X27Y90D02*
X36Y90D01*
X65Y90D02*
X74Y90D01*
X97Y90D02*
X113Y90D01*
X136Y90D02*
X144Y90D01*
X308Y90D02*
X317Y90D01*
X398Y90D02*
X406Y90D01*
X448Y90D02*
X459Y90D01*
X487Y90D02*
X496Y90D01*
X519Y90D02*
X530Y90D01*
X557Y90D02*
X566Y90D01*
X591Y90D02*
X607Y90D01*
X731Y90D02*
X741Y90D01*
X766Y90D02*
X775Y90D01*
X819Y90D02*
X828Y90D01*
X941Y90D02*
X986Y90D01*
X2446Y90D02*
X2453Y90D01*
X0Y89D02*
X7Y89D01*
X27Y89D02*
X36Y89D01*
X65Y89D02*
X74Y89D01*
X97Y89D02*
X112Y89D01*
X136Y89D02*
X144Y89D01*
X308Y89D02*
X317Y89D01*
X398Y89D02*
X406Y89D01*
X448Y89D02*
X458Y89D01*
X487Y89D02*
X496Y89D01*
X519Y89D02*
X528Y89D01*
X557Y89D02*
X566Y89D01*
X592Y89D02*
X609Y89D01*
X732Y89D02*
X741Y89D01*
X765Y89D02*
X775Y89D01*
X819Y89D02*
X828Y89D01*
X941Y89D02*
X985Y89D01*
X2446Y89D02*
X2453Y89D01*
X0Y88D02*
X7Y88D01*
X27Y88D02*
X36Y88D01*
X65Y88D02*
X74Y88D01*
X97Y88D02*
X110Y88D01*
X136Y88D02*
X144Y88D01*
X308Y88D02*
X317Y88D01*
X398Y88D02*
X406Y88D01*
X448Y88D02*
X458Y88D01*
X487Y88D02*
X496Y88D01*
X519Y88D02*
X528Y88D01*
X557Y88D02*
X566Y88D01*
X593Y88D02*
X612Y88D01*
X732Y88D02*
X742Y88D01*
X765Y88D02*
X774Y88D01*
X819Y88D02*
X828Y88D01*
X941Y88D02*
X984Y88D01*
X2446Y88D02*
X2453Y88D01*
X0Y87D02*
X7Y87D01*
X27Y87D02*
X36Y87D01*
X65Y87D02*
X74Y87D01*
X97Y87D02*
X109Y87D01*
X137Y87D02*
X143Y87D01*
X308Y87D02*
X317Y87D01*
X336Y87D02*
X355Y87D01*
X398Y87D02*
X406Y87D01*
X448Y87D02*
X457Y87D01*
X487Y87D02*
X496Y87D01*
X519Y87D02*
X528Y87D01*
X557Y87D02*
X566Y87D01*
X593Y87D02*
X614Y87D01*
X732Y87D02*
X742Y87D01*
X764Y87D02*
X774Y87D01*
X819Y87D02*
X828Y87D01*
X842Y87D02*
X844Y87D01*
X940Y87D02*
X983Y87D01*
X2148Y87D02*
X2149Y87D01*
X2446Y87D02*
X2453Y87D01*
X0Y86D02*
X7Y86D01*
X27Y86D02*
X36Y86D01*
X65Y86D02*
X74Y86D01*
X97Y86D02*
X108Y86D01*
X139Y86D02*
X141Y86D01*
X308Y86D02*
X317Y86D01*
X334Y86D02*
X355Y86D01*
X398Y86D02*
X406Y86D01*
X448Y86D02*
X457Y86D01*
X487Y86D02*
X496Y86D01*
X519Y86D02*
X528Y86D01*
X557Y86D02*
X566Y86D01*
X594Y86D02*
X616Y86D01*
X733Y86D02*
X743Y86D01*
X764Y86D02*
X774Y86D01*
X819Y86D02*
X828Y86D01*
X840Y86D02*
X845Y86D01*
X940Y86D02*
X980Y86D01*
X2147Y86D02*
X2150Y86D01*
X2446Y86D02*
X2453Y86D01*
X0Y85D02*
X7Y85D01*
X27Y85D02*
X36Y85D01*
X65Y85D02*
X74Y85D01*
X97Y85D02*
X107Y85D01*
X308Y85D02*
X317Y85D01*
X333Y85D02*
X355Y85D01*
X398Y85D02*
X406Y85D01*
X448Y85D02*
X457Y85D01*
X487Y85D02*
X496Y85D01*
X519Y85D02*
X528Y85D01*
X557Y85D02*
X566Y85D01*
X596Y85D02*
X619Y85D01*
X733Y85D02*
X743Y85D01*
X763Y85D02*
X773Y85D01*
X819Y85D02*
X828Y85D01*
X839Y85D02*
X846Y85D01*
X940Y85D02*
X949Y85D01*
X2146Y85D02*
X2151Y85D01*
X2446Y85D02*
X2453Y85D01*
X0Y84D02*
X7Y84D01*
X27Y84D02*
X36Y84D01*
X65Y84D02*
X74Y84D01*
X97Y84D02*
X106Y84D01*
X308Y84D02*
X317Y84D01*
X332Y84D02*
X355Y84D01*
X398Y84D02*
X406Y84D01*
X448Y84D02*
X457Y84D01*
X487Y84D02*
X496Y84D01*
X519Y84D02*
X528Y84D01*
X557Y84D02*
X566Y84D01*
X597Y84D02*
X621Y84D01*
X734Y84D02*
X743Y84D01*
X763Y84D02*
X773Y84D01*
X819Y84D02*
X828Y84D01*
X839Y84D02*
X847Y84D01*
X940Y84D02*
X949Y84D01*
X2146Y84D02*
X2152Y84D01*
X2446Y84D02*
X2453Y84D01*
X0Y83D02*
X7Y83D01*
X27Y83D02*
X36Y83D01*
X65Y83D02*
X74Y83D01*
X97Y83D02*
X106Y83D01*
X186Y83D02*
X196Y83D01*
X308Y83D02*
X317Y83D01*
X332Y83D02*
X355Y83D01*
X398Y83D02*
X406Y83D01*
X448Y83D02*
X457Y83D01*
X487Y83D02*
X496Y83D01*
X519Y83D02*
X528Y83D01*
X557Y83D02*
X566Y83D01*
X600Y83D02*
X623Y83D01*
X734Y83D02*
X744Y83D01*
X763Y83D02*
X772Y83D01*
X819Y83D02*
X828Y83D01*
X839Y83D02*
X847Y83D01*
X889Y83D02*
X898Y83D01*
X940Y83D02*
X949Y83D01*
X2147Y83D02*
X2152Y83D01*
X2446Y83D02*
X2453Y83D01*
X0Y82D02*
X7Y82D01*
X27Y82D02*
X36Y82D01*
X65Y82D02*
X74Y82D01*
X97Y82D02*
X106Y82D01*
X184Y82D02*
X198Y82D01*
X308Y82D02*
X317Y82D01*
X332Y82D02*
X355Y82D01*
X398Y82D02*
X406Y82D01*
X448Y82D02*
X457Y82D01*
X487Y82D02*
X496Y82D01*
X519Y82D02*
X528Y82D01*
X557Y82D02*
X566Y82D01*
X602Y82D02*
X626Y82D01*
X735Y82D02*
X744Y82D01*
X762Y82D02*
X772Y82D01*
X819Y82D02*
X828Y82D01*
X838Y82D02*
X847Y82D01*
X886Y82D02*
X901Y82D01*
X940Y82D02*
X949Y82D01*
X2148Y82D02*
X2152Y82D01*
X2446Y82D02*
X2453Y82D01*
X0Y81D02*
X7Y81D01*
X27Y81D02*
X36Y81D01*
X65Y81D02*
X74Y81D01*
X97Y81D02*
X106Y81D01*
X183Y81D02*
X199Y81D01*
X308Y81D02*
X317Y81D01*
X332Y81D02*
X355Y81D01*
X398Y81D02*
X406Y81D01*
X448Y81D02*
X457Y81D01*
X487Y81D02*
X496Y81D01*
X519Y81D02*
X528Y81D01*
X557Y81D02*
X566Y81D01*
X604Y81D02*
X628Y81D01*
X735Y81D02*
X745Y81D01*
X762Y81D02*
X771Y81D01*
X819Y81D02*
X828Y81D01*
X838Y81D02*
X847Y81D01*
X885Y81D02*
X902Y81D01*
X940Y81D02*
X949Y81D01*
X2149Y81D02*
X2152Y81D01*
X2446Y81D02*
X2453Y81D01*
X0Y80D02*
X7Y80D01*
X27Y80D02*
X36Y80D01*
X65Y80D02*
X74Y80D01*
X97Y80D02*
X106Y80D01*
X182Y80D02*
X200Y80D01*
X308Y80D02*
X317Y80D01*
X333Y80D02*
X355Y80D01*
X398Y80D02*
X406Y80D01*
X448Y80D02*
X457Y80D01*
X487Y80D02*
X496Y80D01*
X519Y80D02*
X528Y80D01*
X557Y80D02*
X566Y80D01*
X607Y80D02*
X630Y80D01*
X735Y80D02*
X745Y80D01*
X761Y80D02*
X771Y80D01*
X819Y80D02*
X828Y80D01*
X838Y80D02*
X847Y80D01*
X885Y80D02*
X903Y80D01*
X940Y80D02*
X949Y80D01*
X2150Y80D02*
X2152Y80D01*
X2446Y80D02*
X2453Y80D01*
X0Y79D02*
X7Y79D01*
X27Y79D02*
X36Y79D01*
X65Y79D02*
X74Y79D01*
X97Y79D02*
X106Y79D01*
X182Y79D02*
X200Y79D01*
X308Y79D02*
X317Y79D01*
X333Y79D02*
X355Y79D01*
X398Y79D02*
X406Y79D01*
X448Y79D02*
X457Y79D01*
X487Y79D02*
X496Y79D01*
X519Y79D02*
X528Y79D01*
X557Y79D02*
X566Y79D01*
X609Y79D02*
X631Y79D01*
X736Y79D02*
X746Y79D01*
X761Y79D02*
X770Y79D01*
X819Y79D02*
X828Y79D01*
X838Y79D02*
X847Y79D01*
X885Y79D02*
X903Y79D01*
X940Y79D02*
X949Y79D01*
X2151Y79D02*
X2152Y79D01*
X2446Y79D02*
X2453Y79D01*
X0Y78D02*
X7Y78D01*
X27Y78D02*
X36Y78D01*
X65Y78D02*
X74Y78D01*
X97Y78D02*
X106Y78D01*
X182Y78D02*
X200Y78D01*
X308Y78D02*
X317Y78D01*
X335Y78D02*
X355Y78D01*
X398Y78D02*
X406Y78D01*
X448Y78D02*
X457Y78D01*
X487Y78D02*
X496Y78D01*
X519Y78D02*
X528Y78D01*
X557Y78D02*
X566Y78D01*
X611Y78D02*
X632Y78D01*
X736Y78D02*
X746Y78D01*
X760Y78D02*
X770Y78D01*
X819Y78D02*
X828Y78D01*
X838Y78D02*
X847Y78D01*
X884Y78D02*
X903Y78D01*
X940Y78D02*
X949Y78D01*
X2152Y78D02*
X2152Y78D01*
X2446Y78D02*
X2453Y78D01*
X0Y77D02*
X7Y77D01*
X27Y77D02*
X36Y77D01*
X65Y77D02*
X74Y77D01*
X97Y77D02*
X106Y77D01*
X182Y77D02*
X200Y77D01*
X308Y77D02*
X317Y77D01*
X346Y77D02*
X355Y77D01*
X398Y77D02*
X406Y77D01*
X448Y77D02*
X457Y77D01*
X487Y77D02*
X496Y77D01*
X519Y77D02*
X528Y77D01*
X557Y77D02*
X566Y77D01*
X614Y77D02*
X633Y77D01*
X737Y77D02*
X746Y77D01*
X760Y77D02*
X770Y77D01*
X819Y77D02*
X828Y77D01*
X838Y77D02*
X847Y77D01*
X884Y77D02*
X903Y77D01*
X940Y77D02*
X949Y77D01*
X2446Y77D02*
X2453Y77D01*
X0Y76D02*
X7Y76D01*
X27Y76D02*
X36Y76D01*
X65Y76D02*
X74Y76D01*
X97Y76D02*
X106Y76D01*
X182Y76D02*
X200Y76D01*
X308Y76D02*
X317Y76D01*
X346Y76D02*
X355Y76D01*
X398Y76D02*
X406Y76D01*
X448Y76D02*
X457Y76D01*
X487Y76D02*
X496Y76D01*
X519Y76D02*
X528Y76D01*
X557Y76D02*
X566Y76D01*
X616Y76D02*
X634Y76D01*
X737Y76D02*
X747Y76D01*
X759Y76D02*
X769Y76D01*
X819Y76D02*
X828Y76D01*
X838Y76D02*
X847Y76D01*
X884Y76D02*
X903Y76D01*
X940Y76D02*
X949Y76D01*
X2446Y76D02*
X2453Y76D01*
X0Y75D02*
X7Y75D01*
X27Y75D02*
X36Y75D01*
X65Y75D02*
X74Y75D01*
X97Y75D02*
X106Y75D01*
X182Y75D02*
X200Y75D01*
X308Y75D02*
X317Y75D01*
X346Y75D02*
X355Y75D01*
X398Y75D02*
X406Y75D01*
X448Y75D02*
X457Y75D01*
X487Y75D02*
X496Y75D01*
X519Y75D02*
X528Y75D01*
X557Y75D02*
X566Y75D01*
X618Y75D02*
X634Y75D01*
X738Y75D02*
X747Y75D01*
X759Y75D02*
X769Y75D01*
X819Y75D02*
X828Y75D01*
X838Y75D02*
X847Y75D01*
X884Y75D02*
X903Y75D01*
X940Y75D02*
X949Y75D01*
X2446Y75D02*
X2453Y75D01*
X0Y74D02*
X7Y74D01*
X27Y74D02*
X36Y74D01*
X65Y74D02*
X74Y74D01*
X97Y74D02*
X106Y74D01*
X182Y74D02*
X200Y74D01*
X308Y74D02*
X317Y74D01*
X346Y74D02*
X355Y74D01*
X398Y74D02*
X406Y74D01*
X448Y74D02*
X457Y74D01*
X487Y74D02*
X496Y74D01*
X519Y74D02*
X528Y74D01*
X557Y74D02*
X566Y74D01*
X620Y74D02*
X635Y74D01*
X738Y74D02*
X748Y74D01*
X759Y74D02*
X768Y74D01*
X819Y74D02*
X828Y74D01*
X838Y74D02*
X847Y74D01*
X884Y74D02*
X903Y74D01*
X940Y74D02*
X949Y74D01*
X2446Y74D02*
X2453Y74D01*
X0Y73D02*
X7Y73D01*
X27Y73D02*
X36Y73D01*
X65Y73D02*
X74Y73D01*
X97Y73D02*
X106Y73D01*
X182Y73D02*
X200Y73D01*
X308Y73D02*
X317Y73D01*
X346Y73D02*
X355Y73D01*
X398Y73D02*
X406Y73D01*
X448Y73D02*
X458Y73D01*
X487Y73D02*
X496Y73D01*
X519Y73D02*
X528Y73D01*
X557Y73D02*
X566Y73D01*
X623Y73D02*
X635Y73D01*
X739Y73D02*
X748Y73D01*
X758Y73D02*
X768Y73D01*
X819Y73D02*
X828Y73D01*
X838Y73D02*
X847Y73D01*
X884Y73D02*
X903Y73D01*
X940Y73D02*
X949Y73D01*
X2446Y73D02*
X2453Y73D01*
X0Y72D02*
X7Y72D01*
X27Y72D02*
X36Y72D01*
X65Y72D02*
X74Y72D01*
X97Y72D02*
X106Y72D01*
X182Y72D02*
X200Y72D01*
X308Y72D02*
X317Y72D01*
X346Y72D02*
X355Y72D01*
X398Y72D02*
X406Y72D01*
X448Y72D02*
X458Y72D01*
X487Y72D02*
X496Y72D01*
X519Y72D02*
X528Y72D01*
X557Y72D02*
X566Y72D01*
X625Y72D02*
X636Y72D01*
X739Y72D02*
X749Y72D01*
X758Y72D02*
X767Y72D01*
X819Y72D02*
X828Y72D01*
X838Y72D02*
X847Y72D01*
X884Y72D02*
X903Y72D01*
X940Y72D02*
X949Y72D01*
X2446Y72D02*
X2453Y72D01*
X0Y71D02*
X7Y71D01*
X27Y71D02*
X36Y71D01*
X65Y71D02*
X74Y71D01*
X97Y71D02*
X106Y71D01*
X182Y71D02*
X200Y71D01*
X308Y71D02*
X317Y71D01*
X346Y71D02*
X355Y71D01*
X398Y71D02*
X406Y71D01*
X448Y71D02*
X459Y71D01*
X487Y71D02*
X496Y71D01*
X519Y71D02*
X529Y71D01*
X557Y71D02*
X566Y71D01*
X626Y71D02*
X636Y71D01*
X739Y71D02*
X749Y71D01*
X757Y71D02*
X767Y71D01*
X819Y71D02*
X828Y71D01*
X838Y71D02*
X847Y71D01*
X884Y71D02*
X903Y71D01*
X940Y71D02*
X949Y71D01*
X2446Y71D02*
X2453Y71D01*
X0Y70D02*
X7Y70D01*
X27Y70D02*
X36Y70D01*
X65Y70D02*
X74Y70D01*
X97Y70D02*
X106Y70D01*
X182Y70D02*
X200Y70D01*
X308Y70D02*
X317Y70D01*
X346Y70D02*
X355Y70D01*
X398Y70D02*
X406Y70D01*
X448Y70D02*
X460Y70D01*
X487Y70D02*
X496Y70D01*
X519Y70D02*
X530Y70D01*
X557Y70D02*
X566Y70D01*
X627Y70D02*
X636Y70D01*
X740Y70D02*
X750Y70D01*
X757Y70D02*
X767Y70D01*
X819Y70D02*
X828Y70D01*
X838Y70D02*
X847Y70D01*
X884Y70D02*
X903Y70D01*
X940Y70D02*
X949Y70D01*
X2446Y70D02*
X2453Y70D01*
X0Y69D02*
X7Y69D01*
X27Y69D02*
X36Y69D01*
X65Y69D02*
X74Y69D01*
X97Y69D02*
X106Y69D01*
X182Y69D02*
X200Y69D01*
X308Y69D02*
X317Y69D01*
X346Y69D02*
X355Y69D01*
X398Y69D02*
X406Y69D01*
X448Y69D02*
X461Y69D01*
X487Y69D02*
X496Y69D01*
X519Y69D02*
X531Y69D01*
X557Y69D02*
X566Y69D01*
X627Y69D02*
X636Y69D01*
X740Y69D02*
X750Y69D01*
X756Y69D02*
X766Y69D01*
X819Y69D02*
X828Y69D01*
X838Y69D02*
X847Y69D01*
X885Y69D02*
X903Y69D01*
X940Y69D02*
X949Y69D01*
X2446Y69D02*
X2453Y69D01*
X0Y68D02*
X7Y68D01*
X27Y68D02*
X36Y68D01*
X65Y68D02*
X74Y68D01*
X97Y68D02*
X106Y68D01*
X182Y68D02*
X200Y68D01*
X308Y68D02*
X317Y68D01*
X346Y68D02*
X355Y68D01*
X398Y68D02*
X406Y68D01*
X448Y68D02*
X462Y68D01*
X486Y68D02*
X496Y68D01*
X519Y68D02*
X532Y68D01*
X557Y68D02*
X566Y68D01*
X627Y68D02*
X636Y68D01*
X741Y68D02*
X750Y68D01*
X756Y68D02*
X766Y68D01*
X819Y68D02*
X828Y68D01*
X838Y68D02*
X847Y68D01*
X885Y68D02*
X903Y68D01*
X940Y68D02*
X949Y68D01*
X2446Y68D02*
X2453Y68D01*
X0Y67D02*
X7Y67D01*
X27Y67D02*
X36Y67D01*
X65Y67D02*
X74Y67D01*
X97Y67D02*
X106Y67D01*
X183Y67D02*
X199Y67D01*
X308Y67D02*
X317Y67D01*
X346Y67D02*
X355Y67D01*
X398Y67D02*
X406Y67D01*
X448Y67D02*
X463Y67D01*
X486Y67D02*
X496Y67D01*
X519Y67D02*
X534Y67D01*
X556Y67D02*
X566Y67D01*
X627Y67D02*
X636Y67D01*
X741Y67D02*
X751Y67D01*
X756Y67D02*
X765Y67D01*
X819Y67D02*
X828Y67D01*
X838Y67D02*
X847Y67D01*
X886Y67D02*
X902Y67D01*
X940Y67D02*
X949Y67D01*
X2446Y67D02*
X2453Y67D01*
X0Y66D02*
X7Y66D01*
X27Y66D02*
X36Y66D01*
X65Y66D02*
X74Y66D01*
X97Y66D02*
X106Y66D01*
X184Y66D02*
X198Y66D01*
X308Y66D02*
X317Y66D01*
X346Y66D02*
X355Y66D01*
X398Y66D02*
X406Y66D01*
X448Y66D02*
X465Y66D01*
X485Y66D02*
X495Y66D01*
X519Y66D02*
X535Y66D01*
X555Y66D02*
X566Y66D01*
X592Y66D02*
X595Y66D01*
X627Y66D02*
X636Y66D01*
X742Y66D02*
X751Y66D01*
X755Y66D02*
X765Y66D01*
X819Y66D02*
X828Y66D01*
X838Y66D02*
X847Y66D01*
X887Y66D02*
X901Y66D01*
X940Y66D02*
X949Y66D01*
X2446Y66D02*
X2453Y66D01*
X0Y65D02*
X7Y65D01*
X27Y65D02*
X36Y65D01*
X65Y65D02*
X74Y65D01*
X97Y65D02*
X106Y65D01*
X187Y65D02*
X195Y65D01*
X308Y65D02*
X317Y65D01*
X346Y65D02*
X355Y65D01*
X398Y65D02*
X406Y65D01*
X448Y65D02*
X466Y65D01*
X484Y65D02*
X495Y65D01*
X519Y65D02*
X536Y65D01*
X554Y65D02*
X565Y65D01*
X590Y65D02*
X597Y65D01*
X627Y65D02*
X636Y65D01*
X742Y65D02*
X752Y65D01*
X755Y65D02*
X764Y65D01*
X819Y65D02*
X828Y65D01*
X838Y65D02*
X847Y65D01*
X890Y65D02*
X898Y65D01*
X940Y65D02*
X949Y65D01*
X2446Y65D02*
X2453Y65D01*
X0Y64D02*
X7Y64D01*
X27Y64D02*
X36Y64D01*
X65Y64D02*
X74Y64D01*
X97Y64D02*
X106Y64D01*
X308Y64D02*
X318Y64D01*
X345Y64D02*
X355Y64D01*
X398Y64D02*
X406Y64D01*
X448Y64D02*
X467Y64D01*
X482Y64D02*
X494Y64D01*
X519Y64D02*
X537Y64D01*
X553Y64D02*
X565Y64D01*
X590Y64D02*
X598Y64D01*
X626Y64D02*
X636Y64D01*
X742Y64D02*
X752Y64D01*
X754Y64D02*
X764Y64D01*
X819Y64D02*
X828Y64D01*
X838Y64D02*
X847Y64D01*
X940Y64D02*
X949Y64D01*
X2446Y64D02*
X2453Y64D01*
X0Y63D02*
X7Y63D01*
X27Y63D02*
X36Y63D01*
X65Y63D02*
X74Y63D01*
X97Y63D02*
X106Y63D01*
X309Y63D02*
X320Y63D01*
X344Y63D02*
X355Y63D01*
X398Y63D02*
X406Y63D01*
X448Y63D02*
X468Y63D01*
X481Y63D02*
X494Y63D01*
X519Y63D02*
X539Y63D01*
X551Y63D02*
X564Y63D01*
X589Y63D02*
X600Y63D01*
X625Y63D02*
X635Y63D01*
X743Y63D02*
X763Y63D01*
X819Y63D02*
X828Y63D01*
X838Y63D02*
X847Y63D01*
X940Y63D02*
X949Y63D01*
X2446Y63D02*
X2453Y63D01*
X0Y62D02*
X7Y62D01*
X27Y62D02*
X36Y62D01*
X65Y62D02*
X74Y62D01*
X97Y62D02*
X106Y62D01*
X309Y62D02*
X354Y62D01*
X386Y62D02*
X418Y62D01*
X448Y62D02*
X493Y62D01*
X519Y62D02*
X563Y62D01*
X589Y62D02*
X635Y62D01*
X743Y62D02*
X763Y62D01*
X803Y62D02*
X847Y62D01*
X940Y62D02*
X985Y62D01*
X2446Y62D02*
X2453Y62D01*
X0Y61D02*
X7Y61D01*
X27Y61D02*
X36Y61D01*
X65Y61D02*
X74Y61D01*
X97Y61D02*
X106Y61D01*
X309Y61D02*
X354Y61D01*
X384Y61D02*
X419Y61D01*
X448Y61D02*
X492Y61D01*
X519Y61D02*
X563Y61D01*
X589Y61D02*
X635Y61D01*
X744Y61D02*
X763Y61D01*
X801Y61D02*
X847Y61D01*
X940Y61D02*
X986Y61D01*
X2446Y61D02*
X2453Y61D01*
X0Y60D02*
X7Y60D01*
X27Y60D02*
X36Y60D01*
X65Y60D02*
X74Y60D01*
X97Y60D02*
X106Y60D01*
X310Y60D02*
X353Y60D01*
X384Y60D02*
X420Y60D01*
X448Y60D02*
X491Y60D01*
X519Y60D02*
X562Y60D01*
X589Y60D02*
X634Y60D01*
X744Y60D02*
X762Y60D01*
X801Y60D02*
X847Y60D01*
X940Y60D02*
X987Y60D01*
X2446Y60D02*
X2453Y60D01*
X0Y59D02*
X7Y59D01*
X27Y59D02*
X36Y59D01*
X65Y59D02*
X74Y59D01*
X97Y59D02*
X106Y59D01*
X311Y59D02*
X353Y59D01*
X383Y59D02*
X420Y59D01*
X448Y59D02*
X490Y59D01*
X519Y59D02*
X561Y59D01*
X590Y59D02*
X634Y59D01*
X745Y59D02*
X762Y59D01*
X800Y59D02*
X847Y59D01*
X940Y59D02*
X987Y59D01*
X2446Y59D02*
X2453Y59D01*
X0Y58D02*
X7Y58D01*
X27Y58D02*
X36Y58D01*
X65Y58D02*
X74Y58D01*
X97Y58D02*
X106Y58D01*
X311Y58D02*
X352Y58D01*
X383Y58D02*
X421Y58D01*
X448Y58D02*
X457Y58D01*
X460Y58D02*
X489Y58D01*
X519Y58D02*
X528Y58D01*
X530Y58D02*
X560Y58D01*
X591Y58D02*
X633Y58D01*
X745Y58D02*
X761Y58D01*
X800Y58D02*
X847Y58D01*
X940Y58D02*
X988Y58D01*
X2446Y58D02*
X2453Y58D01*
X0Y57D02*
X7Y57D01*
X27Y57D02*
X36Y57D01*
X66Y57D02*
X74Y57D01*
X97Y57D02*
X106Y57D01*
X312Y57D02*
X351Y57D01*
X383Y57D02*
X421Y57D01*
X449Y57D02*
X457Y57D01*
X461Y57D02*
X488Y57D01*
X519Y57D02*
X527Y57D01*
X531Y57D02*
X558Y57D01*
X592Y57D02*
X632Y57D01*
X746Y57D02*
X761Y57D01*
X800Y57D02*
X847Y57D01*
X940Y57D02*
X988Y57D01*
X2173Y57D02*
X2179Y57D01*
X2446Y57D02*
X2453Y57D01*
X0Y56D02*
X7Y56D01*
X27Y56D02*
X35Y56D01*
X66Y56D02*
X74Y56D01*
X97Y56D02*
X106Y56D01*
X313Y56D02*
X350Y56D01*
X383Y56D02*
X420Y56D01*
X449Y56D02*
X457Y56D01*
X462Y56D02*
X487Y56D01*
X519Y56D02*
X527Y56D01*
X532Y56D02*
X557Y56D01*
X593Y56D02*
X631Y56D01*
X746Y56D02*
X760Y56D01*
X800Y56D02*
X847Y56D01*
X940Y56D02*
X987Y56D01*
X2174Y56D02*
X2180Y56D01*
X2446Y56D02*
X2453Y56D01*
X0Y55D02*
X7Y55D01*
X28Y55D02*
X35Y55D01*
X66Y55D02*
X73Y55D01*
X98Y55D02*
X105Y55D01*
X315Y55D02*
X348Y55D01*
X384Y55D02*
X420Y55D01*
X449Y55D02*
X456Y55D01*
X463Y55D02*
X486Y55D01*
X520Y55D02*
X527Y55D01*
X534Y55D02*
X556Y55D01*
X595Y55D02*
X629Y55D01*
X746Y55D02*
X760Y55D01*
X801Y55D02*
X846Y55D01*
X940Y55D02*
X987Y55D01*
X2175Y55D02*
X2181Y55D01*
X2446Y55D02*
X2453Y55D01*
X0Y54D02*
X7Y54D01*
X28Y54D02*
X34Y54D01*
X67Y54D02*
X73Y54D01*
X99Y54D02*
X104Y54D01*
X316Y54D02*
X347Y54D01*
X385Y54D02*
X419Y54D01*
X450Y54D02*
X456Y54D01*
X465Y54D02*
X484Y54D01*
X520Y54D02*
X526Y54D01*
X536Y54D02*
X554Y54D01*
X597Y54D02*
X628Y54D01*
X747Y54D02*
X759Y54D01*
X801Y54D02*
X846Y54D01*
X940Y54D02*
X986Y54D01*
X2176Y54D02*
X2182Y54D01*
X2446Y54D02*
X2453Y54D01*
X0Y53D02*
X7Y53D01*
X30Y53D02*
X32Y53D01*
X69Y53D02*
X71Y53D01*
X100Y53D02*
X103Y53D01*
X319Y53D02*
X344Y53D01*
X386Y53D02*
X417Y53D01*
X452Y53D02*
X454Y53D01*
X468Y53D02*
X481Y53D01*
X522Y53D02*
X524Y53D01*
X539Y53D02*
X551Y53D01*
X601Y53D02*
X625Y53D01*
X749Y53D02*
X758Y53D01*
X803Y53D02*
X844Y53D01*
X940Y53D02*
X984Y53D01*
X2177Y53D02*
X2183Y53D01*
X2446Y53D02*
X2453Y53D01*
X0Y52D02*
X7Y52D01*
X2178Y52D02*
X2182Y52D01*
X2446Y52D02*
X2453Y52D01*
X0Y51D02*
X7Y51D01*
X2179Y51D02*
X2181Y51D01*
X2446Y51D02*
X2453Y51D01*
X0Y50D02*
X7Y50D01*
X2446Y50D02*
X2453Y50D01*
X0Y49D02*
X7Y49D01*
X2446Y49D02*
X2453Y49D01*
X0Y48D02*
X7Y48D01*
X2446Y48D02*
X2453Y48D01*
X0Y47D02*
X7Y47D01*
X2446Y47D02*
X2453Y47D01*
X0Y46D02*
X7Y46D01*
X2446Y46D02*
X2453Y46D01*
X0Y45D02*
X7Y45D01*
X2446Y45D02*
X2453Y45D01*
X0Y44D02*
X7Y44D01*
X2446Y44D02*
X2453Y44D01*
X0Y43D02*
X7Y43D01*
X2446Y43D02*
X2453Y43D01*
X0Y42D02*
X7Y42D01*
X2446Y42D02*
X2453Y42D01*
X0Y41D02*
X7Y41D01*
X2446Y41D02*
X2453Y41D01*
X0Y40D02*
X7Y40D01*
X2446Y40D02*
X2453Y40D01*
X0Y39D02*
X7Y39D01*
X2446Y39D02*
X2453Y39D01*
X0Y38D02*
X7Y38D01*
X2446Y38D02*
X2453Y38D01*
X0Y37D02*
X7Y37D01*
X2446Y37D02*
X2453Y37D01*
X0Y36D02*
X7Y36D01*
X2446Y36D02*
X2453Y36D01*
X0Y35D02*
X7Y35D01*
X2446Y35D02*
X2453Y35D01*
X0Y34D02*
X7Y34D01*
X2446Y34D02*
X2453Y34D01*
X0Y33D02*
X7Y33D01*
X2446Y33D02*
X2453Y33D01*
X0Y32D02*
X7Y32D01*
X2446Y32D02*
X2453Y32D01*
X0Y31D02*
X7Y31D01*
X2446Y31D02*
X2453Y31D01*
X0Y30D02*
X7Y30D01*
X2446Y30D02*
X2453Y30D01*
X0Y29D02*
X7Y29D01*
X2446Y29D02*
X2453Y29D01*
X0Y28D02*
X7Y28D01*
X2446Y28D02*
X2453Y28D01*
X0Y27D02*
X7Y27D01*
X2446Y27D02*
X2453Y27D01*
X0Y26D02*
X7Y26D01*
X2446Y26D02*
X2453Y26D01*
X0Y25D02*
X7Y25D01*
X2446Y25D02*
X2453Y25D01*
X0Y24D02*
X7Y24D01*
X2446Y24D02*
X2453Y24D01*
X0Y23D02*
X7Y23D01*
X2446Y23D02*
X2453Y23D01*
X0Y22D02*
X7Y22D01*
X2446Y22D02*
X2453Y22D01*
X0Y21D02*
X7Y21D01*
X2446Y21D02*
X2453Y21D01*
X0Y20D02*
X7Y20D01*
X2446Y20D02*
X2453Y20D01*
X0Y19D02*
X7Y19D01*
X2446Y19D02*
X2453Y19D01*
X0Y18D02*
X7Y18D01*
X2446Y18D02*
X2453Y18D01*
X0Y17D02*
X7Y17D01*
X2446Y17D02*
X2453Y17D01*
X0Y16D02*
X7Y16D01*
X2446Y16D02*
X2453Y16D01*
X0Y15D02*
X7Y15D01*
X2446Y15D02*
X2453Y15D01*
X0Y14D02*
X7Y14D01*
X2446Y14D02*
X2453Y14D01*
X0Y13D02*
X7Y13D01*
X2446Y13D02*
X2453Y13D01*
X0Y12D02*
X7Y12D01*
X2446Y12D02*
X2453Y12D01*
X0Y11D02*
X7Y11D01*
X2446Y11D02*
X2453Y11D01*
X0Y10D02*
X7Y10D01*
X2446Y10D02*
X2453Y10D01*
X0Y9D02*
X1202Y9D01*
X1225Y9D02*
X1458Y9D01*
X1481Y9D02*
X2453Y9D01*
X0Y8D02*
X1206Y8D01*
X1221Y8D02*
X1462Y8D01*
X1477Y8D02*
X2453Y8D01*
X0Y7D02*
X2453Y7D01*
X0Y6D02*
X2453Y6D01*
X0Y5D02*
X2453Y5D01*
X0Y4D02*
X2453Y4D01*
X0Y3D02*
X2453Y3D01*
X0Y2D02*
X2453Y2D01*
D02*
G04 End of Silk1*
M02*