G04 MADE WITH FRITZING*
G04 WWW.FRITZING.ORG*
G04 DOUBLE SIDED*
G04 HOLES PLATED*
G04 CONTOUR ON CENTER OF CONTOUR VECTOR*
%ASAXBY*%
%FSLAX23Y23*%
%MOIN*%
%OFA0B0*%
%SFA1.0B1.0*%
%ADD10C,0.078000*%
%ADD11C,0.039370*%
%ADD12R,0.137795X0.078740*%
%ADD13R,0.078000X0.078000*%
%ADD14C,0.024000*%
%LNCOPPER1*%
G90*
G70*
G54D10*
X2443Y1030D03*
X2443Y1130D03*
X1843Y130D03*
X1743Y130D03*
X2043Y130D03*
X1943Y130D03*
X1043Y630D03*
X1043Y530D03*
X1043Y430D03*
X1043Y330D03*
X1243Y430D03*
X1343Y430D03*
X1443Y430D03*
X1543Y430D03*
X1643Y430D03*
X1743Y430D03*
X1843Y430D03*
X1943Y430D03*
X2143Y730D03*
X2143Y630D03*
X2143Y530D03*
X2143Y430D03*
X243Y1130D03*
X243Y1030D03*
X1643Y1130D03*
X1643Y1030D03*
X1443Y1130D03*
X1443Y1030D03*
X1743Y1130D03*
X1743Y1030D03*
X1543Y1130D03*
X1543Y1030D03*
X1843Y1130D03*
X1843Y1030D03*
X1343Y1130D03*
X1343Y1030D03*
X2043Y1130D03*
X2043Y1030D03*
X1943Y1130D03*
X1943Y1030D03*
X2143Y1130D03*
X2143Y1030D03*
X643Y1130D03*
X643Y1030D03*
X743Y1130D03*
X743Y1030D03*
X543Y1130D03*
X543Y1030D03*
X343Y1130D03*
X343Y1030D03*
X443Y1130D03*
X443Y1030D03*
X1243Y1130D03*
X1243Y1030D03*
X1143Y1130D03*
X1143Y1030D03*
X1043Y1130D03*
X1043Y1030D03*
X843Y1130D03*
X843Y1030D03*
X943Y1130D03*
X943Y1030D03*
X2243Y130D03*
X2343Y130D03*
X2443Y130D03*
G54D11*
X343Y831D03*
X1543Y831D03*
X442Y931D03*
X1443Y930D03*
X143Y531D03*
X1444Y532D03*
X1143Y780D03*
X1144Y231D03*
G54D12*
X1243Y230D03*
X1243Y93D03*
X1577Y93D03*
X1577Y230D03*
G54D13*
X2243Y130D03*
G54D14*
X1944Y232D02*
X2342Y232D01*
D02*
X2343Y161D02*
X2342Y731D01*
D02*
X2342Y731D02*
X2173Y730D01*
D02*
X1463Y532D02*
X2113Y530D01*
D02*
X1843Y330D02*
X1843Y161D01*
D02*
X2143Y400D02*
X2143Y330D01*
D02*
X2143Y330D02*
X1843Y330D01*
D02*
X2342Y232D02*
X2343Y161D01*
D02*
X1943Y161D02*
X1944Y232D01*
D02*
X1742Y330D02*
X1743Y161D01*
D02*
X1443Y400D02*
X1443Y330D01*
D02*
X1443Y330D02*
X1742Y330D01*
D02*
X1242Y731D02*
X2113Y730D01*
D02*
X1243Y461D02*
X1242Y731D01*
D02*
X292Y1230D02*
X643Y1230D01*
D02*
X42Y431D02*
X43Y1181D01*
D02*
X43Y1181D02*
X292Y1230D01*
D02*
X643Y1230D02*
X643Y1161D01*
D02*
X1013Y530D02*
X162Y531D01*
D02*
X461Y931D02*
X1424Y930D01*
D02*
X362Y831D02*
X1524Y831D01*
D02*
X1342Y330D02*
X1343Y400D01*
D02*
X1073Y330D02*
X1342Y330D01*
D02*
X1342Y630D02*
X2113Y630D01*
D02*
X1343Y461D02*
X1342Y630D01*
D02*
X1243Y461D02*
X1244Y630D01*
D02*
X1244Y630D02*
X1073Y630D01*
D02*
X1013Y430D02*
X42Y431D01*
D02*
X142Y631D02*
X1013Y630D01*
D02*
X213Y1130D02*
X142Y1129D01*
D02*
X142Y1129D02*
X142Y631D01*
D02*
X1162Y780D02*
X2043Y781D01*
D02*
X2043Y781D02*
X2043Y1000D01*
D02*
X1180Y231D02*
X1163Y231D01*
D02*
X1641Y82D02*
X1944Y31D01*
D02*
X1944Y31D02*
X1943Y100D01*
G04 End of Copper1*
M02*